<mxfile host="app.diagrams.net" modified="2022-06-28T18:54:21.957Z" agent="5.0 (X11; Linux x86_64) AppleWebKit/537.36 (KHTML, like Gecko) Chrome/102.0.5005.115 Safari/537.36 OPR/88.0.4412.53" etag="6Rqhz4KYExdxGyGxIvp3" version="20.0.3" type="github">
  <diagram id="pVo-nEdmPAeU-AFb7idU" name="Page-1">
    <mxGraphModel dx="3206" dy="882" grid="1" gridSize="10" guides="1" tooltips="1" connect="1" arrows="1" fold="1" page="1" pageScale="1" pageWidth="827" pageHeight="1169" math="0" shadow="0">
      <root>
        <mxCell id="0" />
        <mxCell id="1" parent="0" />
        <mxCell id="dpe6i8qbhfzQBld6Kew9-1" value="RankingAndAverageRepo" style="rounded=1;whiteSpace=wrap;html=1;fontStyle=3;fillColor=#e1d5e7;strokeColor=#9673a6;strokeWidth=2;" vertex="1" parent="1">
          <mxGeometry x="680" y="80" width="160" height="60" as="geometry" />
        </mxCell>
        <mxCell id="dpe6i8qbhfzQBld6Kew9-40" style="edgeStyle=orthogonalEdgeStyle;rounded=0;orthogonalLoop=1;jettySize=auto;html=1;fontColor=#FFFFFF;endArrow=open;endFill=0;strokeWidth=2;" edge="1" parent="1" source="dpe6i8qbhfzQBld6Kew9-3">
          <mxGeometry relative="1" as="geometry">
            <mxPoint x="650" y="320" as="targetPoint" />
          </mxGeometry>
        </mxCell>
        <mxCell id="dpe6i8qbhfzQBld6Kew9-3" value="FindAverage" style="rounded=1;whiteSpace=wrap;html=1;fontStyle=3;fillColor=#fff2cc;strokeColor=#d6b656;strokeWidth=2;" vertex="1" parent="1">
          <mxGeometry x="390" y="400" width="160" height="60" as="geometry" />
        </mxCell>
        <mxCell id="dpe6i8qbhfzQBld6Kew9-38" style="edgeStyle=orthogonalEdgeStyle;rounded=0;orthogonalLoop=1;jettySize=auto;html=1;entryX=0.5;entryY=1;entryDx=0;entryDy=0;fontColor=#FFFFFF;endArrow=open;endFill=0;strokeWidth=2;" edge="1" parent="1" source="dpe6i8qbhfzQBld6Kew9-4" target="dpe6i8qbhfzQBld6Kew9-1">
          <mxGeometry relative="1" as="geometry" />
        </mxCell>
        <mxCell id="dpe6i8qbhfzQBld6Kew9-39" style="edgeStyle=orthogonalEdgeStyle;rounded=0;orthogonalLoop=1;jettySize=auto;html=1;entryX=1;entryY=0.5;entryDx=0;entryDy=0;fontColor=#FFFFFF;endArrow=open;endFill=0;strokeWidth=2;" edge="1" parent="1" source="dpe6i8qbhfzQBld6Kew9-4" target="dpe6i8qbhfzQBld6Kew9-6">
          <mxGeometry relative="1" as="geometry" />
        </mxCell>
        <mxCell id="dpe6i8qbhfzQBld6Kew9-4" value="FindRanking" style="rounded=1;whiteSpace=wrap;html=1;fontStyle=3;fillColor=#fff2cc;strokeColor=#d6b656;strokeWidth=2;" vertex="1" parent="1">
          <mxGeometry x="680" y="240" width="160" height="60" as="geometry" />
        </mxCell>
        <mxCell id="dpe6i8qbhfzQBld6Kew9-5" value="IEntityCpModel" style="ellipse;whiteSpace=wrap;html=1;fontStyle=6;fillColor=#dae8fc;strokeColor=default;dashed=1;sketch=1;" vertex="1" parent="1">
          <mxGeometry x="40" y="400" width="160" height="60" as="geometry" />
        </mxCell>
        <mxCell id="dpe6i8qbhfzQBld6Kew9-9" style="edgeStyle=orthogonalEdgeStyle;rounded=0;orthogonalLoop=1;jettySize=auto;html=1;entryX=0.5;entryY=1;entryDx=0;entryDy=0;strokeWidth=2;" edge="1" parent="1" source="dpe6i8qbhfzQBld6Kew9-6" target="dpe6i8qbhfzQBld6Kew9-7">
          <mxGeometry relative="1" as="geometry" />
        </mxCell>
        <mxCell id="dpe6i8qbhfzQBld6Kew9-10" style="edgeStyle=orthogonalEdgeStyle;rounded=0;orthogonalLoop=1;jettySize=auto;html=1;entryX=0.5;entryY=0;entryDx=0;entryDy=0;dashed=1;strokeWidth=2;" edge="1" parent="1" source="dpe6i8qbhfzQBld6Kew9-6" target="dpe6i8qbhfzQBld6Kew9-5">
          <mxGeometry relative="1" as="geometry" />
        </mxCell>
        <mxCell id="dpe6i8qbhfzQBld6Kew9-6" value="FindEntityCp" style="rounded=1;whiteSpace=wrap;html=1;fontStyle=3;fillColor=#fff2cc;strokeColor=#d6b656;strokeWidth=2;" vertex="1" parent="1">
          <mxGeometry x="40" y="240" width="160" height="60" as="geometry" />
        </mxCell>
        <mxCell id="dpe6i8qbhfzQBld6Kew9-7" value="EntityCpRepo" style="rounded=1;whiteSpace=wrap;html=1;fontStyle=3;fillColor=#e1d5e7;strokeColor=#9673a6;strokeWidth=2;" vertex="1" parent="1">
          <mxGeometry x="40" y="80" width="160" height="60" as="geometry" />
        </mxCell>
        <mxCell id="dpe6i8qbhfzQBld6Kew9-15" style="edgeStyle=orthogonalEdgeStyle;rounded=0;orthogonalLoop=1;jettySize=auto;html=1;entryX=0.5;entryY=1;entryDx=0;entryDy=0;strokeWidth=2;" edge="1" parent="1" source="dpe6i8qbhfzQBld6Kew9-12" target="dpe6i8qbhfzQBld6Kew9-4">
          <mxGeometry relative="1" as="geometry" />
        </mxCell>
        <mxCell id="dpe6i8qbhfzQBld6Kew9-37" style="edgeStyle=orthogonalEdgeStyle;rounded=0;orthogonalLoop=1;jettySize=auto;html=1;entryX=0.5;entryY=0;entryDx=0;entryDy=0;dashed=1;fontColor=#FFFFFF;endArrow=open;endFill=0;strokeWidth=2;" edge="1" parent="1" source="dpe6i8qbhfzQBld6Kew9-12" target="dpe6i8qbhfzQBld6Kew9-32">
          <mxGeometry relative="1" as="geometry" />
        </mxCell>
        <mxCell id="dpe6i8qbhfzQBld6Kew9-12" value="GetRankingController" style="rounded=1;whiteSpace=wrap;html=1;fontStyle=3;fillColor=#d5e8d4;strokeColor=#82b366;strokeWidth=2;" vertex="1" parent="1">
          <mxGeometry x="880" y="360" width="160" height="60" as="geometry" />
        </mxCell>
        <mxCell id="dpe6i8qbhfzQBld6Kew9-14" style="edgeStyle=orthogonalEdgeStyle;rounded=0;orthogonalLoop=1;jettySize=auto;html=1;entryX=0.5;entryY=1;entryDx=0;entryDy=0;strokeWidth=2;" edge="1" parent="1" source="dpe6i8qbhfzQBld6Kew9-13" target="dpe6i8qbhfzQBld6Kew9-3">
          <mxGeometry relative="1" as="geometry" />
        </mxCell>
        <mxCell id="dpe6i8qbhfzQBld6Kew9-35" style="edgeStyle=orthogonalEdgeStyle;rounded=0;orthogonalLoop=1;jettySize=auto;html=1;entryX=0.5;entryY=0;entryDx=0;entryDy=0;dashed=1;fontColor=#FFFFFF;endArrow=open;endFill=0;strokeWidth=2;" edge="1" parent="1" source="dpe6i8qbhfzQBld6Kew9-13">
          <mxGeometry relative="1" as="geometry">
            <mxPoint x="359.99999999999955" y="880" as="targetPoint" />
          </mxGeometry>
        </mxCell>
        <mxCell id="dpe6i8qbhfzQBld6Kew9-13" value="GetAverageController" style="rounded=1;whiteSpace=wrap;html=1;fontStyle=3;fillColor=#d5e8d4;strokeColor=#82b366;strokeWidth=2;" vertex="1" parent="1">
          <mxGeometry x="430" y="720" width="160" height="60" as="geometry" />
        </mxCell>
        <mxCell id="dpe6i8qbhfzQBld6Kew9-32" value="" style="shape=image;verticalLabelPosition=bottom;labelBackgroundColor=default;verticalAlign=top;aspect=fixed;imageAspect=0;image=data:image/png,iVBORw0KGgoAAAANSUhEUgAAAW4AAAG6CAYAAAAoDay2AAAABHNCSVQICAgIfAhkiAAAIABJREFUeF7sXQlclFX3fhSYMQe0AXUEQRAUcAFTcAFNMAUTsY/cl0ypL60ES/Gv4pKaJtbnltKiVli5L2mJqKgBpowl4wKogIIgxKLAqIDJAPk/7ywwwADDKuq9vx8K73uXc587c95zzz3veVrY9uj3BKwwBBgCDAGGwDODQMtnRlImKEOAIcAQYAjIEWCKm30QGAIMAYbAM4YAU9zP2IIxcRkCDAGGgC6DoDwCPOOpCBnKx+f7gnCqpDm7/4UY5TQDs7uYwkgHSL/xNSZGJULW7BZUgNa2VmijV16w4oK7kCZlogR64Fl2h6FAcb+46BEepSbiUUFDYy+Clc/76BS9HWfPplePkqUHXptqgvgN3+PvhpRDTwShrQg6BWnITspVyqCH1jT/NoJHeBhH8y6qw7wFTug3bxAeBG1AQtq/1c9NftcUNvM+gp0pn36XISckEGGnk7Vop17lX/R/U4rlowxhKeRjx/x/8fnt4lr2warXFYHnSHEbY+7oOeh7ewumxdbwxawOrceJECfzkVFSXaWq7/FMp+P0oCdYtf9nnHpShy9h1V2Xu8MTuZHSbonQU5/ip/uFkJXQj5Ztm7SawAGuqxbAkseDLq8FDS1DMQlaHP0Vti8LAfTs8eqqANjpF6BQpgcdfT50ZVm4FfQpgo8kNJyowr6wd3sF/0Tfr7FPgb0rbMzuILqBAdV1moVJ/q+Cn3oAP87cDino82H7Dt78fCzayy7g8JTlSKlRusoVdO1d8Irjy4jYoO3nrQB3Iw7jonAgXvV7FboHsip3WtOV1g8we0I7PNilg/7BMuTVVJ/db1AEniPF3TC4yKQXsCyyYfpqzF70BYbQl6Xjwr2HyOUUQHMtBWcRMv4sGXnjMWn7FNwPmIoTZx+VSWvmCGPD+7i6dDrCJP8AAhv0W7UOg6ZORKdjq/F3XSxQDVjo2vZGR9xGeMxjDXfLXyo4sgDfHKmxWi0r6KG9vRV0sjLxkCcEn9uBFJmi98xB0JHSwyxLgow6zVUPQofu4CeGIk3r3YEUUkkk8pyG4CVZPFKia8ak4mRbCEtgQEdkf14DU9oVwWmCv2tQ3K0w0HYiZnfvBnN9Xcge3EHo5X3YlJojt+7MLf+L7/vxsP3Yt9iXz23RWsFt8AIs04/EhyfOIBY98PmEt2CUcgEy0SuwfkkPedKr+Pr8IZwqUG3pdNHLcgw+7m0Pa26M/DuIuPwLPk/OVLMgO2C2x1wMuXsA+/ScMa2zKUx0ipGc8BOmRT3GXK85GGPAWXNU+vjhzz7cL0UQh6/Ax6nafSh5ogkIcR9AH0YqJdewtIKrhCccjX0jrXHpchrMbe1oLkBOVjhWhZ3BpX+fQN/yfZwZ1E0hA/27+q3eWM399SAcb/0WjJtK5WpsPBIL+/ZHX8M2wD93cSnuN3weG4eMUuVb3VwTYGzrg/39upSO8+U0R/nvpa6SlsaYNMALb3bqBOOXSEhujMTj2Hg5hqy5MgXPa9MbHzu6w7VjR+jTVy8j6xq+u1C2LjwB3R/gDne6b0D3E1LDsfF8hHyudSl8e0e0k93G1QqKU2Bvi5dlSYiMU65TQRIy0vIBUZm5q2PrgYFeg2Bs2hGt9YHC1Bhc3PoNktIK5aLo2E2A+ygdXI8ogY2XKzoKWyBXvA3Hgy6TK4YrCuWmk3oeaVLF545n54XBXl2RcWArbsRx9qINeix6G1YCxa4gdf9aXCknK7kXfN6FUVwIcmy98Ip9R+jmx+HihvVq7gkRPZ+84ejSDW1wF9f3h6GFc3c82LmF6pjBzNYQD6JCkO9ijtY0omD4++hdcAmZhsNRHBej/LwLYDh8GgZ49EZ7fR4Ksy7RXL8rnSs3lzZDpmGQlzPdf4S7p44hj+s3Ohplj0MhjD2mwXF4dwipj0epFyAO/A5/S9XXTqnwU0ORobXCl4PJSjNAoFrF3avnB/iieyH2/vkdPs19BCMTUjqvzkD+iU34OrcEKUn7sNFsLuY6D8Gl0Ajkm0/E3E7Z+OrY76S0VR8SPdiZtMWnJ1bhw3/aYtRgXyx79TUkk2LnlJm+aAy+GNQdCX/+iHf/fgATizFY5jwdhQ834YtcxRdTgZMejK08MPzaIXx84BZyeMZwEXLugSx8fmQ+Pkf9XCWyrP0Y/vN+qHzcGtdGxwROogv46Nf9SOHZY9WoSZhrcx3TbqQjP+lbDEgCqnOV6Lcbg6+H0lwv78eH4ZlAm1fw4aCpWCb7Eh8m3FMbsqq5AilxgRgQBxjSg+JI3wdYcHAvLpSzuA1gVBKPn/4IQUL+Q/DlY0zB6seb5XLKS6veWOU2DXb3T2Dj8UtIkBnA2mIgOrYmpVVA9/V6YtXr42GRcRxLg28gQ8cME/uPw+pBeXjrj0t1sPBpPvZdoZt6slRxKgQRoKNdVyDxJ2SqlIfAET0djPBAEoFMuQVKbYcMgiBXgujITBQUvQwb7w/hMe9v/DDvACkrPYjcRsHGqRUpy1O4fGw/Ml288ZrXNFjtv4IEeb8iudIsiJPQI0iA9l5+GDm+PW4FrlEqbW6YAkijIpBgNhxDJhghdWsFP4nQjlwtg9DOvhWuhYTjYpw1+vmOxgCvM0gIvCQfo+uyL/C6Fe2Cdv6Ae7wBGOw7B0JeLEK3kAxCG3Qye4S0XVfBc+oBgdlADJrQBpe3RqPnJ/eRFsWtjQCmPpsw2ukxrh3Yj+u57WH/zn/h4XsXPyxUzNXQ6zOMndoOyeSKi8ji7vuij+gR4nfdUkCqZ4neqz+DszABF/fvxCVZJ6rzNkbOikfQ2rPKBxlXVYHJg7joulnMek8g95AXKYZl/zYtAlUr7pbWmGhrhEtRa/F1KllAVG7e/AX7LBZjonknfJd7h5RmHo5FHsJAUmCfDGiLPLNuSI7apLS+yyaSfPM0jv3DWTpSHLt2EW+PdMCotmHY9KAFnLrZQT/rJD5PuCW3Om9e+wW9zBdgVDcLbPozvrzfVnoOq1TW6eM7OJbRtGBx8odfu4CbnNX5+BpOZxVjmcgYPFKINbtDW8Hdvh/4yT9j2Y0bivoFYfj6liO+tuwF84TwchYx6jrXfxPw1V9qvmEa46c7r+ILk87Q5x4wBFk3q9fg1CIay8LPIEJ+AJuLlGtl3lVzq6FwKpLgw8hI5QM4F5uu2MB1mCOcdC7hWG39/3q2sLA1IGuTU5xqRX6dj5KsLujp/S7pLSE6OTqiTdIOHN36p1LJFCFt2xKkqTX7x/ZN9HAgdwNakOI2g6llRzyO/hpH1/4qtzpbYAgGOXI2rbKQ0jU3K0bGkRL0WLYJg0TXEbrwc6QoLXZ5raI0ZJxOw0OvkeBnxSMtq/zOQteuH9rx0nB1y0pEyi3xa3jZyx09aWfHFf7wWRhq/xARc5cgRn5AeAtGw0eQJDFyF4auQz905HYc0TkwKWgLq1nvonXUl4gQToQL7TjEcYXQcZgLdzcdXFv6fzirtPbzrNxgNdwSQj2aq8gDw7zNkbHFB6dOcw96PTyyHwUrtwylu4PcMd7+eFV4EQfnbix9GOZZueBtJ1t6sP2h8KtzAgtsCZNHyFQpfPkstCx6Jeg3VAedinQQd5cdSGqJWoNWq1pxv2QCi9YvwfrVlfjz1fJj5hXIHQqKUnQNn4sv42f3ITBO3Y1piTkVBCxCRr7qBJ1uPbiHnCe0lePCDB60gXUbXeTk3EVOqdWYi4SH/+Dttu1pC5+gZt0VISc3Va1ehWGa4s+Sh8j4R/WFLqYDQfrSkrOSR2PXrLg7oBvN2ajTu/jDqoKw+S/DiC6Vqc76zNUAA3uOwWxrzr31ktwqkpcsXXJ5tCDFrQOLdu3pGSSGRGPUjC6s24nAb9sF308bXEHQdBi+RFZ5fnmlVqFS5T9FtugoKkBG9I3y9+T+7SJyB3RAJ1sL2kV0hU7Sdhz89CCkpf5exbb/FRdbGAoNoENg8wUiFEt+xkPuMyNXyveRGBRa6iowsKLIjawbuMftHqjI/dvUrtB7NWwN/0b4e1+S0tYUfSGAsUNXPI47rDY+14MeOjiSf/pGaJn7hCzbjqJiSI+k0n1T2Hr0wxPJ/3C9tF8BdPVpHaM4Fwa346D2qcGkTO/DIF8ER9HvOPBpPDr40ochaS/5t1vDwmMQWsf9hKhSFw0d1gpI8AI6uKWPmqGHJ0TSP7E3IrsURz4d+hYnKh4OELjAyc2cXEk3YTX1fVhxB8JUk29rTOsdSpupsnVrwbmuyOd/rZb+bX7PLJz61ATtyWI/u60Ex2WacCwVj/3SSAhUrbi5AUtycejUWnxxrzoTS5cUgblc8aCNJcxbXkJGhbXkkcIoLTo0JIWv1aVwirJmBVmXnpuqTRESojaQy0LdLaJ57LrO1dhyIr7o3RbB4YH4KDMLubQ7GNh/Mb54ufxSlyp0zcOjMP0APM5ckFvo9S3V+7djELLMH0lklerY+WL6F1MwwCmUDjAf0LAi2JCF/JrZNYh3BuHiXSlZ4b0oCuW/aBEdJ7fIde16k+88HhKVjxxCcot0JuX7s9K6VPpyKVIlblcYDMiy7+PVB1cCJZWnRTsAc8sWuLdL0XdZBc6qN0SuRFLmR5Y/DP7GxeiHZL06wtKqJTJDostcER3ogUIPq8wYzoWhdEuQzI/ItXd71zrcJ9/23wVdMNjSgPzxtLOk6Jqu9hTNtCtKzVdN7Wjc/KRomksn9Ca/+uPo75Fd+lAzg4l8J6Pwb3PKWES7gow4OoPiNgJFMvn35ZHkGCLi/lL77uihHXegWQf/duE1EYZMkuHVtx5iy1QRRoY9Ycq78iep0a9U/QLOP+lILtSHXTvDaoXQbzcSy3q3xqkz32BfcV98MtAehuqKmrM22pnIrVKu8NqawLiFFBkPuU8WWdcFxTBq24EUv0q5G5IV/hJyyErPL+e7rVYMullCFjD1X1O1prjPPZwqIXsXN+k7bm5iVQGfhhXIXGRC1vWf+Do9U660QXa2RVsDuVtBUehQN/seCoXWcNBRe6CWilGMhGzaIVV5v7byqvzbcVX4tyWlW/qSuHAkZZGf17G7YhA6dBzgmAPxp2tw5exFZMfdwiNTe4j0/ybXAGd1Ki3hJKXFybXSI4VpWYxMUpKKolSap7YjLOQXiE+loK3LeFh3qLRAgJUjOumnKftWm6fcqn9EO4ayPVEbR1u0zqI53SWMRWYQ8ApQIFWdyejBcJQ7qevbChcGtZf7tyUKP/RDySk6q6CdaQd7mIo4/3YyoN8BbfRboCBXWjawpRu6Wz1CSsRFlHAx4BQv/TC1LHRPx24UunPuDvnDgT77QnIfkTsmJugHXAz6vtxPjFjdr2gIE3ogFMTF1c2/TS6Sc2HF+JtcJraacFSDjv3aOAho+PQqByJf6b64uzC3fxvLrLqim6ADeol64+3+M/CxidJe07PG3MHOQMIBbEy/he3nTiLdzAufWLQtJ62J1Sh8aNIJ5m2sMduhD4zooOnYA84sL4Y4IQ75omFYaK0Yw4W2+W8a3Uf4zdq+TPIQyeR6NDbtgb565L5oqft0lHhBLh3mmWCIiRH0y8nwGKHk388ReeKLPn3Ql/y53ejAahRF7XzevUuDyZoh5ZSuJVxe4pZWF+bmb2Bi+/KPs5uJv0P8pDsWug6jA15DmAtM4NLtDUwyVHwcUtTuu3H325jDhV5KWeXsjG7lHsrVfCj1hDCwtKIXTpxhTVZhPoXB8elvgw5KWZT+7QekPEqjIYrikJqYB31bR7KbW0DXzJT8svRIlm+z9CCgOOjRswZDQD7oTLkPmixhOofJLY3IoEtKSziFs4S5ovJvy900Rbh35Bc6WO5Lh4o9FffV/hXYkh9YmqDBv62w6lMqWfVRCqs+KxUFspdh6tQbPD0BhEN8MdKjG3SVLgzOP86FIpa1Vwyqa8/1m0TXSeHLpPI49vYUZSPfkHZwgsu8MWgdvRvnxRQmWZSPQtqVtLHtrvismLrAxXcEhFx7pbujkJT6I307dKeoFUWh74GtE7oPKYt2UlwXgE/RJjpCEQxI2fM4d0xtS1ELcI8pXoUXq2rbDatfNwSqdZXEXvsOC0rewGz7GfjemQstkyIlOw57H3DWsgHcBkyCW1EkPr50U7GlfkjhcZds8f2AKZiYzYUIckIVQZJ4DRaO7+PntnrIvyfB5+G/l4bH5Wfsw4ILE7Gw13TsHKCLvPx0RPzxHTbdU48o0WZyj3HqcgiGDHbHpkl0wFSrcEAuBG8B3jYqs0BXT1knD+dLvrweE2vxQo9MGo7vrpvjQ2d/nOG+D2rhgPlZv+DjsH8wt+9obOpOKol85jkUYhkRndtgLqCUhP3YJJyK2W98itmyf5BD4ZeHb+fgvwZqfunHV7HsFOThgAtHjqTdTh7Ss6+Rla7Euajs/lz5feqH1kVy8xSdMWhXWjjSyyafDKM4CWUR+eItesan/zAT+w/cJp1rL4/fVlmhilpFyIwjnzFZs6YU0hcTTQe2+XMxbDsdgJPyLkk6i+TUQrSTSnCPcxdwSlnuO69oCd9QWMLUKeff5ny551R+47uncTHibYxzGw/LA7FIEs3EWxvHUR1V6UXhmyNJkcYjfPYcXEnTQXvaAegk/VIWJ62y6k8prfqCCJzb6Q6vtz7Fh6MKkBMZgWyKzW5JERul/u1Ezr+ttgbcTpT85gr/Nl2nw2DxkesYN+FzfOBCXxwKe5RG/ojDG35TPtjiEX3kIrr7zsXMA+/RwyyJHjD5KM5X223E7MLvp6ww0m87fGblo4R83Dr5qYinl5nKny4kIY766jXrY7y7ey69DBWIbQt/bbDPoHafEFarPgi0aNy0rj3lcdx88Uqt46nrMxnW9jlEgLPc6bBRNzcN0rsN4XFvRIxop6dDu8gSsxmYuvFV3F74HsWnV3c+VFkWHSHtUkRkzWbdoXceKp/ocPfbiIpQkJhKfmz1B4FaX0Iz6oMemfmUViBNLTCg8nB1v9Jaih+/N4QevTk5K7i4bi6Xuo/+wres2lXywkPDAGgWCBRJkUfulOastAUOHuhO0SjcBkvHbAi5OEaDF7EDUbVU2hzeJdJEuS9fk9JW3ZfGUShuVUqbqyRNhZTDrLGUNjfGo7b4av89tPUqwl+HeFjYpdrNO9eClQZEgKHdgGCyrl5EBOhNRnt3OHl8iBGUZ6U4NxHJpzdi385zz7nroSX+OtwOow5za155Z/AifhKacs6N7CppyqmwsRgCDAGGwIuBAHOVvBjrzGbJEGAIPEcIVOkqGeXyGOeuUCRJPcqDB1UcntSjT9aUIcAQYAi86Agwi/tF/wSw+TMEGALPHAJMcT9zS8YEZggwBF50BKp0lTxTwFi/g0NBrjhPGdc2xCqytWmW3xRzdm2Hi9gPYwOva67CrpZDQMfUll61ViQrKrvxiN5WpDdbKSRNpwPdFynuF1NujMKspCpD2eoDraHHPPQXXcTvQX9UH8PQyLRjVeV4KZYmIZvLI84KQ6AJEHg+FLfWQBUgRnIeeglcAqMGLDxnrD25Gu4qMoeKXaeH4L1x6yCRPWs+fxF6+v4PQ2xbEu2Y4rXoYhmFfuWfxeEZX+Bvei+yC933dGyJwnwZZe6jjHg8yogXEYgja4834EsZppQ5byiM4yKqV9qEe6PRjjl6Y9wioh2Tr62egoaNsFAlNc09shC7g2Irrjz7myHQKAi8YIpbirANqxHW0FDKruJb39nYxeXx4AsxYt6nmCI7iPfWKxWNLBfxz5zS5kDKQvTC0YimV7xdt69Hlyh/BKln1ZNn0+Mj5/Ac/LyNe/2bUrD6fIGJo6bC7khYGatNffFW5RvZXyEtrIZ+G4d2jLLqiNdi+3/WykfkD1+N93xbI2LGfMQoGXU0iMIuMQQaDYEmUNxK90RsIPbwXscMd2uYUB6R28EBmBxwHjJrd6zwGwdHa3OYkMWal34DYdu+xppgJYmC3Jr9BIZHf0aOwyg4W1AC2YwobF28CrsTNNOS8azfxMbN3jAMXQufDWLKr9EB3kG74WuncOnf3jG7gqtED29s/hV++A0HMQCj7UwoE0sawtevhn8w5dVQFgv3OVjh4wF7o2LcluxDJH8KxuV9CZf5J5Acq1IqQthz7yPk/Y2Y2OtlFiLPFksObkLfcHLTbCCiPmUxmbwOh6bnw3/cpwiXvYoNJ/1hGB4KmcMg2BjwkJccic0rNiA0pSzznLHLu1jiOxwOHBbZqZAEf4vPAsVq9Gdc561g3IqigkryKddzde6jUlGq/qXafNpcvhFVrhAp7sVloXiUCWRKapSaaMcgdMIgn0HIPR0F/eFvwtpMH8WpxxG69lBpTuxKfJEdHNDnndEwiNqF86dvUl7IhqAdq0gJdhi3iUzXKO5HRJZjhedyjHSHLpF/pKlTgcmZ1ofi8YENiClNRsXRk/nSjuUmzgWeQF4HFwya1QcPxSlo7+Ymz8fyMPogQgPPqKVyJdZ3hzcVVG0iLmFJEqKDNlOfjI636g/oi3eniQ4neTBxnwb3nIPwGTEaQ6YswY7Iu3KlxjegtLHxIVg3fzbGjP0Ai/ZI4ei/En4Oagwm9DKxo2s3RC5+By5DP8C2nF7w9RullgpWtXCUEdDas4LS5twTWQjyHoa+jtOwI16zsud6MCBlaXBoKTyHjsGso0Vw9ZsBVzkzORXriVi5fBTlXdmA6VM+QmDCK3jDoZVq4Jr/l8XhYGg6TFw9YKfqkxLwD3XviTzxaUTKOTu5woO9UzscnTUFLiO4ufbFyjXvwFqZlU/f6QNsX+OKwqObMXPsdMwMiADPcxFWTrYsL4NwKDaNX4rv+1rWO/OgKp92SjkORs4toeCLLMt6R/RdLpSSNfUSJYPi5qNGO7b/e5zZegj3RMOJduwNOeciV3Tt3GDvPAj9vPqhSHwYUeIctHGeCkdHFbYqvkhFWliegze8vvgYnbN+wwW50uaGUdKOJemioyNHGlDhTT6y2Dnasd4TxkCUdpYova6gmJhlBni9opSClDZRgk30HYwn4gOI2Pk7Wozyg9ubfSCgV+7LFSJQMOVyYFMCKTlLu6rIM/s5w9KSy2eoLB2GYxhlM9SRU6bRXO3d0MfZDQM9eiD32E6cPZVD6V998NoQVTZNInLw/h+mznsNT6JDcC7oZ6IS6YVhi95DR2LAYYUhoEKgCSxu5VDJv2J54FmFVZh/FUeVRlqhZC9WqOW0T07Zi/CxG9G3lwmgzF/M9RAfup/acEo3CSdP3oTPTFtYk9tVrPYdbWXhgY0+09Us7dr5lAtjj2BrBEdD9gTRwX8heawr+nbRQXh8MWzcR8Au5yxmrz+FGM7tsW07nN2/gmctPkvxR08iefKb8LR7iXztlMzUfBA8rR8gjDgL1VXN7eCdOJrBWdhp+G3HGUzf6gzPXt/Rwas+Xp/8Onjh6+D/41lFm5TvEUgPnK3ug2GxJwnJtcphro3w1fNF6uYnwHTCOzDS06cUrg7EunOZrOXtymT/NdGO6cqZZfi5lxDy6TqkcNnzBC+hh5d6GlIVX+QN6I9fjfFeLyF6w8eIkqjlKawn7RhMPTBCTgk2FydOcykSiRLMlngsR+VUZkAXcTm0KSNhVAW3DcmQTTrexlRE7e/SjxBd6bBcRBb7LiXNWEdiwdGllMYhq9YgibPW9fKQNGq9nPiBuMqgS2lrR3rp4uLcj3AlSbHDSsm3g91qGyL9bYHMcmS/2qwdq/O8ItBEiluGnIREzbRjRvZkYbyHyc7kQiHXgKrcNlI/v5fhYXpZAvk87oCMzyuj5eIa8UUY7e8DPl+K8wl3NI9VwyrK6JuXp1J8eQWkGGkMylvMsRhaWHREYcYxhdLm+pElIia5sFaKGynhCI6dgemefbFecg5dRg8lQl4x1kgo33JpkSE9maPDUhb6PZdS8ptwOdATzGBjwUc7k2W4MGKZWhv6lVxMRiRqsuoJID2OiT8fL1+nLn/VwBdZWECkAZQ6VWBKvIhFlxC6YA0S7qp2DzXQjsn5Ig3pMPOIQmlz8hF9mZCOPW8lKl1Dcv82H7pCH4w11EfqFu/ySrt0TnWlHQPaEyVYJ6IE2xlRRjbA1yeXTWJ4WSpX5Th8Lk0sxx0ZU9F1kYWHlCNcICLaNOKZbEFKeIh9Bs7NPaF0g1jKeTdzIg4olLa8P31ivqNIHCln1dNB8PihlA88Fm2Hv4NBysNgXZp/a1k6Hf7WzggphYX98lwi0ESKm/j+ChU0SuVRFGDovKXwIab0Nb4zcDI2g5SlJeYc/AouZPWoF5kWh3vJh5ZgC97Ger//w9iYeTiUUruUmo2/wlk4efQyZvoMh7N+Drl/zJEcTv7LClYyT/mlLZWnXAxaEeJ3+GJy4M3GF5cboQb/dtyGhQjjHjyCIfDYtpSYy/sQ6zm3haqZdkxBckDMMEFKhnJqpWCWKZ9PuyOxy+RE7MRt25kY4OEFYcj28m4KTs660o6Ru8qMKMHyq6EEKwO6zL9d2fol4yQrF7qWxNcpcED/Wf3xYJcfbqg4KJVsNylitXWzskdHykl+O47YfASD5fRnd8WpeERhlRztGFdkBWJcIMq0tOqyAZYJyH57QRBoIh93VWiawcHGgJTXLhyVK20q+mawKGdtV9W2wvXCLFwMvYjIwE3Yk26NOYsnwEJbtpYahyhCcjIxuBjbwkbln+ZZwZqs39qW7PCTkPAdMHrmaLgaJ5Mij6/QBQ+dbKxK/dI8+t2Ytt7p6WSByigpfsYTWNjZa/DvV5SEDieJZceYckTXp2jt3yYFc4MO0NraO8nZa1Aj7VgZX2SVzDL08BYSN6JO4nEc33YUlw+cR6HVcDg6qfmRVZOrK+0Y5ftuQ1n9HuXfL4WpIiVY6Q3yb8vZ6iv6t+UVivAwjXaFIlPYeL+P7rmHEHqk7GBbznbDuw9plmpLRA+B4c4wSL2A6xwDDuXQbk2Po7RjlWnHokKulHOl1Wc9WdvnA4GnrLizkEAKycTOERacQuSJMNR3CpwBk66bAAAgAElEQVSqiofWBnM6BPx25QGk95qBFdNt630wpxoyPvQkYowGYr6fC6zNO8N55ntwN6oDfPmROBr5D4ZOIWaZ2LM4maJyK5RNzsTdG74u1rCwdsYcn2Ewio8kFwsXMSzFCfJ559Dc1vt7wMG6M6x79cPo6f+H9T6O5efKHU6OqevhJFFemVJCf0tbWDl1ha6UKLFE5AoxVfGPCtDRriuQWMYXySmu9JhEFJOFbtpBG9ox7fkiC5SHe8Xi/cSm9BJsxntS1E/5UmfaMTp8fJhbSO6eIWhHFF48Ww+4+5WnBCsdifzbcrb6iv5tZYXC1EwUGg7BIJcSXNx2SC2OXcF2Qx59YrPnMOQiWHzh5qZD7DR7FecBlIdbSvRn5m79S9dRhwiHrYj5veJcK0yd/fkCItBkrhLN2JIiWk8hcit88OPJKSjMy0Wy+BROxneGneYGWl2VJfyMFdtewY6Z8zFL4oNtJgsRusal7Atg8xUuzaCuCi9g0WtLEKqKtKuu94R9WL5ShBXzFmGvZzHSKRzwZGwPvFFdG433inCeDj6zR7jh9smwCiF8XAMZokIvo4vfOuwhv3ZeTDjWLA6i6AKFjzNf/CV8Fudj/kxvBHpSOCAp85yE6wjbodyxaByzlhcFLnj9qwWwLI1+GY43Nw5HUdRGbF8WQozktmR58vEgQo0vkoYopLcp8yjksxNZpTXSjqn4IsUxZdakOnM6J3Kl+O0kXCPKrQF+I+Ho8AvCCt6uP+0YHQDH7gpGt0Xj8NbB/xCzTCQSUnMpr7YaJZgSPr6cI1KTf1tZgbgnOc93waltuKwWEkiOe4p3Jzb3qCh08PsRH/g+ofOZu7i29VP8LuZIj7lGYooi+Qtes5biQxciHqYoFT65iO6eCsQhZffsP4aACoEq83Gz7IA1fUhEmBq0A5MTFmNMwOVabWXbea7BIT8e1r2xAEfz1Cxunos8jltv/Xj4Blc8/KpJnmZ4/1miHSMrWEePaMco/M51ewCMjvjikJqro2Z06ZDWexMmuiTi8OyN5fklO4zHpO3/QfrS/+JsWns5NVmV1GNKzPgycqsQ+W8J823XDP0LWOMpW9zPEuIiOI3pD35CFKKITt7EdRrGWN+jUD7li0LaTIVHPmeL3nh/Rh8URv4PYepKW5v2z1odOe1YhTjo5jYHU2JBt6UDUvENPOJZw2bWHHSXncDhY8laSipAa1Mz8u17wc3jJVxb+10FUmAuflvBEi/mfNlFRCtWHSRKzJ6Dx7aW+LFqdUGAKe5aoNbezhM+vj5oJ3/D8xbCAj7DFi4eW8ti77MeO6aYIjsmFGs2hIOlJNISuEaspmvmiL7eIzDCjw6a8zORIQnB4YV7kamtpWs6HO6fT4EhveEYt2EJIiUPK0hLL+bYilAQfZjeYGUhfY24lC9U18xV8kItN5ssQ4Ah8DwgUIewiOdh2mwODAGGAEPg2UWAKe5nd+2Y5AwBhsALigBT3C/owrNpMwQYAs8uAkxxP7trxyRnCDAEXlAEnrLi5vJgh+BSVJj8R7yOMt/VYSG6TP8W4oMf0Us7z2HqSz0b2C9aDDvbWqSQrQOGrAlDgCHw7CDwlBV3EX6b40F5st3hH66eIe/ZAbBqSYWwWrQdY717VV1FmztmzrBzMKZQNfXEr9o0ZHUYAgyB5xUBFsfdWCtLr4V3JYVbuDWtfiMkBWHX+KD69cFaMwQYAs8VAk2guPVgQVRb82cqqbZkWYiP3Ic1S46U5t+oFlGegrpMsH4KvQaeK6/Kp1fGw/2K4D9iBdF9KV9qoLcSXZdvxnr3XjCgLHqSQ98ScQNHW6b+0kPD0Hnx7LzgNGEoJdQ3hI5MCmlcCMI5aipOOFsvuE+lNyx5HWBKye8LPBZgtAtdL7iAc2uPlqYj5Q+ZhdfsU3AxoiXsJ4yAMdFUFcYdxMkNHMkuJSUa7w9He4V75LF4B06FJJSDydBrEfoL/0KstA8ch/dAG+r51q71iBSrckprS8VVLfrsJkOAIdAMEWh0V4m+E9F8rRkF/dgg+HhPx2TfLYhAe5jUxZldDYB8E2eMMAiDP43hsyUOFpP9sdizQ/kWDUDnpWPni0mfjIVB0nGc2/oNzlPKzUJeWepUnfxU3IqgBPwyAfhZEkSHhCOe/o6PuI6HpQ8RAczcPGHlOB7DvAfgsSQUl0IuogCq5ygPhWkXEC/OJHqw3pTusyzlqGJClug6fCj9TECvDgmI3v8LMonTsv/U15SJtGpBxVUNpuwWQ4Ah0DwRaGSLW4jXZ1Ba0tjv8F5AiDIT3h0ELTnf8GgUxiEo4AgkOZS0KeFLbHMdDP/Rg2EU/Eud2HA0C6iHzl6uaJP0E3YFnVDwHSISiSFltUvSJEhKE6Knmy/y407jyumzlbuSJ/3noyTtBEKWHkSe8lXoMjKsAuSKQ5Fr2wUDkYq4aGUGOVVPQhtihSnG3Z0bceIAl89bD//YT4C1rbJCbai4KkvHrjAEGALNHIHGtbiJbMDOvAWSY6I1pC9tWGQKc1KRnKdyixTIiQ9gZEqM8mpFTuflB48/a5EYqoKYT4iZRNd2CsYu+hivUK5koVDD1kHJxpIZFa15ksqk/1eDjpYqbU0Vq84x3Y/Si8bgSqn7RB+GZoZ4nERpVakjFRXXhUpUXJVTlWoal11jCDAEmjcCjau4m/fc6yAdMeFsWYIjO8/jvtAa/WYtx/TApbAUVghDtHVER14yEc1WTDikGFKhkGORpOJV1CiJikMxCtJyyYlUBAQSJHPkulzRI15Gy2JkRsfRHyoqrkglYS9XwQwmSuYW7VNiaRSKXWQIMASaAQKNq7g5Qt0Ubam2KNytIteiHCAiU6VsmHw1ImETI8PyRMFUi29ElGelzDkCObkv0tNwu+LhZH3pvAqISf3AZoQu/BBBa39HgaEpDIXlYWxja4PWWXHIuKspGxz5tx26EhGtBPeqyxan4lAkZVyeOVNBsJsbV5mAQP6gqA0VVzP4ADIRGAIMgdoj0LiKmyIdTu5WUm3NI6otovyyIKqtcf5T4VTKrsIJXYSEmDvEUzgMUxzMYWwsgr7qPqf8E/6FjSsxonPXjJ0xY7R55ZnybeHt7yUfw2HMR5jpUEJMM3+UT51aLzovAdoPd0fHDkrXiB5Zti7dwU+8gMQkdfoxOhg0M4IuPYR0BZXF5EhtO1m2oPShNyoo5Ap168qhWBsqLg3isUsMAYZA80egkQ8ngbwINaqtKUS1lacMB6zwPsntPV8j0GEZZm7dgTmkyM+vGKtkgZHit8DtcFrjjT0nxyMn/SoORl5H4ejy4BamR+Jk3lAE7PZVhAPuWYmA0HsNtwKkqLt4+cKZGOSL83NRwtMnq/k0Qtb+WIFxvAj3xJHIcBiBSQdH0vhZuLSAmE9iHitkUSrk6IoHjtxdPQcM2xEAO8My14vr9pNwpV3HrfVTEXz6PnTtFEn5JaXUWEKY2XbG47iflXJoT8XVcOCwnhgCDIGmRIDl464V2kRv1aEj2hgKiJMwDXl3mzMVQn2puGoFDKvMEGAINCECjW5xN+FcmmCoIpTcJeqpu00wVF2HqDcVV10HZu0YAgyBpkKAKe6mQrqJxqk3FVcTycmGYQgwBOqOAFPcdceuWbYsFm/BLvphhSHAEHh+EWjkqJLnFzg2M4YAQ4Ah8LQQYIr7aSHPxmUIMAQYAnVEgCnuOgLHmjEEGAIMgaeFAFPcTwt5Ni5DgCHAEKgjAs+X4tYfhe3nD2G5k6ZXFuuIkLbNer2PQ0oKtktR38PH+jk797X0wGvL/otOgueQHk7bNWb1GALNBIHnS3ETSUNkOJEL5FByk6Yusd9irONQ9J3yM24/heGrnK6tN8Zt05AIq8oGmm8I7F1hY9YKhYxBTTNA7CpDoAkReL7MQlkU5fqOakL4mv9Qbewc0BFxeCitn6wFRxbgmyP164O1ZggwBBoGgSZQ3KaYs2s7XGIDsYf3Oma4W1OO7CLcDg7A5IDzlIWDaLqI2myJr5LaLJtox4K/xWdEO5ahzOzHs/bEyuUz4GpjgLz4SOyObYdZThnwGRcACUddxnPDV5GL4STHRIpffadhpbigHEJGDpOweN44ONtw+VJojKPf47MNZ5VjcGzzv8IPv+EgBmC0nQkxyaQhfP1q+AffVvRDDDNTl8/GGAcLmLTTBzg5Q7/HusCzSFbRp2m7Ji0NYEy5qgpl+cj9V1MGQW06EsBw+DQM8OiN9oY8lORmIf30TpwNuU7Jq4SwmDkfdmYt0NrSmnh1dDF41Wd0XYackA1Eb6ZKNyuAqfd8dJf+iiv5AzHQwxFC/Ue4G7IVJ45cIyFs0GPR27CSu0dkSN2/FldUOVfkIprCxuddGBF1Ww5Rtr1i3xG6+XG4uGE9EtJUibdEMB3vDUeXbkSvdhfX94ehhXN3PNi5Ra2ONvNldRgCDAEVAk3kKuHBxH0a3HMOwmfEaAyZsgQ7Iu+SKgD0nT7A9jWuKDy6GTPHTsfMgAjwPBdh5WRLhYw8e8xZMxvO+afhP+U9+P0oxQj3npTWVc3XKjuF2ZybwnUdJIUaFKGxOz5dNwM2ybvhM4UbIwpGYxdj/XQVZYxiKAOHQTA4tBSeQ8dg1tEiuPrRw0KVpZBnCEMiL9gRsAzTVXK6+2PNZKtaf5qMrabjyPgl+KQTv9ZtFQ30YDj+M0z07oYHpKzPbP0ZUeIcykbYojTjYEFchJz6rIV+EdLFx3BdTp8WjoREtfwqlKnQZvggmHm8g9dcWiH19GHqJwUlKiY2vQJIoyKQkKSLjo7ENC+t4CcR2sHebRB6TxgDUdpZXNx/BcVWbhjg9YpyXiJ0XfYFvEa1RdqRHxARcg82vnMwwInrS8M61REN1owh8KIh0AQWtxLS5F+JvFdp4eZfxdEU7jpRm01+HbzwdfD/8axckSPle8oSOAhb3QfDYk8S0h3c4W6RjQOLv0N4QjHRkn2DbS6Dsd5O+6UycfVEX1zCco7aLJ+jNvsGW5wGI3C0O+x+jEOMsqvC2CPYGpFOcjxBdPBfSB7rir5ddBAeT+PmR2LLysiyQVN+wg7XEVjv3Bv6P94qnz5We9HqVpMUrv2orsg54ovIEOWOAKSYS3uT4t7ZUNyzs8Fgykh+cf8xJNxVTz2rrMhlKjQswuOIHTi47ZJS6ZOSV/VTlIaM02l46DWS+DPjkZZVXtnq2hETDy8NV7esRKTcEr+Gl73c0ZN2VFzhD5+FofYPETF3CWLkFvgtGA0fgSGEeJqKBKJUZvYLQ4AhoC0CTaS4aYuekFiZ+5FnBhsLPtqZLMOFEcvKy5x+A0bkTsg37ggDcm0kpKgUTxHiEzJRaKetxaYHEwtDIlW4geR8VRtl/m/3jjDmt0CM8jBRli0l6i9lnbwCUuA88PW5/NukuCGCs8+H8HXvAwsTgzIihxgeuVVakOLWVh4g42YgBtzUdok01ysm2Uy8FmKkKArJ0ReRIo7GowrEDNUTOgByJp5cMQ4HXa4mN7iKieewZiaeG6Fl7hM9S3QUFUN6JJWENoWtRz88kfwP10vdJgLo0g4ghyjdGBOP5nVlVxkC2iDQRIqb/LkUjqA5IIEU8Q5fTA7UrMnaaTOLJqhjMub/sH6yEEdXzodP+E3kyHThvHwX1ls0weAVhyiKwbml/njo4Q5z+yEYNmoiSqK3YefCA3LOSUWhPN2O5pSneyeyNT5UFAq5OO4IMrVh4tlVBROPRFKmhG17E2Xb37jIMfEIHGFp1RKZIdFlD4UORLEmKkBmzK2KM2J/MwQYArVAoIl83FVIJEtFfEb11GYPMzKRZyCCtblKVD3YWHcs7+OuonvFZfLxJucCJkRtpq/yi+vB2q4zmb6ZyNDkE6/Unx4suPqxIdgcmkBKm7Ou9dFF3fJWtSHrnTtw5ZVj+KnQIR1OmhOFmmHLesREE5t89LYAHKXDwX3H0sE3tUQbPbX+yJ1iSkw7Ch7KShMi0gaOab4RmXhEZhDwClAgVcVGkl9+lDvtW24TF6eSVEKDWOwSQ4AhUDMCT1dxUwTIiR1KajN/ojaz7gxrojYbPZ2sWx9HcgaQEpSEIjTZBOP9/gsn7r77B5juXDs7PD38JHm4+2KWktrMjvrwdW+L+PBT5G3VxsVRhAyONd7cAUONuQNFUuSeH2Byr1aVEc6IQ0peBwwaOxTW5OYxNqIIlAqFO5zcP2Zh3Q4nyR1hQS4IA9WLMEJ7WNsa4oEkorzlLOyANvSg0tEXVhxe8XdV1GgValfNNK9g4kmpxMRD5MYcplmpKJC9DFOn3uDpCSAc4ouRHt2gm8j825oXhF1lCGiPQJO5SqoSKV+sRm3mSaF69LXPSbiOsB0ZCteKLBqbF38FIwoH3LD7TciSxQgKvQYbJ5XjRQ+O/kHYNrZT6RAOW4LxH+6vmG1w896LnIxj+GSxCIv9piDwkK+cPi0meD3WbLtRlViVrt/eswnrrRfCd/dB+Bbmk4zhOBiejlkmFarKIrF5QwjWzJuHvaNJyScfwaRxm5Gg1QOi0rCVL4js0Md7Nsx9i1CYL4MOPd2k4u04suXP8n7quzG4FpkOF++t+HhWCxRHB2Lbwl9L3VUqhZxZ4cBRPqDtLLy1cRzKHo+98NZvRMMmi0f47Dm4kqaD9o7doZP0S9kho4pp/hTHNE+lIALndrrD661P8eGoAuRERiCbolJaxjH/duVFZVcYArVD4JmkLrOf9wO2OkRg8tSfkNxQCrF2uD3l2gLwTIlCjSzqR6mJeNScIzT0iEKNDndLzGZg6sZXcXvhe4iMK89b/5TBZMMzBJ45BJ66xa0NYhYuY2BHMdRRMWSFW7jSSzwmiN9z7gVV2hxiFPGSlkiHjs23CBw80Jn2GYnRFPdpNgSD540GL2ITopjSbr6LxiR7ZhB4JhQ338QeM6Z7YzH3xiLn5gjdgBUU481Kc0VAD23s3eHk8SFG6POJWDkRyac3Yt/Oc1VEFjXXeTC5GALNE4Fn0lXSPKFkUjEEGAIMgaZB4ClHlTTNJNkoDAGGAEPgeUKAKe7naTXZXBgCDIEXAgGmuF+IZWaTZAgwBJ4nBJjifp5Wk82FIcAQeCEQYIr7OVhmwZBZGDnzNbR+DubCpsAQYAjUjEAzUdyWmH/wOPb49KhZ4iprNEQfVXbeKDfaeK3G26vGUXbB+hRKFuXiio76xWhOjGn1mRFryxBgCFSPwDMRx139FJ7Vu0KYcHk8pKFqGf3qMpcC3Fo1mTJds8IQYAi8KAg0fhy3sTP8VszEG73MybIsQHbGLZxcvwLrxfeJcsweSw5uxFiTioZ/Ec6vGAvfYC5JqZDyYH+Mme690MXIEDyZFMmSk9gcsB3iHMrRrVUfVM3aHfOJ0WZEL2OSQ0rsMIexbsVOIlYon2SKp2cAIx16z+dxXt3JEfRMYfHWNLzi0BVtOIoyaRKu79yMmBiaj54D+i0aS+lPBWhv350ICijpUhZnK9/FtS2bkaQiPNCzgb3fZLQ8tRP37afC0aEzuUKI+isoAFESSptq6gaXWUOJDoyKLAmXNnyPv9VefdexmwD3UTrEfFMCGy+yyIUtkCvehuPqubeJwaaH9yTY2RLlmDQGYsoy2NW5BJfW/4Ls6lK9vijfDjZPhkAzRaCRLW4BRvgtwDj9c1g+6xPE5AkoPaozuhAHorxQAqnP3hiGz8C5Ob6CQ7gf5eUu5V9RQsYjlpUChG/7AusTMpDHs8RU/7lYuzwbY+b8QilWtejDyBVrN/vAXLIDi7yjkKHsI2DFXUyeH6pG8KALN2d/fNL5b2w4+A32/aOBNabGhRTB9pP/4VXBXzi3/1s8LBLCyMEBfB5HxkCFJ0WGOBwPLYfD1DENt0JCkSJ/eBBrjTqdl5Ur+rj0wBNTPzxMkuBaSBRaWTriJSW7DGSZSCUqsrZOU+FilQ1xuWTnehC5jaJEXK1IsZ/C5WP7kenijde8psGK6MUSOAUvdMJrny+BlfQMJYM6hn/tJ2CYnxsEibtxjintGleZVWAIPE0EGllx66OdER95yZcQGXtHbsFmpNyAuFYzzsJvG75Qa3EH6/a4w9PPHna8XxCumZ2h3AhdPCfBKf8MZq48jBh5Lu07+F+gI1zWucHZ4BSO5mmT2lVLoU0pPa19CeKXfoMbSmLdv8WhZY0LkpB2Ogltxr8BndRLuHwkVCPRAZe9T0gviF/dtQxhYlVWkmNl/VD2vyTqp6uLL/LjKJVqOWVrRrm4O+Jx9Nc4uvZXOdFBCyIMG+SoOr7kSILfRw+cwN6lXymsa0lr9HBbQMQLLHuflivNqjEEnhoCjay4sxB59DKm+y3EL7veQEzCLUgoN/ZvETdr4Yag3NeUP3v+zCFwMDYCn0uHzZVCCQxacMQBNSldjjSBiBcsbPBjpFcFoJNgZEh9lNLGFONYxGKoqcc6LEw+5cLrgJ6+y6EjJkqxqCikxNypQA2mZKdJ2q9RaRN9DIzJzfI46hucL1XaGkRRkiHcq8hOQy4Qc7P7SAwKLWWnMbASQSfrBu4VUD8CJ/R1aYfUrTS+SuGT60aXrH7GTqMBZ3aJIdDMEGhkxQ3c/mUxPCW94ercD45E0Dtr/WiM3rEA0wOvapdwyHoaApa7IW/POkzeISbeSBn47isQvrwyQUF12BZKAuE261AtHhjV9VbNvbQDOLy0AL3d+sHc5S1iQH8Xd/cvxO6g2LJGSoWbuTVac0cqdppdUdVjpCRDiI4unydQ105BciCpRHLws5zkoIW9o5yJ5kJUWTt5G7p2lbHTaF4TdpUh0IwQqHgq2CiiyVKuInTPd1gz5z34H30AC6dXYEKbd/XCeTw4xpuKhW/dFRaU0vXg9j/kSpsrFnLqsspFcx8cMTDHXmMHR/2ap6uvJyRaMQMiJqt7kcWE4OKGlTg4Yw7OJupCSLmz6byzrNg6kt8+mSi86JBRU6kXO40eOjhaEcmBGtOMiuQgWkFywBMKyaaXEq2Yarcigs2ofuAzdhpNq8GuMQSaHQI1a7J6iWyKN+Z9TPmz+8hpvCx6DcUIOwPyeadWcBFkITn9CUwcXOBAVF88HnE2Ksd9knwHOXSY6NSXY8chpkfrN+Hraa1Bqqr7uB28l/zqA7F4zUy49+pMip92AGPeJUt+AqzLPUB04eL8f0Qr9jZGvVQHaEydYO3UtVRJ82ydYCkil0XElXKuEl2RiKJN9IhBXqBhHkr2dWkCNLLTlLZQsa9r8G/bGiE3LqbMWleS+KoeFDIpKW2eDclqDB0BcXHO9IezfSvkMP+2xvVgFxkCzQ2BRnaVFJD72AyTfVYSxZcB+IVcGN5u+G8Ir+CyKMCJbd/BZcUMBJ6cQNZ0WTigLPZnLN/WmZTuD4ggpvi8nDgcDP4TdpP1KmBZdR/ICceiOTwKB5yC+VsnkktAEZYoObqPIkoarvBtKUTP71V4yPKJb5EUM4XvJe9fi1Nny7syiqNP4XriBxj41S8YTMOn/zAT+w/cVgoigBn5t4sTj+CehugOgddGeM/qpYrLoTbL4OtC/6X+ip2z6aBRX8GknsERGChLG0dbtCb/dtpdhYX9JGo/zkd2x2v+P8JWloXbp64gT2aMHAmLBm+4TwPriSHQeAg0fhx348nePHsmV4uBmYiU9iM8TE2FTIPybTaCE60Yioog8Pgcb0/NxW8zvsDfzVneZgMcE4Qh8HQRaGSL++lO7qmMXiRFXhL9PJXBtRmUXCzD3cFLEiMtNQ+tHd7CsKkWSA36kiltbeBjdRgCzQABpribwSI0rQgitHfxwiDfD+iloCIUpMYhPmgpzp9Ob1ox2GgMAYZAnRFgirvO0D2rDZMQvWw6qghEfFYnxeRmCLxQCNQhdOKFwodNliHAEGAINDsEmOJudkvCBGIIMAQYAtUjwBR39fiwuwwBhgBDoNkhwBR3s1sSJhBDgCHAEKgeAaa4q8eH3a0BAd4wVxw9MxpDeeopDHTw+jpvhJ37UP5zck13VHxdqoZu2W2GAEOgGgReIMWtB+fl+yHeOhZGFfKkVIPPU7rVEi7LpyJofudK4w9eM61UIcqV4q8TsXG+NczKKc5KzRrvQkYG/vojBZQNRq2U4MT8IAwdvBWrznJJZasrVc+1ulbsHkPgRUaAhQM+i6tPOc2XfnaFlKUODLvZwHeOCz7Jf4j3vi2vPptiarLr8Vi1oilGYmMwBBgCKgSaQHFTPm2Xdymf9nA4WFCiKMqNER+5D2uWHEGCPJe2AHZjPoLfjIGwMeFDlh6HsG1fY01wvCJJEs8Za09+AsH6KURlliuXm++5BuF+RfAfQeldiRihy/TN2D02F7vFBnB16QkTg0eID94Mv4AIykWii6HrDmC9a1vlnH1wKspH/nv20WXwXHlOmYxJD47+QdhifR7LwzvCe/IA2LRrieyYw/Dz/h7tPtuJNSaHMcZ7LzJUOcCt38GhIHdEzXkHAZIyy7JB6M+U0mr8j3Kh3Ll+H6kkR+L1xzjh1RPTuwrJHZGp4MfRt8KmXwcjZ3MkCob3wdAeRkT5lo9z6w5j1Zl8dBzWD3Pf6oYenQWUBfFfZN66g4NfnsWh62V0w4Z9emLenL7o143yJBb+g9xbt7Ft+R8Iy1SwAvFefRWHAnpRe3KRFKbh05FHESYnqWCFIcAQaGwEGl1x6zt9hMA1LsgO/hY+K2Mo058Zhk4m5Urp/xIoD6u+y0dYv9gRCVsCMD38LkxGf4SV/itRmFFeGdYEBN/EEQ55KzDzdQng5Icf172PmaF/yRVq2Hwv9CW15rx8F9ab7IPnLKI8q4KAgW/hgVkOu7DG+3/EliOEg5M5vb5eRA+Cv5CzbghGmO/HjpQSuTj2noNhkiFGsOQfNfEagv7sXxQU5EOaW1TTtGHYxxyDO/6LO39KVaRmyjY89H+nN37f/Dve9rsPXtdO6MFX9Kevr4PMkD9x8No9ZMpaoeeEIZgb4IrMqadwPp/j8WyPGYsHwjMR1AcAACAASURBVOqaGB8vT0E+kSx0HSCi62V+bNkff2D04D/A+bgPLa4PT732c60RDFaBIfCCINDIiluI12cMg1Hsd3gvIERpqd5B0JLzSngFGDS6Pwxi9uGzHy/I7ycEbsIh1+3w9OyL9RKVNazFauRFY/f2SwqFLAklIuHhsLZuB0juaNFYvUo8dqzcDwlHREw5DMXBqYqbkmDqcxNGjLbBDo4Xk0iKR7uaIDk0ADFVPARqOXC56lHrfkVUVR1064efzvVT3i1G5tnzWPBDVvnafF3k/noeG88oMxNeT4Gqxq1fL2Bjae2HSP0hBm8Mc0D/bjo4f5mbdyt0NGyJzMtpuHGHo8wpQOqtu1VJU+/r1c613r2zDhgCzx8Cjau4eVawM2+B5ODoMvdCOQyFsDHmIychUc0CTkV8ciFmWJgRG3sLrdOuFuZJkfNEuVWXyVBI23Y+TxM1Q/WLWJgeg5gcDVt+GaWTDU2Hp6sb7AJvIN7OFU5Gt7H7UFKFDhuC/qx6GaHu4zbvAu/3++OTd+7jw2//LrO6Cwtx67LCtVSxN17XLpj3UT/0IxeKIV9lRf+DFJVFTe6s385IsWzOGPw4PAPXb2bir9MJCLuuvrOo2Cv7myHAEGgqBJ5yVEntFWt1wGjBG1xdc8U9TulXUSv+6EkkGzvB064NHMlNYhR7Gicz6sIEX8UA2l5W+rgTr2fj4vGL+Px4Nrr+xw79y0WWlECmyedMbhCfgNfQr/AmPp36HdwHf42hb4TiaqH6PGQ4t+Yg3vY9jYMXHsKgjz0WbRuPhQNaaSshq8cQYAg0IgKNq7hliYhJeQILO/sqQvDooDLjCYwsrNTum8HGgo9sYsnJk7sgSJGSJuUblCl5EyNDjdRlWuFUByu8tN+UcATHtsWgMdPwhlMrRB09p9FX3hD0Z1rNRVmpkMshS/PSl5Mn11AMDdHVkBTzrlhczSySW+g88w7oWGp5l7XPup6Go7vEWOr9Gw6l6OGVV9vVMh6bOwugH1454rYaBGS3GQIMgZoQaFzFTbyGJ3efQU6vGVg/zwMO5kQb1qsfxvlPhZPcOizAeVJ+eXbjsYSiOKzNrTDUZzbGWmQjLPiSItqDU/4J/8LGdSgsuDbGzpgx2rymeWm4X4SMZAqXs3DACGtDBT1arWOfs3CSWOuNRo+FOz8WR8PvaRinnvRnGnqsdImnj849XoZVVyP0G9YL87xMICMle71Qg4unYuPcB8jM56PHgA4Uz0PFkA4i3+9G5MFqSl+/E95b/ApG9DGEqGNrdB3WHf07PkHmzYcVDkArdl7571vX7gM9u2Jcn7byvgS1xrxyn+wKQ+BFR6BxfdyEbl7El/BZnE/hgN4InELhgHnKcEClXyOf7s9f/zH8p6/AXr+WyEu/hbAVn9DBpCq8TorfArfDaY039pwcj5z0qzgYeR2Fo2u/dLcP/YQ9znMxK+gg5hPbcPlwQO36yw4/CXHeQDhEnkY4F4HxNIp5d6ze1l0+siwvD3cuX8TSzVfk4YE1FlkmAtddxSdz3LH3P/8inxT5lSNxuNHVVq2pDC0MLTBjRR8YGpF7JCcXV36NwIZfVfQQ+pgZNAWTu5V9fD75/QN8Qj3c2fkLpqvFk985cB7b+wzH9C1TMJOs778+24WFx7kDT1YYAgyBuiLAqMtqi5zxm/jx4FtImv82VoqZAqotfKw+Q4AhUH8EGt3irr+IzaQHimU2MuqMQX7jYJ1xFuvUXrhpJhIyMRgCDIEXBAGmuLVcaJ7DB9izZRQM0ilefOUOejlHC7eEln2zagwBhgBDoDYIMMWtJVoy8Tq4O67TsjarxhBgCDAEGg+BRo4qaTzBWc8MAYYAQ+BFRYAp7hd15dm8GQIMgWcWAaa4n9mlY4IzBBgCLyoCTHG/qCvP5s0QYAg8swi8YIrbFHN2Hcchnx41LxiXa/v89/CxbqjzWz28sTkEl6LC5D/ida+jLplaukz/FuKDH8GuiVh8XjaahNWDt+DAiB/whTmldmWFIcAQeOoIPDOKmyNPEIetoVfN6yNyAWIk5xGZ8KCRgCfSCPcPEHjwIMTnSTmH/YI9m6fBQZ97nbwIv83xQF9Hd/iHPytZ9trhNSs3mBbsx+xT72JBSoXUsY2EIuuWIcAQqB6BhjInqx+l2dyVImzDaoQ1kjwmnkuwbYUj0g99j3lHicHHyAzO7j2IkaclJPkK8oVGGrqRum2DDq2KcDcjAXf/ZXHrjQQy65YhUGsE6mO+ajcYJYXy2xyECLJAL50nC3QdWaBGZcNytGPi3/4PdqXJh2wx/+Bx7J7eVd6/wZh1CtfCCifKEOiEtefPKNwN5C6wLnUXCGA/eQn2/PYbxFGUSyRsL/Z89qbafRG8g5TtyE2h0VWibw9vpZziE99ghbtJpfnxrN2xeOvu8nORW9NUiFjBe+arQPgWSpt6GOLY65BEnMSWJRtxNENLpc3RtIWdwBZPw9KxFTuNlXBVT87EE8J1+WaEyq36nxDo46wh+2IrGLcSwlivPvzqqrY1M/FUAotdYAgwBBoNgUZW3KbwXrMM44yu4bNZ0zFmzg9IsZ6KDcvfhLGWPtq8X+aTe2EonFaIUZgnxqJBw+R/9x33pZKzkrCxngh/Hwfk7FmJyaP/i+nzt5CyfKwGWhaCvLl207AjXv26qooAQ/2XwtciA1vnzMT0Jcdg4D4YXSgRVWkxcsXazT5wyD6IRd40l1mbEWs8DgEr3BVK09oZfU3+QXToeeLNadzCN3HGCIMw+JMcPlviYDHZH4s9O5QfVDgUm8Yvxfd9LevkS1d1xqNPiOxfprgbd0VZ7wyB2iHQuIqbLFRPu39wIvAbhMbeQTLRf30WeAFwGI6hxg03NI/ycxvxpYiKvILkjFQkkB97d+DxMsVeEyb6zhhHZMJRe77FbslNah+MgB2x5QgVunhOglP+GaxYSdZ0As0lNhz/C/yD+C3d4GzQAnySoR2lsU1Pr4qGoSYhanG/MA5BAUcgITkkv3yJbRIdOI8mYgctH4bajaSHDkaDYMN/iLSCMiJk7dqyWgwBhkBjItCoPm6+RWe0Iwbw2ISyw7i85DvI4NujmwWlC81omOx6sphQhMYPw5wdu+Aacx0JCVE4eegMJBlaKlETM7niv5qg5GckxB+SUswpFCqx14O1XUfwLWzwY6RXhfVIgpGhFgQGDbiKhTmpSM5T+ZwLkMzlGXc2BefcyVGNIz2OiT8fr9uoLfvD/7VZGKhTjKy/t2Hv/aeUvrZu0rNWDIHnHoFGVdx1Qq8uMXL50VjnPQW/OfWHs0M/uLrPwTiiFls0dSlC5aS/NZcnFXS8jGPeqdCsUBIIt1mHNLtCDHKRDSFMTMi/EvuMuxb+/QsBpy+TxT0Nqx0nYlLaFXx7X0s/fc1QsxoMAYZAPRFoOH+FBkEKybrO5puil/VLpXcNyAo3LsxCcorC15xHHI9y2q3SGuRyMFJ3LitvyOtVY9nKpEigw8AdFDUyw3srYgzs4NqrbFwN4pVdSk9EhuxlmBiXcSoamHREu1IxipAQQ1atuR0c9auALCESl9Jfgr3LILW5VDWqYs6V72pH08anaBULcs8oigAWFh2B9DTcLkekQIeTgvocTlI0Sc55xBa2gamgdWVR2RWGAEPgqSFQhRZqIHkSiKMx/iW87vMB3HsRbZmDJxbPHEgW6WmEpissYblLgpSsu0NbGlQAm8lj4FSqlMrkeJKeiXR+Fwx1MYc+T490fZkS5ztMwgqf/8CJxjA2toLz5MGwwF0kaOsqyY/C0ciHcBw7EXZclIi+LbyJSs1ADYbbwXshxkAsXjNTMRfr3nAd8y4Clk9QRK/IohG07U9gxCwE+o8iWXrAwWUEZiyfi9HG6pyL3EPgDmA3DFMczEleEc1HORdtadr4JJ+/l5wKzmHMR5jpUILzwX+U3wlwh5Nj6n84KaNl4rWsT2RKA32WWDcMAYZAKQKN7CpJQtD8VTBcMRNLtlIuazq8uy05gkV0wJehtA5lkp+xPrgb/NftQwRHaxZxDuL0XuhcYZFksYex7VBP+C7/AWfX0M3kI5g0brP8AFJWKIOBw5tYOfZDtCOln5d+AycDVmN3QrG8F777CoSucSlTxDZf4dIMulF4AYteW4LQwgKEUf1tK+Zi/VEPOb1ajOQq0q3bl0mRE45Fc3iY7zcF87dOpIPIAmRn3ILk6L5Sv3J68HL4yD7AHKJp2zCWo2mTIjnmMNbllXfX3N7zNQIdlmHm1h2YQy/mnF8xFr7BHC2YdjRthemROJk3FAG7fWEgS4WEomkCQjXxX5aJX7ffVC4fprjrhh9rxRBoHAQYdVnj4Pqc9NoOY/p/jjeKdmDB1XPsJZznZFXZNJ59BBrXVfLs4/OCzyAbvyeeQprBBHzl9j3LVfKCfxrY9JsPAo3sKmk+E2WS1A2B+zl7sfTs3ro1Zq0YAgyBRkGAWdyNAivrlCHAEGAINB4CTHE3HrasZ4YAQ4Ah0CgINKqrZIBVX1zOjq2X4LIHFPPMCkOAIcAQYAiUIsAsbvZhYAgwBBgCzxgCTHE/YwvGxGUIMAQYAo3qKnmW4G03eTOOTs/CvDeIaUdWHWkAR3+2HS5iP4wNvP4sTbERZNWDo38Qtlgfg6f3XnoRqTrcGn54E1qzYD87Rcfpp/HeuDWQVLt29ZRBTwShrQgVEzIUS5OQnUbJfAVmaGcpBPelKqZcNyXSu5Cm5dZz0MrNW9iNh9soXVxavxfZRdVhLoCp93x0y9qDsJCEyh3V64oArW2t0KbCu1nFBTTnpEw0TWYbhQyt9e7jIb2NrHKq6pjaQijkoTAtht6Bqw6fqgEw9JiH/qLzOBX0p1ZzMfT6BK8NaSfvsDjpAEIoc2iZk5eHjjP34nX5fRlSAt9A2AX1jJv94RS4DjYvc62jEe7ti+Rq1xXyzxgrtUJAQX+m1xj0Z+bvYO+hafQKvbLQG53pCRdxMPAr7JCUZS6sWlyFIt02tpOyShHysu8gJvRnrAs8i+QGV2pFyIm5iPC8ZErIVbcvSNVzqflO+p456LsHkD90JzfB+PZT8eYnw9AaetDl0hRQ/hzu3dyMnT44dCAfArd5mDSLVi+flDbl3+HTT2FiCEKWbUJKHRVIZRT00M7FE9am5yGu4csNPVt0dekNwc4vK3dT3ysCB7iuWgBLmqMcC1JIxaSpiqO/wvZlIWW96znAZeN/8WTXPJwVNzBln3AIRnw+F+a8WJycMh83pPSGMifX6gDYie7i0oL/4qxUU/79miZvCguPoWgffUorpc319jjuFC5mCdFj1sdol3RfTWmXjVV89Qvs/l8wKqe9+wtinyEQ2y/DxI+143VlirumNax0v3Hpz0Cv0keu98dmyT/E+GMG1+kfYs66eUgfTZkO8ysveSXxuAvZEVg+fyfiKfeLiZ0nfH0WI0B2D5MbYYdwO/hL+GsU4jm8KNmAH/6zAXyPz/HeLD2cmaFUFvKpCmDs0BW4sQM/zDuAR6TcBUP8MNHfAwOGH0DKgbQGAkQEM1tDFMRJwCVJqLYUSRA+Y0y1Vep8s+AsQsafBUzHY9L2KbgfMBUnzmrI227rDHOzElxOrJhrs84jlzbUteuHjpSTKDfrJQiE9PCQ6qH91HfQCVkozr+NlLg6jim0I5kfIXPXLa2FfBQnRopgJPoKpciUaN9O6wEqVHxGFLfSPREbiD281zHD3ZpyTxfhdnAAJgech4wIG1b4jYOjtTnxOypylYRt+xprgon3kSbM6zUH/8/etcBFVW3vz4CZcoDkoSMEV4QCNMAHaIEmUICp6MVnoZWPbtADrIBM6CFWPirRSro39V/g9ZEv1C5ogSbiTcabjBZQDiQIFwJRYFQeyYDX/zpnngwzzCBgoGf/fhYz55x99l77zNrrfHvt79u/aRTyNhfBafZEuBH7YB1xn6yI3URakLojNbuQBGyJ90LBmjjEZzE/Okb+bCeiPeXLAhdSX2kPlfBIdizzXVinb0Od9zT4ORFXSXUeNiW8T5wpylnfCn5RbyNhtgdseFIUpB1DY8gsCDYvQuR+Yh9UlGtVpcQpznCVn0exuS/m+I2Ah5MJsopd8da+TzD2OME0639RnW8fvg5pCxsRT1ABq74jYyL1EhRThF1ceB62AYFIILpbJ5xDGRsZW8F34WtYSkRaTrYDIKuSIDP5E6zLuqCKFJyIGjcxaiq8bNqIX2Y3cvnzMafhU/jHfUfnmMErZhNS5w+Xt6FgM4I7QCUCeBIBVuyiR+FGVLfMPTTHBMbYy8C4qgxgxB88MwvYENdXw/UG3bS8RtQhP8UMdl4PwrQiE5VMhKcsFN0Oc+bjak4BOW2mtJJzPUfO9Qn8TxUZUyQ39ymM8HGBtdACJo01qM7ZgZy9Z1V2tw5bjvFWP6JQOgY+QSNhSfw153ckIVdULb8T61TaUL3nnKI5DnBZ/CycW/+Nk9tPopnuxfeNRMjUYfLjNd/j++TvFW2Sf2XiOQ8h00zwa84NuIUFYCg5vXrRZnybclYdYdJ9Ri5+Gp7uQ2EqLYDoUBUe9LtB8Mz+dvAM38sHtrIL+LmgfWRrGRQDf39bmFg5w5oEPkZGf0DPH1klfy++o/4qGo+BxDH0aNgE2AmJH5Qgp/yUz1AgYaYkN4xcPhtWNY0Y7D0CN+m6wtbH4OM7FE2HNyDj4AUM9nKBSYkY5RgDC4JG4BAKf59qlJRYY4y5GNUKu/M8w+A7LxAOzD0aK1G04zPkiVXM9fRzaN/X0yJL4iK6gF/ylX0y66Sdiq7Q/0y9Rmldpz7W03/1o8VJHuxDnkVI3T5ETZ6OSfPfQmruJfaB51uQRmPRYayLewWzZr+E5V9LCXtdiVhvDTpSvjNxdf8Xq+f/Ff5zklA8LAxxiyhC0lE6Om3mJEPyZ8w5PPgEPITchCXwD3wJm+s8EB07TaVMYx/6BtaED0HBxniEL05CjlMwAtTcsR1bYk4RN4kNWzRUoLCMUEOZBPuyqmAfMFVDo9MBgSEPo0F0FLkdJiEz2HhMRsCwe9BCr/XyCI2cbtQarA8fhNz18VhIxFyMvfxWrESkkgaXpOBWrpgGvmg9Fs5/FcnFozHDW015yzil/PVLWMX6iLTfO/CWMx0x938VSQk+aExbw95jRdYAkofTGhMD9jJqXDtaTcc3pgj2i8fBuc9h2n3dfOTJQTu5W+CqdsTr6AM76yuoFJcr7m8GS/9ACGVFKM5TOF1nb7h63SBnfRA/bPwHTor/B6cl8ZjgraQfdsaDQYH0bx48hhQjf89+XOS5Y/yCx1UEaabuoyjKpGiScZRDfOH/4TpMEP6Gs3vkTpu5+U1pPpG1nUST0AsPmLdqjY8ZhMHT4OYbhkf9LVF2aA9+qhiIB8OehYtAwVJp5YvHP1xD9dYif/uXyKtwwhOxCzFyyL3sxKAuyklM0n4SoxPaasTUhtNoJn3UFskJnM05Tp+P4xzDjMkWekNZ/DEWxDxOTvkwfkjZRoRxHnhi+QsYakbtcCYpQP/R5AgLUVw5EMNnLsFDjSdwrmIQnHxH0JPjyL55XJXkoKZJQBG3EO6Rk3F9TzYGOFqgXlLA+gbBpOV45oM5GFRxVH6PVldMXP4qnDv0tUrR14fgv/gRCEoKSPmJ6auBdip6AwpmrGiC4VcUkD6M7mBQdWoP/NFPIm5FT8u+wQrCallmwcafka74jbSIdyFRrLZGWfkuHJ+9AWM97AHVa0sNsrf+C8WMc2vMRmbhy0h0daEH4DdVtMMY3z4kHm/FakbaXbNyUdYeahczU5ciM/M3REW4w5WCAZFMiMDZY+iPT7Fq/xk26itL2ofpfi9q3UCAJ5My8KTy2wYJdiR8pIJJitIzURY+kyTh7iMGQ4rthk1AqOtVZCefUffDfiq25BLLobKQCtG+1KPyxUPeOMwnDDwv6W/YmFUjP6P8H/g6JBXhIW7YVPgThodMhmfdCbySdAQFDC6+eQup1X+OUK2W6v8owITp42FRsBurtp5ix6uYIvq0gC0IDR2LJPEPqrbqtxeRNxo1rvpb0StHhO4YKmxCdb4i4lXcRODljkHUqyve8zHOi4eBDp5wdb8H+UlrUFCpiMxLv0HWOxqtyjeliPdN8FVOxI2Npi9t30BRaRGdaIY/vIg22F15jdw5mFSchNT9BcyJmojrBz/EDopgNRcDZfTaXlziDcfF9NKXL9HCaR3h4DwU1/P/jvS137CR+ABMwgQfZZDDLGi+iJH4Drve/lweXYsHYmTwMsJx89tF7gyGzk5ieR1hm+aCHBRLfDE8shUVe3ag+OiVdsNhSm8FU8JMcfr1V/FTqRzSKG/0hOcHbrAiamWpO9mTnO2hlGyYRoSj7VwWTuz9AffHROB6qxQyKzc8QHBGZcp5NJrLcH9wFMYjEwck9pgmpAk0r4oiaX/4R05E4/ZYfMPaEyiXjcXoDzww1PEelEru0ejr33X21VA7L6rWLuQQ1lWykUEIq50lbu1DP3LcMtTR67/OzAUbL5q5X0C4H0EoFmoJnQuaggy00Fddq8a8GCpYWAhYIV3l6i/f1g9x8WbgM5FtmTGLgdpGl+FalcIZ0iFWJIJPi1TMaTwhXG0GoEpcon5VJ33MsoYWAi40S3uM2yf8OUSsWIaCxYRxV5MDKCeO88JFWKhwgMOnB8KpWoTVhImr1pprRSzGXUYY+Qx66K3T38M6kYL21Yl+bBbmcE3chTOJ7dvfUMWoy5uxwgwt1YfkTps5heEJL2vpguO2gpsdwVHtxqsCRVTHIidHih4HKKhwO7EXc19jxrV9F/R8asOhnAQc0nO0K1/rhgYEGOpJ8En9JZi6jMAwKwdy7s34Ze0yWpBTP0cmzv7wCguBCznOgebMkyeAJa8SP5TKX8kZzNZWVoDvVRkg5rB2tMb10hKFM2Ccw1BySE9g+rvWuJnzPlK0nLaqLy4+FG1XIj9f6zlmoZYrKEnJUjlhCxchTGrO4TKDzgl8KdK1RcWmPWpIhCegLAbCbgu0sFs9k5iqDe7UBl4ZTudf0zKxEA/PDYSltBD3By3BBFrgZIoptW2grAotjaawp/WCq/m76a6D8LALIdkFYmovRdXO5pAeLYGp5/MYykA0kuto9iY4xd8aP76Zjj/c3yYblkJE+LZgWhgtnp5BukZGzQBmMZVqaqingETgj7G+NqhI0ddXQ+3UiKwFBJV1ERfXMkqXPnbzvbFL9+r2yS3kbJVOVl0ZKbTHvI0otzpsil6ERxkFeJ/nkVrG/Bi6yCNNyjzfJcQgqcwekSsWU6SseHXsQstlPZC5Ice4z1NEnY2UhC3I4Y8lXN9Z0YoaZKafJRwzCH7mIzA9YBjKjlNkrJnVQWpAVcXnUCDKxKrEb2EbnYAIV/UcfZP6uTdyGtmJsZX6n/9bx3TYtwudV52qnjwNXa3fXj04roYaYfRxPdAAG3nSRJXzCQ6+GYd9Ea8iWzIYoxbMUkEcJp6LMefDl/GXxlM4vWkd0t9bhWN5hLPWFOFiDeMASJyZsG+TUjHKlK/aZuRkndtwkaJmtrBOdwCluR3FyUNluJfgDtchun/CAopYLaXFqGTrVhdTT8JhCb4pIYcnL1Y0GfyFouk8cpI3MYAwayFBMaV5aofPXsPAMyrMV36lchJjYRsdxdLHHQNrJKi+pAUdCDzh7HIPLkkqCHqh33RTI/uvuVKEUyn7UUn49jCXVlrko7ca1gZXcJGNoJn+X6Z21Mrx7QoxLjbJcPXoVzi8djX+I7kBO7IhyIbVrQPhSM7/puSUAvJgGkgZOZ7u4NeUopoiZbavNLHo7auhdmrARkxdumykwyw98lU/irj19dcR3m4W5Lx2IL1QgSUSNuykS/5MXxWK71sIlsgS/QRRWSoCUiOxMiIXC5N/7hlnJqtBcd1NBDi5kLTZb/Ko284RdhZ86H7sNRrbQlG7DS2sKErt8UyIY+MwPaKZItsy7EuXvwbq7F55Bq0FzKaFxin4emkG6sok9Lo4D57tYCTNK1tZ8WF+iDvcaOJi86J5LnB1oveGYp130PElCWJU30Q49dUGpxWiGY5wozpqCyooetT6IeuoAYRhGjuuzITOyN9pKhZpV2luZkULwm2oa+rG4qQ+aECFbysj0hqcz/kVgdFecCLHWnDpfjz0DDlx8cfYt/mEHLowc8NDXnZoK9mOy6wDYCAMa9SL5dgs234Gz+b9ropYGXybwXx/WPslLTNfoFS/ZfCZNxrnCCZrX+QZLtclByDVwqTlk0OG2pkpJ4cj8smBZ2VF7wFSNGlAAG7TxoFfskvDATJ307NIq2oIZTQxE0LpbtJi1RpvK0dKqZSi4tBXOK3L6TsvhoNVFX5kskIYG9BE8z39bepD/W8swo8VQ+T4Nk1o7EJwKUFDpcwf5PCdCd8WMUkJQlgKeWiW1KihIoEXvPxsUZd7hH2b4AuFENDv8ppGX12DR1FfafJgJk8HA+3UMLqtpwvh2/Ss3wZ8m7mt7ulao0F9/09yiFUtlPbmAycmQiZIIjB6vk75M6P7Un4AqzYWwj48DtGaC5xGV6DrRMLY02g13XcB4kI94DRsFBZEz1DnbGtcYmnvDFfXB+HpPQFz4hfC1/Yy8kW/qc9ozCWptT8QOH8KbApPILO8szTBJpzc/wMavOdioQctMMpOY2daGYZHxCNx1qNwJfkzT99Aklhbi1h/AXuPoqxMFNg8Smo//uxxv4gXEGLTlUeF7plO96SNIm9R5orrMBcERlEWjlMtsjM0sHhdZlJ9Z/y4thSfR5WtF6YzdrUbChsWhtAspvD3ewN7Zt3i4qSANt44u8DKK4AyE1op/ew6+3mgAptm8W16PS9XRbGEz0skuILhGOZlST6OgU74uMFAZ0wRUMYETbzjKXqupqiSxafZaLKZMGnFwg19pYxYK9mIVbn4pVgIlObgdE41bPwJA7fSGhs2w2UALuvCt91tVAt3bFsUv8WkoQAAIABJREFUk0O5As6QSclp89zg6msHE9pQ5ETPiZ/XvahT4ts0AVowtqA0P1fCtxtraJKnzxZDtG0uhC2T6WHGA49ZbNQs0hJISeN1WPB4FqpkiskQT7hMncBOvnwW36aombJ2WBvQRprqVlN28c+EFoUvmnvI8W3ttLshXjQ+DL5dRrU0EeQig4AWhK2Y+5s5wy16KUbgFGHlcv6kG41NaDN3wGAXBswUYPDcWML6LdV9NdBOecuZ/1Jev7k5/bOC5RBr8ATy35H6eM//dQdE3FJ8l0QpcolR2Jo5Hy0N9SgTHUFmETmkbtirbP/H2BiwGbErXkHu/CSc8Xu3c/kzI4LIqoyPEe9K6YCxn2EG7xLyKB1QVEvpgJSloS4C+NFxP/aLVtSW/YrMxPWEUTMApLKQ3FnGj6idHIwLmdkqGTiNE9r9KRPvR1rZFCyKCMJWirrzk+MR00DpgIsSsDWBfiok1VZGG2l2Viti/+LdWLFSiMSY5dgV2ka4/G5azB2JGcpazadhy/E4eKvuEoEjeRH0SYpvop/FSmprY86niEt6DfELE7Er9h6SkzuP7MR3aWFSR66vzoYbP66ywt1ISn2Itet++g3Wpr+D0JXqBVCd1Xfhy8ELPsCCmU6qK2yXfILhS2rw4+t/Q67EhMW3UfJPem3XeAgq8nG5Phz25NRxlDIscsvhMfN9vOTbSI6aJPxyytEsu8G+9jNFCWGIO0AY21gIg0lHbZ+/3Yrqg/vxe/Ar8Jn7MIo3l+LB9/+JUHI8qhK9A69F01o8g4WvpUifmRzYhVXtyeEc5JMDZaTk7cHJ3BF4PH4r3CkavXDkJ1qrsUOdwkkO8InE07QJSeWahNF4hh7Wqq8isGfvBfW9QWsaR36G67xlePlfb1IjTuDA/A9QzrwBNIkow+NHhEW+jZf9m9Ako3UlXhMuHUlGGrPGwuDbkt30ZmaFhylqv5SXz0bQTP8vHz2HAQy+TW8cDL6tWdh0PAW+zWSBSfZmwWP5HCzcN4U2StFmqIocZL39qWozVJvoAGXUrMTEDWkYR07+GqVvNsvqCU9XvDl12k7NO5Ow9mGK0r0XYu7WoPZ9bdfCnvvQq9Jl7rZjOHbAzsbKPBifZy7F1YSnkZCj6Zg7u0h+zDZ0NdJieVg3YxnStTQtDV/d1TOEWJBCWSfFCZi1Rp1z3NVa7vbz2a3Y5s24VlIBWTsIow9axozWh1pbIaDNRs8tqMe/Fn2E33u6zUz0TgujfNkVSCsI0ujp+hmzMm9LjrT8X18J6SV2l4NWoW3zzo7gN5bS8Y4raOzJ3W6nfMt70P1f6dk5qWiSYufkfyK5Le/ao/Tnfjan1/npg1GVexZFdQKMi56DsQ1ixLMZIUYWyou1cxqFFxeNQUvux8juFacthO+s8eAX5yGPFnntA57FLNfLlHIo39BkZEu507QscKNSQnhvXy6EjQeFgEeYcWVFA206eQZPLHCirItPe95pM2agtL4GCf3rTZM01UBKOLf+0oTmUgVWru+kHmqn6ahleG77yyjdMAcn2r15ElfJhlVwG0yviwRlGlPuAKjEmG72lXPM4RX6POKi7GDBJxik6DQ2xq3HcWO3slM3vKKSaMeiAy3yZWH1+uPd3AWo3y6Daat8VHQUbNmdqARzrFmFjUbDHPrr5Y70ZQsIKa0uDBOiXyLognZ+VkhQlPI2Th6ljA6udMMCMlzcPAupm/VVQVwlrwdDpO+wju85qESHUbivOAtwFuAs0Jct0JVUgb7cD65tnAU4C3AWuGsswDnuu2aouY5yFuAscKdYgHPcd8pIcv3gLMBZ4K6xAOe475qh5jrKWYCzwJ1iAS6rRDGSnHRZ/36klXJV7R/oZtolWMLmTJsMoRxq2gLNHG8jfowW4qtokOrJ2+2GKeSSV6dxLEVTukpHhbTl3St2Nm4eXE/80wZJD3RU0MlXhiTWOrm0xw4p2mDSVInaUqV8G/FaO4+ApYBy2Wlc2lPEGnlnIsEaFzMBV1PWE91rZzuGlfU5wC3mVXg6MLsjiajucDKyj5Zp3GwEvD/6Ap72zO5OCXJfiUTxVfVGKrPH/44FSzzY8698F4OD2/M0rv3z/uQcd5dt35ely5jO0M6zkJcQFzEJ3oyYQwMRTtHuy/Tkj0n+7Kq6t3YzsXXfU5AsXYI1t5jmx6dNQKTpgBVPEnNhizE/oi4b28gLiMUt+mNMIhpVUwXTXBuzvZzZrcdsHKF9fsPpeKgP8ZLTDjkThu2O0t3qcpJxcO23PZhHLJe8siOOaINTgqMfURrYEQe0wTONtIHGaQYk1lRnuhPxVcwDOPPmKpT2mLSavHaGDvXp+MeIv2MvtkZske/+dF+CmR/OxmDZKdpFuYIEELpeTL38MdpnEHLWG7FVma2edmTmHMBpq0fxWOxjMN2rK6dbhkvbInA4U3Pnp7xtrcdeRuoxIUYmbtNJT9H1HvTMFZzj7rId+7Z0Gc/7JSSvCEZt2heISbyARguik/UNIDIqhgVCw3F3ud99+YIa5L85HflEmBSwJQnD8+KRkqxB0K5Qp6k7sBTbNjNkSrSJKeojPDVtATwPZtO29R6KeFm+EQ11ms5MVpqCHXNTOjvj1o91KrGmrtbS05u2jkuIZOnWb6X7SpIQY9RpiMfkGm0Y4zMkna0OGBUxASb0lsOILCjVaXRfr+9bBV9LSZYW4ZW+85nvpZCKc9HgOwn3EVmVNsNhZ1f25WP9xHFz0mXGSpfVh4yHTfVRxKw/TGR+TFTyK9G7ZqufQS1BYs9NhzCXPVqEddNfIb4Sojwi1ZUFxNEyy9sJ9rbESlhbAXHWlyrBYYtZ65CToGYqWXvye6xlqig7iKfnfKa4L7HH+T+Pt6KD5JE/U0fGF1iVLNLiVjGF9b0WxFl+HXXX/zAcqXb2a9LHD91BnUaKy7Sbrm2aPen9KnhihnjDa14InIkwydKaCKHqS1G09wvkKSXDQK/cUc/DRnIYde5hGO1Fkl6NEpxeT2pKild2pTrNcSXjHdU5Zsl0WOTtoE0svxFHCdlkbjx8iLSJKddFqTiipb5uULqM6rCc9CwmhPlhMG2fv3TkAC5QNGkj2YrcE5obZfSx91kRcVQcPIngaqCzK0FHppj4/ipqGwMjrCeJNCV3Nk1uU58l+bQRtE2fWPYqTkGU/H/4nYnMHYJJJeZhNNcMhrOPBcmoHUCDTxhGOrSiaNPbyCuwl7P35R1Go/8wYgKknedBL2JU0xlctA5Cm0KdhiF2sg56Fo9MHUV9IS6RmjNEeft/KK1U8uZr9/UQGhjVm3xNQYdO2ql6VpQEXVm3jb2vs8e0J471o8VJTrrMsHQZyZNVER+DDcm0ueohOS3/Ck8zHNzTSduvHS/3i3KnzTxVPGtYE6F/6pp3SHZsISLW5IBHykCrw4nrmErD/jiWx9s3UUSkXiIsn/CEnNd7zqcKp03SZb4vYcvqALSkf4YIZR2hy7Ey3FnruXVG1LS3cDAkCMNIYKE7RR8/dEf2PiFRoo4AKs6grEIO8fDpFXwY7zIp4KXg+01fokDqhImEjbqq1Gk84RU8AaPmzYKw8gRO7/kJbS7BeCRstKLJSnUaOXsfz3sxwj56DX+p+RdOsU6bKeScKk+hSHQRAiJEGkj8ge2LIekycmRhq/BU9ETcFO1FzvZjGDAtFsEzx0BA27LbFSUFrbbEGp3URFAO04YBJGtWJTpE2pNyWbHiEgWXBzHpjfrw7wgLs0H14e34fnsmmlz+iimRj4FkO8H3CoInRdRmpTm4SFSqYxeHwiSPnCJN+K4+TvRCo1CnEf9MpE0kK+b4KCbMs8TZg1WwtlKo05DTdoj6BE/RBNB0Yg/1JRPNjn/FVGLMlGvxmMFa0dc2Eelybv8BZtOiMcblD7Wgg4F2qu1xe9VptAa1Vz72k4hb0XdOugyGpMsupP0fvg54E0t37sP8Ioq2i3/F8bQ04iqvM/4BItrYjStz1eeX/xOpAZOR5DcK5ltJKspgTVZ4MvxJ8I6vQ/zWE/IouvxLJBNN7aaQiXD6uhRy0WKDFXXhBH0RpkKdprEYDvOWwMbMnChJvTHM/Cyy1m5Rqby0HF2P9KPq2/3eOBY+Pg6Eh9NkQqx/rDoNqdX8vHElctmI+hcMIjWbh1XMjkr2vnMwn/sB5obdR7qcr7UXpSW8tV6UhXr34XiU2PMkHdRpDEiXOUzF5MXDUL3xdXzHbkM3Q7M76UdOq+sIAeh7+yDo4PKJLFz2dMNEYtg7vecQii9prk8QzLE4Ho9Znca+1zeoGA8bXPzxnC+JM9DG7EHE3tck+hi5Ry9g1FSK1PNSkXe0CePnkakIHjElMWJWnSa/DvZN98Ml8nkMzPsUOVZPwV/B3mfi/TpCgk3wy9tv4ITiDaWBJkKXIGeWhrVZOBVPsH2NwpGjjHoT9dVrGlyCqxV9NdTOfytYFenS26xO04WH9pZP7UeOm5MuMyxdRs9BYx4+Wzwfez3GkziyD3z8AhCXOgOzN76BiK3njIQihKRG/zKiQ8bAyZ6BMRSlgBErGECO28DCEE8ummBr/w5OTdYUWaR6qs6RoAGhKqo1uWK8lxaH9275EVZcqE/kQKFO09JEERxxTwscyDG0nkHWstUaDsuMFLtm4pGgCRjsaE48HZR9QoxwltJjuMwKMCvUaUj38CclDELR3lBhG6QHK+QNYPFtPslvRWG2tTkqNi7WctrqDupXp+lcumzw1FA8IP0PthMPt7LwiQe6reR4B8xXt8Saug2W7m561Gn84Rs8jChQf4PLghfhwkp9MRzZdgQXZ6GJ7DmK1GkqN/1MZhlHvNhXUJ5CXPFWgXhAeAkVkj8weCrh2xUZ5PSvwKJRCB/hMex9rwhDohl1ml2sOo0TcW8PlPyTYBXl+oIZ8X/Tg9FEPNqEXllTX4XU1105alouZlzalCK+JDvWaTs1nlGlOo1atV1th/76Vz+CSoicnpMuo+fMCOkyigKrC08ibeuniI9ciOidl+AVPgveRkqx2c96A0nhDihIjkOo3+OsmntU+mWdau76H3zCO1MjOsijjZ3xsVxVR/+Ft3ZEX4SpwLclm94kWbGl2BHxEUrNmFd3Em5WFAZ+mB/1GG4WHKRshTUkK/YxCkjy63qJWKEgo1CnYXUPFUVLgIDFt4lT+mrOdvzn3P/gODWMlkB1QT9KdRqSCmtHY2pIuswBjoSrN+bnqrUgSTXHnlWc1xLxZbB0L9LAJJKoShIj6FhIrsxnGCtXpq1OI5fzqkS1pI7SKOWyYs0kKyYVH0LOwR8hI3sy6jTlGuo0zN+sOg+p01Qr1WlISKKZntULO9bhwFrCxptIVIJRp5EQw6SZFx704qNalKe2J8O3TQpAjaX5FCk/ACfq6/VO+mqwnapOk1zZbVRf72jr3vmmH0Xc+gxgvMSVvhqU39+R0mXkxKvK6tFCAsEWAxhHooiW2YjXjBS/tJ0LpRN6/gUgcYLPsooVsIg5hmtG3kqDMSl3PFU8rjavjEj0Sbos1NOLpMvO6xZ4Vp0tX5y0oMXJ6m4sTuqLMJX4tipzhMjxz0ka4OrlS471DKTkxH3nPojqlEjK71UIKjv8FU6kiVi9SUudJkWfAIEC3y75Ft9uJsFa34cx+t0g+PjuxhGRViaPUp1mhy719U6ky8wcYWnOR3OjGhc38ZyGEaSaU0VK5+2KvrcP5Ul03IEUci4q5Mo0r2Wky/gEcxSkfCUXPWhfM/hTNdRpwhh1GsK2Veo021h1mvEK9XXm0mviI2CXO4c8rlanMXejvhDrZL0GLu8cjBEuzSjfexo3zEbCyoqPa8TRrSzafTXUTnWzrWFPE0ITTSS9Sh+rZafe/tivIm7dxjBe4kr39Tq+7cfSZfbhiUhdF43ZlF3i7TES3iHPI3HRWMgK82gxUgPiINWb6gYBvAJGw45W9Hk8pbAyReukOYlh3ggkpXY2Lzz0JYQzsmda5WbVRVTxhyOQMgfM6Xr1JEDqNanfo85jEZLip8Lb9S9w9RiH6Qspko/yUclVyauTL07uuaXFSbqnA8loObvDxZciTGkNYaMEhTgwavVMkePboMhZrU5DE1lBCdooQncYQpOW0AFW1urJy8TBH48vX0jq5JUd1GnU0mTtBXa11WnaRHsgLrkPbnNDO+pgKtTXlco3KpMaki6jxcdr9S0E90yCLUEKPPepCImdDCtGMk0p4mtAYk19ryGs4zQhqS3t0kLOstncEyNoTOWFbOzuixGTHqKPZnBg1WnOseo0jMhwO3WaAkadZhyrTqMp48bUo1SnYSN1ErNuIdWbwaQOxCx2Yogv/GNmYWD+TpwUETd9ayNaaF3B0n2E/FmhMfGPbt/Xztup2SsB+PR8m1gJYUGTEo+BY+6AcgdE3MZLXHVlvPqrdNm1gnyU+T6JxfGhsLGgh5QcdJE4BcvXHGifhkeE7V8kn8CaqHdwaDbjoNXpgBe+/gRJrm8SxLIP0S2NqCs+jn3HqxBp396CssID2Jz2MKJXfIUTq+mYRjpgo+hTRCU00kagxUgOpY1A9AJcRwul2anVRuLsRowW4ZxPfr4Mzqq3hiDM3BCE1rwN2PLOYXoll6uvX81pT5TfQrv2GnhP4gGCGQpEYhSfexqTYlPxUiS9QTRJkC+5SFqE51Xq64N9SOuwVCEgyzRLS2BXrhepmb9dil8OnsYjsVPg470f2fkj8UTqGnhqTBABWzIRQJY4n7QAGUevGCFdVonCHRl4iKS4ntn3VzSV5KK4oh5t9QUqfLtziTWNXPVLBfglt4pS+jbhtcgBaMtPxuY3v5GPS8EOHDvigimxWxAVSTJrhCubNNIbVMp7OMfYk1FfpzcRBt9m1de3E95O+LZKfZ3Bt0sYfFtzHYSgG1Z9ncG36ftWMUQHf8WceR/iJX9a6qaMU2nuVhxY/y8FdFKEfLLfiOjXEbH3BdLqLCW1+ka0Nar7is7a2e7RKYWE6vKIfA3P73y9fV+NeMT66ikcH/efOTL9RrrszzTS7bi3XL5qIC5BStuz5al7t+O+t3IPWsQza6M2etBmozWwORiNtIMXbqWizq8hJXYrISlLNpJNKpVb1ju/pKtHTazobUk4gPK3/6uTfoA5bknizE2dSb11u53MlvfPIPxe985JeZ8UOyfPJ3Bb3rs6yHfE+f1GuuyOsHYXOmGEfFUXauuVUx0IrnBvRqWIBG15rnCLJMVy2Xc4cKisV25HIpAgwfdeLTdIRb22k3swxw22oUfaycOQZ7di0VP5+Pfr0SjR4CrhPU655kvGspDOFa2lhF41joHK7wCoxEAP+9Th/iNd1qfMxjUGppTNMXbxZEyOJVir8SKqxYdx4M1duNgbArt3lb3PQbzMHxoECe16Lzv2GrYd63sG4aCSvjcmXIs4C3AW4CzQqQXugKySTvvHHeQswFmAs8AdZwHOcd9xQ8p1iLMAZ4E73QKc477TR5jrH2cBzgJ3nAU4x33HDSnXIc4CnAXudAtwWSWKEeaky+70R91w//qd/JnzVDy+wB5F678kLhADxF+Gu9/+jL4gf0Z53LYOAtyokUB6SclKZgULT0fwWym/nDZK3VLOfVflz+h8/3fDMZjdXCxF0eb3SG5O4873h2Pa5y9hMHO4aj/2L/uUtvmrx6M35M84x93VB5qoOQvEJ2FW3AtqMloiB7TvF1XFRK+Z/DnJjqlZ0gw3WYhAYveLYNn9+JDV0u7JrK8Qvz7HAG+I4Zq7doYz4vZ9Dm/SNwtP/rVrl972s/uf/JnAi5SNHP+L/F5QP4OR8meWYR8gzPsnHHhnXw9zgdBuywXvkkqRPa4eeQcp60+xT4Rl2Lt4LpI0IBW7PW/FcXdd/ox+Pwd3oZzoakOn8ZGv4HBv94jKLiI/8Tmc+W9HNaXekD/jHHeXHUTfli5j+DkCVyRhdUALMjevw7qCq+A5jcRk7yFE+ARy3FzRbYH+J3/WdHAZ/nFQd2+6/a1R8mdWsPcdBR7RvfY8gZMjq6Jzjfi9+QJzdgPMDasg+IfZ4hpR7apVdLra01uQP2sqxUVRBQZ7R5L4Rt9Q0eknjpuTLjNOuuw9HLd/CpHTByN/9d+QuF/BFV34M0QZGg84zwEzYokHIsQD9kRnUluWS2o3G7CzUC5bxfNYiv2bRmHf/AikljMxjRkCV+3AatvdCI5MQyPPD2sz34V1+jbUeU+DHyNKXJ2HTQnvY2cxRRw8L7y1bwNm2yuWUBZ9jjOLmPu34mTibERnKH/mnYxrUh3e2PcJxlK0Pnv9L6rG24evQ9rCRsTPob42KilL74XdvffRL7uRuDAUUmRd/T0rzzdAD1spVjIEdpQ/MyHip0fDJsDOYSgGEv9GS0UBSXH9Qy3FZeWLCVETUH80D+ZBM+FK3N9tFd+SoEOaiuLVsPyZG0Yufw4urDKPDBV71qo5wtk+GJZYY8azW/JnZt4Yt3w20dgKMNidD7Oav2L6+0/SvS/hl42foVQpzCBwg9uCp0kt5y8YyJOhPm8vjm0+JucjMSR/VilX0ak4dB5O7sRYyMicLX4KvLyfIQsejao8RkiCihkJND/zLEYT+ZUl3eMaScvlbMzQoMzV7uutyp/1LRWdfrQ4yUmXGZYu+x/svUfDtaUIWTm/yx/sDv81g0/Ue4gPGYjMxGjMWvw2vq7zQNy6GASYd+Vx4MEn4CHkJiyBf+BL2Ex1RMdOo6ieHIosH6tmMHJmz2Nn2XXi5X5FwcsdouG0lQ3TM64yCfZlVcE+YCo8VSRSDggMeRgNoqPIVTltqodIjj6Z+za+HOusxTzYofMGv7h1+TN6tZ80AYJ6MfL3fEnyZ2m4LAzC1BilFBcx5HkGw8tvAsaFjUOr6ADpWdbB0m8BKe0omReNkD8za4I0LwfFpaYY6sOIG2jhJMQyaEhirdvyZzwpcWkfJ5KrFhKdqMT5w1koymHkz07islItnhzzlM/X4BHHWvxC9sg5+BvuZ2TWpg5hx8CQ/BmjOMSo6JSLLxJboRADPZ+Bv/NPOFU6CLYMIyLDMmhGsmkffoop3ibEb/YV3aMclv7RmPKMm2Kce1D+TMAIZTTjorhv7HvvJxG3Yhw46TID0mVmsHciStMG4sBu0LNYxRuF6SFOqEqLwsacYtawKWt2ImDfi5gdMAjHM4wnFCrK2oP0cgbTK0Vm5m+IiiDNQYrgRV3FXPWMqyGZNsVT0YP/6478GanCbH4LlRqt+cN9JkZ6M9EiSXGRjswQYsjj15/B4ffWoZxZTBTch5FhDF2qshghf9ZKIgdHK3EtbAr4NUXEmtd+nA1KrPWE/BlBB5VHS2E5dwYp3ZwhLcksLUEGUnSPeRFDJX/HjrVHFWyQJOnmH4jx7s7AYSkFGJ3Jn9XJVeJJRaeyQgYvQRAmRg4k3vE3cU/wRhXLoPXipfATnkV61CqUsxPGr/g5KBATnZ0JWiG+c+prT8mfDSCNUFuiq+0rKjr9yHFz0mWGpcuMGE6eEPYWrbhQ/F+1v6grQXGdKcY6DaXvjHXc9FpapSa6b2BEFfg8tcyZhjvq/M9OxrX8ODIKF2Fh6FgkiX/A8OmBcKoWYbWYOJs1i/RbPLXt285vY8xRfQIECnrYzuXP5Grjo/3dSRDXgrQqyRzEj90m3qbIMJCr6NTlHJQ7baY9zg8Sq/XvOF+iUDU3Wv5MqaJzQLeKTicSaz0nf6ZQ0Snd00FFB97zMH7EPbh6yQPjIh5mNJJp2iL+bQc+WiQkBMGISXQqf3YfKQgxau5ExysVQkbCC0Mkn+Bwvg3GR5KKjohR0fHGmKBhBDttVDhtxqAC1u4tl4iOlj71nPyZUkWnb+DbTE+78m5szKPfq+dw0mWMeTuTLpOr3cDCmri4tZVtujI0ukJm+kVoFZlMT1SvfaKBz7rH1VBfDVR6K4cN4Nv65c+EcHuHUUW3RPWhFGSuX4l0wq1rKNasJufDZj4ohBIqNV61LX1IQYZS3Sovye1otPwZ4/hIweaysm5VXw1JrPWg/JmiDRfz8rUsTQ6aFiwF9bSgV9NA8meNkJH0WXOTFOVHd+NUDulTGpI/a3iYtCyJCZGxVSutE2xch4xN30Fm5aVW0WEFKS6hTET1KYsV2cWxjbULg/X3nPxZ38K3me4aEaJpjUuf+8hJl+1LL1KNSpX4JxTzn0KI/wNIUy5Oao6ZrAZVDWbwIFUaZClS9Gxc4GrTRhJnpHxDRUbRcwtFSOZ8pfPnwcaWz77yd7UwU0BHl298LbXHMyGOjcP0iGa42ZVBs6/qWmhxkmAHyLq3OHnL8meUJvaITx1Er6zGT5XyBVN+0HwIzX/HaYWSu6knvWrLiiCWKNPFlCo62xRq5F2QP1Oo6OR3UImX47DV+iTWGAHknpI/c/ch1fsynM2XL2hrjqi5FS26Vu7HyZRvdOZZG5I/qx3hx6ro/Mza6g+ChrLY6k2DGBuWQsRoXPoKaTHyCqQaUJHAPwQPyAqQJaLUWbMxPSd/RirxDsyEsKfE+Ae3l8/sVxG3bltw0mWZ5RqCsMW7sYmEfb2iE5EYPgmeHqPgGzIbCfFhcGUXDn9Geg4t+s2ORLS/K5xcx2FB/Hx4NoiRflyhZ1gmwW8NQzCBFgIpOQLm3s9itg7pMt3jofltDcqqbhKe6Q9vG3NWHq3LTrwxF+m5fyBw/hTYFJ5Au74qb8UsTs661cXJ7sufmTo6wJLacoN9UWEU4yMxPXIiBIRBX2Qdi1IIWEPBRamiw0aHTFHi22I2ta4z+TP9KvHyyUGvxFoPyp+ZChnHaUayYCS20K604mrlRZg6+2MkiQOzhZkwfKfC2ZP5bEj+7DysvRgVHU25ObYShYqOmFXRaaMovoWi6mGecpk6nvdiTFnwEC7tSUExI5Dck/JnlD3DpyeXb+0AHk1KJmZdD2DamagHPtwBETcnXVatsUuLtLeQvSYWCXW0AYc0HjfbkqukDTgFtAFHnsOS0kB2AAAgAElEQVTdirykd7GGR+mAiRuxmCCV2qLTWPfWR8hSZmrIcuWyZrEf4chsKcoKspFLordOFl2FRprw3eb/g3/iIiRnzqOHXzsd0JgnmK7J+BG1k4NxITO7vfyaMZcbOqcn5M/yj6O88XU8sSUNj5LzvlF6AmWUcWErFeMyy5dNEIa7DWGzBWrZNoVK/GllxMpCKZ3InzU9h2c2zKEFMmXxwDP/mkITcRGOv7KUIn0TGJRYo6XTnpI/a8s/gl9LXsKjn+/HRGpS1VcR2LP3Atu4+j1fIdfzDTzx+S5MbCSDkPwZavLww9pM8r8jDcif/Q+OQQp8u93YOctV4hl8m/k+/yB+zB+HwPitGB59k5ZXruD8wfeQtVf59tmD8mfSUziTE4qQyM/xMqVya/a1XRNv4weOj/s2GrvDrTjpsg4m0fWFbehqpMXysG7GMqQ3aLxd6Dr5z/qOokoLFyFM6ytpezbpKPbpcnvkz0yGkDSZtRlJk5XqlCbrvonkb0uW5s24pkfe7LbInzFb3jfMRLWenZPyfvas/NkdEHF3f/hvWw2cdFnXTM2jTA2nUXhx0Ri05H6M7L7qtJleEQzRIOlEh6trPe+ds2+z/NmNSyRNdql3uiKvtRWySglltegvt0f+TEZY/lB4rc7Cw+W78M1b/2jHVdIb8mec49Y/5r1whJMu64pRvaKSkDrfAbUFWVi9/jj6ehzblb79Gedy8me9ZPWrafhuSZreyntD/oyDSvSamzvAWYCzAGeBvmmBOyCrpG8almsVZwHOApwFessCvQqV/KfkTG+1m6uXswBnAc4Cd60FuIj7rh16ruOcBTgL9FcLcI67v44c127OApwF7loL9CpUAtyPUJ8P8cKgNtRcpU0dZ7/GmbaubuK4a8eG6zhnAc4CnAV0WqCXI+6ryMh7EXNO7MQFwSQ8/YCci1dnS7gvOQtwFuAswFnAKAv0suOWt6FV9gsKKAl30H0MowNXOAtwFuAswFmgOxa4LY6baWBbd1rJXctZgLMAZwHOAioL3CbHTVtTiWKCdw+rb88VzgKcBTgLcBbohgVuk+MmUvSmqxBY++ERhimMK5wFOAtwFuAscMsWuE2OGygu2YV/wwcJgV/gmzGPEbsuVzgLcBbgLMBZ4FYs0MvpgOomubo8jceQh9XZ/8R/GH1CrnAW4CzAWYCzwC1Z4DZF3APhILgfTfW5nNO+pWHiLuIswFmAs4DaArfJcRPhOd1J9r9WzvacBTgLcBbgLNBNC9wmx31HqBJ309Tc5ZwFOAtwFugZC9wWx23Gc4Mnqc5e+aOjInTPdIOrhbMAZwHOAnePBXp5cVKTq+QEvvi9V3WM7p5R43rKWYCzwF1tgV523HKukoy72sRc5zkLcBbgLNCzFrgtUEnPNpmrjbMAZwHOAne3BTjHfXePP9d7zgKcBfqhBTjH3Q8HjWsyZwHOAne3BTjHfXePP9d7zgKcBfqhBTjH3Q8HjWsyZwHOAne3BW6T4zaDT/x2iFLCYYMBvWdx82nYcjINK3wFBu5hhsnrDkO07kn0GFehx4tIy8vGGfbfl4hyvYWEHZ4f1mZ/h42hFgba30OH73HEk54rkPo4EX8FvISxvTk2PdRkrhrOApwFbtuGxlbUFZzG8YYytKAXNSdlNcg9/iOu1bX00tgKERj1MiJCxsDJng9ZbQ2Ksr5C/Poc1BV+gdk+XwCuS5CWMqGX7t+z1ZpZTcGzwgE49mMcvrxGEkVc4SzAWaBfWOAWwsJb69eFjE8Rf2uXGn+VLA8pb+UZf36XzhQgcEUSVge0IHPzOqwruAqe00hM9h5CbxFAXZfq6hsn8/j3g9dWibPXmvpGg7hWcBbgLGCUBXrZcZvBK2YTUucPlzemYDOCF+8iJ6eOuocv/Aw7Z9djp8gCAf4Pw96iGUUZnyF2DUWxyvPs/BCbGIEZHsNggSbUVp9HZlIikkRX5PXygvF5bgJ82U9SfBP9LFaKNJ2RGZxCXkViVBDcbCj6Fx9CNp8gmwZNG1nBd+FrWBr+CJxsB0BWJUFm8idYl3UBLAmt61OInD4Y+av/hsT9FfILC3+GqAu7i+R9rUDEnHUokDE2cEfcvg0Ymx6N+VvPqxrD9/wrkhbNg58THw0Fx7FxzQakF1/XbCxwjwXsCOdpkTWi/n+9+BbT/q7cJ84CnAX6gAV6GeNuRf76JRjrE4KItN8JJtFd+PY+8G74GhFPTkFoXC5sQ19EhPd9ipMFmBy7DHPMC7EqciGmzX8DK1ILUA2NOUd2BK/4BGJswDqIW3Q4MddnsWaFP/jHkxAx/zUklT2MGd73ajSGJpioNVgfPgi56+OxcPbLWP61FH4rViLSQ94Oe+/RcG0pQlbO77o70WPf8uATMgFVG+MQPn8lMvAoElZHwpPXfm3AzmUhDs59C+8+wL/lO5sxUnLE2Mixo9+yCbkLOQv8KRboZcdtZJ8a8rFzyxk2wq4TZ0FUNwiurraKi81ha0ORZ9kZ5Bb+F9Xl5yjK/ZIi9FojKwe8QifCre4UPks+ioLyEmQnb0FWFYlgKgtvHObPfgB5yauxMessiukc0df/wNfFgzE5xI0WMM1g72RNEXo96hp0TAxGt8S4E6uyUrAxpxhlxbn4IulbVDn5ItRTOZEZV4fBs0wdMXGIHdBUgUqDJ3MncBbgLNCXLNDLUIlxXW1pkKLupsIhkjpOC8EIfJU2JS04pp/Fwtg3sX/HDBQUn4f4eCb+lfMbjFtOM4Od/VCg+jCKlaGlrAQFZS0IVTbPyR1OFuZwTdyFM4nt29xQRQ77thYZfi8qUUXBsuISXGyZCXs7k3atqP4tGY/8dmsNG/7QB/jE2R5oLcU/807iSm8uGN9aE7mrOAtwFujEAn3CcTPt6+x1/cL+BISKRyHAbxx8fCciMmk6pqcuw8Lknzu9TrPfTDaLOqOl491uttRg79IlWCNu1mmuqrJ6INQaNhYEWdT1UNTdY7mIOpus98sLv72NORccMX30MoQ/NAHfi7M5563XWtwBzgJ9zwJ9Ayoxwi6y8p+R9fX/YfXSFxCffhVOvqNhb1TecSvKqi4CNg4YrjrfkU3nU5UyCcplg+DpQVGonlIl/gnFfDeE+D+g5wzF1wTkywha4Wlh0szRBkZrk94kiJpcUaxZGKh94eEBNxd1frmrC4bypagqb2t/Gi1ODhNYwfqeW8uLb22rwLGL1YDAEQ5aLeA+chbgLNC3LdAPHLcDZsS8hkWUO+1qNxROHoGY7GlBmHcFao18xS/KyESZnS8WhjzA4tV2IU8jxEmj67LT2JlWhuER8Uic9Shch/0Fnr6BWLRiLWL9FZt5indjU/pleEUnIjF8Ejn5UfANmY2E+DC4ak4g1TQJNAzBhNmBbHvtbNRu+lrxf1Fn4YkQ7/vpqRDALXwWfJkIXqvYhyxGtL8rnFz9sDR2CuzLTiCjoH1WCbM4uWfWm91anGxlpORogfJPCvy1u8195izAWcBIC/QuVMLsZDweB29VYyJwJC+CPulK2dPX4ibK2nNEeBRleNhbgN8iRZFoJ216Oa7AuJldmSnYTIuLyuK9MQN/ZT4o0w+L9yN+pZDSAf+OIzGtaCjPRQE5wgDVFZT9khyPmAZKB1yUgK0JtHOxoQZltGloZ7XSYTYhe00sEupoA87CN7DZltwdbcApoA047XK4Zbn4bP1hrI6Jwa7pFE2XHcTTcz5DMU0yMvE2JGU8hPh1u5FD9Rfl/ABRlQf+0q7rMuRlncTw6HX4WpEOuDr2KxQYOUnpsyL3PWcBzgJ3jgUGuI8cpxOwneZ/HT/81L1MhqtXdVZ951ivn/fEzCYCqWPsaefkOm7nZD8fS675d5cF+gFUcncNyO3sbav0W2yruYnHfD7luEpup+G5e3EW6KYFehcq6WbjuMt72QL/q8B3BSvxXS/fhqueswBngZ61ABdx96w9udo4C3AW4CzQ6xbgHHevm5i7AWcBzgKcBXrWAr0KlTziMhZnawu71WLZ1Y6bZbpVIXcxZwHOApwF+rkFuIi7nw8g13zOApwF7j4LcI777htzrsecBTgL9HML9CpU0p9sYxv+GdIX1iBmxmqIWK5sfcUBS3dsgb8oFrOTf9V30l3yvXzz00bXQwjV4lm/HQawpzHLiPWU36rqKF6YsxriTseum60yE8LKXQhtkoI2aSlqK4nyjOgDbJ2tWMLhNiI+uCG9BGklcdz0cBngORfB00xxJmkXals7e1YFcFgch4dqvkb24eIeboUAA91dYEnMwJqlrYn6XHoRN3r4brqrk7dhoNkVXCv4r4q3yMTBHVZWPLRUFqBB2pl9dNfKfGs9NQbjhSdxJOU/RvXFOuxdPD5JzmjaVroXh5P/rcGjxMPQiF14kj0uQ3nyDGSf0uREGg/f5HVwG8TcOR/HF0ejrNNxvW3SZfoN1P+ONKFAfBJmxVd7vunDlmBX2rO0hV5RWppQVXwa+5I/R6rYGBpb7V2ktEu09r+0u3Mb1iWfQFmPO7XbJEmnx9JVXy/F2K8BdtINv7UfqJ6qdX/ttQAz330CA4k2wZThoiHuGYZBpnp7FNL2NkIQHIOnI2n0GslpEycNw3DZUnIYh9/5BOW36EA6NsQMtv6hcHU4CZGBHzfM3PGg/ygItn/asZrufiPwRsD7y+BMfWRtQQ6pjZaj2vI/x5Z3DqtrN/OG/4a/4eaOGJwQ/dHdu7a/3moSJn/4OobxCpE5Pw7npETVzLTrgzXwFF7CmWV/wwmplgCJUS1wgNPUQAzOP2KU02aqvC45gtM1VhgZ+RpsS6/oJL9r+/kj7Pw4AxqE0orW/AhR1CSIvN7BU68JjWohF3EbZSbNk6TIXv8Bsrt8nbEXNCE3KR6fif8A38IRAQtfxtJ1Maia/jayGjsOuc5aa3OwIm47iogPxd4zFNFRCVgju4zwXnhDuC2SdDo7+Sd8KV6Pr/66HvypH+KFSDN8v0jhLNimCGDn/SBwLhVfxexFMzl3waRYPBU/FY8E7UX53soearAQju7WaJKI2ws46aq9VYzji2bpOtL975pO4PDcE4DDXDy9ZT6urFmA707oYNZ098Mwxxs4W6JPRuXWm2LqOQ5DcQn1NfdBYEWTh9QMgxcswQOoQVvjBZRLbvGeVp7U5mZc3KFWpTLUymaJCOWCKRhrJcVFsfHXGapX3/F+4rgV8ERhMr7mPUmEU67EDNiKCxlrEL7mJGSuIUiMnQMf12EkfTYADVXnkL3571idUcTOfDyPpdi/aRTyNhfBaTaJKhAjX13hAayI3QRxo+5IzS4kAVvivVCwJg7xWcyPTojFKTsR7SlfFriQ+kp7qIRHCu2Z78I6fRvqvKeR7BgpUVbnYVPC+9ipkh2zgl/U20iY7QEbnhQFacfQGDILgs2LELmfGAwV5VpVKYqLGem18yg298UcvxHwcDJBVrEr3tr3CcYeJ5hm/S+q8+3D1yFtYSPiCSpgOcplTKReQvzjN1FceB62AYFI8B4HJ5xDGct5YkCmjc5wCllK3C5T4WXThgvi3cjlz8echk/hH/cd2dSwJB3jyDxnvYrYRY/CjRFWJik4zTGBMfYyMK4qAxjxB8/MAjZEad5wvcFIHnd9lRJJmdeDMK3IRCUT4SkLRbfDnPm4mlNATpspreRcz5FzfYJEhpTPGEVyc5/CCB8XWAstYNJYg+qcHcjZe1YVoVmHLcd4qx9RKB0Dn6CRsCRen/M7kpArIiZHprBOpQ3Ve87JP5s5wGXxs3Bu/TdObj+JZroX3zcSIVOHyY/XfI/vk79XtEn+lYnnPIRMM8GvOTfgFhaAoeT06kWb8W3KWXWESfcZufhpeLoPham0AKJDVXjQ7wbBM/vbwTN8Lx/Yyi7gZy0SNMugGPj728LEyhnWRMI2MvoDev7IKvl78R31V9F4DPSeiUfDJsBOSGRsBDnlp3yGAgmjKeiGkctnw6qmEYO9R+AmXVfY+hjROg9F0+ENyDh4AYO9XGBSIkY5xsCCoBE4hMLfpxolJdYYYy5GtcLuPM8w+M4LhANzj8ZKFO34DHliDYYhrb6eFlnCFhfwS74yWjfrpJ2KrtD/TL1GaV2nPtbTf/WjxUke7EOeRUjdPkRNno5J899Cau4l9oHnW5DYQdFhrIt7BbNmv8TKjvnEr0Ss90C1vfjO8PP+L1bP/yv85ySheFgY4hZRhKSjdHTazEk1SFn8BMmwPYvUIn2vXyQ7FvAQchOWwD/wJWyu80B07DQSE5YzANqHvoE14UNQsDEe4YuTkOMUjABbbcRUo0HmFHGHjIRFQwUKywg1lEmwL6sK9gFTNaTMHBAY8jAaREeR22ESMoONx2QEDLuHxClkigjNsEwbo6+5csU08EXrsXD+q0guHq0l9WZYks7c/1UkJfigMW0NKwW3ImsAArXHhHgJO7OXUeOqY/w6fmWKYL94knp7DtPu6+YjTw7ayd0CV7UjXkcf2FlfQaW4XHF7M1j6B0IoK0JxnsLpOnvD1esGOeuD+GHjP3BS/D84LYnHBJVMnzMeDAqkf/PgMaQY+Xv24yLPHeMXPE5aq/Ji6j6KokyKJhlHOcQX/h+uwwThbzi7R+60mbNuSvOJwOwkmoReeMC8VUsy0AzC4Glw8w3Do/6WKDu0Bz9VDMSDYc/CRaBgqrTyxeMfrqF6a5G//UvkVTjhidiFGDnkXnZiUBflJCZpP4nRCW01YmrDaTTzrNAiOYGzOcfp83GcIyxaXugNZfHHWBDzODnlw/ghZRsRsXngieUvYKgZtcPZD2P9R5MjLERx5UAMn7kEDzWewLmKQUTpPIKeHEf2zeOqJAc1TQKKuIVwj5yM63uyMcDRAvWSAtY3CCYtxzMfzMGgiqPye7S6YuLyV+Hcoa9Vir4+BP/Fj0BQUoDKJqavBtqpMoYZrGiC4VeQrCJ7Xe+WfhJxK4xQ9g1WEFZbzUSNjT8jXfEbaRHvQqJYbaiy8l04PptEeBl+bdVrSw2yt/4LxYxza8xGZuHLSCSuax5+08CjSKIsJB5vxWpG2l0bgKKsPdQuxrGXIjPzN0RFuMOVggGRTIjA2WPoj0+xav8ZNuorS9qH6X4vat1AgCeTMvCk8tsGCXYkfKSCSYrSiaI2fCYrZVbAiD4Mm4BQ16skx3ZG3Q/7qdiSO1Vdb0sl9qUelYsvK2Xakv5GMm018nPKSaYtJBXhJNO2qfAnDA+ZDM+6E3gl6Yhc1HjzFviFfK5WDDJoEgEmTB8Pi4LdWLX1FDtexSS8nBawBaGhY5Ek/kHVVv32IiFko8bVYGN69gShO4YKm1Cdr4h4FbULvNwxiHp1xXs+xnnxMNDBE67u9yA/aQ0KKhWReek3yHpHozn5phTxvgm+yom4sdH0pe0bKCotohPN8IfXPKpHeY3cOZhUnITU/QXMiZqI6wc/xA6KYDUXA2X02l5c4g3HxfTSly/RwmmJf915KK7n/x3pa79hI/EBmIQJPsogh1nQfBEjiQhh19ufy6Nr8UCMDF5GOG5+u8idwdDZSSyvI2zTXJCDYokvhke2omLPDhQfVQh7K7piSm8FU8JMcfr1V/FTqRzSKG/0hOcHbrAyH0D9I3uSsz2Ukg3TiHC0ncvCib0/4P6YCFxvlUJm5YYHCM6oTDmPRnMZ7g+Ownhk4oDEHtOENIHmVdHbiT/8IyeicXssvmHtCeLdH4vRH3hgqOM9KJXco9HXv+vsq6F2XlStXcghrKtko3Ya5BrD3ZN/9iPHLUMdvf5rKsSrDGHjRTP3Cwj3IwjFgrykolzQFCmghb7qWjXmJWuh+dhCwHJRK7f48G39EBdvBj4T2ZYZsxioPRQyXKtSOEM6xAon8GmRijmNJ4SrzQBUiUvUr+rVFShraCHgQrO0x7h9wp9DxIplKFhMGHc1OYDy48goXISFCgc4fHognKpFWE2YuGqtuVbEYtxlhJHPoIfeOv09rBNdlt/EoEybGZychqKl+pBCiZ4u05Z6a9deXR+s4GZHcFS78apAEcnFLXJypOhxgIIKtxN7MdUaM666bt/huzYcyknAoQ7fd/0L3dCAAEM9CT6pvwRTlxEYZuVAzr0Zv6xdRgty6ufIxNkfXmEhcCHHOdCcefIEsORV4odS+Rscg9naygrwvSoDxBzWjta4XlqicAaMcxhKDukJTH/XGjdz3keKltNW9cjFh6LtSuTnaz3HLNRyBSUpWSonbOEihEnNOVxm0DmBL0W6tqjYtEcNifAElClD2G2BFnarZxJTtcGd2sArw+n8a1qGFuLhuYGwlBbi/qAlmKCQKTSltg2UVaGl0RT2tF5wNX833XUQHnYhJLtATO2lqNrZHNKjJTD1fB5DGYhGch3N3gSn+FvjxzfT8Yf722TDUogI3xZMC6PF0zNI18ioGcAsplJNDfUUwAn8MdbXBhUp+vpqqJ0akbWAoLIu4uJdf/rUV3TzvbE7t+76tS3kbJVOVn21AIExbyPKrQ6bohfhUUbt3ed5pJYxPwatXCVDtyT5su8SYkgF3h6RKxZTpKx4dTR0ncZxWQ9kbsgx7vMUUWcjJWELcvhjCdd3VtylBpmkwcn3DYKf+QhMDxiGsuMUGWvydctIMaf4HApEmViV+C1soxMQ4aqeo1mZtshpZCfGVup//m8d02HfLnRedap68jR0tX579eC4GmqE0cf1QANs5EkTVc4nOPhmHPZFvIpsyWCMWjBLBXGYeC7GnA9fxl8aT+H0pnVIf28VjuURzlpThIvE0Mg8q0MI+zYpFaNM+aptRk7WuQ0XKWpmC+t0B1Ca21GcPFSGewnucB2i+ycsoIjVUlqMSrZudTH1JByW4JsScnjyYkWTwV8oms4jJ3kTAwizFhIUU5qndvjsNQw8o8J85VcqJzEWttFRLH3cMbBGgupLWtCBwBPOLvfgkqSCoBf6TTc1sv+aK0U4lbKfxKvpzcOllRb56K2GtcEVXGQjaKb/l6kdtXJ8u0KMi00yXD36FQ6vXY3/SG7AjmwIsmF160A4kvO/KTmlgDyYBlJGjqc7+DWlqKZIme0rTSx6+2qonRqwEVOXLhvpMEuPfNWPIm59/XWEt5sFOa8dSC9UYImEDTt1kATTd736+xaCJbJEP0FUloqA1EisjMjtkq5lp3eQ1aCYtCoDnFxIukwhdGznCDsLPnQ/9hq1tVDUrqGkU0tiyeLYOEyPaKbItgz70uWvgTrvX55BawGzaaFxCr5emoE6VqZtnlymTefqN0m9lV0EP8QdbjRxsXnRPBe4kqgDgZBGFhKJqL6JcOqrDU7LoS3CJN2ojtqCCooetX7IOms1flyZCZ2RhFPiwLqqMzezogXhNtQ1dWNxUh80oMK3lRFpDc7n/IrAaC84kWMtuHQ/HnqGnLj4Y+zbfEIOXZi54SEvO7SVbMdl1gEwEIY16sVybJbtA4Nn835XRawMvs1gvj+s/ZKWmS9Qqt8y+MwbjXMEk7Uv8gyX65IDkGph0vLJIUPtzJSTwxH55MCzsqL3ACmaNCAAt2njwC/ZpeEAmbvpWaRVNYQympgJoXR3R6UqK0dKqZSi4tBXOK3L6TsvhoNVFX5kskIYG9BE8z39bepD/W8swo8VQ+T4Nk1o7EJwKUFDpcwf5PCdCd8WMUkJQlgKeWiW1KihIoEXvPxsUZd7hH2b4AuFENDv8ppGX12DR1FfafJgJk8HA+3UMLqtpwvh2/Ss3wZ8m7mt7ulao0F9/09yiFUtlPbmAycmQiZIIjB6vk5JMKP7Un4AqzYWwj48DtGaC5xGV6DrRMLY02g13XcB4kI94DRsFBZEz1DnbGtcYmnvDFfXB+HpPQFz4hfC1/Yy8kUaku6NuUjP/QOB86fApvAEMss7SxNswsn9P6DBey4WetxLsIdhmbairEwU2DyKuFh/VsbNL+IFhNh05VGhe6bTPWmjyFvhj1AdLgiMoiwcp1pkZ2hg8brMpPrO+HFtKT6PKlsvTGfsSnJxNiwMoVlM4e/3Bkm93eLipIA23ji7wMorgDITWin97Dr7eaACm2bxbXo9L1dFsYTPSyQkwDwcw7wsyccx0AkfNxjojCkCypigiXc8Rc/VFFWy+DQbTTYTJq1YuKGvlBFrJRuxKhe/FAuB0hyczqmGjT9h4FZaY8NmuAzAZV34truNauGObYticihXwBkyKTltnhtcfe1gQhuKnEjOz8/rXtQp8W2aAC0YW1Canyvh2401NMnTZ4sh2jYXwpbJ9DDjgccsNmoWaQmkpPE6LHi8SjbPZIgnXKZOYCdfPotvU9RMWTusDWgjTXWrKbv4Z0KLwhfNPeT4tnbgMcSLxofBt8uoliaCXGQQ0IKwFXN/M2e4RS/FCJwirFzOn3SjsQlt5g4Y7MKAmQIMnhtLWL+luq8G2qnuEuX1m5vTPytYDrEGT6CQO2zf6x79dAdE3FJ8l0QpcolR2Jo5Hy0N9SgTHUFmEelGdsNUZfs/xsaAzYhd8Qpy5yfhjN+7yFrtr47q3D7HmUV0g5ZTWP74W8gyIoisyvgY8a6UDhj7GWbwLiGP0gFFtZQOSKlj6iKAHx33Y79oRW3Zr8hMXE8YNQNAKksrTmb8iNrJwbiQma2IaDUOa/0pE+9HWtkULIoIwlaKug3KtJG+5gpG6i1mOXaFthEuv5sWc0dihrJeIyTpGnM+RVzSa4hfmIhdsfdQiuZ5ZCe+SwuTOnJ9dTbd+HGVFe5GUupDrF3302+wNv0dhK5UL4DqrL4LXw5e8AEWzHRSXWG75BMMX1KDH1//G3IlJiy+jZJ/0mu7xkNQkY/L9eGwJ6eOo5RhkVsOj5nv4yXfRnLUUlzIKUez7Ab72s8UJYQh7gBhbGMhDCYdtX3+diuqD+7H78GvwGfuwyjeXIoH3/8nQsnxqEr0DrwWTWvxDBa+liJ9ZnJgF1a1J4dzkE8OlJGStwcnc0fg8fitcKdo9MKRn2itxg51Cic5wCcSTzSTA0UAACAASURBVNMmJJVrEkbjGXpYq76KwJ69F9T3Bq1pHPkZrvOW4eV/vUmNOIED8z9AOfMG0CSiDI8fERb5Nl72b0KTjNaVeE24dCQZaTRBOTH4tmQ3vZlZ4WGK2i/l5bMRNNP/y0fPYQCDb9MbB4NvaxY2HU+BbzNZYJK9WfBYPgcL902hjVK0GaoiB1lvf6raDNUmOkAZNSsxcUMaxpGTv0bpm82yesLTFW9OnbZT886tuHSYonTvhZi7Nah9X9u1sOc+9Kp0mbvtGI4dsLOxMg/G55lLcTXhaSTkaDrmzi6SH7MNXY20WB7WzViG9IbOIm7DdRk+Q4gFKZR1UpyAWWvUOceGr+PO0LQAuxXbvBnXSiogawdh9EE7mdH6UGsrBLTZ6LkF9fjXoo/we0+3mYneaWGUL7sCaQVBGj1dP2NW5m3JkZb/6yshvcTuctAqtG3e2RH8xlI63nEFjT252+2Ub3kPuv8rPTsnFU1S7Jz8TyS35V17lP7cz+b0Oj99MKpyz6KoToBx0XMwtkGMeDYjxMhCebF2TqPw4qIxaMn9GNm94rSF8J01HvziPOTRIq99wLOY5XqZUg7lG5qMbCl3mpYFblRKCO/ty4Ww8aAQ8AgzrqxooE0nz+CJBU6UdfFpzzttxgyU1tcgoX+9aZKmGkgJ59ZfmtBcqsDK9Z3UQ+00HbUMz21/GaUb5uBEuzdP4irZsApug+l1kaBMY8odAJUY082+co45vEKfR1yUHSz4BIMUncbGuPU4buxWduqGV1QSUuc70CJfFlarlO57vn+Daat8VHQUbNmdqARzrFmFjUbDHD3fHq7G22EBIaXVhWFC9EsEXdDOzwoJilLexsmjlNHBlW5YQIaLm2chdbO+Koir5PVgiPQd1vE9B5XoMAr3FWcBzgKcBfqyBbqSKtCX+8G1jbMAZwHOAneNBTjHfdcMNddRzgKcBe4UC3CO+04ZSa4fnAU4C9w1FuAc910z1FxHOQtwFrhTLMBllShGkpMu69+PtFKuqv0D3Uy7BEvYnGmTIZRDTVugmeNtxI/RQnwVDVI9ebvdMIVc8uo0jqVoSlfpqJC2vHvFzsbNg+uJf9og6YGOCjr5ypDEWieX9tghRRtMmipRW6qUbyNea+cRsBRQLjuNS3uKWCPvTCRY42Im4GrKeqJ7NWb/ggPcYl6FpwOzO5KI6g4nI/tomcbNRsD7oy/gac/s7pQg95VIFF9Vb6Qye/zvWLDEgz3/yncxOLg9z8iG9u5pnOPusn37snQZ0xnaeRbyEuIiJsGbEXNoIMIp2n2ZnvwxyZ9pyK3ZzcTWfU9BsnQJ1tximh+fNgGRpgNWPEnMhS3G/Ii6bGwjLyAWt+iPMYloVE0VTHNtzPZyZrces3GE9vkNp+OhPsRLTjvkTBi2O0p3q8tJxsG13/ZgHrFc8sqOOKINTgmOfkRpYEcc0AbPNNIGGqcZkFhTnelOxFcxD+DMm6tQ2mPSavLaGTrUp+MfI/6OvdgasUW++9N9CWZ+OBuDZadoF+UKEkDoejH18sdon0HIWW/EVmW2etqRmXMAp60exWOxj8F0r66cbhkubYvA4UzNnZ/ytrUeexmpx4QYmbhNJz1F13vQM1dwjrvLduzb0mU875eQvCIYtWlfICbxAhotiE7WN4DIqBgWiF7Qyeyy/Xrjghrkvzkd+USYFLAlCcPz4pGSrEHQrlCnqTuwFNs2M2RKtIkp6iM8NW0BPA9m07b1Hop4Wb4RDXWazrpamoIdc1M6O+PWj3Uqsaau1tLTm7aOS4hk6dZvpftKkhBj1GmIx+QabRjjMySdrQ4YFTEBJvSWw4gsKNVpdF+v71sFX0tJlhbhlb7zme+lkIpz0eA7CfcRWZU2w2FnV/blY/3EcXPSZcZKl9WHjIdN9VHErD9MZH5MVPIr0btmq59BLUFiz02HMJc9WoR101/BzmqiPCLVlQXE0TLL2wn2tuZE/lEBcdaXKsFhi1nrkJPgrapz7cnvsZb5VHYQT8/5THFfYo/zfx5vRQfJI3+mjowvsCpZpMWtYgrrey2Is/w66q7/YThSVfek41/6+KE7qNNIcZl207VNsye9XwVPzBBveM0LgTMRJllaEyFUfSmK9n6BPKVkGOiVO+p52Ej+n70zgYuqav/4T2FmygEUUAYQhEABFXABF9BEDfBVtEhzz5R6X2mR/im9pZZmWprlVlq92oKm9rpLr0qJmmAKluACLoCCEMimgMqiDJD/5965wwzLzLAHcs7nYzFz7z33nN+589znPufc5xuGPCd/9HclpFdRAs6tI5qS8MiupNNEKDPeUZ0DXp4Aw5id9BLLdcpRQppMXgR3StrElYfRW3GsGn1dJ7qM6jAaMQvD/D3RjV6fzz12EDfJmzRN2IaoU+ovymjK3mdMiaPehgsluOpk50ChI30MX/ExtY0LI6wjRJoydzbd3MbNInxab3pNn7LspZ9F9KZvcYvzzK18iBLTFyU53WDnbkgYtYModPdHH6syJG5+HzHxlorsfTFhKPKyoUyA9Oa596voV3we2SbeKBfoNFxiJxPvWRgyrh/1hXKJ5JynlLffIiVDmTe/el+PoJCj3sSpAx20tLPyClEm6Apvsex9NS/Opv2mDU1OMnSZbnQZ4ckyKR+DKWHaHDQkOU37HtO4HNwTiO1XJS/3qwqjzV1fYhOYUEL/rauWEHZsNuauioSYyEArp1OuYyqFB97m83h7LIumpF7RWDiMQ7pRnS98LhhtwMDjNXyzciRKD32Buco6xi/Eh9Ptql3Bdpjn9x5Cfb1hIyDeGnqJa8oPXTN7n4xSovYG0s8jNV0R4pHQI7iN+DYR8EJwYvN3iC+wxXCKjTpU0mlc4OozDP2mTIQs4xTO7bmIcnsfDPHvLzRXSadRZO8TuwXA/9O30CPnfzjLG22ukHHKOIvE6GxIKSFSJ8ofWLXoQpeRIfP/GFODhuNR9F5E7vgVHfyC4fP8AEjptewqRZmCtjpijXYqplAO14YOhDXLjD5C7EkFViwpWcjlQZn0+q3+Cv7+psgK24ETO46i2P45jA18GoTthMTVGy7kUYtSIpFNqVQHBoyHXgwZRbrhO7jb0gONQKeJvURJmwgrZj0Uw6YY4UJoJkyMBToNGW2reRswlW4Axaf2UF+OosT6OYyjjJkKFo8IJkJfy6OJy7njNER+QRhg/0AFdNDRTpUeLUunqTaozfKxjXjcQt8Zugy60GU393+L/458F2/+uA8zEsnbTrqKiP37KVd5Xt0vIEobu/HDKNX+aT9g68gxWOvZDwbbCBWlsyZj/GP6PyCOWINF204pvOi077CJ0tRu9h0O2/+mQAEt1llRPXbQ5GEKdJqiJFhNeRmmIgNKSeoGG4MLCP/km0rKS+nxdTh0XHW6W0UD4e5uRfFwmrSirH88nYZoNZc2fogo3qO+gi5Es+lbmdlRmb3vGgwmf4TJ/k8ibt1bVaG0FG/Njw5HvtNTGErZ8xJq0Gl0oMusxmFMgA2yNs7HL/xr6CKUOBE/0i+vZghA09MHhQ5unwrHbRdHDKcMe+f2HEFSrvr8BIU5AhbhaeNz2Dd/fWXGw0J7L7zkQXAGejG7C2XvK47+DFHHb6LfOPLUY7Yi5ngxBk8hqSg8ok8wYp5OE5cHy+LOsA98BZ1iPkek8VR4Cdn79Nzmw9dHD1fe/zdOCU8ohXQjtPe249OwlsjG4Rm+r/Nw7DhHb6K+uvrB3idL6Kuudv4mZFWkQ1uYTlOPi7bBu7Yhw83QZbrRZXQdFMXgi4AZ2Os8mODI7nD3HIm3tz6LSRv/jbnbrtUxFCEjGv3rCPIdAFtLLowhlHgOVtCBDLeOiSGxAprQ1XIJzo5RhyxSPZnXCGhAUZXKObkkLN//NpY3+BIWDtQEORDoNKXF5MFR7mmpFRmGsvMIf2elmsESEbHreQzxHoZu1gaUp4NWn1BGOKOCX3GbBzALdBriHl5UhkHI2zOXlaMgNF3RAD6+LYG+8TxMMjFA+saAakZb1UHNdBrt6LJu48aje8Hv2EF5uJVFQnmgy5MjasR8a0esqdpg5OSogU7jBQ8fG0qBeh32M1+FPY/64nJkW1C4OBzFpGc/otNkbL5EsgyivNh3kRZCueKNR6G7LBfpCQ/QbRzFt9MPk9G/C8MiGdxlv2Lv8kSYBXF0ml08ncaWcm93SviBwirK+QUR5f+mC6OY8mhT9MqE+iqjvu6KVKXl4salXAnxJeyY1naqXaNKOo2K2q7Soa3+1YZCJZT6mqHL6DqrA7qMvMCsy2ewf9vnWBQ4G0E/5sJ1+kS41RHFZjnx31g73Qrxm97GeM/RFAbxxbxDt6vRwnVd8hTv3Dq3Bh5t4LOfKag6ug6v73ZNHqYQ307Y/C5hxd7EzrmfIkXEPboTuFkoXPhhxryn8Sg+lFYrrCKs2GeIJ+TXw+RYgSAj0Gl47qFQqgEI+Pg25ZS+F7kDv1/7C9bj/GkKtBpAgD9USachVFiVNKa60GVWsKa4elFclIoFSdQcS544Xw3iy8XSXYmBSUmiMghGULMQrszdhseV3al2E1bgvDKQlZBHyygVWLESwooVxB5BZOgfkJOeHJ0mTY1Ow/3N03mITpOlpNMQSKKErtWbO9fg4CcUGy8mqARHp0mgDJMiV/R0lSArOkalJ5dvmwhARSlx5Cl3hy319aGWvupsZ2WnCVfWgvT1mlo3zzdtyOPWJEDdEVeaalB+/1iiy8iIZ6bmo9TQAIYdOEMieMu8xysi4ld140LLCV16AAQn+CI8SQiLGOApdc9bKRi35E5c6Y+r5JVTEn1Cl413cSV02Y3aAc+VeysmJw1pcjKrEZOTmjxMZXy7cuUIJce/llAIB1cPMqznUUBG3GNyT2SFBNL6XgGobPUcbImJmLW5Gp0mRBOAQIhvJ/+Mn7cQsNajL/ov9Ya7x24ci662kkdJp9lZG31dC7pMZA0jAwlKilRxcT0XP/Qmak4mkc6rFE1PH8qdaLsVEXKyBVyZ+rEcukxCYY74kO8V0IOqNUMyTo1O48/RaSi2XUmn2c7TaQYL9HXu0Puxx8BPd5qNVtFpDBypL5R1Ml8tLm/ng972JUjbew4Voj4wNpbgPuXoVpbqfdXVTlWzTWBJN4RiupE0a/rYajo198c25XHXLkbdEVe1H1/Lt20YXWY5fRm2rgnCJFpd4ubcB26+r2DZnIGQX46hyUi1EEdhDrIKpXAd2R8WNKMvFivByuStE3MSNm4YRaR2fl34+NcwncOeVSuPMrORKXkKo2jlgAEdr7oJEL1m6wnkOc/B2kXj4ObQAw7OgzBhNnny89wrcVWK6hSTk3saNDlJ57QijJadE+w9yMMsyKHYKIVCrEyEliri2yDPWUWnoRtZfDLKyUO3MqOblswKxiaqm5eelRdGL5xNdPKMGnQaFZqsKmC3Op2mPHoPYpOfhOPk8TU5mAJ9XUm+qZRUF7qMJh/v55dSuGcEulJIQew0Dr7BY2DMIdOUEF8diDXVucx4w6lHqK3qpZSMZYmBC3rTmCoKaezkgd4jetFHEax4Os01nk7DQYar0GniOTrNIJ5Oo45x4+pR0ml4T51g1qVEvelGdCBushNmHvBaMBGd4n7EmWjKTV9WhFKaVzBy6q24VmhMvIKq9lV7O9V7JYWErm89YxkM6aYk5sIxj0F5DDzuuiOu6jNebRVddj8+Dqke/0DAovEwNaSLlAx0YmwIFq46WHUZHiVs/8+mU1g1bwmOTOIMtGo54M3/bsBah3cpxLIPQaVFyEuKwL6ITARaVlVQfvkgtuzvi6APvseplbRNbTlgUfTnmLe4iF4ECsCm8fQiED0A59FE6cmtWXWMs9dhtCjO+Y8v34Fd5VODN55f742ymPX4ZkkYPZIr6Ov3Iqsmyi+lt/YKxf9AdwozxEfHIunaNIwI3orXAukJojgBcQnZxCK8UUlf7+ZOrMMUASDLNasaYFfBi1Rfv52CK6HnMCR4LNzdDuBkXB88s3UVXNRuECO/OYqRpMSNtTNx+PjdOqDLMnB552H0IhTXi/ueQ3FyFJLS81GeH18Z39aOWFNbq54bjytRmbSkbzPeCuyA8rhN2PLuT4pxid+JX4/ZY2zwN5gXSJg1iivrFdETVMhyXOP05Ojr9CTCxbd5+voOirdTfLuSvs7Ft5O5+Lb6PAiFbnj6Ohffpu/LYhEdehUvTFmN17xoqptWnBZEbcPBdf8TQieJiCP9egfNx9y9/yJWZwrR6otQXqTqK7S1s8qlk4IEqss58C288uP8qn2twyXWWndh+bj/zpFpM+iyv1Oklji3Al/VCbkooNezFUv3WuK8DTkHTeKJyqmNzvSy0SqYhgZhf+jNhlSk/RgisRvLiCxZRJpkKF9Z135IfbfqGdPTkqwDrd/+s9b0A9x2I4IzF2tDvTW6ndwr719AdqL2NycVfRLenLyxmL3yXt9Bfiz2bzPossdC7Xp0og74qnrU1iy7WlG4wqkEGdEEtBU7wDGQiOXyX3DwSGqznI4gkCDge7OWCqKo39FyDm67zjY0STvFMJu1DXOmxuG3+UFIVstVIh5Na81fHsiHdO5Wm0poVnF0VP4YhEp09LBVbW476LJWJRtrDPRpNcfAgDEYE0xhraJsZMWG4eC7u5DdHIDddqX3NcS+4wW1BAlVei//9S1s/7X1CcJCJa1vTFiLmAJMAaaAVgUeg1UlWvvHNjIFmAJMgcdOAWa4H7shZR1iCjAFHncFmOF+3EeY9Y8pwBR47BRghvuxG1LWIaYAU+BxV4CtKhFGmKHLHvdLXXf/2hz+zG4cRs+0ROK67ygXiI7EX7q7X3WP1oA/o3XcXa2kqMhJQEGuMiuZMQxdrCEpo/Xl9KJUg9bc1xd/Rvt7LZ2ObvzLxQVI3LKccHNqZ+48HX5fvoZu3ObMAzjwzuf0mr9qPJoDf8YMd30vaErNGR97BqKkZqDJVIMc0Hu/yEyi9JqbviTsmCpLmu4myzCKsvvN5bP7SSC/Q29Phn+PResideQN0V1z/faww9v7voQb8c2mb7pav0NbfO+2hz+TuhLZyPpPxDUD/Qx1xJ8Z+X8Ef7eLOLhkXxPnAqG3LWcuJUqRJe4dW4KQdWf5K8LIfyleCiQGpPC2Z0MMd/3xZ/T7Cd2FNEpXO95Pgjghh3uVS1SejbhlL+H8nzVpSs2BP2OGu94GonWjy7jsc6M+WIuVI0txdMsarIm/B7FtH4xxM6OETyDDzUrtCrQ9/Flx6Dv4OrT23jT62zrhz4xh6dEPYkr32vQJnKx5is59yu8tkRrwL8BUGHvDy78r7lOqXRVFp749bQD+rDgF2dHp6OYWSPCN1kHRaSOGm6HL6oYuW44Iy6kInNANcSv/iWUHhFzRly8h+rDaBS62wrPBlAfC1xmWlM7kTmoU0W7W48fLCmyV2PlNHNjcD/tmzMXWNM6nEWHUxzuxsutu+ATuR5HYE58cXQqTQ9uR5+YHTw5KnBWDzYtX4Mck8jjErnhv33pMshSmUOZ8ifNzuPOX4cyySQg6rPyZaxnXtXn4974NGEje+qR1Vyobbzl9DfbPLsKiF6ivRcqUpU/A4okn6ZddRLkwBBRZfX/Pyv11pIfNiFVmCKyJP9OjxE9D/YfBwsocnSj/Rml6PKG4vlahuIw9MGzeMOQfj4GB9/NwoNzf5ek/E9Bhf2WKV934M0f0WfgS7Hkyjxzpez5R5Qjn+6AbscaNZ6PwZyI3DFo4idLYStHNSQJRznOYsOIfdO5cXNn4BVKUYAapIxxnTiNaTg90EsuRH7MXv275VZGPRBf+LENB0Uk/cgO2TpSxkMOcBUyFOOYS5D79kRnDgSSoiAjQ/OIs9KfkV0Z0jvuElovceFgtZW71vjYUf9a6KDptaHKSoct0o8v+gqVbfziUJiI88pbiwq7xXxHc5y3HIt9OOLosCBMD3sd/85zx9poFGGlQn8tBDPeRvRC1+GV4jXoNW6iOoGA/8urJoMjj8PGzHM7sFfyY+pDycr8h5OX2VTPayoZpGFd5AvaFZ8Jy5Di4VCaRssIo374ojD6OqEqjTfVQkqMNk9/HdwPtqmUerNF5nV80HH9Gj/YjhkGaH4u4Pd8R/mw/bsu8MW6BEsVFGfJcfODqOQyD/AehLPog8SzzYOQ5k0g7ysyLdcCfiYpREBOJpBR9mLtzcINqcRLKMqgLsdZo/Jm4gHJpR1CSq1KCTmTgRlg4EiM5/NkZ3FbS4skwj/1yFYZY38EV0iMy9Do6c5i1cWb8GOjCn3HEIY6ikxabTdkKZejk8iK87C7ibEoXdOUyInJZBkWETVv9Oca66VF+s+/pHGkw8grC2BcdhXFuQvyZlANllCA7tnW8995GPG5hHBi6TAe6TARLW0ppWkg5sAs1TFaJ+2GCry0y98/DxsgkXtiQVT9i5L5XMWlkF0QcrntCocTwPTiUxsX0UnD06HXMm0vMQfLgo+sbc9UwrrowbcJV0YT/awz+jKgwW95DhlprHjg9jz5unLdIKC7iyJhRhjxJ/nmELV+DNG4yUfok+vhz6VKVpQ74szKCHBzPwH3/sZDkJFLWvKrjrBOx1hT4MwodZBxPgdHkZ4l0c55YkuHVgAxEdF/wKswTvsLOT44L2SAJ6eY1CoOd7ICwAnIwtOHP8hSUeKLoZKTL4Sr1xvDATpR3/F109NlYmWXQJOBNeMou4NC8j5HG3zCu4pL3KAy3s6PQCuU7p742Ff6sAzFCu1K62tZC0WlDhpuhy3Sjy+ownGIZLA3LcDPpT5W9yEtGUp4+Btqa03d1Ndz0WJqpSnRfyEEVJGIV5kzNHGn/U8u4pkXg8OU5mD1+INbGnsZTE0bBNisaK2MpZ7N6KfgZU7f/rP00ddmqCUAgpIfVjj9T0Mb7ezkRENeQWJUkB+XHLo/dLqwwUFB08iJDFUaba49dT8pqfQs3kgWqeZ3xZ0qKzsHaKTpaEGtNhz8TKDope2pQdOA2BYN7d8S9XGcMmtuXYyTTbYvyb1tJUJpAIAgOJqEVf/YkEYQ4mjul4y2QQU7gBbOEDQiLM8XgQKLoRHMUHTcM8LahsNNGwWhzgkp53UtzKR0tfWo6/JmSotM64ttcT+vzbFyXS79Z92HoMk5ebegyBe0GhiaUi7s62aY+Q1Oby0y/iGpFLtfg1VffUcfn2sdVV191VNqQzTri25rxZzI4LuGo6EbIOhKCo+s+xCGKW+eQr5lFxodf+SCAEjLUHrWN3IkgQ0vdMnIVOtYZf8YZPiLY3FbWXdlXXYi1JsSfCW3IjomrpjQZaJqwlObThF5OIeHPiiAn9FlJcQHSju/G2UjiU+rCnxX2JZYlZULktCqjeYKNa3B48y+QG7uqKDo8kCIXqdFUn7IYky7W5bwuXKy/6fBnrSu+zXW3Di5atXFpdR8ZumzfocTKUcmMvYgkyVT4enXHfuXkpPqYyXOQWSiCM1FpEC4s0TO1h4NpOSHOiHxDRU7ecyl5SAYSpfEXw7SrhH/kr2/hbgE1TX7da7kTcRSxwW9jwtwSOFqkQr2vqlpocpLCDpA3bnKywfgzWiY2xD0P0W+sxMUMxYSpxHsGZAa3cE4gueu70KO2PBGxCcrlYkqKznaBRl4P/JlA0YmrQYlXxGGzNCHWOAByU+HPnNyJep+KC3GKCW31ETUwpknXjAM4E/JTreusdeHP7vT25Ck6l3itHlBoKJyvXt+b0zAF0Rzj0kNGk5F3UaAWKpJ6+aK7PB7h0bR0VjSg6fBnRIm34m4Ie5LrfuE2855tyuOuXQuGLjuapgaETdqNzQT2dQ1ahmXTR8DFuR88fCdh8SJ/OPATh5dwKJIm/SYFIsjLAbYOgzBz0Qy4FMbiUITAM0xNwPVCMwyjiUBaHAEDt1mYVAu6rPbxUP82B6mZjyie6QU3UwMej1ZvI14UhUNRDzBqxliYXj6FKn1VnoqbnJzY0MnJxuPP9K2tYERtqeAfVDhifCAmBA6HlGLQ2bxhUYKA1QguSooO7x1yRRnfjuWX1mnDn2mmxCtuDhoRa02IP9OXcYZTRFgwgi1UKWW4l5ENfTsv9CE4MF+4G4bHONi5cJ914c9uwMSVo+io4+b4SgSKTixP0SknL76UvGobFwWmTuwWgLEzeyF3TwiSOEByU+LPaPWMhK5ciYkVxHRT0hPV34GpIlETfHgMPG6GLsuqQuouxslVwVicRy/gEONxS1cylfQCTjy9gKNYw12GmLVLsUpMywGXbUQAhVTuJJ7Dmvc+RbhypYY8SoE1C/4UxyYVIDX+JKIIemtrWN/QSDF+2fItvJbNwaajU+jir74csC5XMB1z+A/cGeODm0dPVsWv1eVwXfs0Bf4sLgJpRfPxzDf7MZSMd0XKKaTSiouuBbG4zefLphCGkynFZuNV2DaBEn9O6bHyoRQt+LPil/Di+hdogkxZnPHi/8bSjTgREW+8SZ6+HnQi1mjqtKnwZ+Vxx3A1+TUM/fIAhlOTMr+fiz17b/KNy9/zPaJc/o1nvtyF4UUkCOHPkBOD058cJfvbRwf+7C9Yewvx7SpjZ6egxHPxbe77uFD8ETcIoxZtw1NBj2h65S5uhC5H+F7l02cT4s8KzuJ85Hj4Bn6J12kpt3pfqzSxBT+wfNwtKHaNUzF0WQ1Javui6/iV2B8sxppn38GhQrWni9p2/ru+I6/S0F4G/fwMej2bOIqturQM/kzPjNBkJiJCk6XUiiZrvESKpyUjgxLc14A3axH8GffK+/rnkaXhzUlFP5sWf/YYeNyNH/4Wq4Ghy+ontZhWatj2w6tzBqA06jOcbK1Gm+sVhSEKE7RwuOrX8+bZu4XxZxW5hCbLbZ6uKGotgzwjgVa1aC4tgz+TUyzfHK4rw9E3bRd+eu/rKrlKmgN/xgy35jFvhi0MXVYfUV3nrcXWGVa4Ex+Olesi0Nr92Pr07e/Yl+HP3MYJvwAAIABJREFUmkn1e/vxy8v7NVbeHPgzFirRKDfbwBRgCjAFWqcCj8GqktYpLGsVU4ApwBRoLgWaNVTye/L55mo3q5cpwBRgCrRbBZjH3W6HnnWcKcAUaKsKMMPdVkeOtZspwBRotwo0a6gE6Izx7qvxry7lyLlHL3Vc+C/Ol9f3JY52Ozas40wBpgBToFYFmtnjvofDMa/ihVM/4qZ0BKZ1V+TirbUl7EumAFOAKcAUqJMCzWy4FW0ok19BPC3C7fIkl9GBFaYAU4ApwBRojAItYri5BpY3ppXsWKYAU4ApwBSoVKCFDDe9mkopJsQdeb49K0wBpgBTgCnQCAVayHBTUvTie5CaeGIIlymMFaYAU4ApwBRosAItZLiBpORd+A3uWDzqP/hpwNOUXZcVpgBTgCnAFGiIAs28HFDVJAf7aXgaMVh58gf8zvEJWWEKMAWYAkyBBinQQh53J1hJO6M4P4oZ7QYNEzuIKcAUYAqoFGghw00Jz+lM8r/KmPZMAaYAU4Ap0EgFWshwPxZU4kZKzQ5nCjAFmAJNo0CLGG6R2BEuRJ29+6AmEbppusFqYQowBZgC7UeBZp6cVM9Vcgr/udWsHKP2M2qsp0wBpkC7VqCZDbciV8nhdi0x6zxTgCnAFGhaBVokVNK0TWa1MQWYAkyB9q0AM9zte/xZ75kCTIE2qIBGWHAb7AtrMlOAKcAUaBcKMI+7XQwz6yRTgCnwOCnADPfjNJqsL0wBpkC7UECr4e4/8w6u7Rfh1OcdMN9Br10IwjrJFGAKMAVauwJaDffFnV3Rb1Yxtt8twktT9GDY2nvD2scUYAowBdqBAloNN9d/eYkY55IeoEMXoCs6tANJWBeZAkwBpkDrVkCn4eaaX8r3gdHZW/dQstYxBZgC7UWBuhnuEuKOUZG0F1VYP5kCTAGmQCtWoE6G+9atRyjtDjznTNzIVtwZ1jSmAFOAKdAeFKiT4S79wwTrrxRgzod6uPSDBM+IWay7PVwcrI9MAaZA61SgTkmmjAbnY35fK2z9oBzrL5eDgcda52CyVjEFmALtQ4E6edxdu3eA5Bbw02VaZdI+dGG9ZAowBZgCrVaBOhluSSfFborVJa22L6xhTAGmAFOgXShQN8PNS8Hi2u3iimCdZAowBVq9AroNt0iOQQ5P4tFd4A5by93qB5Q1kCnAFHj8FdBquPlcJbukmNXFAD/sqUDh468H6yFTgCnAFGj1CrB83K1+iFgDmQJMAaZAVQW0etxMLKYAU4ApwBRofQoww936xoS1iCnAFGAKaFWAGW6t8rCNTAGmAFOg9SnADHfrGxPWIqYAU4ApoFUBZri1ysM2MgWYAkyB1qcAM9ytb0xYi5gCTAGmgFYFmOHWKg/byBRgCjAFWp8CzHC3vjFhLWIKMAWYAloVYIZbqzxsI1OAKcAUaH0KMMPd+saEtYgpwBRgCmhVgBlurfKwjUwBpgBToPUpwAx36xsT1iKmAFOAKaBVAWa4tcrDNjIFmAJMgdanADPcrW9MWIuYAkwBpoBWBZjh1ioP28gUYAowBVqfAsxwt74xYS1iCjAFmAJaFWCGW6s8bCNTgCnAFGh9CjDD3frGhLWIKcAUYApoVYAZbq3ysI1MAaYAU6D1KcAMd+sbE9YipgBTgCmgVQFmuLXKwzYyBZgCTIHWpwAz3K1vTFiLmAJMAaaAVgWY4dYqD9vIFGAKMAVanwLMcLe+MWEtYgowBZgCWhXQ17q1HW4UW8xE2CgJVu8OwbGKR61YAWP4eczBG09ZwVQPyLz2FabGJEPe6losRScnexiJqjasvDgXBSnZqIAIYrveMJEqtpeXlaAkPRklxU2tvQz2815F97hvcOpUpnaV7MZh9ExLJK77Dreauh3G9uhqJUX1H15xRjwKC5q6zxq6KbShIicBBbnKK8YYhi7WkJTRuCRw41L/0sFlMnz8/sL5tQdwp6wOfZF6wGvpdHTjr40CJG5ZjviEep5Z9BCz55fjlQFG6Fash3mvl+OEvA7nrn/3WtUR1a+fVtW4+jXGAvMnvImBNzdi1mUdP0xtFT9MRnSqBFn1vH6UVYqtZuP4sEdYsWc7jj1qvgtILPMho90R4ceW44e7pZBX0D9t/fq7tkndMHLFO7ATi6Ev7kCtkKOcGloe9yW+WRIGiFzx9IpVcDEoRqlcBD0DCfTlObgRshyHQ5OartXGA+Hq0x8P4u7qrFPqOhKO1n8irhkENfFfgGn+tgCnB7WkXM6dJAfn330dUQUPK9tm5P8R/N0u4uCSfSjU2eL67CCCxcylmOpniXvHliBk3Vn+YCP/pXgp0BmI24Qt7/7UAMMtQlev8XAwC8fpuhht/qw5SAzdhTSXKRjvJ0Fc+l/16Qi/r6TvXbw+wAoHPqjA+qSy1vkbqHevdB/wGBlu3Z2tyx7ygrNYElWXPf/efQykJjCQZ+Ls7fvIR/PdIBrdy+JTCJt8CrCajGnfzMDdVTPxy6kSVbXW7rAwuYtL78/GydgHgNQRg1aswbCZU9H9yEe4VWcjoL2l+k79YI6biIhXGUdNRxSHvoOvQzVtbdz3+SFvYFOICLYLd8Hf6ii2zdtSi2E2hqVHP4gLwmvZ1rjzA9awdjLB/ZxsSKQGoIc1VBh7w8u/K+4XPUJ5QnwDjZ+Mr/deXBzURld7Y4tTkB2djm5ugUB6OLIa8HQjMesASXEHxKRyLkH7KToM9xMY6jQVb/TuBRsDfcjv/YnwC7uxIT2PF8nG7p/4bpAY3xz5D3YXcXfLJ+Az/B0sMYjC67+cwGX0weopL8I07Szksv5weFJEj4OX8NWZ/ThWrLy76sPZbiLe6ucKB+4cRX8i8sIBrE7NVhsIM7wxbj5G5O7FbpEnZvWwgqVeOVKTfsCsmIeY7/8mJhpy3hyVAcH4fQD3RxmiI5bhrXTdP1Rub7FsCsJ8h8CQ+1BxBe9XC5WIjSdg91gHnL+QARsnF+oLkJcTgRUnT+D8X49gYPcqTgzrxR3Nl49e7IePuD/uReDF/x3GdcG4WliMxbsDB2OgiRHwIBfnE/6H1ZcTkFVpfLX1NQkWTvOwZ9BTytPg81nu/N+VoZKOFpg2xB/Pd+8Oiyepkdw5kn/G+gvxSFMz8GKjfnjL3Rcjzc1hQOYhK+cKvj2rGhexlLYP8YUvbTek7UnpEVh/JpLva0OKxNUdXeU3cama4ZS6OqGLPAVRCcI40Y85K6MIkKl+hnpO4zDUfxgsrMzRyQAoTY/Huc1fIyWjlG+KHnlsvn56uBpZAUf/kTA37oD86C34OeSC4DmKYOzWG3rpZ5BRoLjuxC7+GO7fE1l7N+NaAufTOqLPwpdgL1U8FaTv+QQXq7TVCo7zXoFpQhjynPzR39Uc+kUJOLduLZIylNeyjO5PAXD36gUj5OLqnpPo4Nkb93ZsVNuHTiVygq2TIe7FxFY1zCI3DFo4CeZiKbo5SSDKeQ4TVvyDDsjFlY1fICVXcR49Oy8MnDIednbmkNDTSWroZpw5fp3vq8QjEKPdKnDf2AW2Mhr7PRdh4ecHC9F1RKzYgFvUz+7WJUg/coPaYAwJpDAJmApxzCXI6YkkM0Z4WhVZwfbFWejv1hNGYjnuU78jNx5GQeWNtGpfb4RegIzqzd55Q3V50E3YceY0uLj2QCeqIz9mL37d8ms1wy4Y/IS4Bt2kJPzZOqC0THXa9vCX1slJ576v4VNnKaJjvsUrB9bh/WvF8Hh6Dv5pwt2ngbSU3Vif3RX/8hyBXiSehc1UzO9+B1+e/pWMtvIHLoKLZWccObYC3rvX4tuS3ljy9Gh+f64YyCbi02G9UXRlG3+OFUl/wctzNt4yUQyJahDoEc9+HLwLT+CtvUvwzIEt+OHWPTLuf2J16NsYsn0Ndt2VI+nCWvo7mP4trLPR5s4hz9kDbzru6ePnNV9AepbwkGVg9U9L4H1gL5K6PIP5jhZ8E4tS/sOf9+mTcfTIfwnv7+DaRO3436FKo23QdSK+GjUQpSl78PqBj/D6mT8gdpqJJQ5dVd3k/9LUV9I8YRNf79gz11H6IAb/t11xnucr49uGMK1IxA+/fUN6Cuewn4GPeivayVf/RD+s8JmFkR0uYP3PH2PWTyH4NrsjzDsJNz9RX6z4x2S4PYzC+4c/xpSfDyK+0zP4aNhAmAjjVq3BOj5Sf1x7Qj89odJwKg6QwtylJ5Aci2yltyV1R183U9yLjUQ2byTo2BHDIM2PRdye73Bi837clnlj3IJn0YmvRASZjx8cPfwx1MsIqUf24GJ6J/T0nyUYYW4fhXEoTuAMJRlFCgtMW/gMHh7fKRhtrppiFMREIilFH+bupFVBNf+NDKGrzzD0mzIRsoxTOEcGsdzeB0P8+yu6QufoueRT+Pt1Rkbo94gMuw3HoDcxxIOrq9rNTuYEc1kxsuKuCccK/xMXICs6gm6SpZCIM3AjLByJkRH07wxuC3VIPIIwbfXr6FF0FudCvsbvCfroGxQMFzvuNymCpbcv7F1NkB95FXJrL4z0d0DGkWuosHeDgxWFoVwGwZxuoGmx2SgxkKGTy4vwsruIsyld6MaaQtcX3QxFjhi4+nOMddOjmwL1JTQNRl5BGPuio1pfN2CCXyehr/fQM/AldKcnmrQ44QZs5YOxX67CEOs7uELjFhl6HZ39guEzzqxqn6UusOEMfqyawa+6h9ZPYpFwzWrd6/HbqNnj7uiAqU6mOB/zCb5KJw+IyvXrB7DbdjGm2nTHt/l/ktEsxJGo/RjqNw1Lh3RGoXUvpMZsELxvlVip14/jyAPOWyjAkSvn8NJYN/h1PokN9zrAo5cLDHKOYnXSDd7rvH7lAJxt3oFfL1ts+D2x6uNPwWmsUHqnD//EkayWHpACRFw5i+uc1/nwCo7nlGOJzALia5l1eEx7Ar6ugyBJ3Y4l164p9i8+ia9uuOMrO2fYJEVU8YjR0L7+lYQv/1CLDdM5fvjzaXxq2QMG1E5uJHvZj4ZHhzgsiTiBSH4CNh9pV9IqxbSxHwWPsli8HhUl3IDzseGiI0Y+4w4PvfM4Ut/4v0YPk/M8JajIeQp9A16hMIkxuru7wyhlKw5t/l3wlsuQseU9ZKgN9QOn59HHjfMWO5D3Zg0r8jwfxn2FQ5/8xHtzHTACw9wVZp0/jIyujXU5skIr0GfJBgyTXUX4u6uRJnjs/D5lGcg6noH7/mMhyUlERk5VY8sZvK5kTC9t/BBRvCd+BV38fdGXnuy4IvEOxCjX+4ic/x7ieQ/8Bky9x1BL4pFRLQSg6ekD9LSRcTwFRpOfpaeD87gQGo476mEwM2+MWTAaRSHz8VNYKn9exOjD3usdWJFRvphuDxv7Dkj9np4iYgeRc1SAhJ3/oZuRL/pRSwvI+Hfzsqe6DyMjXQ5XqTeGB3ZCZsi76OizEUjZhSy6WZoEvAlP2QUcmvcx0vgbxlVc8h6F4XZ2FFpJgP4I6qt7Hk6/sUzoaxoujxuFEXJlX63Qb8GrME/4Cjs/OS78Nq7BwGsUBjvZAWG5irbTfzu49kNXMvhXlAa/covuP8SdHmLcYCke3aKmN+xBUPdJWukemg33k5aw7fQkHJ7+EL8/XbX1hcV8QEFRyq5gdfQFbPcdAYv0HzErOa9aV8uQVZSv+u7ebeQ9MoYFt8zgnhEcjPSRl5eLvMoLNB9J9x/gpc7d6BE+SS1+W4a8/HS1/aqdpiU+VtxH1gPlFVJOE4L0o5XQqgg6t+74mhl6UZ9Nu7+C3+yrNbaoC0zpK5XpbExfDTG070S84cCFt54k4yaUHH0KeXQgw60H267d6B4ajdhaV83ow6GrDJLOT+G7WcOrNTQTJk+Sh0Ox0HoVTR4mH98uQ2mOGbo72cLErif0Ur7BvuX71B7J6VoZR4/sXk4wMTaEHoktkcpQHrsd97lrhjfKd5EcEl75CG5oL4NezjXcLla0ko9v03GlAR/ByeQWIv71ORltZXhDvSdSWFBo4GHCQbXzc9tFMHMng3ctXBU+EdmR11yOgtB02m4Fp3GD8Cj2M1ytrJdWjhjQOMZUj/kqnz6OVnv6ULbDGNbuNnhIT2VVjDZtNvGfSpO8BbhhNxbD5nFXHWiC04xuKHeRzoWASE8r41TExlPox86VPOjLuEQGUd+9N7oU3UQ26dyDj0MnoKRABrmBI8wSNiAszhSDAw0pvESOEoVrBnjbIP/4RsFoc2eR8rqX5hbRzVQGZ3/qa7R6X7mJZ+qrMr7tNgWDe3fEvVxnDJrbl+KQXDtF6EY3l9IE9clhmtCkEJakAfHt/jPv4L8TzQGKb2/54C9kqt/glFI+xv/XbLi5TlfkY/+xT/DpbW0ulj4ZAhve8MDIDjYdzyOr2m9CrP54rUenVERa6i0rZyh1G8h6V9uCB5QhKWYdZl27rfOcDe2rhd1UfNqvMw5HbML/Zecgn54Ohg5ejE+7VB3q6oGo6g0qzdyLcSfO8h56Y4smD1MR345H2JJFSCGvVM8lCLM/nUHhhXCawLxHp5XBkTzk0dZXEL0jBOdyC8hwONMqlH+iAxkf7qrUdyGPTZ6IWGWMHGT4nHqQ8d1O/iZ3g1HEt7lYcMLOkzAkz36A/wBc3BRbs1v0ZGBj1wG3dyrqVu3AefUUfoiNVcVn+ZvBLZyLu092zR129h2RHRanWo1hRjcUCodkx1cLAWh6+lCeTGhD9ua4au2jmDPFiouTT6CgWE6/A8UvQU4jdC30N9ykEIfEh+YL0mP5G4KRvz06pdCEX5m+Ir5Petw2cIYHhSUyQqhNtOzv3MY1eBRHHrHxJFjJ7iKDm+Gzn43uBrm4EX1ddX5j0oWeWG6HJVBfXRV9Db2koa9koGliVZqfgsScQkUryb/hWpt2fDfyItXqFUJY9xoQ3764syv6HSzC7Hcr8PocY+z+oEO7Mt6aDfeDTKSWGsClqwlwW7OhMeg6Fkv6dcKxE18jv/8rWDo0CS9Gxal5yuRhdLWEOFWxxljc2RIWHQrIq+YeMcm7Li7H1M5mZPivCxN0JuSFP4m8u/l0SdbHs6sgD5i/uf/9hbs5cbMHVe53ubhOv3E/S3uYXLvTbCtBbGSWtMrqV3yVmS0YXUPYdjbkwwqKQpO6d26jtLcD3PR+F0Il6pKVI+kOPSE5a9peX3k1eZjK+PYPlfHtioQIpORMQE/yEHGKlqnRpOMQeiSPfmMlLgqerMR7BmQGnMG8Qw0RPOEUevRXhiNEZDDtypF9jIwMX4TJr2PLcJIMazcrb8z0mQyHPReQJEz2VfbI3p2MVgbi+LrVCu/VlyArRPVMZOTuhE7k1Wfk0jVqZw2puBi3ChSTpVy7TPx86cw0GVs9BKDp6UN5OieaxBWn4gJ3Q1AvImMYkQd/78henNl7s+o2/pMIT9HTwr2E3RTANEZfunnlkrcvF/p/+/g1dHB5hV9Zc4m/yT2g0FA4f6S+N3fzS0E0GX99DxlNRt5FgVqoSOrli+4UBgmPJl1k9tTXAvxZ2Vfy17x81PqqDwNjA5RnHMCZEB3LCqVOsOJuCHuSa+mP7q/kJU8g7I9cvPG8Meh+i8z6mAvd1bfqPTRPTlKsdHdCLmxcX8IS+57oJTWDs6wfXho8B29ZCv6ayAHzh3sCSXuxPvMGvjl9FJnW/lhq27lKpy3t/fC6ZXfYGDngDbcBMKWJpiP3OLe8HNFJCSiSPYN3HRTn8KLH/OdN7yLien1fJrmPVLoeLaz6YKCIwhcd9f8eI16cjyyaxBxhaQqDKm14iHCK7+fJxuPTAQMwkOK5vYwd4Uerdlb3fqrJ2ppVQEbX2A5eT3JDqw8bm2cxtVvV29n15F8R/ag33h35DLyMTWAjtYRXr2cxzURxOaSpbffhthvZ0ATWOKzw9KycVNZ5VZOhMbSzh7GTJxxoBUURt/yMPhuaCW3hPU8JGRp6bFdWVpaA9ORCGJDxMqYbjb61Fa3OoPsf71yKIKUVExMCh0NKMehs3rCQJ0zzMPnqS9gETzhNafiU8W1+IrAMt0MPIE08kCYV6RG+WpE6OcGoIKmW+LbCq0+r4dXHKLz6nHQUy7vAilvCJ5LCeARN5I3rBf1kVXxbz4y0oP538xhGMd1c3C+2pM89aoy7vowznCJIDIQ3kpRtJA/5NvXZjIxkV37lCxWpNSxoMrI7raLhVqrY2ZfRJB/1k7953UV2Ak0C8f2/TZOGd9DNlcI96hPBfCV0Y6UwEFJi+fh2eXERSin0Y+NCDhsVsVsAxs7shdw9IUjiwjFF2bT23Bjd7BWT3WJayjd2ioNaX+nmkpENfVr50sdOCKlyNx2PcbBzUQux8pVLyaEQQ2JiBTEZe70GTDTKm2i5KN/ZNlQ0e9zUictXvsU7Fc/iDdc5+M6TW1pWgLQ7Cdh1j/OWDeEzZBp8yqLw1vnrCu/uPi2PO++E74bMwNQ73BJBTokyxCZfga37q9jeWYSi27FYHfFr5UqLoqzdeOfsVLzrPBs7huijsCgTkb99iw23ld5LXdV8iGMXwjBiuC82TKMJpnotB+SW4L2Dl0yVXikt55uxhl/Ol0qrVKbW44UeeUEEvr1qg9c9F+EEZ6PUlgMW5RzAWycfYP7ACdjQm0wSxczzaIllZFx+k4WA0pL2YIPxTLzx7HK8IX+APFp+efBmHv5pqOaOPLyEJcfALwd8d+xYetopROadK+SlC1qXqbbP57dTPTQusdeP0RxD3UoH90BMW/oMRUeFIgvCi3SPz/x+LvZwHqO1K79+O6PKagIyPAkUMyZv1oqMUXwcTdgWzccz39AEOBnvipRTSKUVF10LYnGb+8FyRolfnaHBE6ZTc/FtbvLrtHJpX+5xnIt8CS+Q12239zJSZHPx4voXaB9lcablm2Pp2T4REW+8SZ6+HrrRE4BeygHNXn1xJE7v8IX/i8vxul8x8qIicYdWpXSkEIDipkRx4YVfYRTFfZVl8EdfY3DRKRyc8RHS1IxPedwxXE1+DUO/PABuhqFSL3pZJSHkB/RaMhsv7nsOpUVyPu5cQsv0wiJpR26+wDgTf3CrQvg160k4wXnQ7tT/okT8kW4mrLNWu1HyjaHwJhlYPr7NfYwLxR9xgzBq0TY8FfSIVrfcxY3Q5Qjfm6hoeu4p/B49EX6Bm/DaTHqZKieOn0vIq+wrPUfv+R5RLv/GM1/uwnBqJ/eyEXJicPqTo4o6lP+ldybOR46Hb+CXeD1Qva9Vd9P2SWElqJ3c25d8B9pH6eDUZ1AzPmD05ddxS6I/rNfSvPYhPetlnRTgPHeabNTPz6DXs5si4l6nszZsJ3rS06OnyArrOZi5/mncfPdftD5d2/xQQ05DKQQoNNNJXN5MqQG4NtETqxWlKTAowf3kdNT0ahXbpfTkUJChtvCgWnf4pwwTEU0+p9D7G81jVSX9s3HqXeWbk4/aje3W6nE35LJixzAFmlSBsgIUJhQ0aZVNXZnUbRx6kIebzHn+1iMwfMEEiCM3IKbJjTbX8mKUpFT3mpu6R7QIICOBVrVoKortukxxRW4y7qhW/mmqrFHfl17pgq8u3MUrHxphTrE+y1XSKDXZwUyBdqOACEauvvAY9zrGUJ6V8vxkpB5fj907Trcb7+9vHeqyJ7DtU2AbuDmz2pZ4/q2ta7aTN3OopNnazSpmCjAFmALtVgHNq0rarSSs40wBpgBToHUroDHG7ef1EKcv0kqSRpR795px3rMR7WKHMgWYAkyBtqwA87jb8uixtjMFmALtUgFmuNvlsLNOMwWYAm1ZgRYy3CK4L9qB6JDp9DKH6iWXWoUTu+PDX37BZi6BTFstxl4YtuQt2Jk1o7zSkdg+43VMFTfjOeqlvxRWAR9g1DiHeh3FdmYKMAXqr0AL/eopc1j8OUTEptLrtI9/3FvfzQeulBO5onoe5vqPTwscYQz7hd9gUgBhqxpT6JXrnl6UXEjezAt3G9NGdixT4DFRQOPkZFP37+bhz7GoqSttlfWJYM7lhBByG7fKJqo3ijO4bhYo3ZzRuKZS/u6IORMbVwc7minAFKiTAs1suEVwXbAZW2c8pWhM/Bb4BOyqllNbhlEL3kHwBGeYUtax+P2/aUglqg+TJ7gsdw+R9/BBg15u0I24EvBUsV8iisuExhXCZvlO7oy4T3YRkcWB8FaTYJxTRJy83pQScy8ulz0Ndw9zFIetF+C2djyWKp8jkyz8jBLtmFA+h/M4vfFr3KrMRidCJ7fnFTguGbG4ClIQF/IFEa7VsLBEIXENno6Ox3bgrutMuLsR/onDYYWsQkxstcxxGoaaw3N5TBlFKTtNoCcvIHp3GCI2/aIg/BB+y3fmYMpFYQYrgw4oplwtE7yoouKzlFPikJASlT5bjcXogKeQvPMPmEyZCgfqj35BPE6v/QJp1B8OleU7zkbRgpwTOLHpRBU0lYn/Qgw2/gOXCwbA3bsPJY2ifNI715K+KgqGnp0PhgaMJ9SWAeVrDsWFFAfYiX7Dr3v/qJpgUUM/2ddMgfamQDOHSsoQt+5lDKRkRnP336IwSc1iOfHfWDbJDDFrgzE9YC2ibUdiZNfaskXbYZ7fewj19YaNrjh5zdPQN3VAXBm7EZ6qD3H8hAz8dJSRhx8crE0VTDs7Twz06k8JiS4TQ7ATnnr+ZfSiREHX0rvA1qO3ItObmRMsZGKYuI1EFzKUp3ecQandcxj78nAhDTkl6w/4DDOJZPIojraHbKeXpZ3xzMJ/wVw9O5r9SAzw6gPXgGD0N76FK2EHyLA/pHMoiCu1dlHtSy639bSlk2CY8jNOE5/xTNhFlFLWOWXRK0rHjcgIZMgpQ1sOYcHCOEQW9++qAlAg7Cilsevj6kGvcU9D15xoykF0GKmUMkRPSKP6qCCOR2sVy1wpJSpBEao0zA49iZzS03sKnM2SCD12ANliJwyeOVrB9qR99VwC8AKhuLoXnKI5kO1Ik03G2IAxxI18wIy2rkFm29utAs3scevSlbztCZReM/pzrDl8mffyE0UrAAAe6UlEQVS0Q9buwxjPV3Ud2IDtuhFXupLySyjtZ5d0wrCFnIT+3OkoJyLKqb2n0XnBXDyknBpc7gZ9wpPJxAR3XfceUcs5z/g0/vL0wyQryt+MU3hAHupYf32cm/9/uJiiMHNpRS5w+cgRxuT5ZgtxcS7FqDHVeGnnEpxUev84Usd+i9DDfyQhwH7AzpBfBAMYheQw1eEVGbEE26W8zT5BKEo4jovHT9VSt4IIoy+/gHPLl6nyV6vVI0+IRlKyG6wDQFn6qgEIKG0tl4A/d8d6/MJnlxPhgesUSvMqnIqeKjyCJqFT9Ef4Yd1Zvp03MRT9lz5RE0BQS+vYV0yB9qrA32u4xTI4WEiQGfunKjySlY7UwlIyWtVLEpbvfxvLq39d1886EVdCUn7i8VWCa5VJ+Qm2yhkdSy5Rfdxuetjvgr725siN54goMjjZGaDgOJcMXhHfRvLhKuEMsUhMeY5zyBuVoe/kUZTz+TI6e7+MYVy6Syr61LZO8kxK1amcuBUQWjHkKVca7bp2VLHfozI5pTSdgUkLn0JS3DmkRZ8j5mC1tEAaaSvCuYTtmaGUi7k6dEC9ORoABDynkRLwnwhLEvY2gIm1CWG5kvlwjb67H3oTfPncclVIRI+00uegtdUBBPXrPtubKfBYK9DMoZI6aCeX41FhNYNSW0ylDlVp20XpTSdrSobPQ2cJTxUfr4ancufxVGlc7JkzYtUT1cdQAuvKRPXZdHprRXybEFeV0WoOGGAvoZg35TsmojWHuMqlnNMlZFjllLSe+1eSEY2zIZTvWZmXWTCYWdExDYrlcznQUzdSWInCNHeNHTAo8APM3vQ+7LiE++qFgAXm4lQykhpi5oJBToqmrHdaSu0AAiWdJhap1ek05JlzNzljt34UprlM/EflDYuwV1zuazUAgZbTsk1MgXarwN/rcRMHMCnvETxszSl2e0NhpAxlMDUU15LnSzE5aUiTk1n1npysA+JK6ojuHEZpp9JIiWDl0w9GOecEPBUHYlVLVE+J9qsmqqfMZMQZtLCWoDiUM+KKwnmVdsYpOHeMvE5jDwqXFCD9yPc4p0zsX9ulp8GDrW1Xjd8RMTx17xf0jzxbj4UIWOpAsN2OSClQ5Yc2cnIk/FYCsjj8Vi1FaZAVtJladuC/0gTYVXIa41U3H3VOI0X8OcSVflEOJSoVzm/siQFuprgXWR2wq+nc7HumQPtU4G/2uHNw8tAFSEZOxgsOT9AIGMNz7gQ4S2p7SUcxObmnQZOTdUFcmRNLjyOI0yoP8gaNvIMx2suC4r8KPJUivk14Jw7EyvEGM+LVQKyxtOLkER/f5kgqJhSf5njI3GoJH0JtPTy2FfEcM7EgGQWEuLLxGVyJrNIjY28/bljlZB13GdbNYGq6YKXoRjgr80pEmBWsvYiknXwWySnqaS+pjzTpqk/hGv1qlCxFzVJYU2ionFBXPG1GUxGeDm7XiG8LnMYadJoExY2Q6isimCysPeBIBBZOhwELXoUDUXFqAHY1nZt9zxRopwo0r8dt4IdvIt6GW6W4c3EsZi59KsBPQbPwYXQxMg98hmW27yN4814ElhbhZuxFxN+xbNrhqAPiikMrZaRPQv/grXgtsAh5FBMuodUl+cJjvZUOEGsFGXsrnukXhTuu7+M18nRBqyxyj61H6ObfFROExdG0iuQP+Ae+j9e9iolTSGxBgszmHtuE/ZU9VhrMUO0GU5NCIis85R8Ez+B/o7woHxViArcmH0fYJ9tUS/z4Y4m/GB2FLLcxmLaPUF2Exjr/zj9xSvkkoAzX7LxWy+oOKXqu+AHj3TkipFCCduKtIDLGkSsQ8skpAtPqoq9z/McQXHXnEFcH4JWfgKuxGRTnr2DxbZWq7C+mQK0KaMzH3S6zAwqYLDQWtaSrHmG7RE407fQcVGjzaGsdNvqSe+X9uT44vI/YnvLqCeQJoWVmDiMTKSX2z0BhG0B+oUyMp5Z8izHi7fh+SVgDY/uaxGLfMwUeLwWa1+Nua1o1FSZLVz3CdrXXbZpYqTJU5KYTo7GJq23K6mgpoL2fJe5FcatdpDDxD8Qo1zs48+4JZrSbUmdW12OpADPcj+WwtoFOGVtTbP91OAQa0vK/IuRTiCl6yWJcE9a2t4EesCYyBf42BZjh/tukb+SJ5X/iyNViXCnXMnHYyFM06+G5xxE+l/4160lY5UyBx1MBZrjb6riWpWDXxZS22nrWbqYAU6ARCvzNywEb0XJ2KFOAKcAUaKcKMMPdTgeedZspwBRouwoww912x461nCnAFGinCjxehpt74efMfnzgUeurgHUaYonvMkSeWQVfyeMlTZ06X2Mnyh1C+bR9Jg+osYV9wRRgCvx9Cjxe1olyn0RFUNL+vNqyVIng+cEeRG+epJV7+Sgzjuq4iKxHbXS1RpNeS3ZwHDcc3QweNGmtrDKmAFOgcQo8XqtK5DEIeS+mUYrILx/AovcaVcXjczAPhbiLjJjUx6dPrCdMgcdAgeY13GIvrDu6CCYR4ZC7DYMjZf0rTI3CF8vWITxN6RVL4TLx/xA8ZygcLSWQZybg5JavsPIwpUFVCmzhieBlc/Gssw0lYyrGnawbOLp2GdZG31XsIfbBl1GL4cF/UuVBUWwUYdSavVg7srNQ2zzKlzKP//vOoSUY/+Fp/jwSr8UIX+ujSPZUehYLR7+H8NKqr5Kbuk3D4gUvwNPRFChMR+yh7/DxulPI4rLbiT3xydGlMDm0HXlufvC0pX2yYrB58Qr8mPRQOLfwv46GsKCEVqXciyd/Ncyz14UE4zFtPhU4u+6AkKPEGLZz30SPlG04dTyVR46NdqvAfcrjYivLxfk9F2Hh5wcL0XVErNiAWwR04JNmyTNw3XouJgS4EuihBFmh/8GvYVfV8pcYw2LcLMKS9abtYpSkn0X0pm/545VFMoLO5ZqGc5Ed4TplDN0MOETZPhxd97Mq/W1VhdgnpgBTQIsCLRAqEcPVoysOBc6A15jXsCVvID5c+TIcBPyYgdf/Ye1idxTtX4XZk17HB+EdMGrRhwh26yQ0W4oxwe/gBYPL+DhwNvxm/BsfbKXMfFC758iP4Q33URg4cg1iS6sbwjKcfNufx6fNO3QbpbGb4OM+mj6Pgq9gtLkTlUauhBd957E4snZjYuGL5WvmwDH1R8ybMRtzV8XAdNJirJ2txLlwtYjhPrIXoha/DK9RXF+dERTsVyM0Y2E/G6GT38PS7rUh2rSMVuUmXUgwSmPr8zzsZR1VKVMJCtHHpz+MiD3JQyEog6A9kejzCVUmt/bCSH8HZBAwosLeDQ5WXLsUUAiJ2BF93R4gce/3iEl5Eo6Bb8LFSrhsRHbot/or+PubIitsB07sOIpie8K0BT4tYNq4BlPSLJ/xsHefjGcChuBhbDjOh52jdjWvz1AXFdk+TIG2qkCL/HpuHt6BQ1mch52B/209gdmbPTHe+VusuyzGsAmDYRi/Gx9vO8t7rkmbNmD/yG8wfvxArI3lvGEDdDWVkKd+HlGXFaScrLRriG5hxS1HjsdAnMcHq0IRW0SeeNLX2OgxHJsm+MJlWwLihfYkhu/BoTTOw07B0aPXMW+uExzIu46uxopoVPN1IcEI6GDNAYuja8mFzUMh+hIUogNSv9+Ma7GD0It88oSd/0FSii/6oa9AyulFUAgCHSd/i/+t2Ku4mSV3h6vXDJhTznFklKNbwCI8bXwO++avr6QGFdp74SUPJ4IC/6bw9PksgxJUZPyCsPf3oVBIqMUxhVhhCjAFGqZACxhuOTJT01Wto7/zCeFlSWERXO4CR0KX5SUlq5Hf05GYWoo5ttYUtuhA39OEI+Xsnh38Lg7sfBbxSTcQG3EU/4u8roEG3zAhtB9FHqqtCZB5jUC5So++DEnxfwK+5rCg/OHx/Ndy3M/MqayqkOg+lLeVyPRVS9b1TRhyXfsZtW3VhQTjqTyyYmJAqsg1fA7xnGtqUIhUxMaTEbdzpXDIZVwiVJg+0We6FN0ED07g49slSAw5rHoCMSDwAfnKJZwGUi94+NigNP067Ge+Cnsurzc1WuJkQdGqcJWnL0AhLoUcqjTa2vrGtjEFmAK6FWiBUAkFEAS2YmVzKi2Zgrmoq5k3DyzG+Bnv8EDhPFN3BK7dhG/m9auEEeg6viW3y+XVQzVNfXZdSDAi3gi5sNM0YNqUUIgMHgphj04pcVWgEBw4QRHfjkdyjCo+L3XlDHsKMigRVAdXd4IiZyArIQ9yAcNWQhi2gtgjiAz9o3J+QgGFuIyU5NpW+jS1Nqw+pkD7UKAFPG4xujvak5GlHzhpKqa/LZCLa5ncDzkHiVmPMN3WnuLA5xSTfPSY72grwZ34dPL0VEZQnnaJJjTp33+3IeKDnVjr0R+Wm+KQqrZPnYas+k2kTgeV0VNDPnnXxJQkEnsS73WL4ODSgyYgzyCLi6vX7R6kOBtNTto8qY/CB3cbMDmpCwlGLEcO6JAeroIem41AH6eOyD6mYD3y0OOE3aQvUd6deiA3Jo7GRkbhFRPcPs6BExRQCEnxOaholFZwHNGbYtSfIY0YkmJjY0jkNxEf8j3SNOYTbyQUok5jw3ZiCrQ/BVrE47b0DUCQlwNsHTzx5rxnYJoYhcOXy0ntYpw5dBqFLpPx3vQhcLCxx6h5b2CS7R2cPHxe8Nqs8OyCtzDHdwAR4c1h6zwKY1wMKeadjjv1MtplyEolFqStG8Y4mNBTgIj+1YZIq/0iyKTwzHmKcgcu8oebTQ+4+L6GIN/OSIw4RvHt+nnZ3OTknonvNmxykocT0+qOGmEQFRKMZzkakGEVUf9o/wHBL6E7biqgwBRztqsOPU7IqgV6TKEhYzsKl3B3JFo5EvA2hlhfx5kdp/kVJaUEgCgxcEFvLxtBMNLTyQO9R/RSCUjn6m7XAVmxtVF0ateZfcsUYAroVqAFPG45YsIv4KngNfgvxbUL4yOwcnEIkgRjVxT5Od5e+xYWzV6GXcEdUZh5AyeXLaWJyRKh9cXkGVpj+rwPEWhpCElpARKjf8SidRFCjFsE90Uh2DKpe2Vv3TYexnPcp/gt8AnYVRk/v7n/B/zXcz4CQ/bhbQrXqJYDWuHNndswx1F1H/vkzAl8QlXc3Eo3kk1XybM+gqWLZVgcPAOb9hOjqzAH8YfXYuWWlp1mU4ZBYmuEQbYLy/4Il0aGstTzOcze9wyKCQaclF6Acvp/BgcFtnOHhTr0mEaiVugxrd9OjanAcMKKDScPXK8gFqeXr8I1jp3Ja7sTvx6zx9jgbzCPUG8V9CSjV0TzEyHLUalIU0CPK0eV/cEUYAooFWhedNmDEfw6btHayQg63Hy8FzacNRXQs7KHMfEsC1Kya2FG1txf0zd6ZlSPgZZ6CIhgLKMUA0W5KMigcBIrTAGmQLMr0AIed7P3gZ2gFgUqMpIplNT4UpFL9WhDoBUQIo1bGs4KU4Ap0GIKtEiMu8V6w07EFGAKMAXagQLN63HLI7FgVGQ7kJF1kSnAFGAKtJwCzONuOa3ZmZgCTAGmQJMowAx3k8jIKmEKMAWYAi2nADPcLac1OxNTgCnAFGgSBZjhbhIZWSVMAaYAU6DlFGj9htv5VeyPOYnz/L/vMM+heedTW076xp6JXkFf8AHcPYwaW5GW4+2w1H8FVls/oWWflt0kpdzeY+eOhjLpb8uenZ2NKdA6FGj9hvvyfzCJy7U9YztusjxFqqvGzI1SrPZCp6KmzBfbfBelkf9HeGnFCwpQRYNPI4WF10iYG5SDXQoNFpEd+BgowNzXNjqIiux9KfgjoS2YMGNYelA2R0r32rj3Z4txY8V03GijY8aazRRoKgWa1XBbTv8C+2fnYMGzKwkkICRiMvDBukNv0mvw/6TX4Cl3tYMvlgW/AHcHG1gadqBcJddqost09Pap2V/gx0npmPvCGsTz53HC2/vWY+ChIMzYpviZi+k8bwfPwRhnC/L6uHwnB7Fm2Q6CIlRNECUWGcJUj1KRPCxsYL5vCmHMewWmCWHIc/JHf1dz6Bcl4Ny6tUji83yIYOIfjMGiozi294LidXSi0wxYOAEP967DtYQKWExehN7Gt6Dv5I5uxb/hdKQpBvj3hzhlHw4T7qtEoNPopZ+G9MWleMGjByRFGbgS8gUuxudVqqVn54WBU8bDzs6cMvnlIDV0M84cv672CrwUVpQ8qnfBT7hYNBRDx7nzeLLcsM34JfSKDtWFzSIr2L44C/0p46ARh2MrSMHVHV8gnsv1LXLDoIWTYC6WopuTBKKc5zBhxT/owFxc2fgFUnKFvCciR7gGT0fHYztw13Um3N16UCgkF1dDViEmlvITWvnAK3AUwRmoyFNwft13uEUZCpWFx7T56eFqZAUc/ckjN+5AEIkt+DlE0JfbkZJt9QmYBhcnGo+CeEQfyURPzwqcX3sAdzRmN6w8BfuDKdCqFGjWUElmxEkkGQ6EbyWGDDD0HAY3JCI88jYvhMSQstAlhmHN229g4qTXsPC/BZQ0Sh1d1gR6mY7EJ1/Mg9udfVgYMBsTA7/AZYsXsGqZbzWsmD58PBcRVuwl+D3ZQGnIQLj6DEO/KRMhyziFc8RyLLf3wRAyvIpijZ5ETjchcjqXZY8vTiMxwN0S+vkU9qCMeo5+gwmEcA/J0Xno5D4Tw4jXGB+bB1MPD5hzGf9gx9Np9O090Et0HudCdiND7IKRwbPRld9OunoEYdrq19Gj6Cxt/xq/J+ijb1AwXOzorqQs3Lm8h8F63MsY7fUE0o8fREx0GipEql20/yWD09LP4OPyEIl7/oMT1I5r6X8RO4LL/EhFXICs6AhKclVK32XgRlg4EiMj6N8Z3FZjUsKe+u/VB64BwehPN6wrYQcQT0m0xChT1CPPRjodlyHvDnt7I2J1qrdKBJmPHxw9/DHUywipR/bgYnon9PSfBXupkP3R2AOjV6/CMNkdxO34DjHptniGtOpj9gRKmNHWPsRsa6tUoFk9bmRFIfzyXMymlKziaA5DJoWnLxmw+O9wslDhbZXG7sKyWJU2qWm7EDGJvGVnSyC2aR6Knxo/DR5FJzD3w4OCR/4nPtvkDq81PvA0PIZDhfVLy6ptJHk6DRmpSxs/RFQ8ByG4gi7+vgQEE4xQHek0MZsPIMW+J0YXxePs5kP40410I1ABnx+bp9OUI/fIavy0RQFNuyUdAZdgK3Qjr/eOsTfGLBiNopD5+CksVdHcGH3Ye70DK+JJXkwRMi9y2ftMyvAwciv2bTkv3EiOgHIh1q1YjYObawUS3/8a1/i+Areiw1XHFhN04XgKjCY/S/nBz+NCaHitqXg52IIxXR2Xdi7ByWhlhpUjqnpy45FC9fT0CkJRQgwKqhhbLj+5OR7GfYVDn/xETyMgbtIIDHNXMUutAl5FH/yCXe9/qfCuYzsRf/MdPEyI4/dnhSnQ1hRoXsNNoISTR68Qd9ELbuIziBa7Y4ybHmLWnlGFIUxdMXPBvzDd04FCJSoawU3iTDZN4YAHFCqwdcS2KP9qVabA1IS8ssrAazmORC6GmsmoZxMEOs21cApZCOQYAuqak5EtCFXg23SlZVXQaaKRSmEEQz9rSFLCkVGsz8MRHiVT6lYlnYaygJ/Yqwpn6BlwGfoKUULeqMnMqbAjb/eG3VgMm6fQVB9mdEO5i3Si3igLT6fJj8ZB9ZBCvXpchHKqt2/QB9CLPoe0mBikEc6t8kmCr8sY1u42eJiyp1ajzcGELSjM8jDma5ypNNq1NIKeDmwot/ftnQlV6+fzk99Fckh4pRE2tJdBjzBtt4upHqkHBnp1RfpmOr/S4FPoRp/CZdnxTeMY1NJa9hVToFkVaGA8oO5tyow8ictCuMTQcxSFSeJxNOKuUIEUoxa8j3mOedgcNAdDudUj7q9gaypn9Or8vF6zMbXQaDi6+wi+fvV/dK60qmamZmX1+Uag08THqjw5p34U472lgBhQn8wIFaaXHq+i00jJ8NiVIzuGy2JNbEueTnONp9NYV6fTxCvoNOYc4SYhFqmVRphi1RyNh+q9XdYdtq49UJycgIJiOeTkpXP/Ssj7vRa6g0IQyslMhcEsT/gN2Q0NF2TsxcH3NyCGwhqmXi/i2U+/xtQA56qCCQY3myg7tRZhe1Z0TCXurNb9hNzeaXFVcx4qb4TJNfKTk2dOOd95xBpBJFJiVMfxx/BgCRWWrdZzsi+ZAq1UgWb2uKnXeVE4enke5voOwwVDetyP/Q+iOEo6X6zh5miI1IidOHSZKCxcMSA8WG3eNtkbORm22qg1PJSXEvkbKGqg/5rwZHhF4aC+RL6Z7gJ3g4OIqDx35c5V/jAQGcOUYrR5xQ2YnFTSaULSKuusAuklE2JuZ4J7cQmVhl3iMRI2ZNhPV9LXy5C9mYy4aBAZ9LvI3sHRaUaRV3mbDA31AzYK+npKjsrQUQy3r2tHpIdEokQkg5FBGe4d2Ysze2/W3knuW6XB3Nk4Oo08PgznuH+wwsBN38HDyhx6uKwWv3cnTz8VF+JUELQqjaojbEHBrkxCBgcyrixK/uZheioRvqeJXv5GyGPa6LIgxJqUTHhxZUxdRnMIgyBJ3qU6pkqD2AemQOtXoNk9bkJ+I4LCJYYjX8ZcCpOcC/9dbbVGDpKIPWnp4g5bDiMmlmFU0Ax40OqSGiUrAWmFZhg2aRSPMLMwVZnp+0l/Is/QhSZBO9NhUjhOn1iljpuHdyEaQ7F45Vz4OvcghFo/jJz4ClZ9MAUOFBFVFX14ef6bsGINm5zUBekF3RSMDCSEFZOScQP0aNWJb8BwSJR0Gmt3WBGdJo3zijlPXZ7I/61Pf3ctSkQWTfzBzAUW1h3xBEdn5yYipbQiY8Er6J7zM04downfslzcJuNm5uWDrsrJOak1LLx90Z1WW1QWDR5sDd01fWHlAQePnnw/uMJhy+yImpMcebFKKENfRjcSwsRJuFBOLUVpkHmyvMYihFNqi287mSI/IV51E6vyhEM3e0oWXix2pLZaQI90sJ27CJ6uTyCPxbc1qs02tH4Fmt/jJg3uULjkfHAwPORn8UXUPTVVCvDL2g0YuGweth2dgdLCfKRGH8PRRGI6VtdOHoUv1oVh5YIF2DWBvOnUUEx74QsegSaP3Y61h3th0ZrdiCSkWGLkaURnOoOCB4qSF4GFb4ppOeAMvL15Kj0mF+NO1g3EHtpNWLOmKiJ0c+8NvZQDGr0/lGUglajo/X1W4DUPCl+knEJGQSmKUhSP9Ur6ehZHX/d3QqeMcDX6+nY+pMGv36blhYk5wzCN0GTck0ZpXBj+t+QbYdIuBwkhP6DXktl4cd9zKKUXdPQodFRCyxPDIlV9rZvB1KyNxImW6AU/jXHyIhTLyTDT8r3UPZ/g2KmqoYzyuGO4mvwahvIINCDz+7nYU/kkoB0mLPVfj4BAZ4pHK8sSYpfS3+k/YccbNNFIzEsbWXEt/M1rCkwb7fooZg/ORPXG6EXb4ERLIm8eu4hCuQXymmjiW7NCbAtToPkUaF502T1tXlTzdap11yxCJzt7WledQaivokY0VVc9UjqPNTpR2KckPZli3A0Zi/9v7+5dowjCOI7/jnA5zEUJEkkRBas0FgqijYVFOhtT2ZwJsbSwSGUjiIWFNiF/gRIRRLDQIr02AYOgElEsrlnPSnLReCe5jcTZHKKQ2xdyuzf78l1Iczs7M89nj4fN7M2MN+X9mqpv7uqm02M82PwHcfjEhEnabf1wHHUOOlbeh0LkS8vmnYnrqnrpnuZqG3oxf1+NNPc3cmAULKLAQJ64iwjrH7NrnrT/jXH7lws7E1ZPK6Z2AvrhNrVVN38BReyeMkMsZohouL6qL86WRs5e1XTtpHkXsETStntjaL1PARJ3n4BcnmaBCR27OKMLN66bCUCuWo4ZYnpwy8we/ZrmTtM3BEIFSNyhREUu0NTLT6sa/Z6Nhaz236m63puxfp8fIu4vzicIZESAxJ2RG2Wnm17iXrHTNK0igICvgO/LSd8rOIEAAgggYFVgAL/jthofjSOAAAK5EyBx5+6WEhACCORdIDBxn6l908dnZb1aKmlh6r/lQPOuQnwIIIBAigUCE/fbx+M6PdvSo82fmrsy1Oe2UylWoGsIIIBAhgQCE7cXR6c9rLXPv1Qak5kq3mMNkQwFS1cRQACBPAiEJm4vyO5CoAeZMp0HImJAAAEE0iUQLXG3u8uwxrW1QboI6A0CCCCQLYFIibvR2NX2pHTZrJHfY4+CbEVMbxFAAIGMC0RK3Nuvj2rxQ1Pzd4b0brmiaW/tbA4EEEAAASsCkaa8Hzm/oYVTx/Xw9o4W13eCt5iyEgaNIoAAAsURiPTEPT5ZUqUhPV/3tg/jQAABBBCwKRApcVdGusX+bjNrs8O0jQACCBRdIFri3lNiXLvoXxbiRwCBdAiEJ+5yR+emDml30+wdafZ35EAAAQQQsCsQmLj31ip5UtXs2KiWn/5O8RZVdhFpHQEEEBikAOtxD1KbthBAAIEYBAKfuGOonyoQQAABBGIWIHHHDEp1CCCAQNICJO6khakfAQQQiFmAxB0zKNUhgAACSQuQuJMWpn4EEEAgZgESd8ygVIcAAggkLfAHUk/iHro85bsAAAAASUVORK5CYII=;" vertex="1" parent="1">
          <mxGeometry x="777" y="480" width="366" height="442" as="geometry" />
        </mxCell>
        <mxCell id="dpe6i8qbhfzQBld6Kew9-33" value="" style="shape=image;verticalLabelPosition=bottom;labelBackgroundColor=default;verticalAlign=top;aspect=fixed;imageAspect=0;image=data:image/png,iVBORw0KGgoAAAANSUhEUgAAAXEAAAHiCAYAAAAedfxJAAAABHNCSVQICAgIfAhkiAAAIABJREFUeF7sXQlAVOXafhRmxhzABlQWQRAUUAFTcAFNcAFTsGvua0rdoBIsxT/FJbXFpStqRotaoeW+l0iKmmAKlowLuAAKghCLAqMsJgPk/55ZYIABBgQC+757Seacb33O8J73PN973qeNba/+T8EKQ4AhwBBgCLRKBNq2ylmzSTMEGAIMAYaADAFmxNkXgSHAEGAItGIEmBFvxRePTZ0hwBBgCDAjzr4DDAGGAEOgFSPAjHgrvnhs6gwBhgBDQJtBUB0BvvEMhA0TYN2+EJwqa8nBOyJ4Os/B3G6mMNACMm59hSkxSZBWX9I/fESI9rZW0ONVnkZp0X1IkrNQpnpYZIWOpkIUp8ehQNKSsW8gpDxDiGwNoVWUjpzkPEUnPLS37Ak94WPkxyfhcUkD1i10Rv8Fg/EoZAMS0//WYHKmsFnwHuxNBVRXitywYJw9naJBO9Uqf2PAaxKs8NSHpUiA7Qv/xrq7pfXsg1V/VgSeMyNujPlj56Hf3S8w63pGw7F5koToFAEyK1kXzbvjm87G6cFP8fH+H3HqaQP+IDUcim/oTga8LcJPfYQfHhZDWkY/GrZt1mpCR7h9/AEs+Xxo89vQ0FKU0kRLY7/EtuVhKlMxhcPiTRju0A5pW2bg0NH7zTrN5hhM29kXUwNfhiDtAHb4bIME9P2wfQOvrZuATtKLODJ9BVIbMBFtB1e85PQiIjdo+n0rwv3II7gkGoSXA16G9oHs+o/a/hHmTu6IR7u0MCBUioL698BaNAICz5kRbwREqAup5CKWRzVOX03Zi45QHzrSDFx8kI88zhi01FJ0DmGTzgGmkzB123Q8XDMDJ849rjZbwdCZGGiZgszsbtDiCaudb/0HeOjkYAWt7Czk80UQcE8mJabo4zMYWhK6sWWLkdkQLxw8iBx7QpAUjvQiTb8HEkjEUShwHooXpAlIjX1Sb3jbiMqgSwFuv98AM+D1Rq/xGmhgxNthkO0UzO3ZA+Y62pA+uofwK/uwKS1X5vWZW/4X3/XnY9vxb7CvkHuMawf3IR9guU4U3j1xBtfRC+smz4RB6kVIDV+C9Qs8eky+hq8uHMKpIuVjnzbsLMfj/T4OsObGKLyHyCuHsS4lS8Wz7Iy5Y+Zj6P0D2MdzwayupjDRKkVK4g+YFfME88fNw3hdzsuj0jcAv/flfilBdMRKvJ+m2ReUbzgZYR4D6YtJpewGllWhU/iisdg32hqXr6TD3Nae1gLkZkfg47NncPnvp9CxfBtnBveQz4H++8nMPviE+/QoAjN/DsVthaE1Nh6NRf0GoJ++HvDXfVyO/xnrrscjs9wQ17bWRBjb+mF//27l43w+y0n2ezmd0tYYUweOw2tdusD4BZokN0bSL9h4JY68vIo/cr5eH7zv5AE3IyPo0J9hZvYNfHux4rrwhXR+oAc86LwunU9Mi8DGC5GytTakCByc0FF6F9fi1FwPng36zxyAR/vX4o7zcvQW6VQMIXLFYL/+eFCJKuBBf1wABogu4NeQ32TfEy1LV/Sb7AVLSyMIpNlIOboFF07fVqFrhDD1Xoiekp9wtXAQBo1xgkjnMe6HbcGJo2SJOjvCYbIHtSfqR1+AsrxkJBz4BjHRmSpzsUcv76mwtzWCtiQO0ccz0N2lDJeDDiNHZoCJGnF8DYPGDYaxIa1BkozYkM2Ii+f8VDOY2erjUUwYCl3N0Z6OCEe+jT5Fl5GlPxKl8XGK77sQ+iNnYeCYPuikw0dx9mVc2vItktOLFfPgQW/oLAwe50Lnaf6njqOA6zc2FhW3RhGMx8yC08ietEY+HqddRHTwt/izEkWlMP5p4cjU2Pg35MqzNk2JQJ1G3K73O/isZzH2/v4tPsp7DAMTMkAvz0HhiU34Kq8Mqcn7sNFsPua7DMXl8EgUmk/B/C45+PL4r2TAlX/sPNibdMBHJz7Gu391gOcQfyx/eThSyMhzhk3HcDw+G9wTib/vwJt/PoKJxXgsd5mN4vxN+CxP+cXlYODB2GoMRt44hPcP3EEu3xiuIo5CyMa6owuxDs9Gp0iz92Pkj/uh5MTVAq9lAmfDi3jvp/1I5TvgY8+pmG9zE7NuZaAw+RsMTAZqo1N0Oo7HV8NorVf2492ILEDvJbw7eAaWSz/Hu4kPVIasaa1AanwwBsYD+nTTONrvET44uBcXK3niujAoS8APv4UhsTAfAtkY0/HJk82yecpKuz742H0W7B+ewMZfLiNRqgtri0Ewak83wiIO6t74+JVJsMj8BctCbyFTywxTBkzEJ4MLMPO3yw3w/Gk9Dt2hnXYS6ZLqnK2e55uw5/+On8Nu40W6J2nrqHji0vbo7DQY7U9/SXzvX/L5m46D+4zeuL/2K5nhEzj7Y+KCIXgSuR+XQjLBc5yM4f4ByE+ei6vJCl6MZwubkYNhVmQA/Wwy0KePIMnQFl0UXL2AKAlz/gMkhJ1DfhEPBiO9MZx44/w5gUjkjJzIGcPXLYWV5AzO7zyOvx0mY0SAO4RJu3FeZsCFMPb+FF4j2+HO0SM4T0a38zhfjFj8Fh68tRFZOjboYvYY6buuge/cC0KzQRg8WQ9XtsSi94cPkR7DXRu60fhtwljnJ7hxYD9u5nWCwxv/xRj/+/h+0QEy0tzN61NMmNERKUTXRWZz5/3R1/AxEnbdkWPDs0SfTz6FiygRl/bvxGVpF6rzOkb7JiBk7TmVm5qh/KYSH9swT5r3FDJGvUQ+LPvvP4NA7Ua8rTWm2BrgcsxafJVWKJvh7duHsc9iCaaYd8G3effoD6gAx6MOYRAZsw8HdkCBWQ+kxGxSeOUVi0q5fRrH/+L+eCU4fuMSXh/tCM8OZ7HpURs497CHTvZJrEu8I/NGb984DDvzD+DZwwKbfk9Q8ca55ufxsdJrfXIPx1WcpOaBUIKIGxdxm/NGn9zA6exSLDc0Bp+MY918dDt4OPSHIOVHLL91S16/6Cy+uuOEryztYJ4YUclTbvBa/07El38kVsBBY/xw72V8ZtIVOtzNhs70sBoO5zaxWB5xBpGyzds8pN6oYGPNrYbBuUSMd6OiFDfjPGy6agO3EU5w1rqM4/XdLyADamGrS16ouLrBEA7FkEndkbHrc/xZJMWLNBuBkDMPiiJ9iMdS8nBp84weK+jHELa+U6Eb+zWOiPPJgx6JUQuGozBkPn4KS5E3itGGlesHMKWNu6vJCv/Uygld9EvI0G/Hwa2XFcbsOG4qhik+vQHHTpePij8L+8HJyRRaHI9f1J68+LfpufIE9i77Uu51i9ujl/sHeEJGkBuB47tHj9PGpfnv0Zhy5yO10B72n9iQN9wGOfb9YcQ9icTmwqSoA6x830T7mM8RKZoCV2kyouOLoeU4Hx7uWrix7P9wTvHEUmDlDquRlhDx2uCx4RiM8DZH5hd+OHWau+nz8NjBE1bumQpKhCgb70C8LLqEg/PpxqHwsAusXPG6sy308Juch+eWKbSFOd1UspTGv2Lpdf/GK0P/YVroUqKF+PtsM7NuwJquRu1G/AUTWLR/AdYvr8LvL1eeREGRjHSQl5IbWBd9BT96DIVx2m7MSsqtMuMSZBYqd+Lp1KMHyH1Kj3tcuMIjPVjraSM39z5yy73JPCTm/4XXO3Six/xEFa+vBLl5aSr1qgzTHB/L8pH5l/IJo5Q2E8kNIXKTT2PXbcQ7owet2aDLm/jNqspkC1+EAR2qMKPPslZdDOo9HnOtOQrsBZm3JCvZ2kSLtCEjrgWLjp3ohhgNsdroG21YdzSEoEM3fDdrSJWJZkD/BTJqhfWkVMjjNTIsQmbsrSr9kdGZMQuWRb9i7ynOE9VGGQGpxRfSLInV4mqXZKNIAhgYGtGHh+TFeuNl29uInPurDHP9cVNo01SCO5ajiXbhrgTXS2d05D9EmorXL7QlI5YXjSMhVypHxMha8CB0fg0DyVPvZKYDAbcJyxNBT/IrHnBrpeiPfq4dacN1v4I2oSY0R20yiVlxnAdsiN6ThlH96+gw8g0MpvayeYjs0Z72LYoLteV8eFooGdaH0C00hJPhrzjwUQI6+9OXIXkv8eHtYTGGnjjif0BMOeXEg5aQ+ioqQjF91fTHeMFQ8jv2RubI+ucKN9fSpDg5Hy50hbO7OYrTbsNqxtuw4tbB1bE1pusdTg9ZFdetDUdv4S5u1JMPF/TOxqmPTNCJ1nxuaxl+kVZ/siqfHPulyRGo3Yhzw5fl4dCptfjsQW2ulzYZBXOZEYKeJczbXkZmlevKJ+NRXrRoWO4vtAGFM5p1G8sGdNxsTUqQGLOBaA1V6kT94A1dq7HlFHzWpwNCI4LxXlY28uipYdCAJfjsxcqXW8XXVTuB4owDGHPmosxzf9ZSIx9uOgZunuZ0U2iLURu/kg0jMBSAl6ZixMlQSojLtRWRj86zh4vvAOTtCkDife5LZgoLh64oSjoDCXnx3P+4IqVZ3zr6G+6SdysvRHU4dife+Siy1Gwe6hFFMWXSC7hz4DAiD6ShmCic7n6fwlEihoTqt3FyIpN1FxdjKoyntn0fmRG8xhlB4WBYWrXF/eg0ChGkOXA/3DyKonFRLEZ6SWe8JOOt48lrz8bdXevxkLjwP4u6YYilLvKi6YmT54DuDhQVtStGhdsmysNSn6i6WEKhC/o4GOFJ7HcVNxLi2U1kTzjypwHOMBvy05EZT3tWHM1B8+Bm8lh8HJHxf6j87fDQkdsMbQAfXnzDEEOnSvHyzHx8McMQo88+ZYZc8S37J/6p3Yj/lYGUYh3Yd9QHHtRsdHQ6jsbyPu1x6szXyHvpTXw4KBEzo2JVPGjiQzuagJ8ij2HmdzCBcRsJedvct4y87qJSTOnQmW4CtxWbe/rknb+A3Id59KdYH4+vjDxjcpD+CSSrjsndqLhXqSrd++7jNj39e5pYQf9WTgN45aqDqP9sbmhCXvev+CojS2GAdWHRQZc8cuWNlDaEcx6guKc1HLV+V9Apqn2VIjGHnpzsajqvftyaj9bEhwthMXMqDNNOIzLsRrmB6UiebH8ueoM6lJvCQvLEpRCIDGE80wM9C4nSOJ4iH47zlnVK8Oj4AVw4cLeWKRB1YNmGDOSt6l44zxnOROdkhvhSrLTie276H1iQUc7cIq8vEImIrZbQPJTfR0PYeBI1lrRX7gGbmtFGpQRpx7/HJXUbt6LRcj48RM5b54tPgb4KRAUNh6khx4fTeogz1yPapSCPHjuUxdIdPa0eI/XAJZTxekFElFJ+WkU4oJa9J3oSJZKh6JdP8xQQZRMX8j1S1dysKjrWhwndHIri46vTWzWjWHGGaJTzZ0vxp0cZbDu3xS8axaZr0jGrU18Ean9jk7jVffH3Ye7wOpZbdUcPYWfYGfbB6wPm4H0ThR/Hs8b8IS5A4gFszLiDbedPIsNsHD606FBpLiZWnnjXpAvM9awx17EvDPLEOP6I86RKEZ0Yj0LDEVhkLR/DlaiA1wweIuJ2fV9cyUcKOUXGpr3Qj0cUR1vtf8agF+XRRqAJhpoYQKfSHJ4gnPYDcg298FnfvugnFKGHyAaeFP2zrme3RptrpoQMsMgSri9wl1cb5uavYkqnyre220m/IvppTyxyG0Gbw/owF5rAtcermKov/0qkqpx3587rmcPVcgw+dnFBD9Wnqtq+cWRgdSnSQ2TrAmvyFgsptE5An3U7K+ZiOxNDnctwI+QbxIUdpw1F7iecojDIdFNEhYA4YGUpyssDz+xVuI95ATe2/CDzjmWl5D4eZD9FZ1d3dBQq6gvNYDzSA11EKk9/HB+uk068cYUnXd65oSlE+hV1tUxdMXzxbHQhj1ZZXyohA863gbWzMdEbZrDwCYQLxbPnKvhwSJIgkb4Ic/cB5ddRq7M9rIge4YhHbY4PJ689Nb5yZI62A3nzxIenck8MUgk9AXBhiLbyB9XOznBdMB7tY3fjQjTtBZQUopg4bj3bnvIxaJ6u/qMg4torKJFiMvCPdezRk6Jf5IX+Dmyd0XNoRdSU/LgQAsJYi26MumT4+RxlU99S0gbccw6/yktc9e2G1X82BGr3xKnv6ze+xQdlr2Kuwxx858KFq0mQmhOPvY84L1oX7gOnwr0kCu9fvi33+vIp5O6yLb4bOB1TcriwQ26CJRAn3YCF09v4sQMPhQ/EWBfxa3nIXWHmPnxwcQoW2c3GzoHaKCjMQORv32LTA9XIFE0W+gSnroRh6BAPbJo6mjy5+oQYcmF9H+B1g4o/5k+mr5eFCKZcCcKUerw8JJVE4Nub5njXJRBnuL8NlRDDwuzDeP/sX5jfbyw29aQQQ+LYcylsMzI2r9FootTE/dgkmoG5r36EudK/kEshnUfu5uK/uipPNU+uYfkpyEIMF40eTU9BBcjIuUHeuwLnkorz82XnqR+6LuLbp2hPQrPSxolebPlwBHmwimLoj5l0v8/43gf7D5TAwdsLwvhv8Tu3OalSSqVkxClOvILuKcHj+/RFMrSDVuTHuFDJ081GfMgP6LF8NmYe/A9xz1Li04k+iA9DWGRFpzI+XJKILDL41QrFZyfemoqhAdvxji+NXRSP2PgslOrcKa//NGY/LkT1xPDAHbCl8MW7p66iQGqMXLEiIoRok/Mhf2Cc7zK861qEIjLGAj69UHMqGIeIb+/MxYcncXy46vj0hOKk5MPpOG0kRx+9iYmT1+EdV1ovF6EYtQNHNvysoFcSEHv0Enr6z4fPgbdo7yAZ6dmFKC1U8OHcwuJ24ddTVhgdsA1+voUoI05cqzANCSEfofJuRDLiqS873/fx5u759OJVMLYu+qnRvoPVMGYHmgyBNk0vCtFbFicuiF6lcbx2k62WdfwcI0Cv9lsSpcEvpZhoenW93nHPivbgUgHkVadclMjREx5KSiAcsw6vz8jDz3M+w5+qtAX39GFFm8IUUSMhr7isVkpD/eXQotQDIkPycrPv0TsVckJJtSZ3Xs+whPYB0oj3VnNT4iqLzKgPun0W0nrSVYIK1A/ZsKPtJdjxnT549Mamb2hpw2iZho3MWqkgUKcnztBiCLQOBIrwOJnbNGxoqa09bYoSPcNPjkZ6WgG9zDMTI2ZYIC2EQiKrGtESCQri6aeh06B2ZUTN5KjQ4lW74s4Tu1N7kaTVXaf2Huo++7gDvtz/ACvGGeAPb5Y7pW7AmqYGM+JNgyvr9blCwBCdXMdhsP87RJGQB5wWT/TEMnobVMk9PVeLrcdi2uKPIx3heYRrUv2JoR4dsarPgEAz0CnPMDvWlCHAEGAIMARqRaD26JRam7KTDAGGAEOAIfBPI1ArneLp+gTnr1JEyjOUR49q2Hh5hj5ZU4YAQ4AhwBCQI8A8cfZNYAgwBBgCrRgBZsRb8cVjU2cIMAQYArXSKQwehgCHgJapLb3uLU+kVIHIY+SRlFilOGWl9Bjl0M5Jb4yMKy0Mf8X6aso5U/q8rruFXQY2ncoIMCPeWN8IvgvWnvwEHkphiqr9ZoThrYnrIZa2tj0Cys7n/z8MtW1L0mryV7Nlb1QWnsMR7kWX8nVSnuuZH2L6ZGs8jVqHbz4+XfMLM1WxaSWftZ28MXExSavJ5suTS80RFspErHlHF2F3yPVWsho2zecFgVpDDNnGZn0uMyVzsusqS/VKmZoov/VHmC49iLeCIuURtNI8JCSqKhXVp+8WUJeyB7ptC0K3mECEBIurT6jzaLz25XTw0yj3R8kefE2vcNeW97J6B63riGDkJ3jLvz0i5yxEnBqRi9a1Gjbb1oxAM3jiIrj4vQ8fDzt0M9AHn5L8pIhPYvOabYjOpQRYfCes+vkTdN3hA+8998qxtFnwPba7XIPPRJK24jIZ6thiRuBcTHOxhgm9cJGReAEhazbiUGJFQiGBx0qEr9DBliW34OL/HzhakM+UE4v1votxKLMHZqyYi/GOFjDpSEkpctIgDv8O64PPIUXpHes4wHvlfMxxtgC/IB4nQ+/CfpoNznr7IjhR7m/xrT2wMGAORtkZk8GWICH6CNav3AlxYRFSriuzU4jgwL37UPAn4q7frHgNgm+LpQc3oV9EACZsIDkwRTGZth6HZhcicOJHiJC+jA0nA6EfEQ6p42DY6PJRkBKFzSs3IDy1Qp7L2PVNLPUfSWukBMDcWkK/wafB0SoSb1zn7WDcjqKLygopV/Uzyq/UmA+cG0cIM1KOMYzfixNpXvCypXzcdFT29qSG0moQ2sBmBsmeUVrZ9nwp8mIO4Netv1Z6A1Mw1JdElFNxKbItyaiNksmfFccfxMkNv6CgUaTVNJF44xbF5TzpCW0SMklXlTuTKc4Pw5MDG0iOreJ7KRzpT08yt3E++ATNk6TmfPsiPzoVndzdYUpJuvJjDyI8+IzKWmuTeOPGZ4UhUIFAM2xs8ik5fxEitn4GP+/ZmOa/GdeNx2DtitcoqRJ5rdJrOBmdD1sP0iQsz45nibEuxsiIipQbcMoZPSNoHXxMUrFloR/Gey/F9gxrLFy/AM4y9XSVIrDFHB9TnF3pDVe3qZi9JgwZnJHm60NfGofta5Zj9oTZ8FkTCb5HIFZPU6ozCDEscBn87XJpDB9MW3ocArfh6KZKgBq4Ye1mPzjmHMRiWst4X24tE7FmpYd8LXV9s6TxOBieARO3MSRFppy3KYZ59EZB9GlEyTRKucKHg3NHHPOdDtdR72Brbj+sWv0GrBX46Di/g22r3VB8bDN8lGvxWoxV0ywrz0A0DJsmLcN3/SyfOUOiMh94qro0q7aTKRvhX4jddRKy7MIkrVae9lYhrWZupgKkQlqtOPaa/AZn6o7RX67BQLMc3Nj/HSKP3kYHzwDKWNhZZT10o3D3gpXTJFK2GYgn4nBcDrtEIgdyP6RCWi0EZ7Z8R96xBYaQtJq1MrOhTFptDQYb5iB253eISbMgabXZ6NW5HeX/llNcnMTb1HXvomvhRZJ4+xq/x2sTlRQAe8sqye9J/syUy+FNGQxlavXKIstA6EIanZTYTFlIdWiE7xBoxcsVjbQd3NHXxZ30PXsh7/hOnDuVC31PPwwfqsz6yUm8/Q8zSKnoaWwYJdX6kWRR7GQSb0YqWR1VgGG//ssRaAZPPBs/b/hMBeZ7WL/HA14BDmTIDpPnWYKY8D+Qu34ohhnvx+5Megi3doOz8QNcCJd7q3zH8Zhml4GQ6RtxLFX+kJ6yZjeGnXybtAjbIzqSE4VUFikuBJNne11+LDHyrOJEFL5YFVVRLfUHbHcbhSCXPtDZcQeFOk4Y69YBMcGbsTuaeyK4jaDtLnBbaVjeppvXVDgXnoHPqiOIk3nv9/C/YCe4rneHi+4pHCuom+9OOHYSKdNeg5f9C4gTk69qPhhe1o9wNvhypReX74buxLFMzvNOx8/bz2D2Fhd42X2LDdd18Mq0V8CPWI/AHefkbVK/QzB57Vs8hsBiTzJS6pWDvQKSmn+rKR8414I4c8pG+ELM14gh77OdPc2ZT544l56UM+h1SavRDbrPgrdhFP8Vdq09rcDgFnRch2GALd2Uwu7Lp0XybuaWJF6cfgJhyw6iQGF4yzPzPaO0msYSb7IlO1AOcFIpiqmiUlSSLst5YmPKfWe4eYvQnSTYDON3YJdCSs2IshlqUxrmsI9XI5nz4nkFSPYMIq3LriA9tjol3rIqCR3LoWH//Xcj0AxGnAcLj3ew0GcoHI0NIFA6ZMVi6LbhvNGnkJJXJc79DO5uXbCbKBUbMkYmmWKEXpdTGHrmXWFCHva8Q6cxr8r1umTQjo6oGPHidFy/TrmXqxVDonXehb9HX1iYcAIJihLHl0uWkVCDMflVsYkV+abzU+4ht1hpxHmwticVdQsb7IgaV6X3ZBhw+ag1yXqUGkHrmoPZXv0QJD6PbmOHkRhxNFaLVecsRUZKWsUY9HseGUsTLod7ohlsiCbqaLIcF0ctrzyPjFswoL3HFGUaC8kvmPLjL9WQqPeBWvQxtUkqbaBtJmIUUmk8bpuP175CuKkOaTWQoPGAnm3x6L4d+vv0lil6aBNd0Ym0MYvjH1ZMVZEP/FrIsXIDXnHyWaXVNJd448YU2HI5wEnRJ67qBc9GPqW6FRoa0vrj0IY0N4c6ZOL8/BMKqsRSpjOaG3lAbsBlC+BueFIUyzJa1SXxVreTUIEJ++3fgkDTG3HrWVizwh0Fe9Zj2vZopFC+Z467jiDuurxIb+FYdA6+4CiVQ9oY5UZUCnmaiSoeZXFBNAJHLSXPva4vMslRqcnFYzL+/xA0TYRjqxbCL+I2cqXacFmxC0EW9bvUxeJguPseegbJsmycPHYFPn4j4aKTCyc3c6REKHh/lanwFZEg5YdUaR1ycRO2+2Na8O36Tb6htWviw3k26Oc9hMR3i9B78ZcgE0w2yYyU6gtUcoHXJq1Gxtq5D4R5pDyfXSD3wsl75y5f6ul9ZOwq1ifPB34dyUnVc8w/s7SaxhJv3AIr+PDqXrEUudl50LakVLRCRwwgGblHJCN3S6l605nz4B8iNVrlulk5wEj/IcnIkfMgHFKHxFtd3/2GXmDWrjUj0ORGXEBqPRbERa/Y9htJvck5Xwtr8mgrmcESxHKUitdQjHJsD1eiUs6GJ5bjmp9KHrGuC5yJgojgKIh6F3oasKfH1ev7sJn6lUcw66CbqkeekYRMUmbpZk18pmIMPYuuMCg3nqSNGZcFTLOHk84RRJTz1/WeDHIiTkIcsBBjfR7DxjgFB48lVOmEjy42VuSUkk4ineHT78b0eH4rg1N/oQT/mU+JjnEgHv5OHaLRtLEppI1N6bNtbNakjyl0fwOOoru4vOUEqUbKi5btGFJrJ06ci0aU7aXWIq1GZ3VEOihNP4wLIbVFsxAfzuljJh3Fg6qpXxtDWk1TiTduOcSHc970o9gqfLhs+SXITycknE1h4+2GnnmHsPPoXdkZrshUfEi8+Ua20sugG8JIF+imXcRNTtnHsA6Jt/Ke2C8MgQoEmnxj8ylHSfAt4dxPJqMMHevX4O9lXe0aSOMiKFr7VUnNAAAgAElEQVSlGyYGjoFJSjTCEysC1KTiw9gjfgGvrliGOa69YWFuBUePCVhCG5tjDTRZQgkyU8gAmzsS785ZZTLqXu8Qz85RMYpSGINjUfkUjTIP0x3NKVzQAwFz+ql4lMDd0L2IxiAsWe0DDwontLDuA7fxb9KTxuTyTcdqC1N3oDCKxvoLw6aTYs71cziZqtzQrKhs4uENf1drGsMF8/xGwCAhSkEvSXCCOPJcuzkIIqwcrbvC2q4/xs6mJw0/p8obmNzG5viGbmySrJcpiRNY2sLKuTu0JST7ZWgJkSnprXKFIjGGzOiNR6e24ly5tNpxEoHOJkKFpNWUG4pUtUZpNTJ6j9KzyHN1RS8SC5YVzqA6j4GlveKz7JgtunD6mGI1+piNIa2mqcQbNxfiw43U8eHy2ZPKfBaK9YdisGsZLm09pMKwyVV8tNEZXUgwmfsO6g31h7u7FqW13SsXPq5D4k0xBPuHIVAJgSb3xKXXf8SKrV3J8H2PyGIpCnIpQiP0dzKWVYT5iFI5SZTKhAldiCqIrESlcJt7uwIW4WnAXEynULt59EJNQcY9JJCCtyabidyK7+7ZhCDrRfDffRD+xYXITYzAwYgM+Joo8SjC2TWfYCuFGPpu3g5/WYjhr7hLIYaK3TYgNwKL5/EpxHA6Fm6ZQkrnRcjJvAPxMXr0r9cXqwQXQv9Azih33D15tkpYINeRlDZ7r6BbwHrsIR68gG5wq5eElGNSGP05/JYU0j6DN4K9uJujhNZzE2e3Z5ZPtV7TUVdZ6IpXvvwAluVRNCPx2saRKInZiG2k66Yz+Q3S2ryMsAOVX24pI3X1MpIM1ibBX9neHhnqmqXVSCZ7//eIsv8/jPhyL4YQ1QaORsqOwfm1JytmpeDDY9XpYzaGtBo9R2gi8cZNSCDTxFTHhyumm50mM9xFdHO7UklP05I2ZknVPiYGnQN24B3/p+Qg3Ce90I/wK33vZaVWiTdF/+wfhkAVBNjLPrV8JfjOCxG63ghbXvkAhwqqe8u1NK3zVEev1TgUwMf6Vz+gG5FK33xXWZw4L2gS/EOrbpzV2W2rraDVmbx+fR5JkiWrlSSrfWGNJK1G8e7PJvFGb616b8IU1yQcmbuxsp5m50mYuu0/yFj2X5xL7ySTX6tRXq0RJN5qx4udfZ4QaHJPvDWBJbBzwwSTR4gS30YOUUBvzKFXrMXfIkKD0EGN18kXwdiiD96e0xfFUf/D2Ua+OWg8jxZWsew+SZIpognrP7VGklajJ6uGSbyR8Tc1QweHcRTb/gJurP22iiCygg+XJiCa475L6pBOawSJt/pjyFq0VgSYEVe5ck8FlnDz84Q/vVkqIIrirvgXLF51vI7Nw/pdege/IGyfboqcuHCs3hDxDFEu9Rv331u7GaTVTEfCY9106FMCrPgNS8kJyK8CN0Xh2BqiKPYIvTnLIkz+vd/Fplk5o1OaBlfWK0OAIcAQaBYENAntaJaJsEEYAgwBhgBDoP4IMCNef8xYC4YAQ4Ah0GIQYEa8xVwKNhGGAEOAIVB/BJgRrz9mrAVDgCHAEGgxCDSjEefBKXAnokOm1Z22lcsxfuIEtow3ajFA1XsiXB7t5e/DsnMzQlzvSbIGDAGGQGtHoBlDDEuQG3eJYq5TUNzoqVJb3mXQdnSHg8PflUUDWt402YwYAgyBVo5AMxpxLvfI5whs5YBpNn0euLzRWsl7WVywZoCxWgwBhkADEWgGI86Dw4It9IJLN/kU47bC3XtvlRdoDDFswQcIGGtH+bAliDv0Ww0vwWhDvx2XC/wJcp/81aA8IVr2k+HhqYWbkWWwGecGI5LHyoveil9Crig0ISkDnd+bMBB/iShlTgsuM9+kDohduxdZJdbotXgCRNmF6OTYk9RXDuB6yctwcjZCUdhGhB7lsi/KM93lccowi/9HyZ30UZp9Gee/+Bp/3le+Yq+BBBelenUImIa2p3biocMMODmSdBnl27gZsgYx1V4oaeA3gDVjCDAEWjUCzUDYUprZDW+gn5MHfA79SVRK9cLl+l45oTNiggIwzTsI0RZucOtYKYG2opEl/DyX4qjHSJiXS7lV76/mIzwYunvCxnkcBrnqIeX4flxNa4/u42bBqlzGyxEO7r0gkFYITeg5e8LazADFXGpVSxf0c32Jkl9dR2J6e3R7jRJBkfL7rbQXYeHcU55FsLMt6T/yoe/ohhfjSWJr5wUUW/4Ho98gmS7Z5DSU4LJyQ1/XXnDwDsBLoj9xI+ywTLuRL8/xWvMy2RmGAEPgX4NAM3jidWFJXvhYkhOgzHzrQ6/LPPCQoIMY5fJ2XQ0bcN4MppZGeBL7FY6t/UmmttIGlDbUqX15X9r2XJa6BIjLM9CJZNJZT+J/lOkpCmxt8WLaaRwPOQttn2kovRWOcwfOo8MCHzyhnBdcpmhth/4w5FOGOnoF+6zMYz6Pv108McHUljzpc/iLFF9Gj9PGpfnv4Wqy/LaWWmgP+09sIKLsf0qxAU4IQUQ9Xtu1HGeVTwU43oB1syYMAYbA84rAP2/E+YawphzfGeJ7FRRKZhpSCorJgFUtifjo0EJ8VPWwpp9F9jA3e4ikkPByZXFdK5LSyr6FBzLHm4fOTsRlp4VWJDDiURvLUmQd5/QUeTAhcYJHsfvIoL+I3lZGuB8npr4MYWupA8npJFkdjg9HUmglyoPP46O0KJueRDSV4CJvncZ6QtqVF8oNuKYLZfUYAgyBfwsCzUCnaAAl6ak9LVCqnSjqq+NdNOiqtipKLzupmpcdo1At5zx1feTFxZUbedg6wYj/J1LjKS0sJ9ZrVYIsEieAzLg/RFZMBunhcjeHB0iNJeEJmMmUX/LEcnVz2Xw4jUorAfLiEyAV2ssluOLTSGWdpOSKCmU/j9OjcTHkMNKVCZJkwsAkhBAd0yDuvzYc2DmGAEPg+UHgn/fEpdlIzH0KZwsj4nrvyA2WriEMdPmonsFbvrGpSxubmfXe2FR42cmhSC9SZJJTetmn4uVXVGiDLmaleLArVXGFeTB17wO97EtIv09tLJ1gKsrAH1w6URLLNSLa5Qz9ru1EFExhAv5Ioxl3toexmQBFRzmDLi/aTp6wFCXj0ina9BQ5E6UiQdrx73Ep7knN36TahBBqbsXOMAQYAv8yBFqAJ56NsyQcLHCbhInWnFyaCC4+Y2EnIGWYakW+sbm/QRub5GXbGpA3HFfh2XKGmPOyYxWpQ0VGEJKwjEDIiTiTfNbIAAx3NUZhvNxTl/PhYmRK/oaeE/Hb6XEUQqgNEUWpaMWLKXLlqYwP70it9YnP5jYxtSzdSVh5CJ6c2o44TjBXQwkuuTBwIrJIPZ0VhgBDgCFQEwJN74nreGJbxEI4ls/AB6difOiTBD/5z8Kq6CJkHP4fVlosQ8CWA/Al6bS74quIyynXTatp7vU7zlEenDZirNLLhtwQEx8u87K5QrJg6WkT8FLAdrzjSxJu0ZfwmKJU8mI5T528co4Pj99H8lsi9KbNzvsxsXRDMKSNT308OM3pP1IdLj48KQo5DsvwzgFqplOC+6c24uiW3+UhjBpJcNUiDFy/VbPaDAGGwHOOAMsnXvUCK6Sx0CCZMJXO6uqHSXBVRZ59ZggwBBqAQNN74g2Y1D/aRCGN9cxzqKsfJsH1zBCzDhgCDAGgBXDi7DIwBBgCDAGGQEMRYEa8ocixdgwBhgBDoAUgwIx4C7gIbAoMAYYAQ6ChCDAj3lDkWDuGAEOAIdACEGBGvAVcBDYFhgBDgCHQUASYEW8ocqwdQ4AhwBBoAQgwI94CLkKdU+Dyii9eAntb7o1WVhgCDAGGQAUCzIg36bdBBKvF2zDB2+7ZRjFzgb2jMVBYJUnYs/XKWjMEGALPAQLsZZ+mvIiUibA7Gd/iLenPNkpyCHZNCnm2PlhrhgBD4LlEoOmNON8Fa09+CP1jPyLX0RMuFgZAZgy2LPkYuxMVWfysPbAyYCKcrM1hotsGBRm3cHbrV1gdSqlbKR8JJ++2xSUfcXxL2CMBuw/dh9uckeiYG4kVvmsRkcvlO+TB2PVNLPUfCUdujJw0iEO/wafB0cisJMzcDsbtXgDKCil5FSfV07DCtx8H58nDYGqoDy2pBBJS8IkIPkF5VajYjoPHjAEQ8DvDlEQeisZ8gLGudLzoIs6vPaZIe0uJtob6YrhDKi5FtoXD5FGkBqSD4viDOLnhF+qH1jMpEE4OcgrlSfR2nArjpN8qiv64xRgg+gPXJX3hNLIX9KjnO7uCSFYuU1GJkngNnYXB41zQSecx5XA5gruiQTCI34Goc5RClxWGAEOg1SPQTHQKH05uPRC15A24DnsHW3Pt4B/gCQOFxJpAVx9ICMP6hXMxfsI7WLxHAqfAVQhwrFDcEfAf4uCSdQiV9oP3WGC97xpE8Idimmtn2UXQcX4H21a7ofjYZvhMmA2fNZHgey3GqmmWlS+SaBg2TVqG7/pZyqXUGnAJtez9MfXDCdBN/gXnt5BoQ9hVFPN55T1pFabhTmQE0qVCCLLFiA2LQAJ9Toi8ifzyGwoluXL3gpXTJIzwHogn4nBcDruEIijvq3wUp19EQnQWhA59KH3twyoztUT3kcPoZzLsOicidv9hZPFtMWDGcOjKapIBH/cppvgPwdPoA4jc+SvaeAbA/bW+ENIr/6wwBBgCzwcCTe+JK3BKCN+PY6mc552Mkydvw8/HFtaU9jWaaN5i8V6sFFcAmpK6FxETNqKfHWUyFMuzDhanXEbU9T9QklIAj2IxxIkX0Cnlb8zmvG7Sy3ll2ivgR6xH4I5z8lSzqd8h2HEwtngMgcWeZKRU8saf5eLx0JUElvWSf8CukBMKceUoJIVV9FmWLkZyOmU6dPenNLancfX0ueoDykQfBChLP4GwZQdRoBCD4PSD5IWyJ0aHI8+2GwYhDfGxOZX7ENmQEEUp7u/ciBMHEugcD385TIa1raKa6RiM8jZH5hfzceI053Xz8NiW9EU9cyn1bi15zCuPwj4xBBgCLRyBZjLiUuRnZJdDUUBKPsQ1kGq9ohg4YMaCtzDNxZroFLLsinLXQFUsmVRwuOPFUvq/fIOPE/8RCITg881gYyFAR5PluDhqeXl72S9EzRhQlynKPUHJL5jy4y+V69Tz01NS5NG2nY4Ji7shMfYSUillrURSZdNRocyTtSVWfe8K0YdrIcfKDbi6isq84ulV8opr21PecmkczpRTLDrQN9PHk+QkGaXTaYwXukh+x85IJbVCWOnooDSJnhCUohjqBmTHGAIMgVaFQDMZcUAqrUncQIhhC5bBz+YmVvvPwcnrmWSsLTHv4JdwJe+xvFSxkbLjlY6VIGG7P6YF327iC1CClC+W4miSF6xJGKK/7xi4zbiIn/1WIFmiskaZrFsKLikFJ6rMSm6cryM5qTYdOoXOZvwRSJSybbJ+KlSKUtSqFJnCzMEIhbHfIae8nRlMSDbuEeVA5wSiWWEIMASeDwSaiROvDSwzONroIiViF47JDDgVHdKprOSF19aezknTkJD5FBb2DuU8e80taGNTKIIxT+UGUXNl9WeKiJ45sBnhi95FyNpfUaRvCn1RZSj1bG3QPjsemUrBiUo9KUUfxHhQyThXGU7hzT8gUYqySqcUWqA1qRRRrnI9HQEeF1bw6Fr2nuhp9hhZcXfUr4kdZQgwBFolAi3AiJPGZkYxTOydYMEnSTa+IYb5T4czRaloXiQ4sf0Mcu3mIChwDBytu8Larj/Gzv4/BPk5Vd7A5DY2xzd0Y1OITiM9YNRZQfnwyON17QlB0kUkJasqgtKmopkBtPl8aAvVrIKMcxdOBJkElysb5yp1FZRLajU+nBNmfqxGpSherlJEG5f5ecUkETcUHUlvjm87Bh4BoyCSJjM+XM3lYIcYAq0ZgWajU2oGiQxw0Cb0W+mHHSeno7ggDynRp3AyoSuFE2peCqM/h9+SQiz08UawF7fZKUFu4k2c3a7w7jXvquaaZLS7jfOHS8D/obQwD2V8jmM+jbC1O8rDBuWNS/AgOgqZjqMw9eBoOpSNyx/8F+eUwsi1iSDzHDFi+xrY61fcxNy2nYQbPaPcCZqB0NMPoW1Pwswk0iyOV25QikgiriuexP+omEc6ru8KRY/FEzHz4H9QRHJxiWl5KM2LY3x4zVeXnWEItEoEmDxbvS8bD1qdjaCnLySjmI6C+4X17qH5GtBceaXk7dvBbdsaGBz1x6Gjd5tveDYSQ4Ah0OQItABPvMnX2MgDlKDsfhok9xu528bsztQZPW0fIz36Fh7zrWHjOw89pSdw5HhKY47C+mIIMARaAALMiLeAi9DYU9A2c0I/71EYFUAhmoVZxL2H4ciivciqbRO1sSfB+mMIMASaBQFmxJsF5uYdpDT6C+yiH1YYAgyB5x+BFhCd8vyDzFbIEGAIMASaCgFmxJsKWdYvQ4AhwBBoBgSYEW8GkNkQDAGGAEOgqRBgRrypkGX9MgQYAgyBZkCgBRhxHl7dHIbLMWdlP9HrKRthAxbebfY3iD74Hr0gVJ83PRsw0D/RhMmz/ROoszEZAq0CgRZgxEvw87wx6OfkgcCIv1oFaJpPksmzaY4Vq8kQYAg0BAEWYtgQ1DRtw+TZNEWK1WMIMAQaiEAzGXEeLEg6baGPQjpNmo2EqH1YvfQoEjURa+DLJd6EQdPhH5onW6rAazUiAkoQOGolIpRpbvkiuK3YjCAPO+hSZkPxoW+wguTZcpk8G5Nna+AfCGvGEGjpCDQLnaLj/B6CV3tC53oI/LxnY5r/F4hEJ5g0hPyuBVGBiQtG6Z5FII3h90U8LKYFYomXXL6tvBmTZ2PybLV8h9gphkBrQ6AZPHERXpkzAgbXv8Vba8IUosX3ELL0QuNjVRyPkDVHIeaEkxM/x1a3IQgcOwQGoYereOPPMjSTZ3sW9FhbhgBDoHERaHpPnG8Fe/M2SImLraI637gL4Xorzk1DSoFSXacIKSlZgIEpTFSHksmzBWDM7wmVhYHqMZ0Kebb38dKYwRCJ1DxSKOXZSElHbWkkebardcizXawmz8bS0aq9HuwgQ6CVItD0RryVAlPztBXybDsv4KHImuTZVmB28DJYiqqENirk2VIbRZ4tpgZ5NjGqybORChCglGeLqi7PFs/k2Wq+tuwMQ6D1IdD0RlyahLhUTaXTSJyN1HCqFxJHJilKgYqIsomBfoXQsqKBwIBk3coVgYSwsDAioeR03K26scnk2apDzI4wBBgCrRKBpjfipDVzcrdCOm0BSaeZd4UFSadNDJwBZ06OrbyUIDHuHmA/AtMdzWFsbAgd5XnuRpD4N2zchskl3IxdMGeseXXABbbwDhwnG8Nx/HvwcSzDhdDfUEm2gcmzVceNHWEIMARaLQLNsLEJFESqSKdNJ+m0AkWIYRUF+7t7vkKw43L4bNmOeSjBhZUTKKSwgMCV4OfgbXBe7Y09JychN+MaDkbdRPHYyrgXZ0ThZMEwrNntLw8x3LMKa8IfNN7FYfJsjYcl64khwBBoFASYPFu9YWTybPWGjDVgCDAEmgyBZvHEm2z2/0jHTJ7tH4GdDcoQYAioRYAZcbWwtO6DTJ6tdV8/NnuGQH0QYEa8Pmi1krpMnq2VXCg2TYZAIyDQDNEpjTBL1gVDgCHAEGAIqEWAGXG1sLCDDAGGAEOgdSDAjHjruE5slgwBhgBDQC0CzIirhYUdZAgwBBgCrQOB58+I63hi24VDWOEsbP4rYPc2Dilk5i7HfAc/6+ds39hyDIYv/y+6CJ9DCbzm/7awERkCjYLA82fESXAiKuIPXM+lZCvNXa5/gwlOw9Bv+o+4+w8MX+Nybb0xcauaJF01NlB/QujgBhuzdiiu8qat+trsKEOAIdAcCDxnriJBJo2hXOUxzYFdqxlDz94RRohHvuTZplx09AN8ffTZ+mCtGQIMgcZFoJmMuCnm7doG1+vB2MN/BXM8rCnHdwnuhq7BtDUXKK83D8Yk37bUXyHflkPSaqHf4FOSVstUZCDkW3th1Yo5cLPRRUFCFHZf7whf50z4TVwDMSfPxnfHl1FL4CzDR4Kf/GdhVXRRJbQMHKdiyYKJcLHh8rfQGMe+w6cbzinG4OHVzT8hAD/jIAZirL0JdJGOiKBPEBh6V94P3xYzVszFeEcLmHTUAbh5hn+H9cHnkKKUiNP0+rTVhTElbCyWFiLvb2UOdE0bK+sJoT9yFgaO6YNO+nyU5WUj4/ROnAu7iTKIYOGzEPZmbdDe0hra9L8hH39Kx6XIDduAqOh8RSdCmHovRE/JT7haOAiDxjhBpPMY98O24MTRG1THBr0Wvw4rGYUiRdr+tbga90Rloqaw8XsTBvFhyLUdh5ccjKBdGI9LG4KQmE7iHLJiCNNJ3nBy7QE93MfN/WfRxqUnHu38QqWOSpfsV4YAQ0BjBJqRTuHDxGMWPHIPwm/UWAydvhTbo+7LhBl0nN/BttVuKD62GT4TZsNnTST4XouxapqlfCF8B8xbPRcuhacROP0tBOyQYJRHb0pFq8LNSk9hLkdluK2HuFiNUTT2wEfr58AmZTf8pnNjxMBgwhIEzbatBJau42DoHloGr2Hj4XusBG4BdONQZlPk60NfGofta5ZjtnKeHoFYPc1KY8CVFY2tZuPopKX4sIug3m3lDXjQn/Qppnj3wCMy3Ge2/IiY6Fxok7EtU/RYFB+JhOgstNEpQUb0cdyMjEAC/SQmqeR1JPEKm5GDYTbmDQx3bYe000eon1SU8RSd8IogiYlEYrI2jJyM6f5YhUsR2cPBfTD6TB4Pw/RzuLT/Kkqt3DFw3EuKDgzRfflnGOfZAelHv0dk2APY+M/DQGeuLzXXqYFosGYMgX8rAs3kiSvgTfmJhIsVnm/hNRxL5Y6TfNu0V8CPWI/AHefkajup31E2w8HY4jEEFnuSkeHoAQ+LHBxY8i0iEktJeu1rbHUdgiB7zS+biZsX+uEyVnDybYWcfNvX+MJ5CILHesB+RzziFF0VXz+KLZEZNI+niA39AykT3NCvmxYiEmjcwih8sSqqYtDUH7DdbRSCXPpAZ8edyilvNZ9aw2qS8XXw7I7co/6IClM8KYCMdHlvEjw4F44H9jYYQhnVL+0/jsT7Ss9YZUhOYUi/BE8it+Pg1suKGwAZfGWVknRknk5H/rjREGQnID27suHVtu+Pjvx0XPtiFaJkHvoNvDjOA73pSYsrgpG+GOaQj8j5SxEn88zvwGDkKAwlxNOLmBFXuRLsV4ZAgxBoRiNOj/GJSdW1LvlmsLEQoKPJclwctbzyIjJuwYAoh0JjI+gS/ZGYqjRCJUhIzEKxvaZGgAcTC30SiLiFlEJlG0X+cg8jGAvaIE6xESnNkaBAKSJRUETGnA+BDidUQUacaAEXv3fh79EXFia6FaIUcXyiXtqQEdd0PkDm7WAMvN2ga1beqJTmZjJuEUYbxiAl9hJSo0m1p6TyHPRsbdA+Ox6Z99XPTWhrC728aBwJuVLuwVeflRDGjt3xJP6IeoWhW+EVFAvPEkaGpZAcTaNuTGE7pj+eiv+Hm+XUihDa9GSQS7J1j6sPxI4wBBgC9USgGY048b8U1qA+sIGM8nZ/TAtWb9U61nNRTVXdZPz/IWiaCMdWLYRfxG3kSrXhsmIXgiyaasRa+i2Jw/llgcgf4wFzh6EY4TkFZbFbsXPRAboJKYsIZk7mZHx3IkftDUZunEvjjyKrivGvNLJCL/TBrvgqht4Mppb6yBOLKwyybR8Y8f/EJU6WTugES6u2yAqLrWjX2R7mhkXIirtTy+LYKYYAQ0BTBJqRE69hStI0JGTWLt+Wn5mFAl1DWJsrp8uDjbVRZU68hu7lh4kTTskDTEi+TUfJo/Ngbd+VXOIsZKrj0Kv1x4MFV/96GDaHJ5IB5zxbHXRT9ciVbcir5zZr+ZWUi6p0SBub5iQTp9/2GWKu08WI3boGx2hjcd/xDAhMLaHHU+mPjK+pZRtkyXQ31RSFcc4U36rFC6d2ClHn1Nicyp0QH25u9hiZsTJeTFb0nGxlnn865/kbmkHIL0KRRBlvSTy+pwc9z9xFaqzq5mjlbtknhgBDQHME/nkjTpEkJ7Yr5NsCSb7NuiusSb5t7Gzyev2ciDAggygOR3iKCSYF/BfO3HmPdzDbpX7+eUbESWLE+8FXId9mT334e3RAQsQpYmfVUw2VYSxBZkoWYO6IYcbcZiQZda93MM2uXXW0M+ORWtAZgycMgzVRQcYGFMlSpXAbm/vHL2rYxiZRFhZEU+gqX7oROcDaVh+PxJGVPWpRZ+jRTUtLR1R1ePnnmoxzldoyykWSqIYP74OO0gSkxisNMnn+tl3J8ydhZw7T7DQUSV+EqXMf8HlCiIb6Y/SYHtBOYny4+gvCjjIE6o9As9IpNU2vMFpFvs2Lwv/IBOQm3sTZ7Zly+kUai81LvoQBhRhu2P0apCnRCAm/ARtnJTnDg1NgCLZO6FI+hOMXofgP9yluK9y99yI38zg+XGKIJQHTEXzIXyYRFxcahNVbb9U0rWrH7+7ZhCDrRfDffRD+xYU0xwgcjMiAr0mVqtIobN4QhtULFmDvWDL4KUcxdeJmJGp0s6g2bPUDhvbo6z0X5v4lKC6UQovudJLobTj6xe+VPer7cbgRlQFX7y1437cNSmODsXXRT+WUltI4Z1XZrJQNaOuLmRsnouJWaYeZP4+mO2oCIubOw9V0LXRy6gmt5MMVG5Q88swtS5F1SuH5F0Xi/E4PjJv5Ed71LEJuVCRyKLqlbTzjw6tfVHaEIdAwBFqtPJvDgu+xxTES02b8gJTGMo4Nw/AfaiUE39RI5mk/TkvC45Yc6cEjSTvaGC4zm4MZG1/G3UVvISpeGQj5D8HHhmUIPCcItAhPXBMsLVzHw55itGPiyDu3cKMXhkyQsOf8v9SAc4hR5Ex6Em1YttwidByDrvT8kcRx5mZDMWTBWPAjNyGGGfCWe9HYzJvaU9sAACAASURBVFodAq3GiAtMHDBntjeWcG9KclRI+AaspBhyVloqAjzoOXjAecy7GKUjQGleElJOb8S+nedriFBqqetg82IItGwEWi2d0rJhZbNjCDAEGALNg0ALiE5pnoWyURgCDAGGwPOIADPiz+NVZWtiCDAE/jUIMCP+r7nUbKEMAYbA84gAM+LP41Vla2IIMAT+NQgwI/6cXGrhUF+M9hmO9s/JetgyGAIMAc0QaEFG3BILD/6CPX69NJu52lqN0YfajpvsoN64T/D6xxMpC+KzFEpk5eoGI51StCRVuGdZEWvLEGAIaIZAq4kT12w5ra2WCCZcXhFJuErmwYasoQh3Pp5GmbpZYQgwBP5tCDRPnLixCwJW+uBVO3PyOIuQk3kHJ4NWIij6IcmqOWDpwY2YYFL1oaAEF1ZOgH8ol1hVRHm834ePhx26GeiDL5UgRXwSm9dsQ3Qu5RjXqA+qZu2BhaTUM8rOmOYhIdWbI1i/cieJRFROgMXn6cJAi94pelLQcKEHniksZs7CS5SHW4+TYZMk4+bOzYiLo/XwHNF/8QRK2SpEJ4eeJLZACaGyOR/6Pm58sRnJSvEGng0cAqah7amdeOgwA06OXYkuIXmzkDWIEVOqV1N3uPoOI8kzKtJkXN7wHf5Uef1ey34yPDy1SNGnDDbjyFMXtUFe9Fb8opo7nDIR9vKeCntbklWTxCGasiF2dynD5aDDyKktPe2/7S+FrZch0EIRaAZPXIhRAR9gos55rPD9EHEFQkrp6oJupPkoK5Tc6tNXR+BTcFTIl3CMCKC84uW6MgrY+KQeU4SIrZ8hKDETBXxLzAicj7UrcjB+3mFKC6tBHwZuWLvZD+bi7VjsHYNMRR9rVt7HtIXhKmIV2nB3CcSHXf/EhoNfY99fatRw6ryYhrD98H94WfgHzu//BvklIhg4OkLA54QlqPAlyIyOQL7lSJg6peNOWDhSZTcSUuNRlSyzckNf1154ahqA/GQxboTFoJ2lE15QqOZAmoU0klvr4DwDrlY5iK6UrJ0HQ3dPShLWjoz8KVw5vh9Zrt4YPm4WrEhCLZEz9iJnDF+3FFaSM5So6jj+dpiMEQHuECbtxnlmwOu8yqwCQ6AlINAMRlwHHQ0EKEi5jKjr92SebWbqLUTXa/XZ+HnDZyot7mH9Hg94BTjAnn8YEeqVJiqN0M1rKpwLz8Bn1RHEyXKB38P/gp3gut4dLrqncKxAk3S0Gk7alFLqOpQhYdnXuKUQFf4zOryicVEy0k8nQ2/Sq9BKu4wrR8PVijZwWQZF9JL6tV3LcTZamSXleEU/lKUwmfrp7uqPQi79ayXDywk2GOFJ7Fc4tvYnmWhDGxJFG+yk3PrkBJLfRi+cwN5lX8q9bnF79HL/gFLJsiyDGl5pVo0h8I8j0AxGPBtRx65gdsAiHN71KuIS70BMub1/jrxdD6qCcndT/u+FPkPhaGwAAZfOmyvFYui24UQQ6jLAnAAEiUhY2GBH1LgqoCfDQJ/6KJfDKcXxyCVQMZUNuEiFlLOvM3r7r4BWNMmmxcQgNe5eFeEFhepO8n61BpxkceSSaDFf40K5AVczlZpUd2SCDQ+RFBJerrqja2UIrexbeFBE/Qid0c+1I9K20PhK40/0jjY9DTDVHTU4s0MMgRaKQDMYceDu4SXwEveBm0t/OJE4sW/QWIzd/gFmB1/TLBmS9SysWeGOgj3rMW17NOlkSiHwWImIFdXFFmrDuVgcDHffQ/W4edTWWy3n0g/gyLIi9HHvD3PXmaQE/ybu71+E3SHXKxopjG/Wllj1HSlVd3bF1I6RQtghtorqjra9XLBBXE2w4UeZYEMbByeZws7FmIo8iLI2dOwaU91Rf03YUYZAC0Sg6m5ik01RmnoN4Xu+xep5byHw2CNYOL8EE3rAVy0cK8Ip+VQtAuvusKA0tAe3/SYz4FyxkMmzVS/q++BEkTlVHns46dS9ZB2eiKTTdEl8reFFGheGSxtW4eCceTiXpA0R5f6mvdKKYutEPH8KyZTRBqW68kyqOzx0drIiwQYVBR2lYINCqo0vEpGvLyHpNOVTjCFsPPtDwFR31F0Ndowh0GIRqNuiPfPUTfHqgvcp/3dfmVSZhd0wjLLXJY48rQqNkI2UjKcwcXSFI8mZ8fmkUakY+2nKPeTSRqRzP071h5QtrV+Dv5e1mpnV3Mfd0L3Eww/CktU+8LDrSjcBejIY/yZ5+JNhXelmog1Xl/8j6bTX4flCA+AxdYa1c/dyg823dYalIdEakVcr0SnahoYUtcKDQEeoZh3Edigk0dSq7pS3UKrQq+HDbQ2QFx9X4cUrBIyVNw2phAw434bmagwtIWmP+gTCxaEdchkfrvZ6sIMMgZaKQDPQKUVEN5thmt8qkjHThaCYC+3bjcANEVVojSKc2PotXFfOQfDJyeRlV4QYSq//iBVbu5IB/h6RxVIU5MbjYOjvsJ/Gq4JrzX0gNwKL5/EpxHA6Fm6ZQrSBPNRRfGwfRaY0XhHYUthfwMsYIy0kfUky0hQSmLJ/LU6dqyzfUBp7CjeT3sGgLw9jCA2f8b0P9h+4q5iIEGYUmliadBQP1ESJCMdthLevnTK+h9osh78r/ZP2E3bOpU1KHbmifHUB41tyAWOq+jRmPy5E9cTwwB2wlWbj7qmrKJAaI1fMos0b79vAemIIND0CzRMn3vTraFkjEB2ja2ZIBvwx8tPSIFVjiFvMhEk6DSUlEI5Zh9dn5OHnOZ/hz5Y83xYDHJsIQ6BlINAMnnjLWGizzqJEgoJk+mnWQeszGNEwIz3AT45GeloB2jvOxIgZFkgL+ZwZ8PrAyOoyBFoAAsyIt4CL0PxTMEQn13EY7P8OvYBUgqK0eCSELMOF0xnNPxU2IkOAIfBMCDAj/kzwtdbGyYhdPhs1BDe21kWxeTME/pUINCD84l+JE1s0Q4AhwBBokQgwI94iLwubFEOAIcAQ0AwBZsQ1w4nVYggwBBgCLRIBZsRb5GVhk2IIMAQYApohwIy4ZjixWrUgwB/hhmNnxmIYXzWNghZeWe+Ns+fflf2cXN0TVV/NqqVLdoohwBDQEIF/mRHnwWXFfkRvmQCDKnlbNMSrGau1heuKGQhZ2LXamENWzyo3jjID+dMUbFxoDbNKRrRas6Y7kJmJP35LBWWnUSllOLEwBMOGbMHH57hEuLWVmtdaWyt2jiHAEIDKm9sMjdaFAOVkX/bpVTKcWtDvYQP/ea74sDAfb31T2ZQ2x6KkNxPw8crmGImNwRBgCFRFoJnixCkfuOublA98JBwtKIkV5epIiNqH1UuPIlGWC1wI+/HvIWDOINiYCCDNiMfZrV9hdWiCPIET3wVrT34IYdB0kmvLk61B4LUaEQElCBxFKWlJ5KHb7M3YPSEPu6N14ebaGya6j5EQuhkBayIpN4o2hq0/gCC3Dor1++FUjJ/s95xjy+G16rwiURQPToEh+ML6AlZEGMF72kDYdGyLnLgjCPD+Dh0/3YnVJkcw3nsvMpU5zK3fwKEQD8TMewNrxBUeZ6NIvClmq/Yfys1y7+ZDpNE8km4+wYlxvTG7u4goiyy57o+OFTb9NAS5m6NQNLIvhvUyIFm7QpxffwQfnymE0Yj+mD+zB3p1FVK2xr+RdeceDn5+DoduVkgt6/ftjQXz+qF/D8rnWPwX8u7cxdYVv+FsllztiP/yyzi0xo7aE41SnI6PRh/DWZngBisMAYZAcyHQLEZcx/k9BK92RU7oN/BbFUcZCc0wbBoZWkpTmEi5Y3Vc30PQEickfrEGsyPuw2Tse1gVuArFmZUNY12gCEyc4FiwEj6viAHnAOxY/zZ8wv+QGdezC8ehH5k4lxW7EGSyD16+JOtWg5iEwGIMfB13YbX3/0gFSARHZ3N6hb6Ebgp/IHf9UIwy34/tqWWy6Th4DYFJZjRCxX+pTK8xJN7+RlFRISR5JXUtG/p9zTHE6G/c+12iFG5TtOFjwBt98OvmX/F6wEPwu3dBL4G8Px0dLWSF/Y6DNx4gS9oOvScPxfw1bsiacQoXCjnd0k6Ys2QQrG5E4/0VqSgkwYjuAw3peAXvLf3tN4wd8hs4TvzQEt0651lzBc3XWnMf7AxD4N+JQDMYcRFemTMCBte/xVtrwhQe7D2ELL2gQFyIwWMHQDduHz7dcVF2PjF4Ew65bYOXVz8EiZVesgYXqCAWu7ddlhtncTiJKI+EtXVHQHxPg8aqVRKwfdV+iDkRZsq1GB2aJj8pDqU+N2HUWBts53RASaB5rJsJUsLXIK6GG0I9B65UPWb9T4ipqYMe/fHD+f6Ks6XIOncBH3yfXbm2QBt5P13AxjOKDIo3U6Gsceeni9hYXjsfad/H4dURjhjQQwsXrnDrbgcj/bbIupKOW/c4KaAipN25X9Nsnvl4rWt95t5ZBwyB5xeBpjfifCvYm7dBSmhsBQVRCU8RbIwFyE1MUvGM05CQUow5FmakSt9G41SxxQUS5D5VPM5LpSimR3sBX53MRO0XtDgjDnG5amgBKaXADc+Al5s77INvIcHeDc4Gd7H7UHKVDhtD4q32OUKVEzfvBu+3B+DDNx7i3W/+rPDGi4tx54qcfqraG797Nyx4rz/6E82iL1B6138hVelpE+X18xkJls8bjx0jM3Hzdhb+OJ2IszdVnziq9so+MwQYAs2NQAuITqm/ka0NJA00k2trLj/H3QBqqJVw7CRSjJ3hZa8HJ6JSDK6fxslMOUdcQ5OmOazgxJNu5uDSL5ew7pccdP+PPQZUilApg1QdR01Uid+a4ehffBsfzfgWHkO+wrBXw3GtWHUdUpxffRCv+5/GwYv50O3rgMVbJ2HRwHZNsx7WK0OAIdAgBJreiEuTEJf6FBb2DjWE9dEmZ+ZTGFhYqZw3g42FADmk/lMgoynIqJJVFehWGHwTA3218mwaodAA77y839QIhF7vgMHjZ+FV53aIOXZeLbfeGBJvGq1FUamYy3tL69KRCUfXUfT10V2fjPSu67iWVSLz3PnmnWFU7pFXtM++mY5ju6KxzPtnHErl4aWXO9Yz3pvbO6AffiVxujomyE4zBBgCmiLQ9EacdBxP7j6DXLs5CFowBo7mJI1m1x8TA2fAWeY1FuECGcIC+0lYStEg1uZWGOY3FxMscnA29LI8aoS7EST+DRu3YbDg2hi7YM5Yc03XqFKvBJkpFIJn4YhR1vpyCbh6x1Zn4+SxKzAYOwEegus4FvFAzTyeUeJNTY/VDvF10LXXi7DqboD+I+ywYJwJpGRwbxaroYGqNs57hKxCAXoN7ExxQVT0aRPz7R4knKxyA9DpgreWvIRRffVhaNQe3Uf0xACjp8i6nV9l87Rq59U/37nxEOjdHRP7dpD1Jaw35tX7ZEcYAgwBOQJNz4nTOAWRn8NvSSGFGHojeDqFGBYoQgwV3EchnV8Y9D4CZ6/E3oC2KMi4g7MrP6RNTWXIngQ/B2+D82pv7Dk5CbkZ13Aw6iaKx9b/Mt499AP2uMyHb8hBLCSl5cohhpr1lxNxEtEFg+AYdRoRXCTHP1HMe+KTrT1lI0sLCnDvyiUs23xVFnJYZ5FmIXj9NXw4zwN7//M3CsmoXz0aj1vdbVWaStFG3wJzVvaFvgFRKLl5uPpTJDb8pJS60IFPyHRM61HxFfrw13fwIfVwb+dhzFaJV7934AK29R2J2V9Mhw955X98uguLfuE2S1lhCDAEnhUBJs/WEASNX8OOgzORvPB1rIpmxqghELI2DAGGQOMg0CyeeONMtQX08v/sXQtcVEX7fhTYLRfMBRRBSIQENMByyQJNwAQVsfAuWilWkAVWYiZ2EcukC1gpfqV+Bf7zlopaoAlagp+ylqwmSwkkCEEgCqICJgvm/z1nd9nlvshF0Znfz2L3zJnLc86+8847M89De6VNTB7EyNBpsCs+gkitwz13QOtYExgCDIF7EAFmxNvw0AWSBdi2diKMimg/+opYOgikQ+iiDeWzrAwBhgBDoK0IMCPeBsQU0kh4u0S24Q6WlSHAEGAIdC4CXbA7pXM7wEpnCDAEGAL3MgLMiN/LT5/1nSHAEOj2CDAj3u0fIesAQ4AhcC8jwIz4vfz0Wd8ZAgyBbo/APWjELbFwy4+ICx7a+sPjuMKPfY1gu45a/zXA02v242TaYf6fNHI8boU5ZtDcryDd9RqcukidqI/JLKwctRY7x32DTwYSHS1LDAGGwB2DQLcy4pwQhPTwKjru3p5mV0EuO4bU7Cud9BBIAMN7AaJ37YL0GBnqw7uxbc1zkBhyR9pr8MNCHwx38UZYcndhAzTFGFsvWFbtwKsHX8CS/AZ0t52EIiuWIcAQ0A2BjnIxdavtjshVjsOrV+JwJ7XFwvdtbAh3QVHc11gUT8pEJlZw8x5KSkM9IatUCkl0UtWdVGxv9LuvBheKs3HhX7YvvpNAZsUyBG4Zgfa4tLpXSoRVoWtikEKe6clj5JlGkmdqoqmak1aT/vAmnOqIkRyweNeP2Dr3Ib4OoymRyvBDuCsxGbrio2M/KUMSFFKwqwspiODs/za2/fADpGnEbXJ4O7Z9OFnruhkCYlT3USijyXCKoTMCVO2UHvgS4d4WjfoosPPGsvVb6/eF97IpkUhEQOCTQPJaonrdA2nGH5ClJGLt258hvlhHA85J0R0+gLW+xnV1K2cgK+ChTRwlEMNj+Rok8d7+/yE62K0Jlsj7YH6fGOYG7dGZV9/busJQI7DYFwwBhkCnI9AFRtwSAavexTST3/Fh0FxMWfgN8u3mYPXyyTDXMaZbsXsxhSA84RouRXWFFEtHPsV/Hj7tC5VGJ+FkNxNhwRKUbVsB/0kvYu7itWQ4r2sBWIKYAO6+5xCbpf29OosInmHvIMS6GOsXBmLu2/tg5D0Kg4gkqy6ZeOCjNcGQlO7C0gDqS9AaZJhPQ0S4t9KA2rlhuMU/SE86RnpAnZuEFm4YZ3QYYdSO4LWZsPYPwzLffvUrFXvi8+nv4OvhNrcUe1cXJqC3RPEvM+Kd+0RZ6QyBW0Og8404ea6+Tv/gQPSXSMr4C3kkcfZh9HFAMhae5h1XvYD4xU2E5UhL/Q15xQXIprj31ugfNUa+NXwM3TCNhJTTtn2FrbI/6f4ERMRm1BOHGOQ7C66VPyF8BXnZ2dSXjGR8Gv0/0vP0gptRDwipDaZEvVtU1JykRGuNaMP16kzEROyFjNoh2/0FNsj04DaJRCp0HBh1q8kA/UxGwl54FYVVGhFo3e5luRgCDIGuQKDTY+JC6wdhSkroGdmahbyKvL9QLHTGYGuiOC3uGBZAhTwJSVlPYWHsFnjI/0B2dhoS436CrFhHg2phxQ8Cp7NVepSE/lUykGXVYtVzMICdU38Ire2xKdWvwbPJhYmxDmIMHfhEq8sKkFehjlFXIY/jSXezBBcAKlPXU/4jZn77463V2nMEwsYE4Qm9WpT8vQHbL98myt1baz27iyFwzyDQ6Ub8lpC8lX13lemIDJiNH1xHwE3yGDy8F2IayactnfMOknjB49bTzQb2XsEpCjW4rVoWDa+guKbDJUaXUAoxLCwoBpPRzcMP//6KiEOnyBN/DitdZmJW4W/46rKOcf3WoWY5GAIMgQ5CoOPiGc00qJq87lKhJRzt7q/LYUTeuXl1CfLylbHpCtK05KXF6nJQWMJEOxitusDna8HjVZQjmxYSY2n3ybyA9ZAbOcHDUVNvM01Ufl2Ug2JFH1iYazQkjSz6w7SuGTXIlpO3O9AJLobNwJadipNF98PZfaRWX5qrVdnnxld1k6IT0q4XawrhKJMI1tb9gaJCnKsnCkELm6L2LGzSrpSyY8io7g1LUa/GTWXfMAQYArcdgWasUQe2K5s0KbPux/jgBfB2JGk2iS+WBT5BnuohJBUpPWQ+bEEG11vyAFUsgr3/FLjWGShNW24WnUeRcBA83QfCUGBAdl9j0IWSWQgPfgauVIe5uS3c/EfBGheQrWs4pTIN8alX4TJ1Jpy43SaGDggguTgjLSjOJWyHFE9g2apAZV/shsFjyguIWD5DuQtGkY6YDb8A44IQHTaR2jIUEvdxmLf8DUwy19aY5AaEvwCnpzBbMpDaa0b9UfVFVyk6IbUvzI+Xu5NMeQ2Bkhs4lvC/+jMEbmFzSvsXNhX0mAQ927PDpQPfJ1YUQ4AhUA+BLgin5CJm8QcwDg/E2+uJi5sW/s7J9mIpLQ4Wq7xGhexbRCUMRljkd0jhpNtSjkJa5IgHGzwsRcYebIh7GCHLv8GRVXQxby9mTVvDL14qqhUwkkzGiqmvwJQGgIqiM0iMWImt2bV8KULvcCStctcYZft1ODmPLlQfx9IxbyOpugqHKf+G8DcQFe/DS8jJZadRZNdX04qyZCxdKMDi0NlYvH4mLWJWobT4LGTx39XFoYsSliNYsQALSYpu9VROiq4cefI9iKyoH9I5t+0/iJa8i8D1sVhIh4COhU9FSAInfaabFF11USoSKzwRsTUERooCyGhXTkRSU3qfmubf2l/qsBAz4reGH7uLIdC5CDB5ts7F9y4o3RRTRnyMp2tiseT0UXbg5y54oqwLdxcCnR9Oubvwugd7U4qfcw6i0GgG1nl9zbhT7sE3gHX5zkagC8IpdzYArHWtI3C5bDveObK99YwsB0OAIdDlCDBPvMshZxUyBBgCDIGOQ4AZ8Y7DkpXEEGAIMAS6HIFOD6c8bjscp0oz2tUxxRXaU80SQ4AhwBBgCDRCgHnijSBhXzAEGAIMge6DADPi3edZsZYyBBgCDIFGCHR6OKVRjeyLuwwBA7iExWCt3T74BmynQ09dKxxh4b8GCaFOSkyLDuGlaasgU3RiGwzMIHYwQ0NSiNryXJQWahMQi9DLwRa96NRweeZ53J2sM8o+9m5wDqy2ivqc21V9VuFscBlX6RS0OvCqZ+kAsViA6kI5nbe7tffB2GcRRpgdw8GYX3R6fsZ+72HMaFP+XazN3Yn9xHCqCQQL0D9wO8bz1xXIj34ah49rM4OOgGt0JOz7cHenIzkgBHk1urWbGfE7zaQOnI/tcc/RMX5VopOkRdknsCt6HWJlGobF5putNKobpg5QZalBRelfkCd9i8joI8jrcANXgzL5CSRX5BFZmG4vXfNtb/uVom0LMXwbYErGPN6/C+p3noPJ7z1FxtkA+hxVAvH5cGeCizcHI26nxojrSYIwa+UE9L50CNvnfYLzOv4g247AbbxDJIHHB0tgQ7xHPBZknGrJatWmr8PGd/drGmYggftnL+LmlkU4Iu1gWULxaIz7+A0MFGQgcfZinCmnk9Fcu1ZGwMnsAk4ueRFHypvSD2gNN0tY+3iib/pBnQw4V9r1zIM4USLG0KDXYZp7WcuAa+qqPf0Jtn6agMaUfL9CGjwaUud3MfP1tunYMiPe2rO8LderkBoVhjWyf0jJyAoec1/BwshFKJpEjIyVjR9/k00sTcHyxZuRRVw0Fk6+CAlehgjFRfhH/9Fk9vZ8eS7hC4S1p4DudK9sNb55ZjWEPh/jpSAD/DRPZTjq9cEGwwJGofbMWVRbCRp57d2puy22teoI9k8/AlhOx6yNs3E5Yg4OHGmCd97BDQOtbuBUTkNO0BZL1+mivtNj6E+znUsl90MkpoGk3AB958zHAJSgtvIc8jNvsU6xE7X5Gs5vOatTO7hM1zKlyBdNwHBxOc7LdL9P5wqaydhNjLgYbsGvI9DbEYNIeEFAbIV5skSsidgIKUczK3DBih9W4sFNgQjYRsRSqmS/6BvEup1GIPGryMlL5KTVFofOwzhHc57DJUtKnCbhm0n7Uu3BqUMDx7A8uT9PgGVv2hOlxH0SGvAV5AJ7zFn+KqZIrGFhSpyLpcRZkvR1PQ9XYOeLFcvnwcPeCBVZqdiaYYog12IET4tQTfMNYO7+At4OGQuJNXGrcGUkfEVCGdI6Lhmu+VeLcokTneNaP4tsQ1dMcxsCR2s9JGXb4e1dn2N4ciimrv69rq8W/pGIm1uJMAon8P6ggvPgc5BNnnd2xlmYenhiGVH0WuMM8niPWQzXua9jIfXR2rQHFEWZSIz+HJFJ5+o8CGui8w0P9oGzSS3x3XyHVOFsTKv4Au6LD1AeAzgvWo/Y2YOUbZBvgFejcIoITkTOFTrvCdgTPS9Xx+EN/8GqBNIe5e4SkBRd4nswjv8WZZKJcOPwKE7D+mUfEOeNynuiZxYeOg0udgNJp1TJiVOvjDoEWv9DYGAEE+Ihq7he0TSVcOtFqHLQM3R+CPoFiSjkPL8GSTh2PiTik/hpfS2eCu2jZcTJwPiF0rXD9afoYleMDB6JS1vW4kwuZ3QM0It4gJ7wGwlzM3rPKFSTHkPvcCbHraNKlhMwJmAQcrb8CuMZM2FnYwz9cjmORq1B/gU9GI9+Do94DaX7zaBHvb2auR8p6xNQXqV513tTnpF+buhreA0XDu7BOfETMMnchNQjRapKiAHT5zm4jB0CsaEA1wqOQxr9X/zdIDwhdHaBqeIcTsvre7y9xy6Cu7sp9MQ2MCaxkqEhK+n9I7nw9J04sPOUqo6W+mqPoUunQlxSib6SIbhJ92XUPAkX1/6o2v8ZEvaeQ19nW+jlyJCPR2FE4RNY+sLdpRg5OcZ41FCGYtUMSODkB9cZnrDk8KwsRNaWNUiT1THv08/BCUMDZsHJoT+P4wlpb+JGOoff09V9aqmdmsei7zyswX2aa531VzdZ2BTAVFCF5A2fIJjkyPxDOFk0H3xEEm+8ko3iNBKlV+HgTS99nbKNDSa5maMoNYU34GhNWk0LYaG1D4IkZ4iffBqeGPcClsdRXI27LjCGsUKO2Ih3MXfqXARGpEDgHYZV/rbKu0ljc+GqV+FWeQhhs19C6KZyjPN+mH7EKoZCymXougAbV3mgOn4NAtVl+C7FCn+bpp+xIXniJLRsVFGAjDyKrCoysSupCBYePlqapJbwpHoqpIeQWjcgqYszgInjOHgMjYC9cwAAIABJREFU7IlqmvorzQAZ4OAIrPbvg9TVYdSXV7B0Wznclq9AkJq6l+TuViyfCKF0NebOfg3R2Y/gaYmGppd+ikhfPZ/k7rwRGPd3I951rnZD99cQtcwFlXERfB3Lk3qQBN4KhEq0aW0FcPEYjNRl8+HuuQAbyhwREjqxTqFIaERao1n7EbmYBs+pC/h2ujQqo2no6n+rDy+3MOyd/jwm3t/O197AAdYORriSKVPhqVUTTeVHPTsUl3ZuQX6VgqbihhCqNVi5bJZD8JDkIQrHqJMIlgEvw9kwH4W8ARfBPOBTzFk0hozWfhyN+ZYI3hzx1NKX0N9A8x6JCPehzq4YtWgWTEukSN+bgDwavfU4I03tG+j+IIU1kiGN+QIpO/6A0DUEvnMcVZUaoLffh5gZMgo3pTuRsvln9JgYCq/Jj0JUU67MY0CziY//Az8/ExTv34yfNieiyvYZTAh6kgYF7aQe0DIbDWi1JTIiszuBa6QHW515BKdSkulzMs5wDJ58aqWvNiR36P4IGcUMZBf2wqDJ8zG48gjOFPSBtesQkhy0gpWDMT2HFJRUicgTN4ND0Dhc33EYPayMcClTzjsLotFL8ezKaehTcEiJZ40dRi19DTYiFZ40iI75OAIjzYqQvvlrpBUMhnvA4xDlyEnRihv0WmlnHRwGENNgIyyQk9ZNF4T2VPV2E0+8BD+s/qQOKuAvRG4j2bdQZzJku5GsqEFa0q8oixxNkm87sJUTJbbzgKv5RRxLUnqramm1QGJPlPNx4b9IWs0F7pGctNpBxNep5HDVZCF2xQ7IeDGJSkgTCpR1V6Zi7YpUTTvy/w+xHuMQ5TYMhpvOQiHxhrd1KXYu+y+SOfbE7C+xwX0UolTrbpz3O95/PATJkQjbdETpjeZ/TWyGI7Ge9Dytt+WSl8wlEcZHJWC8uqaKTGxZ9kldKCUrPhF5/pNJ9u5+Ylqk6evAkfC1u4LD0Sc1cTgLH2xMJTZGdSJ1pV2xh5QLj4LHMJti5mlRL2JtUokyR/6X2OYdC39ve6zP+A2DvMfBqewIXo06qMRrw0a4ea+Dr6bEVv4SYeSkETCSf4cPNx3nZxnZ5OnHeWyEr+9wRMmO1rU1K2kH4nlu+VwkJv6J4EAH2JFTJaVfYLVsO8Jlmqry8rcjeepnGO5oAXThlLVeZ80c0N+sCsXpZxphYDxjPobgKHbty8MNB44BUh96IvofbxtrcK2E/nAxg4gMcgV5iXpO8zHG/R+ceOMHfkDQdw3CBD99+vwafuONOpBf6QSnlfbkDffAed4LJqNCA4G+4hROvB+O7Auq2UBdGFqOUx/I+XuVKQeGXt4YQd40nyx9MC5gIIrXvoEDhziv2wDXHCbCfmIZ8nnPk2YMAWF4UkxrMW98hvMqg1Rh647nXR3QG/+j7qiMlHpAS2s8oF2TpyA70xWDgmpQsGMLsg9dVrVH+b/W+lru4MAb3n0xh6Ef6E/hqSQc2XkUDywKxHUabBRiewygkEdhzFlUGirwgFcwRiARezItMNHsMgrTqG9id7gHjULl5lB8vzOLrzhfMRyPrHREf6ueyM3syQ+iQ3EA29/5D0o5z13WC0O9llCMOx1ccKi1diqfCVeymWpQSW88uNfrecd+6CZG3ADW3guwOHA0JOYmEKq3BlTLYNSDG02JilaWREb3E3h5DMBWCqnYk1G0KJYhIYNbdtJBWk1rplpdJIe8rKmR1IzCOq8gxPtRWFsYaabJcgGFZ3qgxrw/7zFn56un2DXIyj6PaidVWQIr2FsLYWrxLo6Pe7f+kyTqXBP6jeXx39aPibv4P4/A5UsgD6CYeDGVnU8c7RnzMFdlDAdN8oR1sRSrKIbOGQ0+lUr5mHgexdSfph+Acfz7iJSqqGqtyZM0MoRd+HacDFdmV/+3oog8X8KLE5moLt6nGvDoK47nPK+6DUZcDHtzIcoopKPZsVKALCpjnrUVj5dyMqug0JFqIKFqeIEQoVYc2cSZvNKX4O9mR+EUlRGifOeaEg2p35UGn2qxL2UZ9rWYR7eLzYUPIB6LUT4WyFsfrlzIrOEWPQXopeWJV5fQiyYWKz1xztsN8sTNgytxijfYZnh4uid6l2fgAQrJjKQFQy7p01S/l6II1epZFudp2/RA0d4YjQHXbrrIHvZzpmCIw4PobayUWhGJe6IoRemM9PXxxYDyX7A5pbjuLqGhIWpzkpWep8idZGMHorrgT9jOeRm23MIl5RQ6mNNglERvp9Zvo4UBjS/cwQUDBHk4kX5Vu4X0d2t91YcFDVRX0r+jAaMPHralyLdcRkaVvG0bQ5QfyoG+0wvoz4VxMq/jmoRCLu7G+PWtePzj8A6Fd3IhpXi4aKIfLbyeRPz+7Lr6e/D9uYaKS9QP6utwVxMUxOxQGnAul0BE1ymuLefi2q21UwsLET2XNsbRG4BySx+7hxG3e46EF7xQsS0S/rFSmjYqeH7w5OUaLSAoziBeWoq1XEglTh/jPCiUQh4vxzWuTi1Kq2nDR4akqeUQiylvIspfjPgVixGc/CfKFPoUgtiCKOu2YE+GPTaEFhj/bPEm7Zi4XF4Ne4odz/O2QRJ5/KBFm8T4UwgMHgs3wzIKRwxEXrIy7l9XKK0bFGWfISP8B+RFfbApdhkCM16msAg3qNGwR8pKOxfORwTnyTdKHcEdrjG4jYpv8IWi2R0zInguegfB9n9gVcg8JGYUk/dug4W71sGdBprbk5qLh3NhkedA9gVX/d7HHE6GlcIIvQU9IRRxWCh3ZdSWl5P5sIGIDLuIvO7HDX/BDzGnlDsgRE6wse2JC9ICXKMBANw/SooqKY7LZChU73CxJcNoWIh0aX5jCEQUGvjsTViW/IjjW/bjUnkl/rWZDr8Qa/KySym/Jayc+6My/WuN0aKwhAUXHkpTep49KMZtJihEcWYZaJLLt4NryTXZPqRk/qqZ7dF3zQ5oqpb1dnFAr5IzKL7QwClqra+wh5ttDc6vp9mOwWM0aF3G+c2cZ+1JhvIi35e+PhQPL0igmQL9Xg99g/3yi8jJvAELPwpv5m6neHgv2NBAcDPzS1VYhGuUAUydHCAsSUcxzWp6uHB9zcPxNA4bZdJ3Usa1T3OzEtFI3Z4J3crhVj+OXldkp/7RLYy40O4hWFMsevnG/yGvWunlWtuRaHG95SmK0XIhFV/ackQxV3cKpRxOUo++Kmk1f05abQ+Sdd3hUQ968k6dHiRFou+whspVbiYzxCAtj/xq8XlUGA2BHcWfk7K5dhrAnm+nytMk8Yas4psUBnGmmO/Ztu2pribv1EQzaJUmJ0IWuhiTAq+Rx5uHXfHKqWKTb0t+AmJTp9Ii5QRsW5iAsrxMmlLOgFOzIYkacMLLQm8H2NPWMX7ftcAWdjSLoFFRx0TiHtRXf2tb6usJ1aKtciZSKi+g6WZTM52GRVtBQgvEeclbEE8GnE+0RmDdhBdeTaIgnMSfthJTw9IMDcQ026lFWVU7FjabCx/YzMAo9/twbsfXyCxR9u2mwAmuQY+TEdfEslFOBppi3EY2Y+E+xxrn1n+Kv9XxU7EVeejlKNj3DU40WCTU7ouIwgy9y7NxXlWP9rXePnMoNPAztr//X5WRpsHFbwjlP63MTxj0NhTiWqUmtKHnNBFDyIMsorAElwQ0UxCShyuP+Qb56oGjIZj85+YGNHVm2hlFs4Hrud+R9myD591aX20CYCkuwq/c7hKHYeRxZ+En+lvfhQxsZRZ+LeinDF2kZ/IhD+RKkZ3L/WFPBp/i4VJu8dwMvc1oQTazRLNNUOQMZzdTlKUe5PER0sKvSFGCq3WLtWaw8xoGYc5upeG31O2ZcDWbOtlSPJze9S6Mh3P1tnOFhyui89NN0uksE9jAdTjtXqBkaDcZIb52jSpWyGkhp2wQpoX5wCJPSoZUc8SiVWm1RqU1/KIGxZyi/EAJxd25eA4Zdd8F8HfULPZxIZ2kPAtMD30RrnYPwo5CQHPphdGkchyI/QlljvMQRW2UcHkcH8OkueThB7vQxFuTelvYwI4GLyeKl08LmwtX04vkeWl57xSfj0/9B56zJ8Ak4wgS60I4DdvNfa7Csd1HUSGZjrlcexUnsDUuD4MCwxA+5QkadB6Ek6snych9hFB3LoBLqwJJiZCbPEG7edz5626BL8HbpC2vC9UZT3U6TcfbtAPGbqAtPINfxVRaMzicoBW7b6q5dd+VILuomrZIusCa24csMINnyOwmpfuqs8+iyNQZk3wdYU1hLRN1/LeuLH24u72JHVNucWFTRId8bGwhdvagHQ41tKXtOv+5F2+gaYof4AvTnF34OSaB1mH38f+yU86QgaHBV/vBkideTWsjDwXNx8DCrThyROMBojwH5aTzOtBrRN27oNfPCbY+I7UGJxGsyLuspR0ZFxsZWAMY25rzoQ/lm0+7S6aHwdvLAtfV+SmWfPVSNYwdRsOUZggCBx94h46DmMIPyng4rUMUlOCaoROGkAyiMpEUooMrhowerPoopkGIsKCtg3bkwVeW0IBPn436NZx9mcGU2zFiQPVoLcryhbTSVyEfD6fdJbT7h/fm6dBOcY0+v3CoRwvK5w0dlfHwhusi/Zzp+XDx8DyqpIpCUAqIbCQQc/VT+Mo+ZCGtWRyn2HoG34wblVWoNbREX1vuNy1C3+mhGOnSG2WqeHhr7eQL4ROdG6CQlL4hDZL9aAedSPk70lzvvL+6hSeuyPgWyzc8SNqW3yCFPK6KMtqhkfALnPwbTKkppJJIIZWptGiXFUuLKtqjvw7Saq3BfG7b54iyewshW3chpLqS4r3J2JVchCAL1Z2ksblm2TqY0BbD1VsnQ0EDSQwtrNq7KqfFXK5K6RcIXlZJ8f0ARPtyg1I5lfMHDsdyoQJ1EsEtdA3c+I81KM37A4nhqymmzW05VCeSdEv4FaXjvHAu8bDK09W63OBPhWw34vImYF7gWGwibzw9OgyLKmiL4bxl2LSM/FeSo8ujQztbi1VbqrK/w/IVZghftBTbfWtRRFsMEzOG4ml1uYYTsTF5MSR19QTiYFogfSrH9yHPYQW1tTLlCyyOeh1hc8OxPbQnSeadxeHw92hRs6kQTlNtp0EvirZThgdjU+JsVFdcQp70IBKzaNBp2D+aIUXFDsYywm03/R5L49+F7wrN4mlTpbflu75zVmLOZOu6W0znf45B80vw6xsv4hfRHLi5/IP0JfH1F7T4g0AUf6UfNwUjlPdSmOtqpQgDzf5G8kcJ6m+V1yhscjTmV/gFvYNX3KtQpTCgAaCKtv9FI05dsyoeXrzlTBOHUGoo7n0CV12fxpytT9F1BcqkqSivrMa/MnX+QmRsScDgpdPw7K5nUJWTiuyCS6i9pN6JQRXJt+Dng7aYELoRwUGVuEEzHL1KmkXGvE8bVCls4EIHmejAU52ZMgvBs/SyFn0TiB07z9VhBNA9B0/DbsYSvPLDW/TyH8Ge2SuV3n2LfSUHiYuHZ35HeIrxMHnzFyjUw3nW3G6Ui4fOoAcXD6ctgFw8XDvxW/xU8XAu7Ji5MwmO1Ne5uybwz6K6IAVJ73yBfJXnXUvbjH8rWIFRn8XhMTL4VzNp4FVcovi7claCFtupXTOJiu8n710yF9M3ja3f13ot7PgPnS7P5mD66D3NYuhMe9XXS1LgP+f/oNyf3XEP0dR3FeJCBYh8egntrlEvpnZc+fVLMsOcGNq9kr0MUyJO1YuLdlaN92y5FPIwsqWj/YrLFH2hUEAjj7sVZChUYWpGIZOCv3CN4sVNJwPoGdSSoXeEx8YImOwNQRztu66XqByxGZnqSjpGX3ip6WLa+217+6pL/dwsykoMXCpE+QXNqVrNrXR038YKwspcut4MXu1up/LY/dgHvmnmxKaqNaoTm78EsWP3ujzaTslj7T4FThS/T5OTZ23tQYuRFsjadrRjDTgtmJlbD8PL8x5FdeqnONwpBtwMrlNGQJidhrS867Qv/TlMsaN1hmjVQZ1OQY8VyiNAIY+KTPp3q3BQ3L1Utd27URGWFBZxoG15UvI4BXawD6LwguIA9tCWyEaJyqHoT+em9vZVl9ZVlRB/jWYHVONbqnAtVxVbb3xR+U0HtVN/2BI8v/kV5H42DUfqzUiJO+WzD2Hfl6aRFO5sS+oW4ZS2dOh25xVaOGPe3AAs4050UohCnrQa4bT/uyOTc3AUnZS0pJOkSVi1Ormdpw+bb1lfOq4fHBIMU/6kJIVCIj7EWp1DIc2Xy67cPgT0rVwwPGAcxoWSsag8j2LZfux5a/vdye1y+2BuomYFzm+YgtgNTVzivyLulDe8IG3ucgvfs3BKC+CwSwwBhgBD4E5HoC3bDe70vrD2MQQYAgyBew4BZsTvuUfOOswQYAjcTQgwI343PU3WF4YAQ+CeQ4AZ8XvukbMOMwQYAncTAmx3yt30NO/xvqglueq/1NeIkjSHOEC0jn2rJNb0Gkmq3UUA6iwj14l9VuNcVYjSXPU+c+LltiEaANE1OliTQxwxutAvNGgj8cM8tmgkrsSsJopaXc5HWMJ+0WtwsuROZdIBqP3ROHwoT6vQIZB88hWcLLjTt5lIfTUI2Vc07TIY8x/Mme/I5798YBH2bk5r0KDb+5EZ8duLf+Pa2y3PxhVJJ97UrI+c0EIFkWHRqc/46E9J4u2Kpk7zydi0ayYymyXCaty8ht8I6cAR6VNg+XhiWFTx2jTM0zWfiW0u5FOMduhJUmHK49+1HCMid0qQ5NH+rmsEHU1/9j3MnmGHm6kf46sPDjVx8rFrWtyptegoI0d8AZi2aABOvvUhcm9Ri7K5fnAUrrPCniQ+kZ3YFLhRSV/rMB+TP56KvorjdHpzOYk5tD3pO7vjEZc+SFmt6wBAp15T9uAEiV48Gfok9Hc2tWdcgQvfBmJ/YoMDT9S8mp9fQezPZhga/q1GNrHtze60O5gR7zRo21Nw++TZBJIFiCbWx9K4r7Ao/BwqjYjUx9WDiLI4eigtI96eJt5x95Yg/a1JSDdwohOIURiUFoaYaC0icnV7+xHxlE9vXDxTRoo2Xcdv0eVw6SQjB/R2ktDx9UwigOroFhInOae6Q7wqV+lwmpBjyKixxLDAkdArJzoCEoxQq+60rWaV8EJOkhYzYWsllKNclooK19G4n4i01Bwxrd3VXa53EyPO5NnaIs92yXsETIoPYdHq/Sr+GKKjlR7WvJMNvH2n9fswnb+ahchJrypFNQQOLUrRGU2JRMoyDXPKR8d+wkdcEXl7MYvk8JS8NbpJ0XEc6Mb3cfzs11F2/Z/2Helvkd+ayKPmPw+zzO04UOALXwdS3aEmK1lNuCn3CzBJW0fyZBpSKj2nGfCeqIcTUdtVrICtS5YJRwdhjHM+TqT0hPOMcbzEWnXmLiSu/pFOYZIA7/SZGOJiC2MzI+IkKUFxyhakkFyZ5sC3GclWBsDFfTAJMFzAH5xSDcnzXdm8ti58oGdDPNgzfGFjQyyZxMKXt3c9jh36s8GsojmWQTGsAxfDyaoHhTbsCH19jPrgQyXXyv7VSCWVLGVqoa+WXqR+8zCJXPSFjYsRinfsQYWLH4ZaEtXy+nfoxLKFkmUwbT8qiUiLUzISjX0Zw6pO4rzxWNSqVHc40injsc/hcZ9hNKgSt0nJSZxY/1/kFqrJoEmFqJ6M3D5UcGo+6Ura3FbbqeoJNztVqu4kdTnLYF0TOumPbrKwyeTZdJdnI4KwIuKHMLGBm10zxKz532CWiyeGTyIOco5XPGgiyazRZ5eXlQace9lakaKr2L2Yv8c1XErEVFIsHfmUsoxpX9QRj+kuRWeD4IlvY6/3WAzUkrK7lXdezW+d3xSVq8MMjHYloqotibjK8WSTJ64tnSeycYG980BNtQb2cA15njQe5UoDrpNkGQ0UXr6wdZmOpwIex3Vitjy5/wTx6an8JWLUs3O+QYZ7L46u/RLHZP/Cen4YRkruV9Vrhofe/QR+Ex9A4V4ifNt/kWfee9yVE2RQhg84qbVZH7+CByuP40TMl/glU59CSaFwsqkvnMbJtDUnI1dFkmZZ0vPoYUikWdJ9+CNFKZ2WnaPiFmmlr0LnsXAiT9sgNwXnif51OLE46qWRgaTB387Fmni/Vao7stNEKEXSaVZPYOSM3ji1twjGYpXqDhlwy+DPMZMGg6ojO0gmLhHXrJ6BT8jTKvk6Cn2pZORqpTTQbT4Kg4kheNT2H5VgA0HWSjs1D/P2qO7cyjvc1nu6iSfO5NnaIs92Lu6/2ObxFhYS2+LsLPLCiSUxOS6OOLmVWjo6vSStSNE1RSNUv1xdpOh0jWnq1GLuF92CgDHFzMnQ3J/2JdKI+e4+J/L0BOSJ89N8rnwSa6CQgpC4tNWpt98Ckv/7GXs2cxJ/OkqW8SyDQtwoPID97+ziJdi4VCfklvs9krRFndL1Ye/3Vh3nuHBsEDydryLljbch5xftzsJk7DiMJqVYXu+RwkHjSH+zMuYNfL8/T9nUNH3Yui+BJS3c/ZarxRDZ7KykHBePJOGikz1GERPgiR1Em6uWeONLbK2vUvQhlsEq6adIPXQOw3xosTAtFmmHqjBiBhHAUghFn2YwvOpOehksqh6AbdAL6JVGep/imXBXsQzqSd4gmlw9/P7OmziiGnQrbL1gO9aGp469ZuZDAyEnIxeMg4cu8u265jwRtl7FbZeRu02qO8oH1Ln/7SZGXGuhjsmztSLPRi9MZRrWBMzGTscRcJO4wMXNA4tjn8bUtW8icNMZHcMVLUvRVTYk+W/4nuoiRVcXP8jG+3GL8X7DMtr6uTnBBipH3zUAjzsUI+3Vn/n+GxAxKQx6aYn+KlBJKjj6ZmKey1vRbwKemmGOs6uXK3lFdJUsU6nunI4hWtomdl5wYRBnP2/YUhikF895LiL1n0IczeUoVS3h4PMYbso+xR91uy5IKoy85TKV6o6x30ySGyvHWZsJGBmsXMDVRz8SEr+MAuLe1k6tqu442JPqTmYTqjutyLMRzsNIdadw/WnC8DHi9b6M/BjiuifVnQFmF1CQ+Y+W6s5lGFWakazoz9j5fhb6hWhUd6yJJ71X5v9R6EWjKK/HqSBVEQ84DazGJCNnRjJy21M04S0hLVrXqgWMdX0mBMrtUt2p90A66UP3MOJMnq3t8mzkXhZnHEMc928TqdsvWo9Y/ymQbFtFAsSte8BdKUXXYe92c54nhUWGB4yi+HIVHl66Dg9zFZJCkL5hBR8TV6YaWtyjbXAOnIixGAOCnodp5ibskyoXgnWVLFOq7mQgN6exwJ+eE+0EeW88rh/cTHHfs7hKnrXIJxR+LllK1R3yFjl5tvP70zWxbRKFGEiizEq9R4qnOz9IHOA/oZwoZpWiadymuUqc2fs/nONUcOpSS7MSLpMYVi4DSQx4cyPVnVb7ajW+Dao7JTi3JRKXKRb+d9UgjFKr7hg44yFnIYq3pGlxqlPIw8YYlbnpNC8agGEkI3e9Q2TkSJKNV6G/++Lh3JPsFkacybPRk2qPPBsZ9KK8S6gmcWS1sDT/W+c9YVJt4VRz6iWa+bQiRVeXndvGJ9CYQs33bZGiUy5sGtHCZnE7Fjab8zxFXvMhEZ/DyfUH1EJ50OMUbbwoJs45s3w4hRY4SyhIJOpDSjIBeNK5GMffOFA3a9FNskyturO3CdUdMQY/OwVG5GXv2nBEaaRpcBnsbE6e5WZlfisriEgE4u9yzaKe8URvkkLgwhLkrfLSajW4sm8njtUTX6j38JQfWpiV8BnouiWJLZ8/mNno5tb6KvTRUt3x41R3yDjWqe58y6vujFCp0HOFX5UdBL9U2m+MRnXH0J76QuyYl7S2xdh4YYjtNeTvPIEbBkNJT1qIq8Snrk63LiNnDAsaHKoyM2+d3rcRSnfOF91iYZPJs7VNns3CPxyxkSGYSrtUJI5DIfF+AeHzhkORkUYLmVpeOFHlFleI4OzxCMxpai8QqJWSWpeiU7/CN4vOo0g4CJ60A8GQ7tcMCLpL0YGEg7mFzR23tLBJdVqSVJiNA2xdH4J+OUmLmVFM1dJY2UQ6GDJqzsO4cnADjqhk03jptLQSXulFW//yBiedZuiAUeS1X9+/QRWTVhbTqmQZl40M4wAyjMV1KjpaP3QDS/QnoYYb3KDHJVKkH0oaqSNoh0hd/pICUvPpA0vXYSRnJoJ4dAgm+AyGvjp8UHMBF0lXs5+7F0mrqQZekRXMx3pjgFj9uSUZOa32iPvxRlSP5MQappb7agBLXnXnDK+6Y9VQdUfOqe48xqvu5DejupPPzRhI4aialIv6OjsoQ1r9XOG+aAp6pW/FMSmJStdUoppmKr0dhiil6izd4R7SRhm5uo7RYE3vt57YDEa05iHghavvntQtPHEmz9Y2ebar8nTkuY5HQJgvTIzohSVjnSWLwdKIPfVl3Ih8/qvoI4gIfhf7pnLetGaLYatSdKrfgCJjDzbEPYyQ5d/gyCr6UmuLoW5SdO38MVFcdPy6JRQnVs8mxmLyZ2NRk/YZNr57EIYz5mMwTmK/SlNRXdsNUnC/QXsg9MmQ0S4+Pt0sIcNCOp598T02b86q37BWJMv4zGoVel5VvkGqyURWaj4cJ3+ABa4keUYBg3Mp+bRz44ZKhZ7yV6Xg6GZv+D37Pl6ZWEVivikk7qBAT7XeIyc3FvN/GPzuXF5ajdOP1KPHey1zP/anKOtrSUYuVduoXpDj99Qi2ia4Hq8H9UBtejQ2vPW9cubRUl85D7+RCn1xYxX6HE6FXjtsR+Ed2lapVKGn72tkkO79A9NmfIwF7jQDIvr98tRN2LP6B1V4JQvpe09gSMgbCNz5Eg1+uSikmVJtpe4ycponkItMKssx6HW8sPWN+n1t+Jy64WfGJ97JD+3ukWfrZKC6S/HtlCzjqQEM6ch5TkF9KgDt/huQdBrNE25YzcOcz57EubdeQmqmRvSbWwzl5MR6CWpJgo2OrneWuno7+6rLI9VGVGXsAAAgAElEQVQT0yzKrAftD/+LDhZrdsqr7+Wu9yZh6qqW8Gp3O7lj92tg9lPTJzaVbVGd2Dy7jB271+XBduc8d488W3d+Cp3Y9nZKlt0ozKSFxKaTSOKDB2mXfU46HUa3Go1RiyZBkPI5bYnUNuDcvTrIiTVdRdu+bWdfdansBqneNyslRwVw11uViOuQdgrQ77lNmDczHf97IwQ5WtwpgjG0l33+cD7sc1mln6xL37oqT7cIp3QVGB1Rz90kz9YReLAydEWATiY6e8PV5xWMMxSS+nwO8g59hu/ogEtj/1TXMlk+3RA4A9kSdzRB0sDfrvj5dXz7s24l3Y5cLJxyO1BndTIEGAIMgQ5CoFvsTumgvrJiGAIMAYbAXYcAM+J33SNlHWIIMATuJQSYEb+XnjbrK0OAIXDXIcCM+F33SFmHGAIMgXsJAbY75V562qyvrSLAJN60ILoTJN5on7ippQg3iKir/IJ6n44YRk5WENIJ1vLM87emzNRWiTfK7/6eP/ryh5rLkbXhfci1t34+4I+J6xbQQTFKRbuxe8kXRDWgOezUmRJvzIi3+rPu4gwdIs/GtdkMnsGvIND7UVhbCKEopVObSd8gbHUKylpjIOzQLttg8a51kJCGm3/0Hx1acscXxiTe6mGqo8Rbb7+V8JP8hj3vEvVuhz4UOuU55z3MnGhBtAnvImb1cb703n7v4fkg0rxUnTJtuItelya0XeKNfj97tyOfKHZ9JwqRXtCEtqfiPNLDn8fJv9SsjJqWdKbEGzPiujzxLs/TPnk27kSf5/IorPKoRuKGSETKr0BgPRTjJP1AiptkxFlqGgEm8VYPF50k3sSw4LheypM62IBzLbHi1YGuEj+5UGTIH7a5ISZ5PT9TXK28qaUO1PTTbP7bW5B4q8rFeWkB+kqCgDuMDbGbGHEmz6a7PNv7SLaYiaBJfZG+6kWE7y5QvssZpyFN0HqtBZZ4OpR4KbwdYUH8G6V5qYiN+AxbM5TSXALHhdi9fhh2zQ5EbD7n6xjA88MtWGX6HbyC4lApcMNHie/BOP5blEkmwo0TZC5Ow/plH2BrNnkiAme8veszTLVQLbvMW4eT87j6a3AsfCpCEtQ+myUWbtkI94xobBOMxzxvO1hQnnMJEfCPKsObuz7HcPLip67mhBmUycI/EnFzKxE2jfpaqfaI7oP5faSOc6OSGPVUtIR1d7Txj+YobfliWpB4E7sTx/djuFhPhZ1TpwnFCPEx/BzzP+XBHSK/sp8zi5RxHqSj8wpcStuJnzf8rEXJSuIULUm89ZOQ7Js3SbPRkXRjItW6lIusnV8hTUocJuokdsLQAKrDoT+Rgskh3VeEh9xu4GTUbpXMHNAuiTcDCR5bOhX9BSL0dRDCoOQZTPpgPNV+Ab+vXYNctchES31tTeKtUKkOVLDvLCkUkU4nJ+UWMBOCtNNQeD2CorQiZW+JXMz62efwCBFz9SY8rxKXTMraBJTX8bl3lMTbnakO1E0WNpk8m+7ybP/CQvII7KqzkJSi0XjX/Lq5vwzgEvw+wrx7ITE8BFMC3sG2MkcsjlwED8O2vBICuHgMRuqy+XD3XIANVEZI6ETy9olUSpGOD5/mJNtewNa868iKfVUlAeetZcDVrRLAwvs5eJftQvC4SRg9+23Epl6AQpGJXUlFsPDwIYUdNcGVJTy9H0aF9BBS6ww4lUOCBJ9PfwdfD7dRst7V73CbPt2yxJuiF/q5jMRAKy1qXks/eBGLYnU6GR6uFWS4JqyLwONWpfh9x9dI2fsnHpgYCi+fflptbFniTUhq7wMFF5G1PwY/rf8a8nJrOqL/GuzUzIZiV4z5OAIjzUqRvvlrpBVY46nQuRja7z5cUxm2dku8kTBFsTQZ2QXVROdbiLP7k5DFS7wdw0WVjFxrfW1N4k2fY0MkdaB82XlcMzRDL6dn4W7zG47n9oEpEWLxbIgcV/zHX2CCRI+410jObm8+ersT++Oz9io8O1DiTUTc7kSxe152Z5297yaeOJNn012ezQAW1kTDWnEWZRXNiD8IhmGStzWK4oKxNiWbf9ljIrbCY9fLmOrRB8kJJI6gY8pK2oH4fC4GmIvExD8RHEgai+TZS9t6VjzveywnRsViLl5feZrKVDYgKz4Ref6T4et0P+Qykh4bOBK+dldwOPpkJx1Hb0lMoRWJN8VlYiU0QC/iwQaITpXWJRyCZsEo/UvskXEzHFJ7X/Qy+mf+B1s+OqRq/xkYuntihIMNsF9Fp9iaxNuh1Yg/pHlAf1cOh4uLJTEa0kBX1QuWAS9jKA5g+zvrlF63rBeGei0hAQiVuHBHSLxReKHwUC56T38aegUnSTszqYG4RGt9LSdnoyWJtzKiqbWlshNQWKCAs2gsRgX1QlHMW+jptbaODdE4YCHczE4hPvhD5PODxx84PdaTxCdsKPySiRuWHSfx1sN5GEyJYvd3jtv9DkrdxIgzebbA5UsgJ485qZjCB/nJSMiYh7m+wxElO4pBkzxhXSzFKhlnOHR4pES3amFEIYvsvzSvYlkOssv0Mdy6P32nqxGnqWuRhrS/guPKJpUFLT9Ux1edNBqzc5pecG2xr1rFl/+Imd/+qGN9LWRrQUyhVYm3mhJUkcaBiRmH4WUISBLuSYc/kaKShINkBkYM6YkrFxzxWCDpC9Fgp0+zor6kjVmdeVnTqBYl3gwgcp2Mx8eORF8r0ggluTJ9Tiyi/GdcpDgxXcRwd1MUrN9RFzYhAm2qp7xOXLjjJN5U6kC5VFfDxfLW+soNVC1KvN0PKx9O1T6TtE/NoCARiX6Zn2N/uglGBBnhkjQLCgrpPDp2IC4dWqsy4ByEIp6et/oCR/fbkRJvd646kA6/+BZe+K66xOTZ2iDPplTxga8xcYmTZ1bWjDfe6rNrypWmX0eDpNBB6q3hPU19rq5Wi401vFqCxPhTCAweCzfDMgrfDERe8hqSDb7VfjUsv8Hn5uLhOkm8lRPj3k04iPvQNN8JbkEjcGlLqEqEmIw1LQCKuPh1SYXSC6fQPYdy/qHvUJZCGpWq1JLEW29O/X36/Ti7czdSdhaQsEIvPEReqKRcxseAe7i48EpAx9M0XIn6TkoPklcHotlAh0m88TMGUgdan94ARB36avV8yxJvFQ9r1IFoK+GJtZG4mU6zF/FUjTqQ7VwMMLyAs1INdhBTm6xqcXE/p1jE9bWjJN7uzHg4B3y3MOJMno2eVBvk2YpkvyFbOBPe7gMQp17Y1P6ZKUpQVGEAR7sHgSTVtj8TW9iZ1JKM23k+p4K86mryEg2F6li0ACamQvKy1Z+1C2z5b85QNTb/Ld+jfbU0OREyUsGZFHgN9uZ52BXfQLCBz0wLmyJa2FS0b2GzfRJvleSJKyAkBRnzZ70xpJJCGvvy6rpiKDZEbeFuHIv5voW9zS1IvBm4wnX6QyiOCcJhXv2dkuUzJNLQE8Xrz/BlCkm5RkRed5U6Lk0m3X7iYxDmbEchxzvekRJvDi4k0JyHU+nKxfC6jtIfrfW1NYm30iFuvDrQaV7I4h8UH0rii9cfSwMSxcOlFA/XdzWjhczLKCe1I3USuZPKkUKOJCkNYgaPdpzEG+mfWnKDw44c7W7eEX+3ZRXrtjWYybO1TZ4N2d9hffxFOIeEI9x/NJwch8HVeyqWhfnBjl90pJhzCi0YTg1CiLsdrO0ew5yw2XCqkCE+WTWtz8vEnxX9MJIWEUl0BYaS5zDV8b5beAdKkFd0k+Kf7pCYGPIScG026JWpiE/9B56zJ8Ak4wgS85vYo8stbE651YXNjpN4q7p0CQZWT9NC5f34ff3/ae2QIG3MwvPQJ7X7oSQWzCfOoLr6wMZJ9Zn/rgWJNzNLiI01g6geSZaNWUreKC0s5qvUhBREvl0lsIedqzn0SLrNOjAMbs73oUwdD+9AiTd9M86IGpD0majBe9FaX1uTeDsLYy4eniNrRh1IRjuQaIthFUm4kbc90EkpxSeQBGDCnMG4sCMG2eX0jnSkxBuFpIScnJ+xJQQ0GOsZtN2ZuYUfj063dAtPnMmztU2ejRMNOBwRimVldNhn7pvYYMrtISyBnA77KPeI1yAt6j1ECGiLYfhaBFDYpTTrBCLf/gRJ6h0filSldFvoJzg4tRx58sNIJeV3a6O2hjGqcGDDf+EePg/RiTPoh9Bwi6Eu7yndk/ArSsd54Vzi4foSc7rc3lqeDpN4q8E1isXCzBF6KR/gmLz+AtilHd8g1elNPLVuO0aRtBqNaEBJGo5+lKhpYUsSbyUyZJ+ZhdGhsVgQRPdXZSKdTizWGp7FeZU3ejNtB46lDsGYsE1woBnXuYO/oUJhjrK6HRUdJ/FWm34Qf+QswBPrdmMU9aDom0DsUAk4t9hXEkFuWeLtX1iNVcXD6z07GwrfqOLh3Pfpe/Fr+mPwpL4OCrlJ6wOXcXbv+0jaqZ6pdaDEW/lxnEzxhXfQOrwSVL+vrb1enX2d8Yl3MsJMnq1jADb1XYW4UAEin16C+IomPPGOqaZLStHrR5JkxgYkSZbbpCRZy41QSbPRfuzy3EvNh2VI4g20X17k8zGen3MJP8z7BH/X7Zvmaugaibf29bVlJJRXlbOo3i1I3nWJxBt37P6zyShu5sSmsq2dI/HWLTxxXR7lnZKHybN18JMQiGFuPQwvz3sU1amf4nA3N+AcOjcukCSZajdh29FqSZpNxCvfC3KltC2vAr0kz+KpOdYoiPmigQHnam2pnLa3qrk72tfX5krV/r4GihYk77icXSPxxglv94fzqiQ8nL8d37/9ZT3ulM6UeGNGXJf3pA15mDxbG8DSIatzcBRiZ1uiVJ6EVauTQcEKlppFwAx93f0wMmQBhRZIXLggE1kx7+DYoaJm72AXOgiBK3E4MD+u2cI6U+KNhVOahZ1dYAgwBBgCdz4C3WJ3yp0PI2shQ4AhwBC4PQh0ejjll5yTt6dnrFaGAEOAIXAPIMA88XvgIbMuMgQYAncvAsyI373PlvWMIcAQuAcQ6PRwCvAAfF0+xkt9alFyhQ6QnNqGk7VtPTByDzwJ1kWGAEOAIXALCHSBJ34FCWkvY9qRrTgnGo1ZA7R5k2+hxewWhgBDgCHAEKhDoAuMuLKuGsXvkNMm3z7392bwMwQYAgwBhkAHIdBlRpxrb20HNZoVwxBgCDAEGAJKBLrQiNPxWKK8EPQkTgeWGAIMAYYAQ6BDEOhCI36N+IyvQGTshsc59jaWGAIMAYYAQ6DdCHShEQeyiZj+f3DBMs+v8P2jT5LkAEsMAYYAQ4Ah0B4EumCLoaZ5draz8CTSsOrw/+EXTo+RJYYAQ4AhwBBoFwJd6ImTCrfoAVRdSmUGvF2PjN3MEGAIMAQ0CHShESfydqpN8S+pw7LEEGAIMAQYAh2CQBca8W6iytwhsLJCGAIMAYZA1yDQZUbcgMRbnUhx9/I/jZWxu6arrBaGAEOAIXD3IdAFC5va3ClH8NXft6xLdfehz3rEEGAIMATaiUAXGHEld0pCOxvKbmcIMAQYAgyBxgh0WTilcdXsG4YAQ4AhwBBoLwLMiLcXQXY/Q4AhwBC4jQgwI34bwWdVMwQYAgyB9iLAjHh7EWT3MwQYAgyB24gAM+K3EXxWNUOAIcAQaC8CXWjEDeASthnSGH+YoEd72938/YYTsfFYHJa7iprPw18xwLjI/ZBGjkeHcSo6voy4tMM4yf/7GsF2t7D5R+CGjw4fwFpfo1ba30GXe1phvNNyxI4hUjKPBRjemc+mg5rMimEIMAQ0CNyClblV+GpQJj+B5Io8VKMTNTYVJUhN/hVXy6pvtaGt3GcGz+BXEOj9KKwthFCUliAr6RuErU5BWcZXmOryFWA3H3ExI1sp5864bCCegOfMeuDnXxfj66skvcQSQ4Ah0K0Q6EIjDpxL+AJhnQ2PIg0xb6d1Ui0ieC6PwiqPaiRuiESk/AoE1kMxTtKPZhdAWSfV2pnFCoQPQFBbiFNXqzqzGlY2Q4Ah0EkIdIERN4DzovWInT1I2QX5BngFbCeDp/HGB81dg61TL2Gr1Age7g/DwugashLWIDSCvFt1PnM3hIYH4mnHgTBCFUqLzyIxKhxR0svKcgVeWJe6DK78p3J8H/IcVki1DZMBrL1fQ3jwWNib0KxAtg+HhRTWqdBGVgzXua9jof/jsDbtAUVRJhKjP0dk0jnwxLl2MxE0qS/SV72I8N0FyhszTkPahpNMyr4WIHBaJOQKDgMHLN71GYbHh2D2prN1jRE6PYOoeTPgZi1EhTwZayM+Q3z2de3GAj2NYE6xoGpFJS7924mzm/q1sk8MAYbAHYRAF8TEa5C+ej6Gu3gjMO5vCqU0nYQWLpBUbEPg+AnwXZwKU9+XESi5X5VZhHGhSzDNMAMfBs3FxNlvYnmsHMXQGoMUB/GqiyeGe0RCVt2EQbN7DhHL3SFMjkLg7NcRlfcwnpbcp9UYGmyCI7Davw9SV4dh7tRXsHRbOdyWr0CQo7IdFpJHYFedhaSUv5vuRId9K4CL90gUrV0M/9krkIAnsGxVEJwE9dcSzG3nYu/0t/HeAOEt12zAyeURsyRjd79lCNmNDIHbikAXGHEd+1eRjq0bT/Ked5ksCdKyPrCzM1XdbAhTE/JI804iNeMvFOefIe/3a/LcS3UsHHD2HQX7suNYE30I8vwcHI7eiKQiEv1UJ8FjmD11ANKiV2Ft0ilkUx7pti+xLbsvxnnb0+KnASysjclzv4SyiiYGCZ1bolvGoqQYrE3JRl52Kr6K+hFF1q7wdVIParqV0WoufSuM6mcOVBWgsNXMLANDgCFwJyLQBeEU3bpdXVGOspsq40iqP9UUahDWaXHSYmX8KcwNfQu7tzwNefZZyJIT8UPKn9BtKc4A5hb9geL9yFa7nIocyPOq4atunrUDrI0MYRe+HSfD67e5ooiMd5cmBf7OyqnzjhXZOThfPRkW5nr1WlH8ZzQe//PWGjZo8Ep8bmMB1OTi/9KO4XJnLjbfWhPZXQwBhoAOCNwxRpxra0tT+nO7l8FXNgwebo/BxXUUgqImYVLsEsyNPt3ifdoYcLtiNDtjGtd2s7oEOxfOR4TsWpPQFeVdAnyNYWJEYY2yDvLGO2x/Y5NNbvbLc3++g2nnrDDpkSXwHzwSP8kOM0PeLFrsAkPgzkXgzgmn6ICRIv80krb9F6sWvoSw+Cuwdn0EFjrta65BXtF5wMQSg+ryW/FbBOtSXibyFX3g5EjeaTOpSPYbsoX28HYf0EwO1dcU+FdQ+EXQIIbNXa3gtEVphkHU6qpkzIeK6icBBtjbavav29miv7AcRfm19bPRwuZAkRjGPW9t331NbQF+Pl8MiKxg2aAF7CNDgCHQPRDoJkbcEk8veh3zaG+2nXl/WDt6YpyTEcXIC1CqYxggKyEReeaumOs9gI9vm3vPgre1VvcVJ7A1Lg+DAsMQPuUJ2A18EE6unpi3/COEuqsODmV/h/XxF+EcEo5w/9Fk8IfB1XsqloX5wU57MCmmAaGiH0ZO9eTba26iMdlXs/9CmZETvCUP0Bsigr3/FLhynn2DZOEdgBB3O1jbuWFh6ARY5B1Bgrz+7hRuYXPHlLfatbBZw8nl0eLmbZoQNOw2+8wQYAi0EYHOD6dwJyiTF0NS17BAHEwLpE9NbQNsrvVVtBPQCv7BtFPEwgjC6nJkSbfSAZtkVUycOw0agw20MKlOkrUJeIb7oN7SmL0bYSvMaIvhf3BwUQ0q8lMhJ6PoUXcH7aKJDsOiCtpiOG8ZNi2jE5MVJcijA0pbi9XGswqHI0KxrIwO+8x9ExtMyfTRYR85Hfapt0dckYo1q/dj1aJF2D6JvOy8vZg1bQ2yacBRyL5FVMJghEV+hxQqPyvlKKRFjniwXtcVSEs6hkEhkdim2mK4KvQbyHUcsJpDkX3PEGAI3H0I9HAY+lizwd2J7tdx9Lf27Yi4cqXZ4u8+NLthjwxMAhH7qAWd2IxkJza74fNjTWYIdJNwCntQnYVATfmP+LbkJp50+YJxp3QWyKxchkAnItD54ZRObDwrugMQ+LcAB+QrcKADimJFMAQYAl2PAPPEux5zViNDgCHAEOgwBJgR7zAoWUEMAYYAQ6DrEej0cMrjtsNxqjSjXT1TXGl8MKddBbKbGQIMAYbAXYIA88TvkgfJusEQYAjcmwgwI35vPnfWa4YAQ+AuQaDTwyl3CU6sG80ioDxotdZuH3wb8MQ3e0sHXrDwX4OEUCdliUWH8NK0VZDxPO2dlAzMIHYwQ0OihNryXJQWatOxidDLwRa9cAHlmedxo5Oac3uLVfaxN7EZa6faKupzblf1WYWzwWVclf9Vx6OkZ+kAsViA6kI5Kspv7X0w9lmEEWbHcDDmF52en7HfexgzWsm8Wpu7E/uj/6fF6yRA/8DtGM9fVyA/+mkcPq7N0TQCrtGRsO/DIZmO5IAQ5NXo1m5mxG/vr6Bx7QPnY3vcc3SMX5Wqq1CUfQK7otchVqYL9W7D06t0OrX0LzpV+i0io48gr8MNXBfJ7jVGiv+maNtCDN8GmJIxj/fX7aVvpijdvnaeg8nvPUXG2QD6HDcOceFwjDbFm4MRt1NjxPUkQZi1cgJ6XzqE7fM+wXkdf5C6NeIOySWSwOODJbAhLiAeCzJOtbR8VZu+Dhvf3a9ppIEE7p+9iJtbFuGI9J+Obbx4NMZ9/AYGCjKQOHsxzpQTvTTXrpURcDK7gJNLXsSR8gZiKjq1wBLWPp7om35QJwPOFXk98yBOlIgxNOh1mOZebpKYr/b0J9j6aQK0SLBVrfkV0uDRkDq/i5mvm+nUQnUmZsTbBFdXZa5CalQY1sj+gdDICh5zX8HCyEUomvQOkiobP/4mW1WaguWLNyOL+FksnHwRErwMEYqL8I/+o8ns7fmyS2T32tPAjrxXthrfPLMaQp+P8VKQAX6apzIc9eqwwbCAUag9cxbVVoJGXntHNue2llV1BPunHwEsp2PWxtm4HDEHB440wQDq4IaBVjdwKqc5SZhb74W+02PoT7OdSyX3QySmgaTcAH3nzMcAlKC28hzyM2+xTrETtfkazm/RqG211sprmVLkiyZguLgc52W639daua1d7yZGXAy34NdJnNgRg0yMIVCUI0+WiDURG0k8goyawAUrfliJBzcFImDbX3V9tl/0DWLdTpMU2hqed0Rg543FofMwztGcJN44/pU9iAzfDFml2oNThwaOYXlyfwSQTJu9aU+UyvcgNOAryAX2mLP8VUyRWMPClEitSgsgS/q6nocrsPPFiuXz4GFPBF1ZqdiaYYog12IET4tQTfOJfMv9BbwdMhYSa1Lm5MpI+AofRktJqUjjSV4tykV2NicvdxbZhq6Y5jYEjtZ6SMq2w9u7Psfw5FBMXf17XV8t/CMRN7cSYRRO4P1BBefB5xB/+k1kZ5yFqYcnlkkegzXOII+vpxUpOsph7b2QuGZ84GxSi3Oy75AqnI1pFV/AffEBnqWxNdk9juDLacprCJ33BOw5UWmSuzu84T9YlZCl9FIEbvgo8T0Yx3+LMslEkqIjPIrTsH7ZB9iqlqKjZxYeOg0udgNJtq8HKorO1C+jtTdc67rAwAgmRMlecb1CRx765gqnZ+j8EPQLElHIeX4NknDsfEjEJ/HT+lo8FdpHy4iTgfELpWuH60/Rxa4YGTwSl7asxZlczugYoJdkMp7wGwlzM3rPKFSTHkPvcKaWlqDlBIwJGIScLb/CeMZM2NkYQ79cjqNRa5B/QQ/Go5/DI15D6X4z6FFvr2buR8r6BJRXad713pRnpJ8b+hpew4WDe3BO/ARMMjch9UiRqkdimPs8B5exQyA2FOBawXFIo/+LvxuEJ4TOLjBVnMPpBgRtvccugru7KfTENjAmgrihISvp/SMK+/SdOLDzlKqOlvpqj6FLp0JcUom+kiG4Sfdl1DxJVNT9UbX/MyTsPYe+zrbQy5EhH4/CiMInsPSFu0sxcnKM8aihDMWqGZDAyQ+uMzxhyeFZWYisLWuQJtNiPCKjPTRgFpwc+vM4npD2hinO4fd0tRffUjs1L4C+87AG9zV8Ozr+czdZ2BTAVFCF5A2fIDhgLvxD1iDD3AcfLZ9MAsXclPY0EqVX4UCSZuZ1bII2mORmjqLUFCVxlIkHPloTDEnpLiylMqYEcWVMQ0S4t7IMLWyF1j4IkpxBZMA0PDHuBSyPo7gad11gDGOFHLER75J821wEkgaowDsMq/xtlXcLnLFw1atwqzyEsNkvIXRTOakCPUw/Yg1LoaHrAmxc5YHq+DUIVJfhuxQr/G2afrqG5Il7D4VRRQEy8iiyqsjErqQiWHj4aMm1WcKT6qmQHkJq3YCkLs4AJo7j4DGwJwltKFSSoq1L0XF6oiuWT4RQuhpzZ7+G6OxHGsjZtS67Z+j+GqKWuaAyLoKXu1ue1AOeYSsQKuml1VeSovMYjNRl8+HuuQAbyhwREjqx7pkIjUiQI2s/IhfT4Dl1AS+Z59KojKahq/+tPrzcwkjO7nlMvL+dr70BCYg4GOFKpqy+RCtXIU3lRz07FJd2bkF+lYKm4oYQGmqxVFoOwUOShygco04iWAa8DGfDfBTyBlwE84BPMWfRGDJa+3E05lsiTnPEU0tfQn8DTTkikjsc6uyKUYtmwbREivS9Ccij0VuPM9LUvoHuD1JYIxnSmC+QsuMPCF1D4DvHUVWpAXr7fYiZIaNwU7oTKZt/Ro+JofCa/ChENeXKPAY0m/j4P/DzMyEtlc34aXMiqmyfwYSgJ2lQ0E7qAS2z0YBWWyIjgrcTuCYQozrzCE6lJNPnZJyh2LUytdJXGzcMd3+EjGIGsgt7YdDk+RhceQRnCvoQDfUQYt60gpWDMT2HFJRUicgTN4ND0Dhc33EYPayMcClTzjsLotFL8ezKaehTcEiJZ40dRi19DTYiFZ40iI75OAIjzYqQvvlrpBUMhnvA4xDlyFHID3qttLooAvYAACAASURBVLMODgOIabARFpB0ZN1gWQ+sTvnQTTzxEvyw+hMtAP5C5DZv+IY6kyHbjWRFDbH+/YqyyNHwNN9BrINk7Ow84Gp+EceSlN7qIN9ZcK38CYEr9qgEiv/Cp9EucI/0gpvRQcTXk1zLQuyKHZBxXj55MdIElShyZSrWrkjVtCP//xDrMQ5RbsNgSCLHCok30duWYuey/yI5myKl2V9ig/soRKnW3Tjvd7z/eAiSIxG26YjSG83/GtGSkVjvPQrW23LJS+aSCOOjEjBeXVNFJrYs+6QulJIVT7S6/pN5uTY5J2AxcCR87a6Q5NxJTRzOwgcbU300ba0uxK7YQ0rhabUUXdSLJEVXosyTT1J03rHwJym69Rm/YZD3ODiVHcGrUQeVeG3YCDfvdRolJE3JzfwlwshJI2Ak/w4fbjrOzzKySXQ6zmMjfH2HI0p2tK6tWUk7EJ/PeTy5SEz8E8GBDrAjp0pKv8Bq2XaEyzRV5OVvR/JUEpbmeN+7cMpar5NmDuhvVoXi9DON+m48Yz6G4Ch27cvDDQei+SUdWD2OyZi3jTW4VkJ/uJhBRAa5grxEPaf5GOP+D0688QM/IOi7BmGCnz59fg2/8UYdyK90gtNKe/KGe+A87wWTUaGBQF9xCifeD0f2BdVsoC4MLcepD+T8vcqUA0Mvb4wgb5pPlj4YFzAQxWvfwIFDnNdtgGsOE2E/sQz5vOdJM4aAMDwpprWYNz7DeZVBqrB1x/OuDuiN/1F3VB69ekBLazygXZOnIDvTFYOCalCwYwuyD6lEzVWtaq2v5Q4OvOHdF3MY+oH+FJ5KwpGdR/HAokBcp8FGIbbHAAp5FMacRaWhAg94BWMEErEn0wITzS6jMI36JnaHe9AoVG4Oxfc7s/ia8xXD8chKR/S36onczJ78IDqUiCe2v/MflHKeu6wXhnotoRh3OrjgUGvtVD4TrmQz1aCS3nhwV/W5M/7XTYw4p1S/AIsDR0NibgKhemtAtQxGPbjRlKN4TSKj+wm8PAZgK4VU7MkoWhTLkJDBLTsZwM6pP4TW9tiU6tcAx1yYGFMZWjPV6iI55E0q95hRWOcVhBCvuTVHiasuSS6g8EwP1BB3OOcxZ+erp9g1yMo+j2on1QsvsII9UcuaWryL4+Perd8OChOY0G8sj/+2fkzcxf95BC5fAnkAxcSLqez8ZOrXPMxVGcNBkzxhXSzFKoqhc0aDT6VSPiaeRzH1p+kHYBz/PiKlF5XXWpWiI7yt+6O6eJ9qwKPbGsrZKUtq4b9i2JsLUUYhHU43VZkKkEWSePOsrXi8lJNZBa4WqQYSysSLZgi14sgmzuSVvgR/NzsKp6iMEOU710hIo4Wm8JdqsS9lGfa1lk2H682FDyAei1E+FshbH65cyKzhFj0F6KXliVeX0IsmFis9cc7bDfLEzYMrcYo32GZ4eLon/p+9K4GLqmrfj8LMlDOggwiCIAQJqIAlqIEmmoApWqS5a2r9PymDvow+tzItK7PcKq20BS0tdy2VAjcwBVPQBM0BBSGITWFUFmWA/L/3zgwzrDPAsOk5/ciZe889y3PuvOc973nP+5jKL6IzmWQGq+gJjWmp30mRhVL1KovTtB06IGt/mEaAa7db7AznaePQ26UnTM2UsezF0o7IilYqI91Gj0EP+R/YGp1d+ZRIIkF5SpRS8xT7wMvPDqUZV+A47WU4chuXlFPkYkWTUSS9nerx5Jpc94TGF+7iiR7CNJxNuK3dQu5BHX01hjVNVLcSdtCE0QV9HcnynRhPQpW0bQcJ5EdSYOz2ErpzZhzZXZR4kMnFxwxnFhzAHZe3ybyTiliyh4sDAmnj9RwOhCdX1t+B708J0eVSP6iv/b26IiNsp1KAc7mEYrpPdu1Ezq6tq51aWIhpXBpoR68GSqO+tg8hzjPV+6Hwp1WYsjmWlo0KiPyXIWqphmwBiss4QMTJn3MmlT3GGDmMTCmk8XIxvNWpNH49/IL26LaHchyftcBpPe5/WD1FigPvvongqCvIVxjDe+k2rLavJXOdl0iwbw6hDcb6yTG1beKJiaVwJtvxLH8HRJLGD9q0iSDO0TnBvvCW5JM5wg5pUUq7f2W1tG+QlXyZhPBfSMzqgi2bF2POxZfJLMJNajTt1UtFV81nrM6+1HdDI3Dry8XdU9TpMSPG8DfeRrDzX/gwZBYiLmaT9u6A13ZvgA9NzK2T6rKHc2aRGSD5gtuB72EapyuQGcFU2BEiMYeF0iujXC4n8eEAMQl2MWndgyR/4Jew80oPCLEbHBw7Ii82AyU0AYD74/ApjsXp+Hhkqj1cHEkwSjKREJteEwIxmQbW/g82ub/i9LZwFMiL8K/DBASG2JOWfYPy28DWvTuKEr7VCC0yS1hz5qE4pebZgWzclsJMZMvyQYtcvh1cS0riDyFadkaz2qNrdU5oqpaZerqgU+5lZOdpCTvunq6+whnejmXI2UirHcEAmrRuImcrp1kPJ0F5ne9Lt9FkD884SCsF+r0e+Q7hideRIquAdSCZN1O3kz28ExxoIrgn+1JlFuEqFsDczQWi3ARk06qmgyfX1zScjuOwUSZjN6Vd+wK3KhEP1m9M6FEOt6p29Moim/VDuxDiIqdHYU+26KVf/460UqWWa+9EmnUVcUw2Ws6kMoZcjsjm6kOmlOOR6tm3DMmJRM82xQ2ekn2I0tfDowr0pJ269QQu7sBnVK7SmUyCR7Q08tvZOSg06U2sQB1pA5JrpwDOfDtVmqaCNNHse2QGcSeb71UtDVWPMS4l7VSLIegGEUXHh76JsXNKSONNw+4DyqVirSWlH8TmmPG0STkKP712EPk8Fd1EJRVdrSYJorNLy6GJ0gXO5DrG+10LHeFEqwiaFfVMRHhBfZ1i70h9PavatFWuRG4kZtDCp9qPutZSbeFBG8RpUdtwgAQ4n2iPwL4WLby0lMQMaVhE5VFnkgiktNopR35xEzY26zIfOEzEEJ+HcG3nt5BRaF8u3RO6wStoEAlxLZu4nAQ02bhNHHzhM80e1zZ+gn/U9lOpLWnocmQc+g5nq20SandKTGYGU3kyclT1aN8zHT2NTAPHsP29b1RCmiaXwN6U/4IyP2FgKhGhpEhj2jByC0Bv0iCzyCzBJSGtFESk4SaGfYf0el0j65rQ1C0izyhaDdxN3VGTgUtXXx1mw0aahTOcd4lLP9K4k3CUPht7koAtSsKZDAul6SJBxps8kBqL5FTugzMJfLKHx3Kb55YwtaQNWVmuxk1Q7A53b3Pkxxzm8RHRxq9YkYvblZu1lnDy6wdRyl6l4LfRb0y4ms3dHMkeTu96C9rDuXqbuMPDFdH86V4aUZoJHeDVn7wXKEmcnkPIGKcaFSsSaSMn/xE8v2g00ZnFkiDVHLG4dnA7YvEEFn84B/6uPYn2jEiXx71EGv7EqtRqNUpVXyhDNgk22HmQ3Z0zpJBQH/MKprg+VPkEZ9KJTLPGhND/g5dTTziRCWgmvTCaJMdvm48i33UWVlMbPbg8rgMwlliCVgd7VqFIM7V2gBNNXm5kL39+0Ux4mV8nzUtLeyf7/IGYOxg+dRS6XjyBiEoTTm0dKMapvSdR6DEBM7n26kFFlxQZgcSuT5A3jw9PVec95z/w79qQ14XqPEB1uk3AW+Tl42TniOHBr2I87RkcP6hlu6+tuZXXcpGcVUoukp6w5/yQhZYYHjK1Vjq70uSryDJ3x9gxrrAns1ZXtf23sixj+Hj/j+jsGrmxKaZDPg6OkLoPIw+HMnJpu8t/78QLaFrizx4D85TdOBZ2kPZhD/F/ydGXScDQ5Ku9KCFNvJT2Rh4NehF2mT/ixAmNBgh5CuTE82rnN7DyXTCycIPj6MFak5MYtqRdlpNHxvUaAlYAM0cr3vShfPPJu2TCIvj7WeOuOj/Zkm8XlMLMZSjMaYUgdBkN/9CRkJL5QWkPp32IjFyUSNzQ28dOhR7R97l4offQXsrvNBGYcFiQ66ATafBFuTTh03cTi+qrL0uYcx4jAqpHa1OWL0RHX0W8PZy8S8j7h9fm6dBOdpkxv3FoRBvKORJXpT28uhJi4U7jw9nD06iSYjJBKSB28ICUq5/MV84hr9GexWmyrV/km1FRVIxyiQ26OXK/aTG6TQjFYE9T5Kvs4brayRfCJzo3QCYpYwlNkhbkQSdWUTpqMjTbp3ahiSsu/oClm3qSAP4O0aRxFeaTh8bBP+A2pdqSmkwqEWRSGU80bUmbaVNFW9vLj8LC14QklKbizY2TaNlTjBvZVxF/YEdVarV6oL720zqsdlqAkB93I6S0iOy9UdgdlUWUcaqHFAn4bPEGdCUXwzU/PgcFTSRhtLHq7KVcFnO5imI/RfDiIrLvz8b6MdykJKdy/sLxzZypQJ3E8A79DN781zLcSPsLEcvWkE2bczlUpzKcOngGN0b64VrEcZWmq3W72kdF/F7sSRuFWXN8sYW0cZ1UdMQnupSjs3tjIbaPKUcWuRhGXOyDZ9Tl6kG7VxT9Kd5c/ToWzVyG7aEdyT3wKo4ve4c2NWvxJa616TTprSZ3ymXB2BIxFaWFBUiLPYyIJOI/rd4/WiGt3twLiwm3vfR7vHFgCca8q9k8rbX4BlzsNu19THvOvvIJ8xfX4ZEXc3Fm3v/hD/E0eHveQcL8A1U3tPiDQGR/pR83GSOUz5KZ63aRGHaW/yDqo4Pqq8p7ZDY5GXYGgUFvY65PMYoVApoAisn9bz32qGtW2cOzt12u5RBKGdm9z+K21zOY9uMIuq9AfmwM5EWl+DdenT8TF7cdRK+Fz2P67mdRnBKD5IwClBeoPTGoosRtOHbYEaNCv0ZwUBEqaIVjVESryLD3yEGVzAaedJCJDjxViinLEEynlzXruznYuetaJUYAPXP4ApwmzsfcXxbQy38C+6a+r9Tu6+0rKUicPVy2g/CUoi9p83lk6uE0a84b5fqRy+jA2cPJBZCzh2sn3sVPZQ/nzI6yXZFwpb7O3D2KH4vSjGhEvv0p0lWadzm5Gf+Z8S6GrN2DASTwb8to4lUUkP1duSpBve3UrrkMeeGkvXvMxIQtvlX7WqWFhv/S7PRsLuaPP9BRDN3JV32jRzSmTPseSv9sww2i+ZgPsSdUiFXPzCfvGvVmquHKr1qSJaaFkfdK8mKMW3G+il20uWp8YMvlNF1HOtqvuAk5acUVNTRuHciQqcLckkwmGX+jhOzFtScBjATlJOhdMezrFei6PwR7yO+6SqJypJYkqovoGH1mQe3FNPVqU/uqT/3cKspWChRkQp6nOVWreZSO7jvYQlSUSvfrwKvJ7VQeu/ft/F0dJzZVrVGd2PwjiB2712domyWPvc84uJH9Pi6RNGv7YbQZaY2kn04aVoDThpmVfT+8POtxlMZ8guPNIsAt4TVuIETJcYhLu0t+6TMwzon2GdarDuo0C3qsUB4BMnkUyuivsXCQ3f2Gyt27RhE2ZBZxIbe8WNI4hU5wDiLzguI37COXyBqJyiHrT/OmpvZVn9YV51L8Go0HVM1HilGSqrKt17ypvGKgdhr3m48Xts5F6trncaLKipRip6z9AM7daBlJ5s6GpHZhTmlIh1o7r8jaHbNmzsZi7kQnsdknRq7BMvL/NmRyD16NzVNt6CRpJD5cE6Xb26aRlXej4/rBIcEw509KkilkxQf4XG9TSCMrZY81KwLGtp7oP3skRoaSsCjKQXZ8OPYt2H5/xnZpViQbWrgCOZvGYfOmup6j2Cnz/GjfruGJmVMajhl7giHAEGAItBkEGuJu0GYazRrCEGAIMAQYAkoEmBBnbwJDgCHAEGjHCDAh3o4HjzWdIcAQYAgwIc7eAYYAQ4Ah0I4RYN4p7XjwWNOrIqCm5Kr6UpdQSNIUigGidcxfRbFmVINS7T5CVG8auWbssxrn4kzcSFX7mVNcbgcKAyAuoYM1KRQjRp/wC9XaSPFhBrwxGLfC1lCIWn3OR9jA+Y3/ws2GO5VJB6DC1+P4kTStQnvD4+Ov4GbNnb6VIebVICTf0rRL8NQXmPaiK5//5m9vYP/WuGoNat2vTIi3Lv41a28yPRtXJJ14U0d95IgWCikYFp36PLD+E6J4u6Wp0+o5bNk9CbLXXsSKRroOiujAEfFTYOnTFGFRFdemZqda4gpFmwv5BENdOhJVmPL4dzkXEZE7JUj0aP9UNoGOpk9/B1MnOuFezEp8tfxILScfW6K9zVyHnjRyFC8Az7/RA+cWfIDURnJR1tUTLoTr5EVPUjyRXdgy52tl+FqXF/HcyvHopjhNpzeXEplDw5Oxuw8e8+yC6DX6TgB06jV6H84S6cWToU/CeFdtPuMK5P0wB+ER1Q48UfPKjs3F5mOW6LPsBw1tYsOb3WxPMCHebNA2peCm0bMJPV7Beor6eGPPV3hj2TUUmVBQH69hFCiLCw+lJcSb0sQ292wuEhaMRYLAjU4grsYjcYsQtl4rELm6vRYUeGq0Ka5fzidGm5aLb9HicOlFIweYunnQ8XUZBYAydAspJjnHukNxVW7T4TQRFyGjzAb95gyGkZzCERBhhJp1p2E1q4gXUiK1IhPqKkEOeXwMCr2G4mEKpKWOEaPrqfZyv50IcUbP1hB6tgL/geiafQRvrAlXxY+hcLSxxzXvZDVt323jIUzg7yZh1dhXlaQaQpd6qehMxq1C9GKPyjI/OnUUH3Hf0vZjMtHhKePW6EdFx8VAN3uIi89+F/l37zTtSH+98a0peNSLL8BSth2/ZYzBGBdi3aEmK6OacEvul9A1bgPRk2mCUhm5TYR/gBHOrt6uigqom7JMNDQIT7mn42x0R7hPHMlTrJXKdiNiza90CpMIeCdMQm9PR5hZmlBMklxkR29DNNGVaQ58WxJt5Wx4+vQiAoY8/MUx1RA9362tn1eaD4wcKA72xDFwcKAomRSFL23/Rpw6cqXaqqKuKINS2M95E262Hci04UToG2PI8g+UsVbC1yCGWLKUqZ6+2vgR+01fIrnoBgdPE2Tv3IdCz0D0saFQyxvfphPL1soog3HhKKJAWhyTkdj3ZfQrPoccM1+Uq1h3uKBTZr4zMGh0P5pUKbZJ7jmc3fgNUjPVwaCJhagKjdwhFHJsPgnKsLk621n5hqpZdyJbPMpgZROa6UM72dhk9Gz607NRgLAsig/R1QHeTnUEZk3/DpM9h6P/WIpBzsUVDwpAf+6758tKAc69bDqo6Ar3vsk/47UslgJTxWLh4BHKMp7/tDLwmP5UdA4IDngL+/19YadFZdeYd14d3zq9tlCuLhMx1IsCVW2LwG0uTjZp4trUeWIHTzi722mqFTjDK+QF4nhMVApwvSjLaKLwGwNHzwkYMXsQ7lJky3PhZyncmkpfooh6Tu4VJLj34+TnX+JU/L+wf3ERBns8rKrXEo8u+RiBAZ2RuZ8CvoVf5yPvDfLiCBmU5gOOam3yyrnoWXQaZ8O+xB8yYzIlhcLNoSpxGkfTVheNXDFRmiXF5qCDhIJmxR7CX9FK6rTkFFVsER19Fbn7wo00bUFqNHIo/Gt/iuJoFEcCkiZ/J097ivutYt2Jv0ABpYg6zfYJDJ5oivP7s2AmVbHukAC3CV6HSTQZFJ/YSTRxESixfRajQ55R0deR6UtFI1ceSxPd1pMQBITgccc7KsIGgkxHOzWD2TqsO415hxv6TDvRxBk9W0Po2a7t+QY/DVuA1yja4tQk0sIpSmLUnj0Uk1vJpaPXS6KDiq62MEJVy9WHik5fm6ZeLeZ+0fUQGJPNnATNw3FfIo4i3z3kRpqekDRxfpnPlU9kDWRSEFEsbXUyDXyF6P+OYd9WjuJPT8oyPsqgCBWZvyH87d08BRuXKoncUn9GpDapU4IxnAMXVMYcF/kGYbj7bUTPewuJ/KbdVXT1HYmhxBTL8z2SOWgk8W8Whc3Dz+FpyqbGGcPRZz5saOPuz1StCJF1rkrkuH4iEtfdnDGEIgGe3Ulhc9UUb3yJuvoaiy4UZbA49hPEHLmGfqNpszBuM+KOFGPgRAoASyYUY1rB8Kw7CfmwLu4Mx6CX0CmO+D6lk+CjijJo5DGPwuQa4dLb/8MJ1aRb6OgHR18HPnRsieVomgg5GrlgHD7CsVIRjZx7ABz9shtOI9dKrDvKAWre/7cTIa61Ucfo2XTQs9ELUxSHz2ZPxS7XgfD28ISn9zC8ufkZjP/8f5iz5bKe5or6qeiKdJE66ENFV2k/SMZ7e97Ee0191+sibKByjb1mY5BLNuJePcb3X0CBSSHopEX6q0ARseAYW0r5WN4Ki1EYMdEKV9csVcYV0ZeyTMW6cyGMwtLW4nnBmUHcA/3hSGaQTnzMczGx/2TiZCoXUtUGLqMH4F78J/ir0uuCqMJIW85Xse6YBU4iujE5rjqMwuBg5QauMSyISPwmMij2tnbSybrj4kysO7JaWHd00LMRzv2IdSdz4wXCcADF9b6J9DCKdU+sOz0s85Ahu6PFunMTJkWWRCt6DLveS4JFiIZ1x57ipHeSfU+mFw2jvBHHglRMccBpYjUjGjlLopHbHq0xb4lo07pcTWCs75gQKK3FulNlQJrpS/sQ4oyereH0bKReZl88hT3c3xZit39jIzZPGQePnz4kAmLdGnBLUtEZ7N2uS/Mks0j/2UPIvlyMvgs3oC9XITEEGUsKeZu4MpXR5h65wblwJMZS9Ah6AeayLTgUq9wI1peyTMm6cxGpKTUJ/ozcyBPknadx9/BWsvtexW3SrMWjQxHomaRk3SFtkaNnywlP0Ni2iRTCjkiZlXyPZE9370kxwI9CTiFmlaRpnNNcES7v/x3XOBacylTfqoTLJIWtpx2RAW+twbqjs6+2TzeAdScX17atwk2yhf9T/AiGqFl3BO541F2E7G1xWjHVyeThYIai1ARaF/VAP6KRu2sQGjmiZONZ6O8/ezg3ku1CiDN6NhqpptCzkUDPSitAqYmkklia/63zmjCxtnCsOVUSrXx0UNFVZufc+IQaUai53hAqOuXGpgltbGY3YWOzLs1T7PciPKTXcG7jb2qiPBhxjDZ+ZBPnlFnenEIbnLlkJBJ3ISaZ2XjSPRun5/1WuWrRj7JMzbqzvxbWHSl6TR8HE9Kyd286oRTSNLn0crcizXKrMr+tLcREAvGPXLOpZxbgT1QInFmCtFWeWq0Mtw7twqkq5AtVBk/5pZ5VCZ+B7tsQ2XLOYVmNh3X1VTRai3UnkGPdIeFYybrzA8+6M1DFQs8Vfjv+MPitUounNKw7EmfqC0XHLNByi3HwQ2/HEqTvOosKQR/ikxbhNsVTV6fG08iZwZomh2KZrPHhfWug1HYutIuNTUbP1jB6Nuspy7B5VQjGk5eKh2sfePi/hGWz+kNxMY42MrW0cAqVm10ohvuwx2BFS3uhUM2UpJuKTv0K38vKQZboEQwnDwQJPa+ZEPSnogMRB3MbmzsbtbFJddoQVZiDCxy9HoWxnKjFLMmmamOmbCIdDBkyrS9uHd6EEyraNJ46LS6XZ3rR5r+s4KjTJC4YQlr73fBNKpu0shidlGVcNhKMPUgwZley6Gj90AU26E5EDRXcpMclYqTvQxypA8lDpDJ/bgax+XSBjVc/ojMTQzo0BKNG94Kx2nxQlofrxKtp4eNH1GqqiVdsCytff/SQqr/XRyOn1R6pBS9EjYhOrHqqv68C2PCsO5d51h3b6qw7iRzrzgCedSe9DtaddG7FQAxHpcRc1M3dRWnSsvCCzxvj0CnhR5yKJVLpsiKU0krF1KW3kqrOxgc+IQ2kkavsGE3W9H4bSS1hQnseQp64+v5J7UITZ/RsDaNnu52YgDSvpzF70Rh0NaEXloR1UnwYFq7YV5XGjYLPf7X+BFYEL8Gh8Zw2rXEx1ElFp/oNKC7uw6Y9fRGy9Duc+JAuarkY6kdF18QfE9lFn94wn+zE6tWEL55b64uyuLX4eslhSCa+iF44h3AVp6K6tgpicK8gHwhjEmTkxcene7kkWIjHsxt+xtatSVUbpoOyjM+sZqHnWeWrpTIZkmLS4frccrziRZRnZDC4Fp1OnhsVKhZ6yl8cjZNb/RE4/T3MDSgmMt9oIndQoKOa75GjGwv7Hr2WzOSp1Tj+SCMa3hJZOMKjlfXVRyMXoy1U8xJxKSaL3AQ34vWgDihPWI9NC35Wrjzq6yun4ddgoc+uyUKfwrHQa5vtyLxDbpVKFnq6XhaP2P1/4fmJK/GKD62AKPy+PGYL9q35RWVeSULC/rPoHTIPc3b9hya/VGTSSqm8SH8aOc0IpEJGZbkGvY6XfpxXta/Vx6kdfmfxxJt50O4ferZmBqq9FN9EyjI+NICEjpynZFQNBaDdfwFRp9E6ocJ2FqatfRLXFvwHMTIN6Te3GcrRiXUSlhMFGx1dby529Sb2VZ8hNZLSKsqyA/mH/00HizWe8upnufumRExdXB9eTW4nd+z+M1gerf3EprItqhObVxezY/f6DGx7znP/0LO151FoxrY3kbKsIlNGG4m1J7HHaPQkL/uUBDqMbjsUQ94YC2H0OnKJ1Bbg3LN60InVXkXDrjaxr/pUVkGs93VSyVEB3H2dFHEGaacQFjO2YNakBPw+LwQpWrFThE+RL/uL/Xmzz00Vf7I+fWupPO3CnNJSYBiinvuJns0QeLAy9EWATia6+8Nr9FyMlIiIfT4FaUfWYgcdcKmpn+pbJsunHwKXET/fB7UEaeAfVxx7HT8c06+k1sjFzCmtgTqrkyHAEGAIGAiBduGdYqC+smIYAgwBhsB9hwAT4vfdkLIOMQQYAg8SAkyIP0ijzfrKEGAI3HcIMCF+3w0p6xBDgCHwICHAvFMepNFmfdWJAKN404KoLVC8kZ+4uY0YFRSoS56n9tORwsTNFiI6wSqX5TSOmamhFG+U3+edKejGH2qWI2nTe0jUdv3sPAUBG16hg2KUsvZi7/xPKdSA5rBTc1K8MSGu82fdwhkMQs/GtdkSw4PnYo7/3WPofgAAIABJREFU47C3FkFxg05tRn6HRWuika8rAqFBu+yAN3dvgAdxuE1Z/5dBSzZ8YYzirQqmelK8mQa+j0CPP7FvCYXeNeig0CnPae9gUoA1hU1YgrA1p/nSTQPfwQtBxHmpOmVa3YtenyY0nOKNfj/7tyOdQuyOCRAhIaMWbk9FDhKWvYBzf6ujMmpa0pwUb0yI6zPiLZ6nafRs3Im+4UtX48NhpYjYtAqrEm9BaN8HIz0sQIybJMRZqh0BRvFWBRe9KN6ksOZivcgjDSzAuZbY8uxAtyk+uUgs4Q/bVEiJXi/QHLeL7mmxA9U+mnVfbQTFW3EqcmIz0M0jCGhj0RDbiRBn9Gz607O9hyjrSQga2w0JH/4flu3NUL7LFy8g9qDWay20wTOhFJfC3xXWFH/jRloMNq9Yix8vKqm5hK6vYe/Gftg9dQ42p3O6jgDDP9iGD813wC9oD4qE3vgo4h2YHfgB+R4B8OYImbPjsHHxcvyYTJqI0B1v7V6L8daqbZdZG3BuFld/GU4tG4+Qg2qdzQavbfsaPhfX4yfh05jl7wRrynPt4ApMWZ2P/+1eh/6kxY9fwxEzKJP1lFXYM7MIi56nvhapNaKHYPUQseNUFFFEPVVYwsonGvihrpC2fDH1ULxJfSjG9wBcr8LCzrHThGKg9BSOhf2uPLhDwa+cp00mZpyedHRegYK4XTi26ZhWSFYip6iP4s3Cg2jf/ImajY6km1FQrYJUJO36CnGxFMNEnaRu6DOb6nDpTkHBEhF7KAuPelfg3Oq9Kpo5oEkUbwIPDFg4Ht2FYnRzEUGQ+yzGLn+aas/Dpc8/Q6qaZKK+vuqieMtUsgNlHLpKDEXE08lRuc2eBGHcBSj8HkNWXJaytxRczH76DDxGgblMCc/bFEsm+vODkFfGczcUxVvbZAdqJxubjJ5Nf3q2f2Ht8RicSpMQGa3heNf8urlPAngGv4dF/p0QsSwE42a/jZ/yXfHmqjcwTNKQV0IIz2G9ELP4RfgMfwWbqIyQ0ADS9imolCIBHzzDUba9hB/T7iJp86sqCjh/LQGubpUQ1v4z4J+/G8Ejx2Lo1LewOSYPCoUMuyOzYD1sNDHsqANc2WC4f18Uxh5BTKUAp3KIkGDdhLfxbX8HZdS7qh1u0LdGU7wpOsHCczDsbLVC89oEwo+iKJYmkODhWkGCa9SGFRhkewOXdn6L6P1X0DkgFH6jLbTaWD/Fm4jY3u2E15EUHoajG79Fotyejuj/F07qyIZSLzy1cgUGW95AwtZvEZdhjxGhM9HH4iGUqARbkyneiJgiOzYKyRmlFM43E1fDI5HEU7ydwnUVjZyuvuqieDPmoiESO1B6fA5KJJbo5DYdPg5/4nRqF5hTQCw+GiIXK37lpxjlYUSx14jObn86TH0o+uN0ZxWeBqR4E1NsdwqxmxPfts7etxNNnNGz6U/PJoC1PYVhLbyK/MI6yB+E/TDW3x5Ze4LxeXQy/7KHrfgRw3a/jPHDuiDqIJEj6JmSInfiQDpnA0xFRMQVBM8hjkXS7GMbelY87WcspYiK2Zy9vugClalsQNKBCKRNeQ5j3B5GYjxRj9kNxhinWzi+/lwzHUevj0xBB8Wb4iZFJRSgE8XBBiicKu1LuARNhknCl9gXz61wiO39jZfRXfYFtn10RNX+y5D4DMdAFwcgXBVOURfF25E1OHBEM0D/FPWHp6cNRTSkia64E2xmv4w++A3b396g1LrjO6GP33wigFCRCxuC4o3MC5lHUmE64RkYZZwj7szIauQSuvoqJ2WjPoq3fApT60hlH0RmhgLuYl8MCeqErLAF6Oj3eWU0RLPZr8Hb8jwOBH+AdH7y+AsXfIcT+YQDmV9kqLAxHMVbB/d+MKcQu5e42O5tKLUTIc7o2eYsnY9E0pgjs8l8kB6FgxdnYeaY/lgdfxKPjB0O++xYfBjPCQ49hpTCrVqbkMki+W/Nq5ifguR8Y/S3707X9BXitHTN0gTtL+RiZRPLgpYequerThyNySm1b7jW21et4uW/YtIPv+pZXz3Z6iFT0EnxVpaLYuI46GrJYXgTQqKEe9LlCqJVlHDwmIiBvTviVp4rBswhfiGa7IxpVdSNuDFLZTc1jaqX4k0AsddzGOQ7GN1siSOU6MqMObII+TFcJzsx3UR/H3NkbNxZaTahANpUj7ySXNhwFG8qdqBUqqv6ZrmuvnITVb0Ubw/DdjTHai8j7lNLKIhEwkK2DuEJXTEwyAQFsUlQkEnncV87FBz5XCXAOQjFfHje0jwu3K8hKd7aLjuQHr/4el74lrrF6NkaQM+mZPHBGDOKJU6aWX4d2rjOsatNlaZfR7Wk0IPqrfoztX0vLVWTjVW/m4uIA+cxJ9gX3pJ8Mt/YIS3qM6INbmy/qpdf7Xtd9nC9KN7kFHHvHlykXWiZ7wbvoIEo2BaqIiEmYU0bgGLOfp1bqNTCyXTPoZx+ZAfyo4mjUpXqo3gz5djfJzyMq7v2InpXBhErdMKjpIV6yON5G3AHT0+eCeh0nCZWorGbUoPk2YFoNWAwijd+xUDsQBsTqoGoR19tX6if4q2wr4YdiFwJz36+CvcSaPUiHa9hB3KciR6SPFyN1WAHKbXJthzXwznGIq6vhqJ4a5v2cA74diHEGT0bjVQD6Nmy4v9EsmgS/H16YI96Y1P7Z6bIRVahAK5OPYFIldtfV0c4dS0nGrccPqeCtOpS0hIlIrUtWoiu5iLSstXftQus/zMnqGqK//qf0b57IyoC8cSCM3ZOCZyt0rD7QDXCBj4zbWyKaWNT0bSNzaZRvBWRJq6AiBhkrKb7o3cRmTQOpVV2RSKVoDxzL06F/VyPb3M9FG8CL3hNeBTZYUE4zrO/U7J5lkgaOiJ742W+TBEx14hJ6y5W26VJpDsHDIAoZTsyubjjhqR4c/EkguY0nE9QboZXdpQ+6OqrLoq3G729eXagCzyRxR1kH4nkizf2pQmJ7OGxZA839rKkjcybkBPbkTqJfYjlSJGIyFiaxASPG47ijfhPbbjJYWeKdjfbxOeG7GK1WoMZPVvD6NmQvAMbD1yHe8gyLJsyFG6u/eDlPx6LFwXCid90JJtzNG0Yjg9CiI8T7J0GYNqiqXArjMeBKNWyPk2GK4UWGEybiES6AonHDIx3fagR70Au0rLukf3TBx5dJTwFXIMFelEMDsTcwfCpo9D14glEpNfio8ttbI5r7Mam4SjeigsKILB9hjYqH8aljd9reUgQN2ZmDoyJ7b4PkQXziROoXqPh4Kb6zl+rh+LN0gZSM80kakSUZU8tJG2UNhbTVWxCCgq+XSx0hpOXFYyIus1+ziJ4uz+EfLU93IAUb8aWnBAVEPWZuNp7oauvuijersKMs4enxNfBDhRPHkjkYlhMFG6kbdu5Kan4hB6zMWpaL+TtDEOynN4RQ1K8kUlKxNH5mdlASJOxkaDhykwjfjx6PdIuNHFGz9YwejaONOD4ilAszqfDPjP/h03mnA9hLhLpsI/SR7wMcavfwQohuRgu+xyzyexyI+ksVr31MSLVHh+KGCV1W+jHODxejrTE44gh5nd7k4aaMYrx26Zv4LNsFtZHTKQfQnUXQ33eU3rm4BncGOmHaxHHq1LM6fO4rjwGo3grQwnZYmHpCqPo5TiVWHUDrGDnd4hx+x9GbNiOIUStRjMakBuHkx9FaFpYH8VbbjySL0/G0NDNeCWIni+WIYFOLJZLriJHpY3ei9uJUzG98dSiLXChFde1w3+iUGGF/EqPCsNRvJUnHMZfKa/giQ17MYR6kPXdHOxUETjX21ciQa6f4u1f2Pqq7OFVxs6BzDcqezh3PWE/ziQMwHDq6yMh92h/4Cau7n8PkbvUKzUDUrzJT+Nc9Bj4B23A3KCqfdX1ejX3fRZPvJkRZvRshgHYfMyH2BMqxKpn5uNAYS2auGGqaZFSjCyIksxMQJRkqbVSktXfCBU1G/ljy1ML6jbLEMUbyF9ePHolXphWgF9mfYx/Kv2muRpahuKtaX2tHwnlXeUqyrQeyrsWoXjjjt2vfQ7ZdZzYVLa1eSje2oUmrs9QtpU8jJ7NwCMhlMLKvh9envU4SmM+wfF2LsA5dCryiJJM5U3YcLTqo2YT88z3wtRYcssrRCeP6RgxzR4ZYZ9WE+BcrfWV0/BW1fVE0/paV6na18ugqIfyjsvZMhRvHPF2d7h/GIm+6dvx81tfVomd0pwUb0yI6/OeNCAPo2drAFh6ZHUPXo3NU21wIzESH66JAhkrWKoTAUt08wnE4JBXyLRA5MIZMiSFvY1TR7LqfILdMBACt/bgtxf31FlYc1K8MXNKnbCzGwwBhgBDoO0j0C68U9o+jKyFDAGGAEOgdRBodnPKHynnWqdnrFaGAEOAIfAAIMA08QdgkFkXGQIMgfsXASbE79+xZT1jCDAEHgAEmt2cAnTGGM+V+E+XcuTeogMk53/CufKGHhh5AEaCdZEhwBBgCDQCgRbQxG/hYNzLeP7Ej7gmHorJPbTjJjeixewRhgBDgCHAEKhEoAWEuLKuMsUlJJKTb5eHTRn8DAGGAEOAIWAgBFpMiHPtLTdQo1kxDAGGAEOAIaBEoAWFOB2PpZAXwo4U04ElhgBDgCHAEDAIAi0oxEsonvEtiM28MYiL3sYSQ4AhwBBgCDQZgRYU4kAyBab/HZ5YPPwr/Pz4k0Q5wBJDgCHAEGAINAWBFnAx1DTPyXEynkQcPjz+Pf7g+BhZYggwBBgCDIEmIdCCmjixcIs7o7gghgnwJg0Ze5ghwBBgCGgQaEEhTsHbqTbFv8QOyxJDgCHAEGAIGASBFhTi7YSV2SCwskIYAgwBhkDLINBiQlxA5K1uxLh7805NZuyW6SqrhSHAEGAI3H8ItMDGpnbslBP46p9G81Ldf+izHjEEGAIMgSYi0AJCXBk75WATG8oeZwgwBBgCDIGaCLSYOaVm1ewKQ4AhwBBgCDQVASbEm4oge54hwBBgCLQiAvUSJbdiu1jVDAGGAEOAIaAHAkwT1wMkloUhwBBgCLRVBJgQb6sjw9rFEGAIMAT0QECnEH9s2g1c3iPAiU87YJ6TkR5FsiwMAYYAQ4Ah0FII6BTif24zR78ZxfjhZhFemGgEk5ZqGauHIcAQYAgwBHQioFOIcyUoSoQ4m3wHHboA5uigs1CWgSHAEGAIMARaBgG9hDjXlFK+PYylvmWGhdXCEGAIMAT0Q0B/IV5C3GqURPqVy3IxBBgCDAGGQAsgoLcQ/+efeyjtATzrSjyZLdAwVgVDgCHAEGAI6EZAbyFeesYMay/JMetdI1z4XoQRQmYb1w0vy8EQYAgwBJoXAb0DYJkOLMC8vjbYvLQcay+Wg5GrNe/AsNIZAgwBhoA+COitiZv36ADRP8DPF8lbRZ+SWR6GAEOAIcAQaHYE9Bbiok7KrEovlWZvF6uAIcAQYAgwBPRAQH8hzhfG7OB6YMqyMAQYAgyBFkNAPyEuUGCA08O4dxO4wXzFW2xwWEUMAYYAQ0AXAjqFOB87ZbsYM7pI8P3OChTqKpHdZwgwBBgCDIEWQ4DFE28xqFlFDAGGAEPA8Ajo1MQNXyUrkSHAEGAIMAQMhQAT4oZCkpXDEGAIMARaAQEmxFsBdFYlQ4AhwBAwFAJMiBsKSVYOQ4AhwBBoBQSYEG8F0FmVDAGGAEPAUAgwIW4oJFk5DAGGAEOgFRBgQrwVQGdVMgQYAgwBQyHAhLihkGTlMAQYAgyBVkCACfFWAJ1VyRBgCDAEDIUAE+KGQpKVwxBgCDAEWgEBJsRbAXRWJUOAIcAQMBQCTIgbCklWDkOAIcAQaAUEmBBvBdBZlQwBhgBDwFAIMCFuKCRZOQwBhgBDoBUQYEK8FUBnVTIEGAIMAUMhwIS4oZBk5TAEGAIMgVZAgAnxVgCdVckQYAgwBAyFABPihkKSlcMQYAgwBFoBASbEWwF0ViVDgCHAEDAUAkyIGwpJVg5DgCHAEGgFBJgQbwXQWZUMAYYAQ8BQCDAhbigkWTkMAYYAQ6AVEGBCvBVAZ1UyBBgCDAFDIcCEuKGQZOUwBBgCDIFWQMC4Feps81UKraYhfLgIK3eE4XDFvTbcXikCvGbh1Uds0NUIyLr8BSbFpUDR5losRicXR5gKqjasvDgP8tQcVGhfljrC3EaM0sxEFMrbMvZNAFnVx+o/vuKW7LOqDRW5Msjz1G+MFCZuthCV0bjIqo2Lnt3t4DYBfgH/4tzqvbhRpsf4ib3g884UdOPfDTmSNr2HRFmVN0J3zYK7mDmvHC89bopuxUYInluOowo96tZdcrvIUf09aheNrruRVpg39jX0v/Y5ZlzMqjubrjt3UxCbJkJ2A98ldbFCm5k4Mvgelu/8AYfvNd/LJLT0IwHeEZGH38P3N0uhqKA/XX1rjftiDwxbPh8OQiGMhR2oBQqUU0PLEzbg6yXhWi2ygfvCdXjK/SFkbJyGPfvzWqO1zV6nWeAbmBxoD3B4UG3lCm7UcnFuwVzEyO9W1m8a+D4CPf7EviW7UWjQVglgNe0dTAqwxq3DSxC25jRfumngO3ghyBVIWI9NC36uOrnqVb8A5j5j4GQRiZP6CHC+zFwk7d+OdLeJGBMgQkLGv3rVpJ1J1Pcm5j5ug71LK7A2uaxt/gYa3Cv9H7jPhLj+Ha8vp0J+Gkti6svRNu5JxGaQKLJw+vptFKD5Josm97b4BMInnABsJmDy11Nxc8U0/HaipEaxoqHTMcghDdm5j8BIIK5x/365UBD2KtaHCWC/cDsCbSKwJXhTLUJaCmuvfhDKI2u511QkbGHrYobbuTkQiSWgRRwqpL7wCTTH7aJ7KJclNlIQWvLl3kpIQM3RraPNxanIic1AN48gICMS2cUNf49FFh0gKu6AuDROPXjwkh5C/CE84TIJr/buBTuJMRS3/kbk+R1Yl5HPA2bn8H/4doAQXx/6CjuKuFn0IfgNmY8lkhjM/e0oLqIPVk6cjq7pp6GwfAxODwtomXwBX5zag8PF6lnXGK4O4/B6P3c4cXUU/Y3o83uxMi1Ha1As8OroeRiatws7BN6Y0dMG1kblSEv+HjPi7mJe4GsYZ8JpeZQeD8Ufj3MfyhAbtQyvZ2i0G2WG2v8vtJyIcP9BMOFuV1zC29XMKULpWOwY5YRz5zNh5+JGfQHyc6Ow/PhRnPv3HiQOL+Po4F6Vhb8/vR/e577disL0Xw7iikrQWlmNwoL+A9HfzBS4k4dzsl+w8qIM2ZWCuL6+JsPKJRg7BzxSWc+nMzz5z5XmlI5WmDwoEM/16AGrh6mRXB0pv2Lt+USkawl7oWk/vO7pj2Hdu0NCoiI79xK+Oa0ZF6GY7g/yhz/dN6H7yRlRWHsqmu9rY5LI3RPmimu4kFjLeAicMWD6QNza+RGuei1BX6lEU4XUB4ODB+B62BokZ6rfGQHMAkMxUHoKx8J+598TIwcf9J84Bg4O3SFS5CJt/0acOnJFS6MUw2b2m+gt/xl/Fj2BJ0Z7QiopQV74Rvy2/xJg4QH3if70PJl+zESoKEhF0q6vEBebrdUWN/SZPRluLt1hLE9E7KEsPOpdoWU+EKCTx3N4InAwrCypD/JUJIR9RiaCarq0wAX2Lia4FRdfVUgLPDBg4Xh0F4rRzUUEQe6zGLv8aao/D5c+/wypecr+19dXkVcQnvKowG2pG+wtaex3/gmrgABYCa4gavk6/ANn9LAtQcahq9QGKUQQw2z2JAjjLkDh9xiy4lSrWIEN7KfPwGMej8JUqMBtWTiiPz8IeaWWbUnz8mx4+vSCKbXv6v7zsKRyc7Zd1eAldobzNMLLvSc6URkFcbtwbNOxakJeJfxlCY2asER8bR1QWqap9kH6pHNj07XvK/jYVYzYuG/w0t41ePtyMbyenIX/M+PmbyA9dQfW5pjjP95D0YuAtLKbhHk9bmDDyWMkwNU/dgHcrDvj0OHl8N2xGt+U9MaSJ5/i83NJYjkOHw/ujaJLW/g6lif/Cx/vmXidfkhVEy0DHUfDt/AoXt+1BCP2bsL3/9yiH/DfWLn/TQz6YRW231Qg+fxq+hxKfwv1FuBcPYrcnfCl5548cq7ul8nIGl6WmVj58xL47t2F5C4jMM/Zim9mUepXfL1PHk9AqeIC3t7KtYna8cuBSgEuMR+HL4b3R2nqTszd+z7mnjoDocs0LHEy17OvhLlsPV/uqFNXUHonDv/9QVnPc5X2cBN0rUjC979/TXiq6nCcivd7K9vJV/RQPyz3m4FhHc5j7a8fYMbPYfgmpyO6d1JNhIK+WP70BHjcjcHbBz/AxF/3IbHTCLw/uD/MVONWrcE6vtLYuT8K4wwZMuU1l8ymAS/BTfgHToVTn+jHaCzR0sQVnWDhORh2tlrvg00g/Kb1RWkCCR6qWeQVgskr56Jn0WmcDfsSf8iM0TckFG4OyveUbxwJTmffwbAd/SKe8iGTzZF9JKDTUaGy1YvcfWAnvI6k8DAc3fgtEuX2GPLGf+EkVmEi9cJTK1dgsOUNJGz9FnEZ9hgROhN9LB5CCS/YxLCa/QmmvfEU7iWE42TYD0iGK0Ys/A+6C1RlqFGydEF3y2JkJ1yuiptQjuzYKJowSyESZuJqeCSSoqPo7xSuq/YI6u+rANa+/nB0N0NB9F9Q2PpgWKATMg9dRoWjB5xsRDB2G4DuNJmmx+egRGKJTm7T4ePwJ06ndqFJNpXer1LCyhn9V36KUR5GNBl+h+j96TD1CcGo6c6q9lri0SXrMDagEzK5++G38GjQC+gBKjdBNUnb+GHUhhUYZHsDl3Z+S2VcQeeAUPiNtqjaZ7EbjS0J/3gt4V81R73fhNWxrTf3/Xezfk28oxMmuXTFubiP8EVGEd/7K1f2Yof9Ykyy64FvCv6mH1AhDsXswRMBk/HOoM4otO2FtLh1Kq1cA1jalSM4dIf78cpx6NJZvDDKAwGdj2PdrQ7w6uUGSW4EViZf5bXRK5f2wtVuPgJ62WPdH0lVl0jyk1iu1lrv/o1DWkpSywyPHFGXTuMKp43evYQjueVYYmkF4eUsPZZyD8HffQBEaT9gyeXLyvzFx/HFVU984eAKu+SoKpoyGtvXf5Ox4UyyBg6q4/u/n8TH1j0hoXZyI9nL8Sl4dUjAkqijiOY3bwuQfim98hk7x+HwKovH3JgY1WRcgHV/OmPYCE94GZ3DoYbuF9SleXI1iodiyIRHkbXtU/xTrEAXuiQSawlsxU2UKEjDlXLX7tCfJVyCJsMk4Uvsi79NGrQvRpLgLAqbh5/D05R9iDOGo8982JDQ+jNVtbh39EQPszLcjd6M3ZvOqTT0Q/hL1evSI2tw4IjqC/3zT1F/eHrawIiz4xd3Ii3+ZVpX/obtb29QbtrFd0Ifv/m4SxokV4MxacCjAo1xdt5/qU4ShJTSi9zg9r4zafwdkKO1UVvnqoTMC5lHUmE64RkYZZzD+f2RuKFtKtPV1wxH2Dl2QNp3G3E5fgApSnLItn2F5FR/9ENfyKkN3XwcqeyDyMxQwF3siyFBnZAVtgAd/T4HUrcjmyYks9mvwdvyPA4Ef4B0vt1/4YLvcAxxcCDziwzGQ4Mw3DMfJ19dhkR+dZSOi6OHY6giEZm8ScQG/d54Gd1lX2DbR0dUv43LkPgMx0AXByBcs9/Rwb0fzEn4X1ILfx45/ZKw012MHijGvX+o6Y1bIOpXURvOVb8Qf9ga9p0ehtOT7+KPJ6v2orCYNzooU9klrIw9jx/8h8Iq40fMSMmv1uUyZBcVaK7duo78e1JYce4Kt0zhZGqM/Pw85Fe+rAVIvn0HL3TuRsv8ZC17bxnyCzK08lWrpiW+VtxG9h3121JOm4mkNooEEFLduu1xFuhFfe7a4yX87litsUVd0JUuacRoU/pqgif6jsOrTpwJ7GFaLqtSrjGZRTqQEDeCvXk3mk9jEV+r940xnMwtIer8CL6dMaRaQ7Ng9jAJNbKdNijVpXlCgG7TZsCh+Bi2H+aW8caoICCNyJzA22q5SspyUSwHulp2py83IfSajSddriD61WM85maBk2jTVI6rDqPI7MKNBFeKBcyFN5GhpfWLXVxgWhCLfWHna9m0E0Ds9RwGkabezVZCWjBtOgqkMJUfw3Wur+RF0d/HnDZcd2q8LqiNxiQkcxI5DdISfScMp/wX0dn3RQym5/l2kEmjE+1blFbBS70qiah1VQJIYetph7u0WqsiwPXpq60nbKRpiE8k842DO2nWF3GBhKOxZ290KbqGnFwL9OTt1jKUyC2hkDjDQrYO4QldMTDIBAWxpDSRSedxXzsUHPlcJcC5ntB4UJdK84oIO0u4Bg7AvdhP8FeleYvbtKZ3Vm0P95iIgb074laeKwbM6UubuNyY0FjTpFoqu8ljo0y0GerRG6JG2MMfm3YDP42jd4Ls4ZuW/oustrwvpNVjQ3+sX4hztVUUYM/hj/Dx9fpUL2MSCna8EIKpA+w6nkN2tRWzUHsJbkTVaq1yG9IpTmjqFpYNKbGl85YhOW4NZly+rrPixvbVymESPu7XGQej1uO/ObkooFXDEwMX4+MuVYe7urGqeoNKs3Zh9NHTvObe1FSn5mkzGsMC7GhS6IiRa7/gqxFZki04Q0uIk6DkNEgXKenoAjd4Bw1EwbZQJPP2YbLbkr21OOUo5KTFc/9xSUGtvrz/d1zjTAN8IlMH2XbLZfuRU4vnhGngB5g04WFc3bUX0bsyyBzWCY+SFuohj+dtwB08PUl0XcPpuBuq8kgouSk1SE5IQjwYDo4dkUebdCVl1Abuj5KiOBan4+ORqV1nfasS7iG6b+dAmvvGhMq6lB9091Xk54IuGVQfTV6mgY7olEqbhWXGkJKgNJL9gOsSV3iR6SIzjCYeciU8+/kqMv2QpiwdDxvLm8jkdgcdZ6KHhGzcsVc09UupTbbluB4uo766833N2X9BMxlakEmEzEPKCY2ENW3Kirk9hdxC5YiQrsMhkn5kB/KhkF6fAAAgAElEQVSjtcolVPnN0EbYw//cZo5++4owc0EF5s6SYsfSDg+kIK9fiN/JQlqpBG7mZsD1uoWOxHwUlvTrhMNHv0TBYy/hnSeSMT0mQUuDJs3D3BrCNKUPs7CzNaw6yEnb5nYiSOsuLsekzhY0CVxRbe6ZkXb+MPJvFtBPsSEaXwVpxvyk3/qJm6i4HYcqc18ertDqP8DaEWaXbzSbR4mdpTV5bh3DF1k5KgFsAvvOJqSRq+2ytCF84zpKezvBw+gPlTlFG7JyJN+glZNrXfcbCm9dmqeYNs4mwzLjCNlUL1VOzuakyQ4Qchtu6tVNEWniCoiklrCa7o/eRWTSOJSmbASnLUvKcOvQLpzada3uhqkEY/Y2sg1XzyXwgheZc7LDgnD8iOo9t3kW9iSosjcq84ukUpoG5NQO9ftoCecAMo2lbFeaD2xs0YnuZxz6Dmdr27jVrrPOVYkqkwttAAvTcD6BXhbtpLOvAjxCE9Ut2Q4yckrR16Un8uISCFeloLx+5DI6uL2E7jQZXZBxdus7yD4Syddg7EsTEtnDY2nSM/aypI3Mm5Dnan57Yh9/9CBTSWQsTWKWjhDTyudvuXqCJN3Nx4+f5PgJjXRuCW1Ml2fuxakwHa6KYhfYcJPDzpSqfdXzm6LkIYSfycOrz0lB8x6yGiIu9KyjrWerf2OTbKs7ZHmwc38BSxwfRS+xBVwt++GFgbPwurVKjxM4Yd4QbyB5F9ZmXcXXJyOQZRuId+w7V+m7tWMA5lr3gJ2pE171eBxdC+Jx6BanSZUjNlmGIssRWOCkrMOHTAHPdb2JqCsNPbhyG2n0DlnZ9EF/AZk4Ohq3jkAvLkA2bYAOte4KSZU23EUk7QfkW47Bx48/jv5iKXpJnRFA3j8rez9isLZmy0kASx3g8zA3vMaws3sGk7pVndqupBxD7L3eWDBsBHykZrATW8On1zOYbKZ8JdK17vtx903taPNrNJZ7e1duSOt8uUnomJCnh9TFG07kiVHEubTRdxMLVVtcpmOoVwUuhX2FxPBDtKHI/UUiNZN0NomQrFTqSYdWzAUFENg+Q5tiD+PSxu81HhKkTV4nYWNBQsRcvQEptoUVbe71kGqeB2cPl2TSpptGk65sv6UNpGaavEY2PnhqIWmjtLGozq+QkwAXOsPJywpGVL79nEXwJn/2fJU9HPIUyBVdYOc3sHIcjUg7dRw9WOntRJUZWRAW1P9uXoPJBpyH28XW9L1njXE3tuSEqAAi7c1drrG6+koTlYNjGW0Q0mYprVjsHG4iR0abRmTSsbO9zvelmzvZw1PikVPFlY8mWU+y76XG8/bw8uIilNIKx86NlDdKQo/ZGDWtF/J2hiGZM08V5ZBvuxTdHJUb5UJyDxw10QnGKWp7OE2qmTkwJm+hPg4qsys3AXmNhoOblhmWL1xMkzWNtZkNhCT4jRqxSamoZWXFN/wBSfVr4gTCxUvfYH7FM3jVfRa+9ebc1eRIvyHD9lucFm0Cv0GT4VcWg9fPXVFqfbfJ5e6cC74dNBWTbnBuhxySZYhPuQR7z5fxQ2cBiq7HY2XUsUqPjaLsHZh/ehIWuM7E1kHGKCzKQvTv32Dddc1Mr9943MXh8+EYOsQf6yaPopejIS6GnFvffLzQVfNjfn/qKt5FMI28XSY14PCQQh6Fb/6yw1zvRTjKySstF8Oi3L14/fgdzOs/Fut6k4sh2djzyW0zOqHAYGai9OSdWCedhlefeQ+vKu4gn1w6913Lx/+ZaKkpdy9gyWHwLoYLRo2iVVAhsm5cIu1dhXSZ5v48/j6VQ+MSf+Uw7Unolzp4BmHyOyNIg1UlyxBMp/k+67s52LmrDO6zx0As+wZ/cJuTWok//EJ+4hpzTxlKyBYLS1cYRS/HqSqabi5kYd+j15KZmL77WbI9K3jbbQm5w4VHawrl7eHyZLIJ16Kq5cYj+fJkDA3djFeCqO5iGRLoxGK55Gpl/ntxO3EqpjeeWrQFLuS+eO3wnyhUWCFf7VFBZpOTYWcQGPQ25voUo5g2YkXCYuQdXo89fDPIjrzwCwwnO7E6DXz/SwwsOoF9U99HupYgKk84jL9SXsETG/aC25FQ4sWtMnT0lezhVtIsnOFMSC79SONOxlFOs/YkLbsoCWcyLFR+3GQP10BDn8gESsKWt4dz1xP240zCAAynvj4Sco/6cZPcB99D5K4k5VN5J/BH7DgEBK3HK9Po4FZuAq4Xk7utekKjXAU7v0OM2/8wYsN2DKEx4Q42ITcOJz+KqFIz6EzGuegx8A/agLlB2n2tmq2+b0opQe3kvIz4DjxYqYNLnwG1vNWGBKEv7ycuin23Qe5+hmwBK+tBQICO9juQSUNYjpKMFJQ0+NCI6nnSkOWpBTVNLmoIaYWHsjKIR6/EC9MK8Musj/FPFXs3rT4caVOYPGrkGbmoaBYtsal91ed9oJWsDfnLkx/97ZQM1NR2lffFHF6ZWk4L1YrmVx9mApTmptL5kOaRsKLHcnBigfrE5r0HTo7r1MT1GW6WhyHQ+ggUoyS1uobZkFbV9zxtipJ5RpgaS255hXSYZzpGTLNHRhi5RFYX0mVyFMroryFVNzhvfW1tcGF1PEAOBJky8o6pKynv6xLLFXkpuNHM0RNKL3XBF+dv4qV3TTGr2JjFTqlryNh1hsCDi4Al+VYHYnDIK2RaKEMxHVhKCnubToOqbU8PLjJtoudlD2HLx8AWcHtsNQ+StYk2NmMjWsCc0oytZ0UzBBgCDIEHHIH6vVMecHBY9xkCDAGGQFtHoF6beIDPXZz8kzxSmpBu3WrmfdMmtI09yhBgCDAE2jsCTBNv7yPI2s8QYAg80AgwIf5ADz/rPEOAIdDeEXhghLj1lM8oGuNx5d8vb8GDZ5i53xPFsAhcCL8JfHB1lhgCDIH7EIEHRohn/US0bZ7D4b86kY4U12Ont3oOW05txyKPTvfBcDvAefQQdJNw4VtZYggwBO5HBB4YIX4/Dp7OPlm4ELuMKjKdzswsA0OAIdAeEajXO8VwHbLBa9u+hs/F9fhJ+DRm+TvBmuKaXDu4AlNWnKJjshSAx+clvBXiCw97Cmh7IwPxB7/CB+tjNZRlVt4IXTYHz7jaUcSWYtzIvoqI1cuwOlYZm/iRmZ/hx/EZmPP8KiTyTNcueHP3WvQ/EIKpW/RgDLF7Edv3zICTqtNuGw9hAv85CavGvoofq7AmPwSrh8hrp6KIAgZxMWQanszIzDFQegYX5Y/D07cP0VtRPOxtqxETSwGLuEQsMoODBxEl2WeVlGSmviEYTAwsRzcRHRmxpvjM7ouS3G5w8DRB9s59KPQMRB+bMiRtfBtxFF/EmAgozBWZuGI7B2Nnu/NUZNn7v8Kx8L+0jpVTXPfRM6gNvem+kI6sn0bs+m/wjzbTvM0oPDX7EaRsOwOziZPg5GDGU5OdXP0Z0lV0YQ1HgD3BEGAIGAKBFtTEhbD2nwH//N0IHjkWQ6e+hc0xeXycA4nXK/j6w2EoPfAZ5oyfiTkroiEcsxDvTnFQ9VGMkaHz8bzkIj4ImomAqf/D0s2JJOANOAelf4fJZG7pP5b4EEtzsSsogDe/9KegXVUFOCdgh2PdhLfxbX+HGhHo9BsUBzxKLCmP+k6Eq0UyEnbuRY7QBQOnPVUZ8c7YzQ/uRLFVXilMiSjAjyLzUdhVDjORuy/xFjpCkBqNHOJM7E/BpIziKHY0lePkaU85BOhO90UUea+vxx3iivwOcakPwznoNbjZqIZd4IB+K79AYGBXZIdvxdGtESh2fBajgp6sEu5dTEGy+rh7EVXZZJjnxlJ8pINIo3hURg2OT6IfOiwXQ4AhoD8CBpSCelSa9jOWrj+h1K6LLuBAOveMFE9PeRrCqFVYtOWEMnhN+rdY7zEYG/2HwP6nVKQRv495VxEK084h5uLffLTE7PTLiNWjyjaZhcLPcgH287auxW98ZDgB7rhPpHCt6tYKiFNSSaFVGTKUDy1ajhziSuTyW1Pc6GJiVok5cg39RiuQH7cZcUeKMXAiBeGjkK9cZDp7CrZfnvINflm+SxnLI6UH3H2mojvHVZlZjm6zF+FJ6Vnsnre2MjRpoaMPXvCiiH/4ndYG3IpGSaZgrDiPs+8tUxEx0OXwNoksaxRD4IFDoAWFOAma5JSa1GpCWzjbi2BuvQSnRy6pOgBZl9GVIlimUejPmAPnMTN0AfZuewaJxMUZHxWBX4ghxBCsMw0edfmvmPTDrw1+TP0AR1RrTgH2j4Ynqy5JYGZrRnRcKarASbawIZNFQXyiJmQoF1pU+A/OcqzpRGJsR3GjMzdeoM8DiLn8JtLDiC2FVgg9iN08g8tj4UP28BKK8XFQE4xJIqG1CwVP4unGfODlZ4fSjCtwnPYyHDk6MmqNyIViRMsjKZdq81dFppC1n2JJM9NJo8ecPcgQaC4EWlCIEz9fqZo8q3p3yI67OQRT1mvTNlXNc23vYoyJ74dh3gPg6TUEQavHYuzm+Zi5Xsl2Xr3ERto5ahRj+AsqLTuVTBJqc4Rayz5M1Fdc4jV1sl+H8UsVPpl6uqBT7mVk5pFwdeB4FLXiRiuSqsWN/hfGPsqJIj6OY1pRJrE7x7OYihgi8e3gTnRjRHqQLcunMKN0n+jEODNNSfwhRMvOaMJ5qsgUEogVniWGAEOg7SHQokK81u4rMpCUfQ9j3NyJeOBqTU1d6yFF+gVEcn8/bUHU0m1Y7fUYrNcnkLnlHgXoJxFE2qSkMr8Zb4KpnriJhMtXjV9Ek42PrUmxkuv1I6eNTTFtbCoas7Gp0bIrw3iqtWwVHVcH+s6xfysptLjmOMPF61FiVf+BN3GIiOCA41HM5nkUSbhnVuVRzCFORSvOHl58Fhq6BRs4D+2Nu/GfIJ0mDyHRjYkU15AY9l0VQoLqeNVLplA9M/vOEGAItDgCLbixWVff5Pht81Hku87C6kWj4eHUE06uAzB25v+wOthTpVDb4Jk3XievlsfhZNUd9q7DMZJongrTMirZwG8n/418Ezf4e3C0cGI4TxkHL5OaB3pKyRSTZe6OsWNcYU9ldSWPjCqpMBfZhWK4D3sMVnRPSDRZNRK3sTmukRubPFUWadkJ1bVsmVLLpsp4AUvTkYijGxNYwoY2IweSDT2HGMq5CcaG51G8zPMo2lbnUUzkOCGJPozs4RxFm5Ul1z/yQJn9JgbZXsGprSd5z5RSIiwokbiht4+dqns0cbl4offQXlrdFcOWIxcmOq/r1eNm1wCFXWAIMARaA4HW18Sp10WxnyJ4cRHenDMb68eQiyHpm/nJf+H45mzVsr6YBJYtpgS/iyBrIvwtlSMp9kcsWhNVaRNXxP+A1Qd7YdGqHYgmQZwUfRKxWa7oWQ1VxcUdWL25FxaHfoa9pKjfOLAEY949qTEfKM7iK9p8XRG8BIfGc5p8bS6GjR8qniGdzB/xPFEtl5SCWK1lc1dKZXG0+fsfjPj6AFFbZSAtPp/Y168RRyLp1WQPt+d4FInAl7OH8zyKW8ktkSYWJY8ibWpajOH9w9PiKjCEp/gSwIhY20++twKXM1XxlhO34dhhR4wK/RrBQUWooNWJEdWVFPYeuK1TPtVHLqzOw/5lCDAEWhWBeuOJsyiGrTg2UltISYsuTkmthRpL/3bx9FiSYqIcy6mdcoyvh1gwi+qn2dK/RpaTIcAQaEkE2oQm3pIdbjd1yTNABOtNTjrpsQxUT5MbygpgCDAEGoVAG7CJN6rd7CGGAEOAIcAQIASYEGevAUOAIcAQaMcIMCHejgePNZ0hwBBgCDAhzt4BhgBDgCHQjhFgQrwdDx5rOkOAIcAQYEKcvQMMAYYAQ6AdI3D/CXFJAL4+tQdLvcj3uZFJ5L8M0adWwF90/8HTcEgYxVvDMWNPMARaDoH7T0pxEQ+jiGwhv7QWFAXwXroTsRvHU5yWmkfy1Q/cy0qgMv5E9r16aNxqKf3+vMQo3u7PcWW9ul8QuP8O+yjiEPZWXJPGR3FxLxa91aQi7p+HGcXb/TOWrCf3JQLNL8SFPlgTsQhmUZFQENGDs4mQAlfF4LNlaygioVpbFsNt3H8ROusJOFuLoMiS4fimL/DhwSRNTBMd9GwQ+mFDzGJ48cMkx88hM/BubLFq0AQYvmoXVg/jgmNxKRiH44L5T9qxU0Q+ixG52k8Z4bD0NBY+9RYiS1WxRlRPdvWYjMVvPA9vZ4rxUkg0cge+xQdrVEQXQm98FPEOzA78gHyPAHhzVHPZcdi4eDl+TNaEhOWL6mgCK4pNVUqREAv+bZzGr4vizchtIvz9KnB6zV4VwYMU9nNeQ8/ULThxJA0iryA85VGB2xSUy57ikJ/b+SesAgJgJbiCqOXreIo2Q1G8iYZSXe7pOBvdEe4TR1JsFwnFiNmNiDW/auKdqzBm/zAEGAL6I9BC5hQh3L3McSBoKnxGvoJN+f3x7ocvEp+l0qQh8fkvVi/2RNGeFZg5fi6WRnbA8EXvIrSScV4PejbFYbzK0akNW4X40upCsQzH3wwkqjV/BB+4jtL49fDzfIqnX/PXCn5VGv0hfOia1+Lo2gWLlT/eWzULzmk/IngqRyMXh67jF2P1zEpKHkJeCM9hvRCz+EX4DOf66oqQ0IAa5hsrx5nYP+EtvNOjZrhc/YZPF8UbxS33ew6Olh21CB7c0MfvMZgquPP8xA7k6w9HooAriP4LClsfDAt0QiYxB1U4esDJhmuXoSjeKBqi3xg4ek7AiNmDKBxuJM6Fn6V2Nb8OoR+WLBdDoP0i0GK/omsHt+JANqd5Z+IXCj07c6M3xrh+gzUXhRg8diBMEnfggy2neeq25PXrsGfY1xgzpj9Wx3MRBtsGPZv1sDHoj3NYumI/4otIQ0/+Ep8TQcX6sf5w2yJDouo9SIrcSdRznOadioiIKwieQ7yXpHXHVgYQN8ALo5PizZbC1JqgIDZRs5qpwQ7UAWnfbcTl+AHoRbq6bNtXSE71Rz/0pbgtXGN7GYbijY+GKEJF5m8If3s3ClVhbSujJRoADlYEQ+BBRaCFhLgCWRT7uzLR5wJYwppMJ7jYBc5WomrUbRQSNa0Us+xtybTRgYgi2gI9G2mu9hSjmyjj0jh6Mz6VITnxb8C/O6xEHZDIX1bgdlZuZVd5sgqRkOKDV03ZV9ZjUN1ERtVy1/yqk+KNi1tuWVxL3HJtdqA0xCcSlZuDO4XHvYgLCXdh7Mmx/1xDTi51hreHG4DiTcUOdCHsQKUAr9kjdoUhwBBoDAItZE7hyHSqkS9USrVq1+voBU/PNnU+Vh28iPyunkTPth5fB/drkyxsCkV1c04dnWr0ZTXFW3xNijeeOAJQxy1PrxG3PK4KO1Amxw5EpMydUhOQTYxAUo/eMJIpSSCU9vBEpNRC8ZZZg+KN6N2Ki1BCf3KO4m2/huJNyQ50EakptXkMNRoE9iBDgCHA/dZbBgUhejg7ksAlPkeqUEifrZCHy1ncj5oIHIiebYq9I9mNz/LmFBABBEeefCMxg2zTGoFYHz1bg/pRfULR6+EyWk0UkNZNrDmSDkjmtXEBnNyIdiL7FLI5O7x+85GyNtrYtHvYGIV3bjZiY1MXxZsAUqJnM8qIrGSxh8VQ9HHpiByex5NWFTw70A6eHahvdXagIxw7EDEIGYTiTc0OtJ+xA+n1nrFMDIGGIdBimri1/2yE+DjB3skbrwWPQNekGBy8WE6tLcapAydR6DYBb00ZBCc7RwwPfhXj7W/g+MFzKnuubno2/bpdhuw0Yr6x98BIJzOeeq1+Ls2qpWZFRZBFvD+CFgXCw64n3PxfQYh/ZyRFHSZ7eMO0b25jc+e4BY3b2NSD4k0iJWZ7CdG8CWjzmPI/HvoCehBvp5IdyAUOHDtQPMcORGYXjh1IxrEDcdRx1ykPYWQoijeyh/dw6IBsqoujhWOJIcAQMCwCLaSJKxAXeR6PhK7CT2QHL0yMwoeLw5CsEnxF0Z/izdWvY9HMZdge2hGFWVdxfNk7tKlZouqtLno2ATwXhWHT+B6V6Hh8fhDPct8SN8Fv9vZKAuZre77HT97zEBS2G2+SSUfjYmiD17ZtwSxnzbz20amj+IiKuLaZJpX1f5HGfQjvLLYkarepWL8nhFwMc5F4cDU+3NSyW3S6Kd7KkEdCs9T7WczcPQLFuTIkZ8hRTv9m5tFk4+AJK2kWzshoJcRtdtJIHKXPxp5EHVeUhDMZtGlr4WYYijeVPTwh4YZh31xWGkOAIcAj0Pz0bHeG8n7igtUTEHKQNtFYajEEjGyImk1YDzWbni1hFG96AsWyMQRaAYEW0sRboWesSnLpS4Eh9F9G8cZeJoZA20WgxWzibRcC1jKGAEOAIdB+EWh+TVwRjTeGR7dfhFjLGQIMAYZAG0aAaeJteHBY0xgCDAGGgC4EmBDXhRC7zxBgCDAE2jACTIi34cFhTWMIMAQYAroQYEJcF0LsPkOAIcAQaMMIMCHehgenRZom9cHgJa/DwYK9Ci2CN6uEIWBgBNgv18CAtrfijD384E4xxSuIAIIlhgBDoP0hwIR4+xszA7ZYSfpglBpPEQyZEDcgsKwohkCLIdD8fuIUJc87+HXM8XfFI10p6BSxyqTFR+CzFV8jNp9idAg98e4v76PnljmY/dPflR13fuM7bPa+gDnPf0bBpbrUX4bqKY6lPnKphOjQLsM75Fl4UCRE3EjAqqCF2JPdC9OWvopxHvawNpfQdaJWi/wWq9afQJo6dKzEHbOXzcMsL3sIC2WIOHgNblOccXx2ENYnc8G6qLlO/ngzdBZGulpRrHM5kmL3YdWyrUQSUVUICgUm6GpE4VXuFqKoMcMp9cLg4MEoOBIHie9zcLKVoDzjV0R+tAdyXuAKYBYYioGCCBzedV4ZXIqCWT2+cCzu7lqDyzI79Fk4HtLcInSj8LL3EnbhYtmT8PTqjuLwtTi4P5nKcCDSByKOkBmj78JP0MfBjOKrnMPJz7/EP3kaWjojBx/0nzgGDg7dISIi6rT9G3HqyBWtgFZi2Mx+E73lP+PPoifwxGhPSCUlyPv/9s4/KKrriuNfh2U3wkoRHBUEhUVXWvFHBDtlpbKxgoma8VcmkaTGH53BMSOZMZJU82OIbSemFmJrnOlgO4GYqDFiJVVoo6aCUbZGNpMIjogCKvgDw4LKD92F1J677+0PDS4bhmVW9tw/FN++d989n7ued965l/MtzsW/C8/0xnq+hgkwATcJ9EMkrsQwqt9Rsn0z1qxYhrSMragMm4N3sxZKkmWWb/G54TZiU6dTeVqbAr0GT+vCcLWsVK4O2EMfzsaqYrE8PYIKaK1Asn4Jlm0qxlXhpJUhCLFUIH/TWyQBJ6TVSqFM3YB30mLkqwNJEu5NZMSZkJuZjrQ3iqDSz0S0s5pDqB7vbl2D+KYCrCdbFq0StjyDTW+nPiC/pkCKbgPJr72IuYN7h1gxkdIcuumYtmAaOulBUW4wIUj3AhISHpPHG4mxc5IQor7jcKaxejyeEA5FMxX81egwNXkKhqES1Q0BiF64EuPajuFsfTCiEn8qVc21ij4oERKvR3BVMY5/fAJmzXw8tTIJ9PyxNlViBpb88SWMbvsvTuX9FSeFw89Yh4ka2xl0ElUqHD9rOiLnrMTM5MdQf0SM9xK+95c74b+YABPwGIF+iMQb8c/3NjsZcBnZu1Mxb90kTFT+AyWWTqpw+BVM2TPwRNin2HWNCpZq9UgM+w4nDtmiuJ76cOZjwYlt2dhXKYkkV5celT8sw/sbyxwnXtqBfP1s5OgmQ/3hBbSpE/A0CSmXb9uKXQbxRnAeOfk66N8eYb8met4SJLZ9gfSN+1Fhjd4v40/bEpCcnQLdkMM40NpXKQlJ9EHV/DWKf5eNS+3Ub+Bg/GzBOMf4e1DuUSXEIrj+CIryjkKRnoaus4dwbO9x/OSVdNztbLGW+BWiDyOUN3DmvTdw1HibjhzH/3RzsTgiFgE4htbhszD7lZloy1uLz4ovSvcuVyAm+TVEkAbnN7VylUlRqTCkE3dL81Gw/Wv5oVIEqvvIjQkwAQ8T6Acn7o8oqrudmT4D8WGhUNkiW7MRQwaJyPseLCScazRtRop+FHZRSmV8ahLCrxnleuOCQM992DmZG1BZeacbbCMoJfMS1f9+HFHhQxxyaRVKqwRcW7gQqmjB6WpHyajbFy/DZLY5cSEAQemEqPH4sGzBA/3XIjSEbLEXaexCUenrKOpmFO4dkkQfTKWFkgMXF2nGUmLqCi7I6jiuy9EqEC1EH07vIYuCMSFmJG5UGNFBknixGjVajtRYmY4k0QfUHES51YFLTemvRFd7I4RcR8iC56BRtuCC5ilK7UiKFwoMpzerm6gnRSBbsyr3NBuwP09O69g/4R+YABPwNAHPO3HtUmzKSkHr7myk5RtIn9ICkbsuody1vVnO4oChCe+LlMo+BWbrKZVSkm2vNw53+nB0BiFr+WALX/QqctKG4sDGTKwpOQ+TRQFd1k7kRD14put/m43bkLJqX+/y3K67dnwqiz405F2wHwuiyDqgUdbHJAc8nCTV/OoPOpR7AoW4Qxeuk1q9SG+MEaIPueLnaZLow8dXSfThCSfRhzFSPtxgdDx76LqoGBWaS89RpB6BqEmj0V7zBVraSXpNluewkOVnC79EnahFbm2BCKMHRldVIa7z4qi7M8znMYE+I+BxJ67SjkUU5aKz/vYlLpql6C1KSxHtfW6wE6dFSmXeDMyOD0AypVKOHhILb1Jzrw9XTCiSFzJqlXuwlfqVFhrViHaOyK/W4JolGNHaIEAWowiKGo1Qe05ciCKT4k3aRCSo96NEqN27aGr/oQhVdsHU/uMXNl1H2SJlMwIjaRHyFulp2mQzVIl6jFFewfEqeh2ITECEs+iD5Vz3og+RKrQXChUfqSkS5kIztBanDhN7/wkIUnfiVtFenNhb93BLxQNDKPfsZOWeh0PiT5iA5wj0btXtR4znnsC5xg8AAATDSURBVEhJKDVInBpqvUqtXYiMedof9GAhtR+DKRrPbJiD8IsGHKp2iHm528cPOrUfkGXZxsRT3l14ZXLq81YjLc62SEiH2spxoOw27UZ5Gc/HU5Qal4p1y6fep1Jfd/ATGPALvP5OOlLjRpPU3GToF/2G3jSehda+KCtuqkCy7lWSX+vNwqZNBLkCDSIXLppVQo2ibFkEGfSACFKrSH4t0LoA6Re7AKkrkqCSlXtUlN4Irqdtg1YRZIrgGyruE0EWEbNVBJmuDaFzrX1oUugNIwl3D+ejooEeUJ038B0p3g9PTsGwQHnBOTASYbNSMWqobQGaLpSVey6xco80V/wnE+hnAh6PxC2VHyFr+2hyfB+g1GxBq6kKBQdPkrN8YOsCpVQ+p5TKYpJYO5df6kilEBC3+3ABr273n5Gj/S0ydhUgw9wGU3UJCkquYlW47aJ2HN30B2ynLYartuYjw7rF8D+ooy2GciYBMJVg/ctK2mL4PDJznyMn2I6maxdgPLCH5N/6qlE+PDYUzYYK+22tEmoUZZ86LeeuOxtwscqEKSm/x+pEUpivPYaGFjPaaoWSPS08uimC7FdThqZJb2L1Xho7Rd03Dm9BYe5JeWGyEVV5OzDurWX4dcF8mCkN5kdp8Q7axVLsVFlYUrKvxnVy+NyYABPofwKel2e79ej+51YmZuJg9kjkPvka9rW6Tp/0/9T5I0ATQ/u2G9DS0Kud6NKQKaofEkOLt421aG3pZjGBct4BmkgEUGqoo74GHba3g/43mO/IBJhANwQ8Hol3c0+vPaSK02Nx+C2UGc+jiVJAK5f/Eirj31HSZ1sH+9L0TorAHTnxXvdM2w1bq1pcXN7eN/dxcQf+iAkwgd4TYCfuxO6eSgP9mrnIoN8sVVFios74L6zfWESpkkf3baL3Xw2+kgkwgUeBAKdTHoVZ4jEyASbABB5CwOO7Ux5yXz7MBJgAE2ACfUDAZSTeB/1zF0yACTABJuBBAhyJexAud80EmAAT8DQBduKeJsz9MwEmwAQ8SKBHJz7lhSac3eePY38ZhLVap/KjHhwUd80EmAATYALuEejRiX+zcxgmL23HRzfb8OKzflTxjxsTYAJMgAl4C4EenbgYqKVDiVPVdzAoGPSr5k51M7zFCh4HE2ACTMBHCbjlxAUbqfAo/9KLj35P2GwmwAS8lID7TrxDqh3irFbmpTbxsJgAE2ACPkPAbSd+5co9mEcB8+NIrtJn8LChTIAJMAHvJuC2Ezd/FYItZ1qwfKMfvt2hwq+UnBv37qnl0TEBJuALBNwugBX082asnRCB/KwubKnsctS69gVKbCMTYAJMwEsJuB2JDxs1CKorwGeVDo0EL7WJh8UEmAAT8BkCbjtxVYB0qk0e12cIsaFMgAkwAS8m4L4TtxrBeXAvnkseGhNgAj5IwD0n7m/BNO1g3LsJNLFAgg9+TdhkJsAEvJVAj07cWjvlk0AsDVZjx6ffo9VbLeFxMQEmwAR8kADXE/fBSWeTmQATGDgEeozEB46pbAkTYAJMYOARYCc+8OaULWICTMCHCLAT96HJZlOZABMYeATYiQ+8OWWLmAAT8CEC7MR9aLLZVCbABAYeAXbiA29O2SImwAR8iMD/AZMbQU3xLOKLAAAAAElFTkSuQmCC;" vertex="1" parent="1">
          <mxGeometry x="-40" y="850" width="369" height="482" as="geometry" />
        </mxCell>
      </root>
    </mxGraphModel>
  </diagram>
</mxfile>
